<?xml version="1.0" encoding="UTF-8"?><svg id="b" xmlns="http://www.w3.org/2000/svg" width="252.92" height="317.652" viewBox="0 0 252.92 317.652"><defs><style>.d{fill:#3d8dcc;}.e{fill:#fff;}.f{fill:none;}.g{fill:#211715;}.h{fill:#f2635f;}.i{fill:#645d5c;}</style></defs><g id="c"><path class="e" d="M141.067,219.564c-.02.065-.04.13-.061.195-.9,2.88-1.81,5.73-2.73,8.54-1.2,3.7-2.23,6.87-3.18,9.75-3.37,10.26-5.69,16.78-11.01,29.95l-2.778,1.136c-7.187-17.735-9.036-23.589-14.654-40.841-7.582-23.285-14.628-48.893-20.021-72.84-3.6,2.306-8.587,5.914-13.023,9.854l-2.811,1.104c-13.454,5.648-29.717,9.218-39.669,20.662-9.545,10.976-14.128,26.788-18.484,40.391-4.843,15.128-8.356,30.725-9.93,46.544-1.36,13.666,1.368,27.316,13.502,35.044,6.423,4.09,14.09,5.969,21.701,6.208,4.918.154,9.598-.404,14.117-1.527,26.44-.006,183.389-.006,183.389-.006.022-22.508-.323-39.807-1.95-62.25-1.359-18.747-3.6-39.46-14.18-55.55-7.149-10.88-20.658-18.265-35.769-24.938l-.772-.339c-2.389-1.048-4.816-2.08-7.262-3.107l-3.008-1.181c-4.703-4.345-10.262-8.397-14.179-10.904-3.99,17.7-8.88,36.32-14.23,54.23-.4,1.36-.81,2.7-1.22,4.04-.59,1.964-1.19,3.9-1.789,5.835Z"/><path class="e" d="M170.894,81.767c1.573-1.511,3.691-2.079,5.504-2.015,3.946.139,5.624,2.273,6.347,3.526,2.157,3.74,2.065,10.632.618,14.896-1.025,3.02-2.705,7.639-6.753,10.952-1.668,1.365-4.124,2.264-6.471,1.868,0,0-.226-.038-.621-.105-.745,2.461-1.665,4.872-2.227,6.043-1.743,4.73-11.84,22.019-24.308,27.213,0,1.636,0,3.274,0,4.912-5.923,4.674-17.645,13.895-18.783,14.702h-3.466c-1.116-.791-12.417-9.679-18.438-14.429-.002-1.048-.003-3.252-.005-4.911-6.093-2.406-11.457-6.735-16.533-12.811-5.832-6.98-9.153-14.499-10.986-20.727-2.502.643-5.208-.287-7.002-1.755-4.049-3.313-5.728-7.932-6.753-10.952-1.448-4.264-1.539-11.156.618-14.896.723-1.253,2.401-3.387,6.347-3.526,1.813-.064,3.932.504,5.504,2.015,0,0-9.432-47.202,47.401-47.202s50.008,47.202,50.008,47.202Z"/><path class="g" d="M99.895,146.117v3.831c0,.615.268,1.262.703,1.697.416.416,1.099.73,1.697.703.621-.028,1.264-.232,1.697-.703s.703-1.047.703-1.697v-3.831c0-.615-.268-1.262-.703-1.697-.416-.416-1.099-.73-1.697-.703-.621.028-1.264.232-1.697.703s-.703,1.047-.703,1.697h0Z"/><path class="g" d="M140.583,145.884c0,1.319,0,2.638,0,3.958,0,.615.268,1.262.703,1.697.416.416,1.099.73,1.697.703.621-.028,1.264-.232,1.697-.703s.703-1.047.703-1.697v-.22c0-.615-.268-1.262-.703-1.697-.416-.416-1.099-.73-1.697-.703-.621.028-1.264.232-1.697.703s-.703,1.047-.703,1.697v.22c0,.615.268,1.262.703,1.697.416.416,1.099.73,1.697.703.621-.028,1.264-.232,1.697-.703s.703-1.047.703-1.697c0-1.319,0-2.638,0-3.958,0-.615-.268-1.262-.703-1.697-.416-.416-1.099-.73-1.697-.703-.621.028-1.264.232-1.697.703s-.703,1.047-.703,1.697h0Z"/><path class="i" d="M64.755,41.054c-.928,2.673-1.653,5.415-2.161,8.196-1.956,10.695-.558,21.403,2.618,31.016.768-.285,1.683-.475,2.769-.513,1.462-.052,3.124.308,4.537,1.242,9.467-3.307,16.523-7.22,20.951-10.136.191-.126.38-.251.567-.376,3.482,1.728,7.028,3.478,7.028,3.478,0,0,13.563-2.396,23.296-8.285,6.482-3.922,11.409-8.556,15.694-15.722,3.944,8.794,6.341,13.568,11.486,18.901,4.311,4.469,10.879,8.385,16.599,10.097l4.837,1.448c1.126-.494,2.33-.684,3.422-.646,1.049.037,1.937.215,2.69.48,6.455-17.213,3.965-40.528-9.825-53.745-.976-.936-1.989-1.832-3.025-2.701l-7.778-6.914C136.99-6.806,94.676.766,75.178,23.039c-4.598,5.252-8.132,11.42-10.423,18.015Z"/><path class="f" d="M154.538,13.682c-8.972-5.866-19.394-9.546-32.489-9.546-13.737,0-25.401,4.142-34.735,11.084-10.838,8.06-23.112,22.418-24.094,45.657-.235,5.554.473,11.919,2.152,18.376"/><path class="f" d="M178.764,79.252c1.679-6.797,2.388-12.023,2.119-18.376-.828-19.585-9.342-32.863-18.768-41.378"/><path class="g" d="M160.158,15.175C147.149.941,126.718-2.415,108.515,1.54c-9.08,1.973-17.915,5.762-25.457,11.21-8.807,6.362-15.515,14.907-19.608,24.984-5.59,13.761-5.139,29.079-.588,43.061.952,2.925,5.588,1.673,4.629-1.276-3.861-11.864-4.692-24.574-.845-36.557,3.111-9.69,9.012-18.26,16.94-24.628,13.135-10.55,31.737-15.727,48.378-12.869,9.503,1.632,18.259,5.946,24.801,13.104,2.088,2.285,5.476-1.117,3.394-3.394h0Z"/><path class="g" d="M181.863,79.589c5.092-14.989,3.994-33.006-4.376-46.638-2.561-4.171-5.82-7.715-9.55-10.862-.99-.835-2.423-.971-3.394,0-.858.858-.995,2.554,0,3.394,3.05,2.573,5.832,5.366,8.043,8.702,2.01,3.034,3.603,6.323,4.77,9.768,2.424,7.159,3.171,14.789,2.478,22.303-.379,4.104-1.273,8.155-2.598,12.056-.996,2.931,3.639,4.19,4.629,1.276h0Z"/><path class="g" d="M138.564,47.746c-3.629,6.299-8.434,11.486-14.604,15.357-5.755,3.61-12.268,5.85-18.827,7.499-1.557.392-3.126.763-4.707,1.044-1.277.227-1.997,1.786-1.676,2.952.37,1.346,1.672,1.904,2.952,1.676,11.884-2.113,24.117-6.852,32.857-15.38,3.226-3.148,5.904-6.828,8.15-10.726,1.545-2.681-2.601-5.101-4.145-2.423h0Z"/><path class="g" d="M109.11,53.429c-8.631,11.18-20.784,18.919-33.842,24.005-1.207.47-2.045,1.611-1.676,2.952.317,1.152,1.738,2.149,2.952,1.676,7.574-2.95,14.783-6.641,21.404-11.369,5.908-4.219,10.88-9.107,15.307-14.842.793-1.027.156-2.689-.861-3.284-1.239-.725-2.489-.168-3.284.861h0Z"/><path class="g" d="M139.795,55.141c2.691,5.741,5.822,11.157,10.32,15.689,4.751,4.786,10.944,8.463,17.385,10.436,2.96.907,4.226-3.725,1.276-4.629-5.787-1.773-11.323-5.134-15.54-9.48-4.069-4.194-6.834-9.183-9.297-14.439-.55-1.174-2.237-1.473-3.284-.861-1.203.703-1.413,2.106-.861,3.284h0Z"/><path class="g" d="M114.018,122.832c2.967,1.567,6.162,2.223,9.516,2.201,3.41-.022,6.856-.693,9.587-2.82,1.023-.797.837-2.557,0-3.394-1.01-1.01-2.368-.799-3.394,0,.723-.563.144-.12-.042,0-.192.123-.389.237-.591.342-.161.084-.88.373-.237.134-.271.101-.539.208-.815.296-.743.239-1.51.408-2.281.521.344-.05-.114.009-.239.022-.224.022-.448.041-.672.055-.54.035-1.081.049-1.622.045-.484-.003-.969-.019-1.452-.052-.222-.015-.444-.033-.665-.055-.01-.001-.799-.109-.343-.038-.72-.113-1.433-.264-2.131-.473-.299-.089-.59-.196-.884-.297-.086-.03-.21-.06-.285-.111.484.328.252.113.057.021-.366-.172-.726-.352-1.083-.541-1.146-.605-2.61-.291-3.284.861-.634,1.084-.289,2.676.861,3.284h0Z"/><path class="g" d="M122.352,100.365c.417,1.589.817,3.203,1.056,4.83l-.086-.638c.028.223.041.443.018.667l.086-.638c-.016.104-.038.201-.073.3l.242-.573c-.031.07-.063.129-.106.193l.375-.486c-.05.06-.097.107-.158.156l.486-.375c-.122.078-.251.142-.382.202l.573-.242c-.211.088-.419.152-.645.188l.638-.086c-.203.024-.402.023-.605-.001l.638.086c-.228-.032-.452-.087-.68-.118-.67-.09-1.239-.115-1.849.242-.498.291-.973.862-1.103,1.434-.14.614-.11,1.304.242,1.849.312.484.835,1.022,1.434,1.103.513.069,1.01.2,1.531.223.796.035,1.537-.208,2.248-.533.877-.401,1.561-1.185,1.794-2.13.197-.799.112-1.502-.023-2.303-.263-1.556-.622-3.098-1.023-4.624-.318-1.214-1.729-2.072-2.952-1.676-1.25.404-2.018,1.651-1.676,2.952h0Z"/><path class="g" d="M96.641,86.708c-.807,2.621-.281,8.65,4.684,9.163,6.563-.039,6.912-7.329,4.703-10.756-1.809-2.806-7.127-3.973-9.387,1.593Z"/><path class="g" d="M149.397,86.708c.807,2.621.281,8.65-4.684,9.163-6.563-.04-6.912-7.329-4.703-10.756,1.809-2.806,7.127-3.973,9.387,1.593Z"/><path class="g" d="M75.182,80.07c-3.208-2.902-7.896-3.513-11.791-1.627-2.84,1.375-4.482,4.192-5.204,7.168-1.698,6.99.064,14.94,4.045,20.877,2.928,4.366,7.172,7.568,12.646,6.82,1.286-.176,1.987-1.822,1.676-2.952-.381-1.386-1.663-1.852-2.952-1.676-3.836.524-6.799-3.584-8.356-6.508-1.506-2.83-2.589-6.023-2.816-9.229-.126-1.784-.114-3.621.236-5.38.242-1.216.814-2.868,1.364-3.6-.154.205.331-.365.389-.427.289-.312.254-.271.502-.443.636-.442,1.321-.701,2.087-.842,1.697-.312,3.48.04,4.778,1.214,2.286,2.068,5.691-1.316,3.394-3.394h0Z"/><path class="g" d="M172.591,83.464c2.298-2.079,6.124-1.568,7.819.577-.327-.413.126.221.178.306.184.303.359.622.494.95.295.715.478,1.507.629,2.266.35,1.759.362,3.596.236,5.38-.223,3.151-1.275,6.28-2.734,9.072-1.553,2.973-4.542,7.198-8.438,6.666-1.283-.175-2.577.309-2.952,1.676-.308,1.12.384,2.776,1.676,2.952,8.844,1.208,13.98-7.509,16.273-14.791,1.158-3.678,1.297-7.747.69-11.536-.494-3.086-1.775-6.013-4.362-7.877-3.858-2.779-9.474-2.138-12.905.966-2.296,2.077,1.107,5.463,3.394,3.394h0Z"/><path class="g" d="M168.123,106.676c-.728,3.55-2.081,6.972-3.322,10.072.285-.71-.192.415-.312.667-.228.479-.467.952-.714,1.422-.609,1.162-1.263,2.302-1.946,3.422-3.536,5.807-7.851,11.302-13.14,15.613-2.875,2.343-6.123,4.21-9.714,5.039-3.009.694-1.735,5.323,1.276,4.629,7.412-1.71,13.572-7.141,18.402-12.77,3.994-4.655,7.732-9.899,10.253-15.52.164-.365.321-.734.472-1.103.063-.153.346-.819.073-.187.419-.968.831-1.936,1.199-2.925.859-2.306,1.607-4.67,2.101-7.082.26-1.269-.368-2.593-1.676-2.952-1.187-.326-2.691.401-2.952,1.676h0Z"/><path class="g" d="M71.488,107.779c1.627,7.183,4.547,14.142,8.634,20.275,4.395,6.595,10.17,12.762,17.154,16.639,3.57,1.982,7.468,3.324,11.507,3.92,1.281.189,2.579-.319,2.952-1.676.311-1.131-.386-2.762-1.676-2.952-14.462-2.134-25.277-14.671-30.761-27.521-1.369-3.207-2.411-6.561-3.181-9.96-.682-3.011-5.311-1.737-4.629,1.276h0Z"/><path class="e" d="M121.308,269.135c-7.187-17.735-9.036-23.589-14.654-40.841-6.943-21.322-13.436-44.591-18.622-66.746h1.749c-.744-2.006.218-4.788,1.526-6.303,2.222-2.574,5.022-6.296,7.293-8.837.965.781,20.641,16.295,22.133,17.353h3.466c1.492-1.057,21.168-16.571,22.133-17.353,2.271,2.541,5.071,6.264,7.293,8.837,1.308,1.515,2.27,4.297,1.526,6.303h1.754c-3.712,15.847-8.091,32.273-12.831,48.141-.4,1.36-.81,2.7-1.22,4.05-.61,2.02-1.23,4.02-1.85,6.02-.9,2.88-1.81,5.73-2.73,8.54-1.2,3.7-2.23,6.87-3.18,9.75-3.37,10.26-5.69,16.78-11.01,29.95"/><path class="d" d="M125.459,165.233c2.399,2.895,5.657,7.224,8.369,10.886l-.651,2.349c-.882,1.837-1.124,3.664-1.623,5.277-.623,1.988-1.246,4.033-1.282,6.115-.019,1.136,3.259,23.849,6.138,44.178-.459,1.408-.895,2.738-1.315,4.011-3.37,10.26-5.69,16.78-11.01,29.95h-3.237c-6.077-15.045-8.236-21.417-12.536-34.611,2.181-18.982,5.33-43.227,5.33-43.907,0-1.164-.265-2.315-.529-3.453-.132-.516-.251-1.032-.357-1.548-.569-2.567-.714-3.871-1.335-6.6-.029-.129-.217-.694-.498-1.515,3.254-4.398,7.357-9.846,9.81-12.605h3.466c.383.43.805.926,1.258,1.473Z"/><path class="g" d="M86.484,292.375c-14.102,10.392-29.698,20.851-47.936,20.502-8.663-.166-17.992-2.552-24.548-8.499-5.591-5.071-8.353-12.261-9.008-19.671-.801-9.066.855-18.395,2.509-27.28,1.871-10.054,4.469-19.952,7.579-29.691,2.644-8.279,5.154-16.656,8.817-24.556,3.455-7.452,7.941-14.76,14.65-19.705,6.521-4.806,14.158-7.716,21.702-10.484,5.647-2.072,11.234-4.281,16.832-6.48l1.883-.74c1.206-.474,2.046-1.608,1.676-2.952-.316-1.149-1.739-2.153-2.952-1.676-4.636,1.821-9.248,3.721-13.916,5.456-8.001,2.975-16.225,5.675-23.599,10.057-3.642,2.164-7.095,4.766-9.981,7.879-3.096,3.339-5.683,7.17-7.879,11.15-4.435,8.039-7.401,16.81-10.19,25.526-3.122,9.755-6.056,19.536-8.18,29.564-1.12,5.287-2.043,10.613-2.766,15.968-.632,4.683-1.231,9.4-1.173,14.134.101,8.246,2.072,16.597,7.205,23.202,5.685,7.314,14.631,11.438,23.627,12.889,9.243,1.491,18.674.523,27.48-2.628,8.888-3.181,16.978-8.147,24.673-13.547,1.991-1.397,3.96-2.827,5.918-4.27,1.042-.768,1.565-2.081.861-3.284-.601-1.028-2.234-1.634-3.284-.861h0Z"/><path class="g" d="M167.329,166.903c7.804,3.065,15.557,6.226,23.094,9.913,9.851,4.819,20.341,10.71,26.608,20.034,6.765,10.064,10.002,22.047,11.87,33.902,1.982,12.577,2.617,25.408,3.237,38.111.73,14.945.901,29.906.889,44.866-.003,3.089,4.797,3.094,4.8,0,.012-13.692-.122-27.384-.713-41.064-.572-13.231-1.278-26.54-3.068-39.67-1.693-12.421-4.721-24.942-11.151-35.829-6.038-10.223-15.738-17.051-26.077-22.483-9.106-4.784-18.649-8.652-28.212-12.408-1.207-.474-2.635.52-2.952,1.676-.374,1.361.465,2.477,1.676,2.952h0Z"/><path class="f" d="M117.078,276.321c0-2.625,1.443-5.353,5.481-5.353,3.769.118,5.297,2.796,5.297,5.79,0,2.187-1.456,5.252-5.579,5.252-4.056,0-5.199-3.407-5.199-5.689Z"/><path class="f" d="M117.078,306.144c0-2.625,1.443-5.353,5.481-5.353,3.769.118,5.297,2.796,5.297,5.79,0,2.187-1.456,5.252-5.579,5.252-4.056,0-5.199-3.407-5.199-5.689Z"/><path class="f" d="M48.277,255.537c3.504-.076,6.969-1.398,9.631-3.677"/><path class="g" d="M114.399,189.882c5.128-.002,10.256-.107,15.384-.109,1.255,0,2.458-1.104,2.4-2.4s-1.055-2.401-2.4-2.4c-5.128.002-10.256.107-15.384.109-1.255,0-2.458,1.104-2.4,2.4s1.055,2.4,2.4,2.4h0Z"/><path class="g" d="M109.108,178.518c.487,2.04.807,4.109,1.239,6.16.335,1.591.964,3.256.891,4.898-.064,1.446-.338,2.91-.516,4.345-.887,7.181-1.793,14.36-2.672,21.542-.62,5.061-1.23,10.123-1.821,15.188-.151,1.29,1.211,2.4,2.4,2.4,1.422,0,2.249-1.107,2.4-2.4,1.02-8.739,2.095-17.472,3.182-26.203.609-4.89,1.496-9.833,1.815-14.753.115-1.77-.447-3.564-.83-5.272-.535-2.385-.893-4.803-1.46-7.18-.717-3.003-5.346-1.732-4.629,1.276h0Z"/><path class="e" d="M151.886,251.529c1.45-2.52,2.88-5.06,4.32-7.61,8.78-15.59,17.5-31.52,25.25-46.67.26-.52.49-1.09.47-1.68-.03-.72-.38-1.4-.85-1.91-3.28-3.57-6.86-6.99-10.38-10.28,3.11-1.78,6.23-3.56,9.34-5.33.35-.2.72-.44.82-.83.09-.35-.07-.7-.22-1.02-3.47-7.14-15.44-16.33-22.33-20.74-3.99,17.7-8.88,36.32-14.23,54.23-.4,1.36-.81,2.7-1.22,4.04v.01c-.61,2.02-1.23,4.02-1.85,6.02-.9,2.88-1.81,5.73-2.73,8.54-1.2,3.7-2.23,6.87-3.18,9.75-3.37,10.26-5.69,16.78-11.01,29.95"/><path class="g" d="M138.213,229.792c-1.203-8.475-2.415-16.949-3.609-25.426-.447-3.177-.893-6.355-1.325-9.534-.022-.163-.107-.789-.093-.686.018.135-.065-.49-.08-.604-.061-.463-.122-.925-.181-1.388-.08-.627-.178-1.258-.224-1.889-.099-1.34.231-2.664.587-3.947.6-2.165,1.032-4.593,1.961-6.638.536-1.179.338-2.583-.861-3.284-1.03-.603-2.745-.325-3.284.861-.923,2.031-1.353,4.157-1.998,6.278-.616,2.023-1.292,4.215-1.234,6.356.035,1.326.304,2.676.478,3.987.95,7.138,1.975,14.265,2.988,21.394.748,5.266,1.498,10.531,2.246,15.797.182,1.285,1.817,1.988,2.952,1.676,1.381-.379,1.859-1.664,1.676-2.952h0Z"/><path class="e" d="M103.56,269.899c-13.423-23.264-27.944-48.924-40.076-72.646-.268-.524-.498-1.097-.476-1.689.027-.711.378-1.391.851-1.907,3.277-3.566,6.864-6.987,10.378-10.281-3.113-1.777-6.226-3.554-9.339-5.331-.345-.197-.722-.435-.821-.831-.086-.345.071-.7.226-1.019,3.463-7.14,15.439-16.327,22.331-20.741,5.393,23.947,12.439,49.555,20.021,72.84,5.618,17.252,7.467,23.106,14.654,40.841"/><path class="g" d="M153.958,252.74c5.511-9.589,10.878-19.264,16.17-28.975,2.615-4.799,5.203-9.613,7.754-14.447,1.214-2.301,2.42-4.606,3.617-6.917,1.148-2.217,3.162-4.899,2.743-7.508-.238-1.485-1.108-2.551-2.108-3.621-1.021-1.092-2.062-2.165-3.117-3.223-2.163-2.169-4.387-4.276-6.624-6.368l-.486,3.769c2.263-1.295,4.528-2.589,6.794-3.88,2.06-1.174,5.146-2.376,4.486-5.339-.352-1.579-1.499-3.131-2.446-4.41-1.117-1.509-2.332-2.937-3.629-4.294-5.179-5.418-11.298-10.096-17.594-14.141-1.265-.813-3.193-.04-3.526,1.434-3.693,16.358-7.912,32.598-12.599,48.699-4.122,14.158-8.628,28.486-13.6,42.771-2.471,7.1-5.207,14.101-8.021,21.071-.485,1.202.529,2.637,1.676,2.952,1.371.377,2.465-.469,2.952-1.676,4.977-12.33,9.356-24.811,13.461-37.454,5.175-15.938,9.774-31.38,14.092-47.816,2.378-9.051,4.606-18.141,6.666-27.27l-3.526,1.434c4.247,2.729,8.306,5.768,12.103,9.094,1.999,1.751,3.932,3.588,5.701,5.574.726.815,1.428,1.651,2.059,2.544.338.479.661.969.96,1.473.141.237.277.477.406.721l.124.238c.154.3.157.314.01.045l.328-1.211c.39-.243.404-.253.041-.031l-.424.241c-.423.244-.849.483-1.273.725-.849.484-1.699.968-2.548,1.453-1.699.969-3.397,1.94-5.095,2.911-1.308.748-1.613,2.715-.486,3.769,1.834,1.715,3.659,3.44,5.449,5.201.899.885,1.79,1.778,2.668,2.683.383.395.764.792,1.142,1.192.306.324,1.002.86,1.169,1.279.252.629-.593,1.68-.892,2.261-.571,1.111-1.145,2.22-1.721,3.329-1.165,2.244-2.34,4.483-3.522,6.718-4.843,9.156-9.813,18.245-14.857,27.292-2.848,5.109-5.707,10.214-8.621,15.286-1.542,2.683,2.604,5.103,4.145,2.423h0Z"/><path class="g" d="M144.636,148.105c1.316,1.484,2.558,3.029,3.8,4.575,1.152,1.434,2.435,2.812,3.518,4.295.45.617.763,1.315.938,2.056.065.277.11.525.119.81.005.159-.14,1.021.044.547-.195.502-.56.984-.838,1.441-2.657,4.367-5.589,8.627-8.853,12.562-1.039,1.253-2.118,2.475-3.272,3.623-.497.495-1.009.976-1.542,1.432-.631.54-.55.479-1.255.94l3.284.861c-4.817-6.431-9.353-13.156-14.681-19.184l-.486,3.769c2.796-2,5.458-4.217,8.162-6.338,3.823-2.998,7.64-6.003,11.454-9.013,1.002-.791,2.009-1.575,3.003-2.377,1.01-.815.848-2.546,0-3.394-.998-.998-2.382-.817-3.394,0-6.197,5-12.5,9.878-18.781,14.773-.384.299-.768.598-1.153.897-.168.13-.336.26-.504.39-.313.243.392-.3-.068.052-.379.29-.754.587-1.143.865-1.304.933-1.578,2.533-.486,3.769,5.058,5.722,9.357,12.107,13.93,18.212.746.996,2.099,1.636,3.284.861,5.166-3.377,9-8.955,12.478-13.934,1.449-2.074,2.851-4.184,4.166-6.345.352-.578.721-1.154.985-1.779.857-2.028.436-4.396-.41-6.351-.931-2.15-2.708-3.859-4.164-5.665-1.558-1.934-3.094-3.888-4.742-5.746-2.054-2.316-5.438,1.089-3.394,3.394Z"/><path class="g" d="M96.904,144.71c-1.459,1.645-2.828,3.365-4.205,5.079-1.302,1.62-2.813,3.171-3.958,4.906-1.784,2.704-2.178,6.167-.516,8.977,2.869,4.853,6.175,9.52,9.754,13.872,2.122,2.58,4.423,5.144,7.239,6.986,1.173.767,2.538.134,3.284-.861,4.573-6.105,8.872-12.49,13.93-18.212,1.093-1.236.818-2.837-.486-3.769-.306-.219-.602-.45-.901-.679-.115-.088-.23-.177-.346-.266-.297-.228.409.318-.025-.019-.332-.258-.665-.516-.997-.774-1.745-1.357-3.484-2.721-5.223-4.085-3.747-2.939-7.49-5.885-11.228-8.836-.977-.771-1.96-1.537-2.929-2.318-1.008-.813-2.409-.985-3.394,0-.841.841-1.014,2.576,0,3.394,6.272,5.061,12.652,9.999,19.01,14.951,1.196.931,2.375,1.894,3.609,2.776l-.486-3.769c-5.328,6.027-9.863,12.753-14.681,19.184l3.284-.861c-.213-.139-.421-.283-.627-.431-.217-.155-.011,0,.027.029-.126-.097-.25-.198-.373-.3-.494-.411-.971-.842-1.434-1.288-1.008-.97-1.955-2.004-2.867-3.064-1.865-2.167-3.58-4.455-5.225-6.792-1.406-1.999-2.765-4.033-4.053-6.11-.363-.585-.723-1.173-1.061-1.773-.044-.078-.098-.158-.132-.241.108.266.032.048.031-.219-.002-.685.102-1.35.361-1.991.733-1.816,2.461-3.349,3.672-4.856,1.422-1.769,2.833-3.547,4.34-5.246,2.043-2.304-1.34-5.711-3.394-3.394Z"/><path class="g" d="M105.632,268.688c-12.987-22.511-25.823-45.126-37.787-68.202-.42-.809-.838-1.619-1.255-2.429-.322-.626-1.089-1.581-1.138-2.26-.032-.441.261-.612.583-.958.588-.632,1.184-1.258,1.785-1.877,2.627-2.708,5.364-5.307,8.115-7.887,1.125-1.055.825-3.021-.486-3.769-1.698-.969-3.396-1.938-5.094-2.908-.849-.485-1.698-.969-2.547-1.454-.354-.202-.708-.404-1.061-.606-.212-.121-.425-.242-.637-.363-.36-.22-.347-.209.04.03l.328,1.211c-.121.232-.135.256-.044.074.059-.12.119-.238.182-.356.129-.244.265-.484.405-.721.273-.461.567-.909.873-1.349.622-.891,1.312-1.726,2.031-2.54,1.799-2.034,3.772-3.912,5.813-5.701,3.797-3.328,7.86-6.366,12.107-9.097l-3.526-1.434c3.713,16.461,7.963,32.802,12.681,49.004,4.205,14.438,8.737,28.814,13.704,43.009,2.554,7.301,5.387,14.499,8.29,21.667.486,1.201,1.599,2.048,2.952,1.676,1.139-.313,2.166-1.744,1.676-2.952-5.015-12.384-9.465-24.903-13.6-37.605-5.206-15.989-10.012-32.095-14.293-48.358-2.422-9.199-4.688-18.439-6.781-27.718-.333-1.474-2.261-2.248-3.526-1.434-6.296,4.048-12.418,8.724-17.598,14.143-1.297,1.357-2.511,2.785-3.628,4.294-.946,1.278-2.096,2.834-2.447,4.411-.661,2.964,2.423,4.165,4.485,5.342,2.264,1.292,4.528,2.585,6.792,3.877l-.486-3.769c-2.522,2.365-5.031,4.745-7.455,7.212-2.311,2.352-5.489,4.924-4.106,8.599.547,1.455,1.379,2.824,2.092,4.203.807,1.561,1.618,3.12,2.433,4.677,1.546,2.953,3.107,5.899,4.68,8.838,6.493,12.132,13.188,24.155,19.978,36.123,3.749,6.608,7.53,13.199,11.326,19.78,1.543,2.675,5.693.261,4.145-2.423h0Z"/><path class="g" d="M201.138,237.781h-34.659c-1.297,0-2.4,1.1-2.4,2.4v15.385c0,1.297,1.1,2.4,2.4,2.4,11.956,0,23.912,0,35.867,0,1.297,0,2.4-1.1,2.4-2.4v-15.385c0-1.297-1.1-2.4-2.4-2.4h-1.209c-3.089,0-3.094,4.8,0,4.8h1.209l-2.4-2.4v15.385l2.4-2.4c-11.956,0-23.912,0-35.867,0l2.4,2.4v-15.385c-.8.8-1.6,1.6-2.4,2.4h34.659c3.089,0,3.094-4.8,0-4.8Z"/><path class="e" d="M81.715,236.936c4.263-6.185,8.264-12.431,11.297-19.428.945-2.179,1.844-4.474,3.572-6.105,1.727-1.63,4.577-2.363,6.492-.958.914.671,1.479,1.713,1.914,2.76,1.945,4.689,1.786,10.218-.509,14.76,9.095-5.622,18.641-12.104,27.998-17.402,3.065-1.735,6.234-3.47,9.674-2.711,4.101.904,6.967,6.277,3.223,10.196,2.49-1.487,5.181-2.664,8.045-2.226,3.042.465,5.473,3.373,4.656,6.339-.444,1.609-.983,3.285-2.383,4.195-.677.44-1.347.873-2.01,1.3-2.616.511.983-.193.983-.193,1.731-.339,3.304.044,4.387.828,1.167.844,1.902,3.08,1.597,4.488s-.752,3.14-1.887,4.026c-2.079,1.623-4.021,3.121-5.909,4.536,3.011-.449,5.069,2.484,5.086,4.363.017,1.877-.579,3.783-2.117,4.859-8.083,5.655-15.223,10.074-23.562,14.319-4.237,2.157-8.161,4.88-12.343,7.143-2.121,1.148-4.305,2.174-6.487,3.201-2.451,1.153-4.903,2.305-7.354,3.458-1.824.858-3.655,1.718-5.526,2.467-2.609,1.045-5.525.93-8.086-.228-4.891-2.213-9.412-5.221-13.37-8.841-2.897-2.65-5.493-5.628-7.714-8.863-2.385-3.476-2.312-8.079.11-11.529,1.54-2.193,3.094-4.467,4.631-6.748,1.875-2.694,3.758-5.344,5.592-8.005Z"/><path class="g" d="M74.05,243.73c-2.716,4.025-6.354,7.924-6.781,12.959-.402,4.749,2.341,8.468,5.213,11.931,2.844,3.43,6.132,6.447,9.723,9.079,1.792,1.313,3.668,2.511,5.616,3.581,2.038,1.119,4.213,2.311,6.517,2.74,5.242.977,9.885-1.821,14.464-3.975,4.677-2.199,9.446-4.271,13.934-6.843,4.393-2.518,8.683-5.139,13.164-7.505,4.254-2.246,8.41-4.671,12.467-7.254,2.327-1.481,4.621-3.011,6.893-4.575,2.317-1.595,4.302-3.114,4.871-6.034.414-2.125.149-4.183-1.151-5.953-1.422-1.936-3.665-3.2-6.115-2.947-1.289.133-2.4,1.008-2.4,2.4,0,1.194,1.103,2.534,2.4,2.4,1.205-.125,2.003.362,2.505,1.402.047.098.107.232.171.522-.084-.376,0,.411-.016.61-.052.631-.201,1.339-.586,1.861-.548.743-1.546,1.214-2.296,1.729-.899.618-1.801,1.23-2.707,1.836-1.815,1.213-3.647,2.4-5.499,3.555-3.641,2.27-7.362,4.41-11.158,6.408-3.874,2.039-7.613,4.232-11.375,6.47-3.959,2.355-8.115,4.289-12.278,6.247-2.007.944-4.012,1.894-6.023,2.83-1.853.863-3.851,2.001-5.913,2.227-3.763.411-7.551-2.211-10.566-4.16-3.17-2.049-6.071-4.469-8.69-7.186-1.444-1.499-2.812-3.082-4.044-4.761-1.188-1.618-2.252-3.245-2.344-5.313-.088-1.982.539-3.69,1.655-5.304,1.507-2.179,3.014-4.358,4.496-6.554,1.732-2.568-2.424-4.973-4.145-2.423h0Z"/><path class="g" d="M105.406,230.206c7.373-4.548,14.582-9.357,21.983-13.86,1.817-1.105,3.644-2.192,5.49-3.249,1.651-.946,3.318-1.982,5.135-2.577,3.061-1.003,6.214-.101,6.746,3.392.195,1.282,1.808,1.991,2.952,1.676,1.371-.377,1.872-1.666,1.676-2.952-.661-4.338-4.652-7.367-8.935-7.368-4.604,0-8.831,2.969-12.638,5.221-8.41,4.976-16.517,10.441-24.832,15.57-2.624,1.619-.216,5.773,2.423,4.145h0Z"/><path class="g" d="M119.653,236.721c4.866-3.076,9.767-6.098,14.678-9.103,2.35-1.438,4.701-2.873,7.051-4.311,2.317-1.418,4.595-3.004,7.041-4.191,1.772-.86,4.278-1.59,6.058-.361,1.53,1.056,1.464,2.372.916,3.974-.713,2.088-3.156,3.007-4.905,4.123-2.29,1.462-4.591,2.909-6.896,4.346-5.195,3.239-10.416,6.436-15.608,9.68-2.614,1.633-.207,5.788,2.423,4.145,5.192-3.244,10.412-6.442,15.608-9.68,2.636-1.643,5.264-3.299,7.879-4.975,1.259-.807,2.637-1.551,3.778-2.522,1.089-.926,1.734-2.186,2.229-3.503.93-2.473,1.025-5.117-.54-7.365-1.622-2.328-4.205-3.593-7.023-3.645-3.04-.056-5.908,1.267-8.454,2.807-2.72,1.645-5.42,3.324-8.133,4.981-6.195,3.786-12.388,7.575-18.524,11.455-2.604,1.646-.199,5.802,2.423,4.145h0Z"/><path class="g" d="M155.304,229.777c.938-.153,2.143.008,2.626.857.606,1.066.392,1.789.069,2.865-.443,1.477-1.56,2.103-2.744,3.018-1.318,1.02-2.644,2.03-3.98,3.027-5.368,4.009-10.937,7.706-16.734,11.064-2.672,1.548-.258,5.697,2.423,4.145,7.17-4.153,13.933-8.865,20.492-13.92,1.689-1.302,3.644-2.468,4.565-4.469.773-1.679,1.264-3.553.986-5.399-.687-4.564-4.69-6.514-8.98-5.816-1.28.208-1.993,1.799-1.676,2.952.374,1.361,1.668,1.885,2.952,1.676h0Z"/><path class="g" d="M107.544,226.888c1.562-4.364,1.614-9.358-.005-13.718-.757-2.037-1.817-4.135-3.852-5.155-2.077-1.041-4.449-.83-6.512.125-4.07,1.884-5.409,6.478-7.166,10.221-1.995,4.247-4.373,8.301-6.924,12.236-2.891,4.459-5.996,8.774-9.034,13.134-.741,1.064-.195,2.666.861,3.284,1.195.699,2.541.206,3.284-.861,4.605-6.609,9.38-13.13,13.297-20.183,1.896-3.415,3.253-7.074,5.085-10.508.683-1.28,1.543-2.592,2.954-3.131,1.3-.497,2.239-.15,2.9,1.055,2.021,3.677,1.86,8.383.484,12.227-.437,1.22.493,2.627,1.676,2.952,1.33.366,2.514-.451,2.952-1.676h0Z"/><path class="h" d="M226.679,137.36c-3.939,4.7-7.879,9.4-11.818,14.1-.805.961-1.012,2.465,0,3.394.889.816,2.533,1.027,3.394,0,3.939-4.7,7.879-9.4,11.818-14.1.805-.961,1.012-2.465,0-3.394-.889-.816-2.533-1.027-3.394,0h0Z"/><path class="h" d="M249.889,174.399c-6.243,1.355-12.487,2.709-18.73,4.064-1.267.275-2.006,1.752-1.676,2.952.36,1.309,1.681,1.952,2.952,1.676,6.243-1.355,12.487-2.709,18.73-4.064,1.267-.275,2.006-1.752,1.676-2.952-.36-1.309-1.681-1.952-2.952-1.676h0Z"/><path class="h" d="M249.315,148.858c-8.217,5.173-16.434,10.345-24.651,15.518-2.608,1.642-.202,5.797,2.423,4.145,8.217-5.173,16.434-10.345,24.651-15.518,2.608-1.642.202-5.797-2.423-4.145h0Z"/></g></svg>