<?xml version="1.0" encoding="UTF-8"?><svg id="b" xmlns="http://www.w3.org/2000/svg" width="125.769" height="419.211" viewBox="0 0 125.769 419.211"><defs><style>.d{fill:#fff;}.e{fill:#74c66d;}.f{fill:none;}.g{fill:#211715;}.h{fill:#fec578;}.i{fill:#645d5c;}.j{fill:#cfcfcf;}</style></defs><g id="c"><path class="d" d="M117.704,220.282c-.506-1.544-1.002-3.013-1.455-4.372-3.648.871-7.771,1.69-12.324,2.734-.411,5.159-.778,12.98-.559,18.371.031.765.441,1.674,1.018,2.179.43.377,1.068.629,2.041.595,1.479-.051,3.659-1.808,4.597-4.229,1.027,2.839,1.953,4.96,3.76,8.495.545,1.067,1.134,2.147,2.043,2.929.908.782,2.212,1.212,3.331.786,1.675-.638,2.122-2.058,2.234-3.847.442-7.054-2.251-16.216-4.686-23.641Z"/><path class="d" d="M8.027,220.283c.506-1.544,1.002-3.013,1.455-4.372,3.649.871,7.77,1.691,12.324,2.735.411,5.159.778,12.979.559,18.369-.031.765-.441,1.674-1.018,2.179-.43.377-1.068.629-2.041.595-1.479-.051-3.659-1.808-4.597-4.229-1.027,2.839-1.953,4.96-3.76,8.495-.545,1.067-1.134,2.147-2.043,2.929-.908.782-2.212,1.212-3.331.786-1.675-.638-2.122-2.058-2.234-3.847-.442-7.054,2.25-16.216,4.685-23.64Z"/><path class="g" d="M7.332,216.053c-2.398,7.156-4.817,14.378-5.745,21.899-.38,3.079-1.011,7.516,1.098,10.117,1.159,1.43,3.008,2.102,4.818,1.762,1.929-.363,3.377-1.761,4.397-3.363,2.218-3.484,3.76-7.585,5.127-11.466.857-2.433-3.006-3.479-3.857-1.063-1.254,3.562-2.669,7.324-4.724,10.51-.55.854-2.024,2.322-2.823.885-.717-1.288-.349-3.678-.259-5.066.518-7.933,3.319-15.672,5.825-23.152.82-2.446-3.042-3.496-3.857-1.063h0Z"/><path class="g" d="M19.736,217.774c.404,4.779.642,9.58.689,14.376.011,1.164.009,2.328-.017,3.492-.014.647.053,1.829-.433,2.083-.513.268-1.054-.011-1.645-.475-.84-.659-1.401-1.573-1.828-2.535-.438-.988-1.878-1.219-2.736-.718-1.018.595-1.157,1.745-.718,2.736,1.12,2.527,3.642,5.139,6.607,5.056,1.561-.044,2.934-.735,3.816-2.031s.908-2.769.938-4.274c.118-5.901-.179-11.831-.675-17.71-.091-1.076-.854-2-2-2-1.012,0-2.091.918-2,2h0Z"/><path class="g" d="M114.542,217.116c2.506,7.479,5.306,15.218,5.825,23.152.091,1.396.458,3.779-.259,5.066-.794,1.427-2.271-.03-2.823-.885-2.054-3.185-3.47-6.95-4.724-10.51-.849-2.412-4.715-1.374-3.857,1.063,1.218,3.458,2.668,6.805,4.35,10.063.867,1.678,1.931,3.356,3.669,4.241,1.703.868,3.723.826,5.307-.283,2.919-2.044,2.547-6.396,2.28-9.519-.33-3.844-1.141-7.638-2.137-11.36-1.093-4.08-2.431-8.088-3.772-12.092-.814-2.428-4.678-1.387-3.857,1.063h0Z"/><path class="g" d="M101.995,217.774c-.496,5.879-.796,11.81-.675,17.71.031,1.503.061,2.98.938,4.274.883,1.301,2.257,1.977,3.816,2.031,2.961.103,5.494-2.543,6.607-5.056.437-.987.287-2.149-.718-2.736-.851-.498-2.297-.275-2.736.718-.425.959-.986,1.882-1.828,2.535-.58.45-1.113.762-1.657.471.186.1-.119-.099-.155-.148-.098-.132-.172-.355-.204-.497-.091-.397-.049-.869-.058-1.277-.029-1.216-.032-2.433-.02-3.649.046-4.796.285-9.597.689-14.376.091-1.078-.984-2-2-2-1.158,0-1.909.919-2,2h0Z"/><path class="d" d="M54.326,126.811c-3.371-8.992-7.482-22.057-9.664-31.597l1.539,1.015c4.936,3.255,11.325,4.433,16.556,4.433,6.159,0,13.006-1.345,16.774-4.433l1.698-1.392c-3.426,14.723-12.689,40.983-14.921,42.229-2.294,1.28-4.844,1.28-7.138,0-.861-.481-2.703-4.547-4.843-10.255Z"/><path class="i" d="M24.26,100.165c-2.741-3.326-4.547-8.291-4.547-13.704,0-5.852,3.01-12.429,4.26-14.939,1.92-3.87,1.67-15.4,1.72-21.64v-.003c-.586-17.841,4.062-30.78,11.388-37.863,4.416-4.27,14.368-10.087,25.55-10.087,6.404,0,11.029,1.104,15.386,2.802,7.372,4.073,7.458,3.997,10.999,7.446,5.591,5.447,9.734,13.182,10.561,24.281.141,1.891.172,6.311.223,12.396-.086,2.299-.148,4.743-.184,7.271l-.002-.003c.167,4.731-.054,9.375,1.704,13.863,1.667,4.255,3.999,8.291,4.917,12.809,1.224,6.022-.105,12.857-3.41,18.028l-78.563-.657Z"/><path class="d" d="M83.39,41.397c2.81,3.839,5.285,7.957,5.748,12.79.5,5.221.245,10.482-.815,15.592-1.44,3.174-6.338,11.074-12.415,14.3.098,1.26.261,2.506.481,3.759.343,1.964.237,3.716,2.97,4.704.07.026,1.316.614,2.817,1.324-1.201,1.073-2.645,2.362-2.645,2.362-3.768,3.088-10.615,4.433-16.774,4.433-5.23,0-11.619-1.178-16.556-4.433,0,0-1.334-.906-2.697-1.831,2.054-.951,3.932-1.826,4.014-1.856,1.412-.51,2.063-1.225,2.412-2.066-.003-3.494-.003-5.946-.003-5.946v-.451c-2.835-1.447-5.399-3.665-7.846-6.594-3.327-3.982-5.222-8.272-6.268-11.826-1.427.368-2.971-.163-3.995-1-2.31-1.89-3.268-4.526-3.853-6.248-.826-2.433-.878-6.365.352-8.499.412-.715,1.37-1.932,3.621-2.012,1.034-.036,2.243.287,3.14,1.15,0,0,.779.749,1.9,1.828.536-1.291,1.236-2.5,2.11-3.679.896-1.208,2.227-2.496,3.229-3.5.089-.089.178-.179.266-.268,3.878.362,7.785-.154,11.055-1.302,8.789,1.484,12.089,1.659,15.606-.582,2.697-1.719,4.252-4.328,4.913-6.741.659-2.403.757-5.128.774-7.811,2.141,5.87,4.704,9.361,8.018,13.808.148.198.295.398.442.598Z"/><path class="g" d="M97.613,56.122c.134,4.078.03,8.23,1.069,12.211.977,3.744,3.007,7.139,4.363,10.747,2.594,6.903,1.992,14.443-1.949,20.733-1.371,2.188,2.089,4.198,3.454,2.019,4.079-6.509,5.267-14.802,2.935-22.144-1.215-3.826-3.277-7.311-4.556-11.105-1.353-4.012-1.179-8.286-1.316-12.46-.085-2.567-4.085-2.579-4,0h0Z"/><path class="g" d="M25.674,98.751c-2.274-2.823-3.541-6.541-3.865-10.123-.357-3.949.52-7.743,1.872-11.434.885-2.416,2.315-4.687,2.909-7.196.715-3.019.866-6.198.979-9.288.132-3.608.097-7.219.123-10.829.019-2.574-3.981-2.577-4,0-.024,3.256.003,6.511-.089,9.766-.089,3.124-.155,6.356-.9,9.407-.302,1.235-.564,1.635-1.112,2.821-.722,1.564-1.385,3.161-1.958,4.786-1.4,3.971-2.236,8.174-1.782,12.391.493,4.591,2.086,8.916,4.994,12.525.678.842,2.122.706,2.828,0,.832-.832.68-1.985,0-2.828h0Z"/><path class="g" d="M38.701,98.754c.871-.305,1.717-.743,2.555-1.127,1.285-.589,2.568-1.183,3.851-1.778,1.007-.467,2.014-.936,3.023-1.4.104-.048.21-.093.313-.143.089-.044.268-.117-.163.067-.513.22-.068.035.064-.017.253-.101.506-.203.752-.322.987-.476,1.886-1.258,2.41-2.23.486-.902.661-1.854.815-2.852.226-1.464.478-2.921.611-4.398.094-1.045-.987-2.045-2-2-1.164.052-1.899.881-2,2-.151,1.678-.46,3.49-.891,5.286-.059.246.197-.313.041-.115-.053.067-.089.158-.131.233-.223.395.179-.132-.067.089-.064.057-.154.137-.213.205.216-.252.158-.1.028-.023-.099.059-.192.124-.293.181-.037.021-.454.23-.275.149.176-.08-.145.055-.145.054-.153.062-.333.138-.484.204-.022.009-.043.019-.065.029-.101.044-.2.091-.3.137-2.145.985-4.282,1.988-6.428,2.973-.556.256-1.113.511-1.671.762-.177.08-.355.158-.532.237-.445.198.5-.187.132-.058-.985.345-1.745,1.384-1.397,2.46.315.974,1.403,1.767,2.46,1.397h0Z"/><path class="g" d="M73.933,84.395c.125,1.379.325,2.747.55,4.112.117.707.182,1.431.394,2.119.281.908.758,1.79,1.472,2.432.394.354.834.678,1.308.917.319.16.651.299.983.427.638.244-.464-.225-.22-.1,1.905.975,3.883,1.832,5.818,2.747.925.437,1.844.891,2.788,1.286.968.406,2.241-.436,2.46-1.397.266-1.17-.36-2.026-1.397-2.46.993.416.083.02-.15-.089-.414-.195-.828-.39-1.242-.586-1.121-.53-2.241-1.061-3.362-1.591-.867-.41-1.733-.822-2.602-1.228-.094-.044-.188-.089-.282-.131-.024-.011-.048-.022-.072-.032-.144-.063-.337-.145-.483-.204-.059-.024-.365-.17-.061-.019-.179-.089-.351-.18-.524-.281-.057-.033-.342-.221-.112-.062.204.141.014.012-.023-.026-.062-.062-.13-.132-.196-.191-.291-.26.101.076.063.103-.02.014-.265-.449-.288-.483-.111-.167.088.174.078.196.012-.027-.109-.318-.119-.351-.047-.161-.086-.324-.121-.488-.081-.386-.133-.776-.192-1.166-.085-.564-.187-1.125-.272-1.689-.036-.241-.041-.277-.081-.615-.045-.383-.083-.766-.118-1.15-.094-1.039-.853-2.051-2-2-1.003.045-2.101.884-2,2h0Z"/><path class="d" d="M87,382.956c1.215,2.337,5.333,6.948,6.692,8.259,4.053,3.909,6.174,5.771,9.123,9.039,2.265,2.512,4.144,7.202,3.017,11.082-.772,2.655-3.066,4.223-5.624,5.273-1.116.458-5.326.777-7.456.382-3.326-.616-6.3-1.775-8.781-3.683-4.251-3.268-7.796-6.513-12.288-9.835-1.577-1.166-3.54-1.973-5.038-3.239-.865-.731-1.502-1.696-2.029-2.699-1.768-3.368-1.611-9.651-.939-13.394"/><path class="d" d="M38.731,382.956c-1.215,2.337-5.333,6.948-6.692,8.259-4.053,3.909-6.174,5.771-9.123,9.039-2.265,2.512-4.144,7.202-3.017,11.082.772,2.655,3.066,4.223,5.624,5.273,1.116.458,5.326.777,7.456.382,3.326-.616,6.3-1.775,8.781-3.683,4.251-3.268,7.796-6.513,12.288-9.835,1.577-1.166,3.54-1.973,5.038-3.239.865-.731,1.502-1.696,2.029-2.699,1.768-3.368,1.611-9.651.939-13.394"/><path class="g" d="M85.273,383.965c1.209,2.245,2.988,4.244,4.662,6.15,1.843,2.098,3.879,3.986,5.898,5.911,3.876,3.696,9.894,8.648,8.069,14.778-.664,2.232-3.22,3.823-5.43,4.164-2.799.432-5.517.197-8.199-.649-3.377-1.066-5.978-3.235-8.673-5.449-3.029-2.488-5.999-5.123-9.229-7.352-1.493-1.031-3.311-1.713-4.627-2.983-1.157-1.116-1.776-2.645-2.118-4.185-.689-3.105-.563-6.556-.022-9.677.184-1.063-.284-2.155-1.397-2.46-.963-.265-2.275.327-2.46,1.397-1.137,6.561-1.195,15.083,5.001,19.172,1.632,1.077,3.336,1.963,4.899,3.15,1.712,1.3,3.372,2.668,5.029,4.037,3.134,2.589,6.233,5.583,9.992,7.237,5.822,2.562,13.514,3.209,18.561-1.33,2.825-2.541,3.366-6.437,2.59-10.001-.793-3.641-2.924-6.41-5.452-9.029-2.563-2.655-5.381-5.056-7.93-7.721-2.073-2.167-4.282-4.522-5.713-7.178-1.221-2.267-4.676-.25-3.454,2.019h0Z"/><path class="g" d="M37.004,381.946c-1.281,2.378-3.21,4.464-5.025,6.442-2.184,2.381-4.639,4.506-6.942,6.77-2.411,2.369-4.847,4.759-6.196,7.913-1.434,3.354-1.982,7.607.037,10.858,3.584,5.771,11.613,6.09,17.449,4.308,8.063-2.462,13.173-9.818,20.231-14.011,1.873-1.113,3.793-2.123,5.138-3.893,1.18-1.554,1.953-3.341,2.334-5.253.75-3.763.604-7.705-.048-11.471-.185-1.065-1.491-1.663-2.46-1.397-1.126.309-1.582,1.392-1.397,2.46.478,2.757.589,5.715.199,8.489-.181,1.291-.496,2.597-1.139,3.738-.87,1.544-2.095,2.392-3.598,3.264-3.246,1.884-6.125,4.304-9.013,6.688-2.79,2.303-5.535,4.976-8.815,6.57-2.691,1.308-5.584,1.858-8.549,1.716-2.446-.117-4.809-.738-6.479-2.691-1.894-2.214-1.234-5.7-.099-8.113,1.247-2.652,3.53-4.69,5.599-6.706,2.258-2.2,4.643-4.284,6.765-6.619,1.964-2.16,4.07-4.461,5.462-7.045,1.221-2.266-2.231-4.289-3.454-2.019h0Z"/><path class="i" d="M96.519,197.106c4.808,13.808,4.079,28.846,3.247,43.443-2.474,43.409-4.367,97.064-7.646,140.527-.031.415-.311.768-.71.887-9.004,2.692-19.872,2.744-28.621.106-8.748,2.638-19.608,2.585-28.608-.105-.401-.12-.681-.478-.71-.895-3.088-45.44-6.087-95.184-7.651-140.52-.504-14.612-1.56-29.635,3.247-43.443l6.137-7.978h57.803l3.511,7.978Z"/><path class="g" d="M27.14,196.574c-4.65,13.541-3.902,28.045-3.385,42.127s1.075,28.13,1.756,42.189c1.388,28.67,3.116,57.323,5.008,85.964.263,3.98.529,7.96.799,11.939.123,1.823-.051,3.95,1.855,4.898,1.506.749,3.417,1.001,5.055,1.315,7.501,1.437,15.314,1.359,22.758-.38,2.506-.585,1.445-4.443-1.063-3.857-6.15,1.436-12.671,1.652-18.913.678-1.568-.245-3.125-.561-4.661-.957-.082-.021-1.232-.329-1.23-.336.038-.13.146,1.236.292.005.109-.926-.138-2.03-.2-2.963-.227-3.37-.453-6.741-.675-10.111-.916-13.856-1.792-27.716-2.611-41.578-1.628-27.547-3.046-55.109-4.023-82.688-.533-15.051-1.884-30.679,3.096-45.182.838-2.44-3.025-3.488-3.857-1.063h0Z"/><path class="g" d="M60.478,233.734c0,8.238.016,16.476.032,24.714.022,11.56.048,23.119.076,34.679.029,12.404.061,24.809.092,37.213.027,10.595.054,21.189.079,31.784.015,6.3.033,12.601.039,18.901,0,.35,0,.701,0,1.051,0,2.574,4,2.578,4,0,0-5.585-.019-11.171-.032-16.756-.024-10.199-.05-20.398-.076-30.597-.031-12.325-.062-24.649-.092-36.974-.028-11.797-.056-23.593-.079-35.39-.017-8.794-.035-17.588-.039-26.381,0-.748,0-1.495,0-2.243,0-2.574-4-2.578-4,0h0Z"/><path class="g" d="M94.591,197.638c4.692,13.654,4.007,28.254,3.202,42.45-.748,13.188-1.406,26.381-2.044,39.575-1.327,27.433-2.561,54.872-4.306,82.282-.232,3.649-.474,7.297-.729,10.944-.124,1.782-.252,3.564-.382,5.346-.015.211-.141,2.434-.181,2.436l.323-.518c-.272.078-.544.154-.818.227-.551.148-1.105.285-1.662.412-7.284,1.663-15.052,1.676-22.329-.023-2.504-.585-3.573,3.271-1.063,3.857,6.895,1.61,14.057,1.768,21.043.678,1.708-.267,3.404-.619,5.074-1.066,1.805-.484,3.18-1.122,3.401-3.162.354-3.265.484-6.572.709-9.849.956-13.913,1.745-27.838,2.473-41.765,1.464-28.008,2.647-56.03,4.191-84.034.897-16.276,2.353-33.147-3.045-48.854-.832-2.42-4.697-1.38-3.857,1.063h0Z"/><path class="h" d="M22.8,215.644c.084-.451.17-.918.256-1.379.071.025.147.04.227.047,1.466.114,3.242.241,5.173.354,5.851.342,13.117.549,17.435-.167,4.006-.672,6.743-1.437,9.289-3.613,2.604-2.235,4.365-4.701,5.358-7.948.375-1.232,1.202-5.023,1.778-8.67.056-.351.341-.665.618-.653.277-.013.562.301.618.653.576,3.646,1.402,7.438,1.778,8.67.993,3.247,2.754,5.712,5.358,7.948,2.545,2.176,5.283,2.941,9.288,3.613,5.694.944,16.519.283,22.46-.176.27,1.114.522,2.151.714,2.94.218.898.359,1.474.359,1.474,7.1-1.64,13.162-2.715,18.041-4.271,1.595-.509,2.369-2.171,2.225-3.84-1.242-14.331-6.252-73.402-8.825-90.195-1.417-8.194-2.75-13.361-7.667-17.069-1.757-1.325-4.738-2.65-5.808-3.198-3.515-1.789-10.639-4.738-15.198-6.552l-4.278-1.702c-.091.34-.182.68-.182.68-.128.481-.266.977-.413,1.489-3.275,14.561-12.823,41.719-15.094,42.986-2.294,1.28-4.844,1.28-7.138,0-2.322-1.296-11.777-28.668-14.976-43.992,0,0-.129-.619-.258-1.237l-4.27,1.695c-4.549,1.806-11.837,4.817-15.405,6.634-1.07.549-4.051,1.873-5.808,3.198-4.917,3.708-6.25,8.875-7.667,17.069-2.229,14.551-6.288,60.847-8.141,82.272-.285,3.3-.518,6.01-.684,7.923-.145,1.668.629,3.331,2.225,3.84,4.878,1.556,10.941,2.631,18.041,4.271,0,0,.266-1.433.575-3.094Z"/><path class="g" d="M17.712,102.936c.713,9.183,1.599,18.354,2.503,27.519,1.087,11.024,2.245,22.042,3.692,33.026.028.21.006.718.026.26-.003.068-.006.137-.013.204-.026.246-.028.498-.042.746-.038.72-.073,1.44-.108,2.16-.111,2.275-.222,4.55-.339,6.824-.282,5.494-.574,10.992-1.026,16.475-.57,6.908-1.364,13.795-1.907,20.707-.137,1.742-.543,3.798,1.176,4.927,1.141.75,2.797.623,4.121.714,3.075.212,6.154.376,9.235.448,5.967.138,12.453.151,18.004-2.339,2.914-1.308,5.366-3.689,7.153-6.304,1.707-2.497,2.481-5.341,3.091-8.26.374-1.787.447-3.869,1.088-5.568l-.514.883.224-.239-.883.514.271-.085h-1.063l.271.085-.883-.514.224.239-.514-.883c.618,1.64.689,3.645,1.047,5.371.265,1.279.522,2.574.916,3.82,1.027,3.253,2.957,6.108,5.502,8.368,4.609,4.092,11.091,4.803,17.022,4.928,3.19.067,6.384-.033,9.57-.193,1.452-.073,2.904-.16,4.354-.259,1.358-.093,3.115.04,4.281-.726,1.664-1.093,1.323-3.038,1.191-4.733-.129-1.656-.267-3.312-.411-4.966-.325-3.722-.682-7.44-1.054-11.157-1.006-10.032-1.397-20.104-1.926-30.168-.083-1.58.201-3.121.391-4.691.306-2.526.596-5.054.878-7.583.642-5.762,1.24-11.529,1.818-17.298.995-9.929,1.955-19.863,2.776-29.808.057-.694.113-1.388.167-2.082.199-2.567-3.802-2.554-4,0-1.074,13.824-2.469,27.63-3.922,41.419-.398,3.777-.808,7.552-1.243,11.325-.196,1.703-.398,3.406-.608,5.107-.128,1.038-.345,2.081-.285,3.127.363,6.332.612,12.67,1.008,19,.287,4.594.701,9.167,1.152,13.748.284,2.883.557,5.768.81,8.654.112,1.271.219,2.541.323,3.813.053.65.104,1.3.155,1.95.04.519.243,1.367.048,1.839l.514-.883c.065-.077.761-.052.058-.039-.143.003-.288.022-.431.032-.352.026-.704.052-1.056.077-.826.058-1.652.113-2.479.164-1.711.105-3.422.192-5.135.254-3.441.125-6.905.189-10.342-.079-3.047-.238-6.411-.765-9.075-2.34-2.949-1.744-5.273-4.787-6.256-8.055-.416-1.384-.693-2.817-.978-4.232-.205-1.02-.397-2.043-.573-3.069-.192-1.118-.297-2.252-1.29-2.975-.802-.584-1.893-.665-2.763-.156-1.067.624-1.265,1.793-1.454,2.903-.334,1.964-.713,3.924-1.164,5.865-.768,3.306-2.28,6.032-4.811,8.324s-5.835,3.068-9.129,3.546c-3.496.507-7.115.412-10.636.317-1.987-.054-3.973-.145-5.958-.261-.902-.053-1.804-.11-2.705-.172-.412-.028-.824-.058-1.236-.088-.147-.011-.294-.022-.44-.033-.142-.011-.283-.021-.425-.032-.252-.024-.187-.008.197.049l.514.883c-.319-.77.086-2.339.155-3.2.096-1.195.196-2.391.299-3.586.221-2.554.458-5.106.705-7.658.407-4.204.846-8.401,1.136-12.616.476-6.922.792-13.853,1.141-20.781.12-2.375-.284-4.547-.578-6.915-.461-3.704-.884-7.413-1.291-11.123-.89-8.112-1.702-16.233-2.473-24.357-.636-6.697-1.264-13.397-1.785-20.104-.198-2.55-4.2-2.571-4,0h0Z"/><path class="g" d="M104.033,220.67c4.079-.938,8.185-1.758,12.259-2.716,3.241-.762,7.736-1.202,9.092-4.743.675-1.762.287-3.735.129-5.566-.151-1.75-.301-3.5-.453-5.25-.886-10.259-1.789-20.518-2.726-30.772-1.03-11.269-2.089-22.536-3.286-33.789-.464-4.364-.945-8.728-1.506-13.081-.652-5.057-1.272-10.313-3.191-15.068-1.1-2.727-2.664-5.23-4.923-7.15-2.342-1.99-5.184-3.262-7.933-4.586-5.365-2.585-10.934-4.75-16.459-6.963l-2.141-.857c-1.003-.402-2.197.438-2.46,1.397-.313,1.14.39,2.057,1.397,2.46,4.44,1.778,8.89,3.533,13.277,5.439,2.593,1.126,5.15,2.329,7.671,3.608,2.602,1.32,4.925,2.871,6.499,5.385,2.729,4.36,3.393,9.969,4.082,14.972.014.102.092.682.035.256.024.182.048.364.072.546.058.444.115.889.171,1.333.118.932.232,1.864.343,2.797.254,2.127.494,4.255.727,6.384,1.169,10.675,2.186,21.367,3.176,32.06.961,10.371,1.881,20.745,2.783,31.121.312,3.592.621,7.184.931,10.776.053.615.121,1.231.159,1.847.101,1.617-.498,1.973-1.936,2.395-3.491,1.023-7.062,1.76-10.616,2.528-2.082.45-4.163.904-6.239,1.381-2.508.577-1.446,4.434,1.063,3.857h0Z"/><path class="g" d="M22.753,216.813c-3.947-.908-7.918-1.708-11.863-2.624-1.673-.389-3.341-.802-4.989-1.284-1.441-.422-2.033-.778-1.928-2.395.202-3.138.54-6.274.811-9.407.864-9.985,1.743-19.968,2.656-29.949.996-10.889,2.02-21.776,3.168-32.65.447-4.231.91-8.461,1.438-12.683.052-.419.106-.838.16-1.257.028-.216.056-.431.084-.647.017-.13.089-.664.035-.269.098-.726.2-1.452.308-2.177.453-3.049,1.048-6.144,2.003-9.079.802-2.465,2.019-4.733,3.924-6.52,2.063-1.935,4.79-3.04,7.297-4.278,5.067-2.502,10.362-4.558,15.611-6.64l2.161-.858c1.003-.398,1.705-1.337,1.397-2.46-.262-.955-1.45-1.798-2.46-1.397-4.942,1.961-9.884,3.924-14.751,6.067-5.425,2.39-11.425,4.777-14.745,9.968-2.977,4.656-3.82,10.592-4.556,15.966-.556,4.062-1.025,8.136-1.472,12.211-1.208,11.021-2.253,22.059-3.273,33.099-.977,10.58-1.914,21.163-2.831,31.748-.302,3.479-.601,6.957-.901,10.436-.285,3.308.975,5.871,4.284,6.874,3.581,1.086,7.256,1.843,10.91,2.633,2.155.466,4.309.934,6.457,1.429,2.505.576,3.575-3.279,1.063-3.857h0Z"/><path class="g" d="M79.393,3.14c-11.99-4.865-25.448-4.07-36.712,2.343-4.149,2.362-7.729,5.37-10.535,9.241-2.95,4.07-4.935,8.84-6.245,13.672-1.89,6.972-2.427,14.284-2.208,21.484.078,2.568,4.078,2.579,4,0-.325-10.695.929-22.23,6.776-31.467,5.203-8.219,15.156-13.296,24.676-14.298,6.558-.69,13.101.415,19.184,2.883,1.001.406,2.198-.442,2.46-1.397.314-1.144-.392-2.052-1.397-2.46h0Z"/><path class="g" d="M101.615,56.125c.109-7.374.626-14.923-.3-22.267-.916-7.268-3.426-14.166-8.018-19.925-2.383-2.989-5.24-5.739-8.522-7.715-2.211-1.331-4.224,2.126-2.019,3.454,5.199,3.129,9.289,8.364,11.745,13.857,2.64,5.906,3.155,12.244,3.235,18.618.059,4.665-.052,9.313-.121,13.977-.038,2.575,3.962,2.576,4,0h0Z"/><path class="f" d="M40.371,81.286c-2.695-10.416-3.886-21.257-2.609-30.647"/><path class="g" d="M88.125,77.649c2.714-7.304,3.742-15.236,3.056-22.996-.324-3.659-1.514-7.038-3.363-10.205-1.696-2.905-3.842-5.502-5.765-8.253-2.131-3.049-3.915-6.271-5.205-9.765-.884-2.394-4.752-1.359-3.857,1.063,1.436,3.887,3.335,7.485,5.716,10.874,2.445,3.48,5.233,6.754,6.993,10.663,1.859,4.128,1.855,8.876,1.599,13.317-.281,4.878-1.329,9.662-3.03,14.24-.898,2.416,2.967,3.459,3.857,1.063h0Z"/><path class="g" d="M57.412,73.022c1.792.946,3.72,1.355,5.748,1.342,2.136-.014,4.214-.468,5.916-1.794.829-.646.729-2.159,0-2.828-.88-.807-1.944-.689-2.828,0,.692-.539-.015-.018-.234.096-.169.089-.618.229.016.013-.156.053-.308.118-.465.169-.422.136-.888.157-1.302.297.212-.072.331-.04.031-.01-.128.013-.256.023-.384.032-.308.02-.617.028-.925.026-.276-.002-.553-.011-.828-.03-.127-.009-.253-.019-.379-.031-.072-.007-.144-.015-.216-.024-.157-.019-.095-.011.188.025-.015.053-1.105-.237-1.216-.27-.17-.051-.336-.112-.504-.17-.446-.153.425.203.021.012-.209-.098-.414-.201-.618-.308-.925-.488-2.217-.265-2.736.718-.488.924-.27,2.215.718,2.736h0Z"/><path class="g" d="M61.877,59.827c.238.907.466,1.827.602,2.755l-.071-.532c.016.127.023.253.01.38l.071-.532c-.009.059-.022.115-.042.171l.202-.478c-.018.04-.036.074-.06.11l.313-.405c-.028.034-.055.061-.09.089l.405-.313c-.07.045-.143.081-.218.115l.478-.202c-.12.05-.239.087-.368.107l.532-.071c-.116.014-.229.013-.345,0l.532.071c-.13-.018-.258-.05-.388-.067-.266-.083-.532-.095-.798-.036-.266.012-.514.091-.744.237-.415.243-.811.718-.919,1.195-.117.512-.091,1.087.202,1.541l.313.405c.25.248.544.419.883.514.348.047.687.134,1.041.15.572.025,1.093-.155,1.601-.39.639-.297,1.144-.905,1.314-1.592.145-.589.087-1.059-.013-1.649-.15-.888-.355-1.767-.583-2.638-.127-.483-.49-.944-.919-1.195s-1.061-.357-1.541-.202c-.484.157-.951.457-1.195.919-.253.48-.342,1.007-.202,1.541h0Z"/><path class="g" d="M47.874,51.867c-.46,1.495-.16,4.935,2.673,5.228,3.744-.022,3.943-4.181,2.683-6.137-1.032-1.601-4.066-2.267-5.356.909Z"/><path class="g" d="M77.857,51.867c.46,1.495.16,4.935-2.672,5.228-3.744-.023-3.944-4.181-2.683-6.137,1.032-1.601,4.066-2.267,5.356.909Z"/><path class="g" d="M33.331,64.057c2.402,10.534,10.334,22.02,21.718,23.737,1.067.161,2.15-.268,2.46-1.397.26-.945-.322-2.298-1.397-2.46-10.092-1.522-16.801-11.631-18.924-20.943-.572-2.509-4.43-1.447-3.857,1.063h0Z"/><path class="g" d="M36.493,47.634c-2.024-1.806-4.871-2.227-7.344-1.094-1.766.809-2.851,2.48-3.349,4.308-1.137,4.179-.075,9.066,2.321,12.631,1.644,2.446,4.242,4.652,7.389,4.244,1.071-.139,2-.82,2-2,0-.973-.921-2.14-2-2-2.177.282-3.594-1.52-4.538-3.262-.759-1.399-1.408-3.153-1.551-4.819-.155-1.803-.042-3.645.825-5.039-.326.524.512-.436.202-.21.399-.292.498-.326.918-.42.818-.182,1.647-.092,2.299.489,1.915,1.709,4.754-1.11,2.828-2.828h0Z"/><path class="g" d="M88.463,63.092c-.3,1.437-.744,2.847-1.266,4.219-.192.506-.324.765-.564,1.363-.202.502.145-.292-.028.067-.061.127-.118.257-.179.384-.863,1.803-1.94,3.514-3.091,5.144-2.681,3.799-6.35,7.949-11.062,9.056-2.505.589-1.444,4.446,1.063,3.857,5.599-1.316,9.907-5.99,13.151-10.472,1.256-1.735,2.425-3.566,3.359-5.498.202-.418.383-.844.562-1.272.214-.513-.165.356.072-.165.153-.337.291-.682.428-1.025.59-1.488,1.085-3.026,1.412-4.594.524-2.512-3.331-3.586-3.857-1.063h0Z"/><path class="f" d="M90.653,49.049c.897-.862,2.106-1.186,3.14-1.15,2.251.079,3.209,1.297,3.621,2.012,1.23,2.134,1.178,6.066.352,8.499-.585,1.723-1.543,4.359-3.853,6.248-.952.779-2.353,1.292-3.692,1.066"/><path class="g" d="M72.931,26.962c-.018,2.512-.044,5.082-.759,7.512-.265.9-.519,1.482-1.051,2.36-.541.894-1.129,1.575-1.94,2.284-.673.588-1.45,1.013-2.241,1.418-.377.193.252-.074-.182.079-.169.06-.336.123-.507.178-.407.13-.823.232-1.243.309-.089.016-.579.081-.229.041-.268.031-.538.053-.807.068-.438.024-.877.029-1.315.022-1.237-.021-2.469-.148-3.696-.298-1.074-.131-2,1.013-2,2,0,1.19.923,1.868,2,2,2.426.297,4.879.476,7.294-.011,2.144-.432,4.12-1.548,5.755-2.977,4.353-3.807,4.884-9.559,4.923-14.985.018-2.574-3.982-2.577-4,0h0Z"/><path class="g" d="M62.128,27.552c-.532,3.787-1.624,7.833-4.721,10.355-2.837,2.31-7.036,3.346-10.73,3.588-1.078.071-2,.869-2,2,0,1.028.917,2.071,2,2,4.741-.311,9.616-1.59,13.376-4.612,3.685-2.962,5.297-7.745,5.932-12.268.15-1.068-.261-2.148-1.397-2.46-.936-.257-2.309.32-2.46,1.397h0Z"/><path class="g" d="M47.959,30.207c-.874,4.149-2.994,7.711-5.846,10.814-1.547,1.683-3.265,3.193-4.645,5.027-1.423,1.89-2.457,4.024-3.1,6.299-.702,2.481,3.157,3.54,3.857,1.063.582-2.057,1.557-4.016,2.958-5.644,1.509-1.753,3.26-3.277,4.755-5.046,2.823-3.338,4.972-7.145,5.879-11.45.529-2.511-3.326-3.585-3.857-1.063h0Z"/><path class="g" d="M45.191,97.955c5.324,3.437,11.892,4.79,18.17,4.701,6.046-.086,12.73-1.153,17.583-5.014.846-.673.703-2.126,0-2.828-.836-.836-1.98-.675-2.828,0-1.881,1.496-4.306,2.298-6.608,2.86-2.798.684-5.673.973-8.55.986-5.483.024-11.099-1.158-15.747-4.159-2.169-1.4-4.177,2.061-2.019,3.454h0Z"/><path class="e" d="M41.051,89.019c1.109,8.197,3.626,16.281,6.091,24.151,2.355,7.52,4.775,15.208,8.195,22.326.393.819.804,1.636,1.341,2.372,1.317,1.807,3.695,2.488,5.858,2.552,1.948.057,4.522-.511,5.871-2.049.677-.772,1.158-1.707,1.609-2.621,3.339-6.762,5.706-14.099,8.045-21.25,2.723-8.326,5.601-16.921,6.704-25.646.163-1.288-1.22-2.4-2.4-2.4-1.432,0-2.237,1.108-2.4,2.4-.072.568.087-.569-.003.017-.022.144-.043.288-.065.432-.053.336-.11.671-.17,1.005-.134.745-.283,1.487-.442,2.227-.372,1.734-.794,3.458-1.241,5.174-1.032,3.963-2.194,7.893-3.421,11.8-1.263,4.02-2.599,8.017-4.018,11.984-.648,1.812-1.314,3.617-2.008,5.412-.281.727-.567,1.453-.859,2.176-.136.336-.274.672-.412,1.007-.027.066-.298.712-.078.19-.09.212-.18.424-.272.635-.462,1.067-.938,2.132-1.486,3.158-.185.346-.389.677-.588,1.015-.129.218-.543.624.064-.052-.08.089-.155.183-.248.259.963-.78-.265.016-.612.123-.582.179-1.163.256-1.773.199-.554-.052-1.048-.245-1.569-.419-1.102-.369.173.277-.137-.023-.406-.393.285.528.048.073-.074-.142-.18-.273-.264-.41-.242-.394-.455-.805-.663-1.218-.241-.479-.469-.966-.69-1.455-.153-.338-.301-.678-.449-1.018-.053-.12-.104-.241-.155-.362.227.532-.119-.287-.157-.379-.634-1.538-1.233-3.091-1.813-4.65-1.468-3.943-2.821-7.928-4.104-11.935-2.715-8.483-5.503-17.223-6.701-26.078-.174-1.286-1.823-1.987-2.952-1.676-1.387.381-1.851,1.662-1.676,2.952h0Z"/><path class="d" d="M78.866,143.557c-10.667,0-21.333,0-32,0,0,6.71,0,13.419,0,20.129,10.667,0,21.333,0,32,0,0-6.71,0-13.419,0-20.129Z"/><path class="g" d="M78.866,141.557c-10.667,0-21.333,0-32,0-1.081,0-2,.916-2,2,0,6.71,0,13.419,0,20.129,0,1.081.916,2,2,2,10.667,0,21.333,0,32,0,1.081,0,2-.916,2-2,0-6.71,0-13.419,0-20.129,0-2.574-4-2.578-4,0,0,6.71,0,13.419,0,20.129l2-2c-10.667,0-21.333,0-32,0l2,2c0-6.71,0-13.419,0-20.129l-2,2c10.667,0,21.333,0,32,0,2.574,0,2.578-4,0-4Z"/><path class="j" d="M51.963,150.193v6.165c0,1.309.477,1.782,1.066,1.782,1.46,0,4.218,0,7.029,0,.589,0,1.067-.474,1.067-1.063v-6.966c0-.507-.478-.985-1.067-.985h-7.029c-.589,0-1.067.478-1.067,1.067Z"/><rect class="d" x="59.508" y="133.902" width="6.848" height="11.193" rx="1.532" ry="1.532"/><path class="g" d="M57.508,135.434v6.202c0,.883-.108,1.882.099,2.751.314,1.315,1.417,2.396,2.754,2.631.555.098,1.1.078,1.66.078,1.165,0,2.477.159,3.626-.099,1.452-.327,2.473-1.581,2.666-3.02.043-.321.043-.623.043-.945v-7.006c0-.477.012-.942-.099-1.415-.395-1.684-1.921-2.696-3.593-2.709-.618-.005-1.236,0-1.854,0-.811,0-1.649-.062-2.45.078-1.689.297-2.773,1.8-2.852,3.454-.05,1.047.955,2.047,2,2,1.126-.05,1.947-.879,2-2-.021.452-.064.222-.01.102-.197.445-.091.176-.03.095-.272.364-.134.16-.048.087-.052.044-.362.234-.063.076-.056.03-.417.156-.077.065-.116.031-.456.016-.049.044.291.02.592,0,.884,0,.491,0,.983,0,1.474,0,.245,0,.489,0,.734,0,.107,0,.233.011.342,0,.378-.039-.191-.09-.008-.027.261.09-.318-.192-.087-.047.23.144-.267-.253-.076-.062s-.207-.304-.063-.075c.146.231-.138-.347-.048-.086.058.166.005-.343-.027-.075-.032.27,0,.565,0,.837v6.407c0,.226-.05.517,0,.739,0,.002-.003.046,0,.048.001,0,.042-.232.044-.239-.091.34.035-.021.065-.077-.058.111-.202.263.076-.063-.074.086-.278.225.087-.047-.082.061-.35.167.095-.03-.301.133.078-.135.099-.01-.012-.07-2.497,0-2.7,0h-.702c-.075,0-.301-.042-.362,0,.057-.039.353.127.085.01.075.033.355.225.095.03.059.044.301.298.087.047.044.052.235.362.076.063.03.056.156.417.065.077.007.027.003.283.044.215.075-.125,0-.52,0-.663v-7.442c0-1.046-.92-2.048-2-2s-2,.879-2,2Z"/></g></svg>