<svg xmlns="http://www.w3.org/2000/svg" width="192.075" height="450.575" viewBox="0 0 192.075 450.575"><defs><style>.a{fill:#fff;}.b{fill:#211715;}.c{fill:#fca56b;}.d{fill:#645d5c;}.e{fill:#ffda71;}.f{fill:#c6c6c6;}</style></defs><path class="a" d="M62.567,53.869c7.111-.519,14.346-.835,21.416-.879,8.431.053,17.1.492,25.509,1.2l2.24.188Q110.6,67.332,109.366,80.27c-1.987,3.561-5.9,9.136-10.649,12.19,0,1.322,0,2.291,0,2.291-.591.479-12.641,9.047-13.555,9.695H82.805c-.914-.648-12.964-9.216-13.555-9.695,0,0,0-1.013,0-2.32a28,28,0,0,1-6.782-6.074,33.733,33.733,0,0,1-3.836-5.7q-1.244-13.137-2.4-26.281c.733-.059,1.475-.118,2.24-.182Q60.512,54.019,62.567,53.869Z"/><path class="b" d="M58.949,108.308c.9-.314,1.765-.765,2.627-1.16q2-.913,3.987-1.84c1.043-.483,2.084-.969,3.129-1.449.108-.05.218-.1.324-.149.09-.044.272-.119-.16.066-.517.221-.058.032.075-.021.256-.1.513-.207.761-.326a5.555,5.555,0,0,0,2.47-2.284A8.835,8.835,0,0,0,73,98.21c.233-1.51.492-3.011.629-4.534a2.007,2.007,0,0,0-2-2,2.053,2.053,0,0,0-2,2,38.121,38.121,0,0,1-.924,5.491c-.06.248.194-.3.035-.1a1.892,1.892,0,0,0-.136.241c-.221.39.167-.107-.08.106a2.307,2.307,0,0,0-.22.212c.216-.246.135-.086.015-.013-.1.062-.2.128-.3.187-.037.022-.452.23-.293.158-.143.065-.7.288-1.021.436-2.221,1.02-4.433,2.058-6.654,3.078q-.864.4-1.73.789l-.551.245c-.453.2.494-.184.12-.053a2.05,2.05,0,0,0-1.4,2.46,2.018,2.018,0,0,0,2.461,1.4Z"/><path class="b" d="M95.51,93.511c.128,1.421.334,2.83.567,4.238a16.442,16.442,0,0,0,.408,2.193,5.508,5.508,0,0,0,1.5,2.486,6.2,6.2,0,0,0,1.34.938,10.826,10.826,0,0,0,1,.435c.655.251-.461-.225-.211-.1,1.971,1.011,4.02,1.9,6.023,2.844.952.45,1.9.917,2.87,1.324a2,2,0,0,0,2.46-1.4,2.063,2.063,0,0,0-1.4-2.46c1,.417.061.01-.172-.1l-1.286-.607q-1.742-.822-3.481-1.647c-.9-.425-1.793-.851-2.693-1.271-.1-.045-.194-.092-.292-.135l-.075-.034c-.145-.064-.336-.144-.483-.2-.049-.02-.371-.164-.08-.027-.186-.088-.364-.186-.542-.29-.055-.033-.346-.228-.123-.07.2.14,0,0-.031-.032-.145-.144-.392-.471-.149-.1-.107-.162-.191-.34-.3-.5-.118-.176.1.168.074.186,0,0-.118-.348-.123-.364-.049-.166-.089-.335-.124-.5-.084-.4-.138-.8-.2-1.207-.2-1.316-.373-2.3-.49-3.594a2.043,2.043,0,0,0-2-2,2.022,2.022,0,0,0-2,2Z"/><path class="c" d="M21.538,133.871a28.835,28.835,0,0,1,8.843-15.609,29.247,29.247,0,0,1,5.718-3.8c4.8-2.444,14.916-6.5,23.631-10.083l2.455-.988,1.519-.611a4.825,4.825,0,0,1,1.079-2.615c1.361-1.576,3.076-3.856,4.467-5.412.591.479,12.641,9.047,13.555,9.695H85.16c.914-.648,12.964-9.216,13.555-9.695,1.391,1.556,3.106,3.836,4.467,5.412a4.6,4.6,0,0,1,.738,1.231l1.709.537,2.5.784c4.405,1.7,15.619,5.469,20.42,7.913a53.457,53.457,0,0,1,5.7,3.519c4.87,3.93,7.448,9.306,8.789,15.683l6.9,16.051c1.083,8.1,2.3,13.869,3.711,25.736a43.247,43.247,0,0,1,.423,9.28c-.656,6.747-5.049,13.294-11.488,15.385a21.682,21.682,0,0,1-12.875.566c.212,21.307.365,42.219.365,47.451a1.256,1.256,0,0,1-1.135,1.061c-7.08.54-82.428,1.26-89.278.55a1.4,1.4,0,0,1-1.22-1.47c0-4.286.194-19.595.443-36.9l.083-5.706-5.425-2.091c-5.352-2.063-14.365-8.231-17.058-13.242a24.509,24.509,0,0,1-2.635-16.059c3.155-13.6,3.761-19.3,7.686-36.571"/><path class="d" d="M56.1,413.1c-1.259,2.42-5.523,7.195-6.93,8.553-4.2,4.048-6.394,5.976-9.447,9.36-2.346,2.6-4.292,7.459-3.124,11.476.8,2.749,3.174,4.373,5.823,5.46a21.251,21.251,0,0,0,7.721.4,20.9,20.9,0,0,0,9.092-3.813c4.4-3.385,8.073-6.745,12.725-10.184,1.634-1.208,3.666-2.044,5.217-3.355a9.148,9.148,0,0,0,2.1-2.794c1.831-3.488,1.669-9.994.972-13.871"/><path class="d" d="M113.138,413.1c1.259,2.42,5.523,7.195,6.93,8.553,4.2,4.048,6.394,5.976,9.447,9.36,2.346,2.6,4.292,7.459,3.124,11.476-.8,2.749-3.175,4.373-5.823,5.46a21.251,21.251,0,0,1-7.721.4A20.909,20.909,0,0,1,110,444.533c-4.4-3.385-8.072-6.745-12.725-10.184-1.633-1.208-3.665-2.044-5.217-3.355a9.161,9.161,0,0,1-2.1-2.794c-1.831-3.488-1.669-9.994-.973-13.871"/><path class="b" d="M111.411,414.11a36.035,36.035,0,0,0,4.894,6.442c1.9,2.155,4,4.095,6.076,6.076,4,3.821,10.072,8.825,8.378,15.147-.662,2.47-3.363,4.193-5.794,4.556a18.6,18.6,0,0,1-8.456-.683c-3.611-1.14-6.378-3.493-9.255-5.861-3.1-2.548-6.138-5.275-9.469-7.516-1.6-1.074-3.549-1.8-4.874-3.23a8.821,8.821,0,0,1-1.992-4.214,26.762,26.762,0,0,1,0-9.966,2.058,2.058,0,0,0-1.4-2.46,2.017,2.017,0,0,0-2.46,1.4c-1.157,6.667-1.259,15.421,4.973,19.659,1.651,1.123,3.425,2,5.024,3.207,1.794,1.354,3.531,2.781,5.263,4.212,3.24,2.675,6.455,5.813,10.327,7.548,6.028,2.7,14.07,3.453,19.321-1.283,2.965-2.674,3.487-6.786,2.613-10.513-.868-3.7-3.062-6.5-5.644-9.163-2.628-2.716-5.512-5.176-8.124-7.9a36.285,36.285,0,0,1-5.947-7.469c-1.22-2.268-4.675-.25-3.454,2.018Z"/><path class="b" d="M54.375,412.092a34.9,34.9,0,0,1-5.259,6.733c-2.243,2.441-4.763,4.622-7.127,6.945-2.435,2.392-4.949,4.82-6.336,7.994-1.516,3.47-2.14,7.8-.137,11.223,3.574,6.106,12.06,6.422,18.078,4.581,8.4-2.571,13.733-10.266,21.112-14.607a16.4,16.4,0,0,0,5.265-4.093,12.983,12.983,0,0,0,2.243-5.145,32.328,32.328,0,0,0-.033-11.925,2.016,2.016,0,0,0-2.46-1.4,2.044,2.044,0,0,0-1.4,2.46,29.008,29.008,0,0,1,.214,8.759,11.092,11.092,0,0,1-1.171,3.914,8.752,8.752,0,0,1-3.594,3.344,73.432,73.432,0,0,0-9.5,7.024c-2.844,2.346-5.634,5.062-8.956,6.719a18.222,18.222,0,0,1-9.083,1.876c-2.55-.123-5-.772-6.746-2.806-2.009-2.343-1.3-6.061-.061-8.6,1.317-2.7,3.64-4.786,5.764-6.855,2.352-2.292,4.836-4.463,7.044-6.9a38.411,38.411,0,0,0,5.6-7.23c1.219-2.266-2.233-4.288-3.454-2.018Z"/><path class="c" d="M84.268,244.1c-17.99.141-36.027.162-42.546-.075.18,5.279,4.662,138.226,6.256,164.156a4.754,4.754,0,0,0,3.7,4.255,57.385,57.385,0,0,0,12.914,1.612c5.842-.057,15.1-.568,19.384-1.672,4.283,1.1,13.542,1.615,19.384,1.672a57.378,57.378,0,0,0,12.914-1.612,4.751,4.751,0,0,0,3.7-4.255c1.654-27.029,6.26-164.324,6.26-164.324s0-.154.009-.394C119.678,243.706,102,243.962,84.268,244.1Z"/><path class="e" d="M84.007,388.061c11.878.306,23.519.558,36.824-.169.161-4.008.333-8.382.513-13.029-13.519.762-25.307.507-37.337.2h0c-12.047.31-23.852.565-37.4-.2.181,4.65.353,9.026.514,13.037,13.329.724,24.987.471,36.881.164Z"/><path class="b" d="M83.447,410.448C78.466,411.7,73.11,411.806,68,411.974a60.8,60.8,0,0,1-9.082-.261c-1.575-.184-3.141-.449-4.695-.764-1.175-.237-2.578-.338-3.474-1.215-1.3-1.271-.9-4.26-.972-5.967q-.149-3.421-.288-6.844-.829-20.1-1.579-40.2-.939-24.571-1.849-49.144-.794-21.335-1.576-42.668c-.254-6.917-.36-13.858-.759-20.768-.006-.1-.007-.192-.011-.288-.093-2.567-4.094-2.579-4,0q.319,8.781.642,17.561.768,20.942,1.545,41.881.922,24.864,1.867,49.726.8,20.993,1.641,41.983c.176,4.291.312,8.586.551,12.874a6.8,6.8,0,0,0,4.052,6.078,19.733,19.733,0,0,0,4.415,1.088c1.782.324,3.58.58,5.382.761a89.825,89.825,0,0,0,17.691-.434,48.84,48.84,0,0,0,7.006-1.07c2.5-.625,1.438-4.483-1.063-3.858Z"/><path class="b" d="M83.447,414.306c5.206,1.3,10.8,1.469,16.141,1.656a62.764,62.764,0,0,0,9-.2c1.652-.179,3.3-.416,4.936-.714a19.176,19.176,0,0,0,4.571-1.155,6.767,6.767,0,0,0,3.9-6.016c.049-.87.08-1.741.119-2.612q.145-3.31.283-6.622.831-19.938,1.573-39.878.951-24.849,1.871-49.7.81-21.765,1.608-43.529c.261-7.112.788-14.272.782-21.391,0-.1.007-.192.01-.288.094-2.575-3.906-2.571-4,0q-.309,8.535-.623,17.072-.744,20.319-1.5,40.637-.914,24.628-1.847,49.255-.8,21.021-1.638,42.04-.279,6.858-.58,13.715c-.057,1.261.028,2.511-1.093,3.382a7.679,7.679,0,0,1-3.228.99c-1.7.344-3.416.627-5.141.814a87.761,87.761,0,0,1-17.4-.316,44.138,44.138,0,0,1-6.682-1c-2.5-.624-3.563,3.232-1.063,3.858Z"/><path class="b" d="M81.974,265.978q.014,8.668.007,17.337,0,16.617,0,33.235,0,19.476,0,38.953l0,34.825q0,10.395,0,20.79v1.1c0,2.574,4,2.578,4,0l0-18.33,0-33.746q0-19.491,0-38.982,0-17.189,0-34.375,0-9.929,0-19.857c0-.315,0-.631,0-.946,0-2.574-4-2.578-4,0Z"/><path class="b" d="M46.787,376.869c12.4.684,24.81.51,37.22.191,2.57-.067,2.58-4.067,0-4-12.41.319-24.817.493-37.22-.191-2.572-.142-2.564,3.859,0,4Z"/><path class="b" d="M121.227,372.869c-12.4.684-24.809.51-37.22.191-2.575-.067-2.573,3.933,0,4,12.411.319,24.818.493,37.22-.191,2.56-.141,2.577-4.142,0-4Z"/><path class="b" d="M46.787,389.87c12.4.684,24.81.51,37.22.19,2.57-.066,2.58-4.066,0-4-12.41.32-24.817.494-37.22-.19-2.572-.142-2.564,3.858,0,4Z"/><path class="b" d="M121.227,385.87c-12.4.684-24.809.51-37.22.191-2.575-.067-2.573,3.933,0,4,12.411.319,24.818.493,37.22-.191,2.56-.141,2.577-4.142,0-4Z"/><path class="b" d="M110.55,71.477a29.054,29.054,0,0,1-1.311,4.367c-.193.508-.355.841-.584,1.41-.2.507.137-.275-.035.087-.064.132-.123.266-.186.4a37.078,37.078,0,0,1-3.2,5.326c-2.786,3.947-6.6,8.256-11.493,9.407-2.505.589-1.445,4.446,1.063,3.857,5.778-1.358,10.224-6.183,13.572-10.809a38.088,38.088,0,0,0,3.477-5.691c.206-.427.391-.862.574-1.3.217-.518-.147.343.082-.187.149-.347.3-.694.435-1.045a29.072,29.072,0,0,0,1.462-4.756c.524-2.512-3.331-3.586-3.857-1.063Z"/><path class="b" d="M53.476,72.438c2.482,10.883,10.671,22.749,22.433,24.523a2.065,2.065,0,0,0,2.461-1.4,2.016,2.016,0,0,0-1.4-2.46c-10.47-1.579-17.437-12.068-19.64-21.73-.572-2.508-4.429-1.447-3.857,1.064Z"/><path class="b" d="M114.162,58.334a2.674,2.674,0,0,1,2.317-.552,2.142,2.142,0,0,1,1.1.469c-.277-.2.544.732.235.244a5.277,5.277,0,0,1,.785,2.119,12.063,12.063,0,0,1,.079,3.132,13.253,13.253,0,0,1-1.616,5.024c-.988,1.823-2.48,3.708-4.759,3.412a2.01,2.01,0,0,0-2,2,2.052,2.052,0,0,0,2,2c5.264.683,8.495-5,9.81-9.26,1.179-3.814,1.132-9.738-2.6-12.18a6.866,6.866,0,0,0-8.179.764c-1.925,1.717.912,4.538,2.828,2.828Z"/><path class="b" d="M56.631,55.506a6.9,6.9,0,0,0-7.517-1.121A6.562,6.562,0,0,0,45.68,58.8a16.5,16.5,0,0,0,2.4,13.022c1.689,2.513,4.355,4.777,7.588,4.358a2.066,2.066,0,0,0,2-2,2.011,2.011,0,0,0-2-2c-2.278.3-3.771-1.589-4.759-3.412a13.211,13.211,0,0,1-1.615-5.024,8.6,8.6,0,0,1,.864-5.251c-.317.5.513-.449.234-.244a2.049,2.049,0,0,1,.968-.441,2.7,2.7,0,0,1,2.448.524c1.915,1.709,4.754-1.11,2.828-2.828Z"/><path class="c" d="M112.152,49.543Q110.386,70,108.4,90.432a43.431,43.431,0,0,0,12.08,1.482c1.483-.028,3.121-.2,4.129-1.29,1.159-1.251,1.029-3.188.8-4.878-1.479-11.055-3.432-21.973-6.891-32.576"/><path class="c" d="M55.813,49.543Q57.58,70,59.568,90.432a43.426,43.426,0,0,1-12.08,1.482c-1.483-.028-3.121-.2-4.129-1.29-1.159-1.251-1.029-3.188-.8-4.878a185.22,185.22,0,0,1,7.3-32.756"/><path class="b" d="M110.152,49.543Q108.385,70,106.4,90.432a2.009,2.009,0,0,0,1.468,1.928,46.478,46.478,0,0,0,11.908,1.561c3.479-.008,7.069-.988,7.671-4.944a17.99,17.99,0,0,0-.3-5.183q-.423-3.073-.908-6.137c-.624-3.916-1.339-7.818-2.193-11.691-.992-4.5-2.178-8.947-3.6-13.328-.791-2.439-4.654-1.395-3.858,1.063A168.711,168.711,0,0,1,122.6,80.134c.324,2.107.691,4.226.9,6.349.153,1.594.16,3.009-1.674,3.336a23.557,23.557,0,0,1-6.037-.072,41.567,41.567,0,0,1-6.857-1.244l1.468,1.929Q112.384,70,114.152,49.543c.222-2.564-3.78-2.549-4,0Z"/><path class="b" d="M53.813,49.543Q55.581,70,57.568,90.432L59.036,88.5a41.489,41.489,0,0,1-6.623,1.222,24.386,24.386,0,0,1-6.271.094c-1.852-.323-1.828-1.739-1.674-3.336.206-2.13.587-4.255.933-6.366a181.017,181.017,0,0,1,6.379-26.6c.8-2.454-3.065-3.506-3.857-1.063a178.552,178.552,0,0,0-5.85,23.518q-.531,2.953-.975,5.92a38.869,38.869,0,0,0-.693,5.712,6.242,6.242,0,0,0,1.672,4.556,7.15,7.15,0,0,0,4.66,1.719A42.133,42.133,0,0,0,60.1,92.36a2.015,2.015,0,0,0,1.468-1.928Q59.581,70,57.813,49.543c-.22-2.545-4.222-2.568-4,0Z"/><path class="a" d="M70.732,53.368c-4.109.2-8.213.482-12.259.823a96.659,96.659,0,0,0-11.8,1.389c4.4-3.351-4.024,3.348-5.128,3.28a1.791,1.791,0,0,1-1.6-1.4,3.5,3.5,0,0,1,.2-1.631,39.6,39.6,0,0,1,5.132-11.573,47.528,47.528,0,0,1,8.429-23.483A39.147,39.147,0,0,1,72.195,6.777c1.121-2.41,4.187-3.926,6.527-4.281a32.611,32.611,0,0,1,11.366,0c2.458.373,5.717,2.027,6.679,4.659a39.185,39.185,0,0,1,17.485,13.616,47.517,47.517,0,0,1,8.429,23.481,39.623,39.623,0,0,1,5.133,11.575,3.521,3.521,0,0,1,.2,1.631,1.794,1.794,0,0,1-1.6,1.4c-1.1.068-9.479-6.591-5.168-3.309-4.577-.788-7.8-1.026-11.757-1.36-8.412-.709-17.078-1.148-25.509-1.2C79.606,53.018,75.167,53.149,70.732,53.368Z"/><path class="b" d="M72.653,4.515c-14.11,4.6-24.172,16.661-27.851,30.84a56.051,56.051,0,0,0-1.732,12.9c-.053,2.575,3.947,2.575,4,0a47.183,47.183,0,0,1,7.513-25.238A37.062,37.062,0,0,1,73.716,8.373c2.437-.795,1.394-4.659-1.063-3.858Z"/><path class="b" d="M97.845,5.644C95.192.72,88.8-.047,83.78,0,78.841.05,72.708.8,70.1,5.644c-1.222,2.266,2.23,4.288,3.453,2.019C75.42,4.2,80.332,4.036,83.78,4c3.518-.034,8.7.113,10.611,3.661,1.222,2.267,4.676.249,3.454-2.019Z"/><path class="b" d="M42.7,44.553a38.771,38.771,0,0,0-2.842,5.9c-.4,1.015-.76,2.043-1.094,3.081a12.469,12.469,0,0,0-.849,3.46c-.037,2.238,2.1,4.359,4.393,3.756a11.293,11.293,0,0,0,3.242-1.857c1.2-.836,2.38-1.712,3.535-2.613a2.011,2.011,0,0,0,0-2.828,2.051,2.051,0,0,0-2.829,0c-.362.282.358-.271.064-.05-.117.088-.234.178-.351.267q-.371.279-.744.555-.87.642-1.759,1.26c-.589.407-1.186.811-1.806,1.171a3.74,3.74,0,0,0-.646.342c.32-.3.428-.147.2-.094-.256.06.5-.023.522-.028.2.1.2.095,0-.017q.22.178.07.031c-.049-.227.09.287.11.34-.105-.274.175-.913.3-1.34.349-1.17.729-2.33,1.152-3.475a33.839,33.839,0,0,1,2.781-5.838A2,2,0,1,0,42.7,44.553Z"/><path class="b" d="M94.249,8.373a36.973,36.973,0,0,1,18.77,14.109,46.691,46.691,0,0,1,7.835,24.374c.118,2.563,4.119,2.578,4,0-.673-14.523-6.908-28.626-19.018-37.117A39.853,39.853,0,0,0,95.312,4.515c-2.453-.8-3.5,3.061-1.063,3.858Z"/><path class="b" d="M118.882,56.276q1.513,1.182,3.08,2.295a19.011,19.011,0,0,0,3.048,1.91,3.14,3.14,0,0,0,2.449.191,3.819,3.819,0,0,0,2.465-2.6,6.933,6.933,0,0,0-.464-3.725c-.322-1.049-.67-2.089-1.052-3.116a39.488,39.488,0,0,0-3.142-6.681,2,2,0,1,0-3.454,2.019,33.7,33.7,0,0,1,2.781,5.838c.423,1.145.8,2.305,1.152,3.475.128.425.409,1.064.3,1.34a1.287,1.287,0,0,1,.171-.4c-.165.158-.161.169.01.033-.2.112-.2.118,0,.017a5.481,5.481,0,0,0,.551.036c-.26-.055-.139-.2.171.086a3.736,3.736,0,0,0-.646-.342c-.62-.36-1.216-.764-1.806-1.171s-1.179-.832-1.759-1.26q-.373-.276-.744-.555c-.117-.089-.233-.179-.351-.267-.294-.221.426.332.064.05a2.064,2.064,0,0,0-2.828,0,2.011,2.011,0,0,0,0,2.828Z"/><path class="b" d="M78.372,81.677a12.28,12.28,0,0,0,5.915,1.379,9.736,9.736,0,0,0,6.074-1.836,2,2,0,0,0,0-2.829,2.064,2.064,0,0,0-2.829,0c.69-.537-.037,0-.256.111-.169.089-.626.23,0,.02-.162.054-.319.123-.482.175-.2.066-.413.122-.622.171a4.509,4.509,0,0,0-.725.137c.2-.089.316-.038.013-.008-.132.013-.264.024-.4.032-.319.021-.638.029-.957.027q-.43,0-.858-.031c-.131-.009-.262-.019-.393-.032l-.223-.025c-.157-.019-.1-.011.175.023-.112.055-.519-.092-.645-.12-.206-.046-.411-.1-.613-.159-.177-.053-.349-.116-.523-.176-.453-.155.416.2.005.006q-.324-.153-.64-.319a2,2,0,0,0-2.019,3.454Z"/><path class="b" d="M83.027,68.059a26.747,26.747,0,0,1,.624,2.852l-.072-.531a1.722,1.722,0,0,1,.011.393l.071-.531a.914.914,0,0,1-.043.177l.2-.478a.845.845,0,0,1-.063.114l.313-.405a.622.622,0,0,1-.093.092l.4-.313a1.876,1.876,0,0,1-.226.12l.478-.2a1.618,1.618,0,0,1-.381.111l.532-.071a1.523,1.523,0,0,1-.357,0l.531.072c-.134-.019-.267-.052-.4-.07a1.516,1.516,0,0,0-.8-.036,1.492,1.492,0,0,0-.744.237,2,2,0,0,0-.717,2.737,1.913,1.913,0,0,0,1.195.919c.355.048.7.136,1.059.152A3.467,3.467,0,0,0,86.174,73,2.461,2.461,0,0,0,87.5,71.4a3.791,3.791,0,0,0-.014-1.669c-.155-.919-.367-1.83-.6-2.732a2.06,2.06,0,0,0-.919-1.2,2.039,2.039,0,0,0-1.541-.2,2.017,2.017,0,0,0-1.2.919,2.1,2.1,0,0,0-.2,1.541Z"/><path class="b" d="M68.463,59.838c-.476,1.548-.166,5.109,2.767,5.412,3.876-.023,4.082-4.328,2.777-6.353C72.939,57.24,69.8,56.551,68.463,59.838Z"/><path class="b" d="M99.5,59.838c.476,1.548.166,5.109-2.766,5.412-3.877-.023-4.083-4.329-2.778-6.353C95.026,57.24,98.167,56.551,99.5,59.838Z"/><path class="b" d="M72.066,11.877v1.666a1.512,1.512,0,0,0,.172.771A1.8,1.8,0,0,0,73.3,15.371a1.506,1.506,0,0,0,.771.172l.532-.071a2,2,0,0,0,.882-.514l.313-.4a1.988,1.988,0,0,0,.273-1.01V11.877a1.514,1.514,0,0,0-.172-.771,1.806,1.806,0,0,0-1.057-1.057,1.506,1.506,0,0,0-.771-.172l-.532.071a1.992,1.992,0,0,0-.882.515l-.313.4a1.991,1.991,0,0,0-.273,1.01Z"/><path class="b" d="M91.9,11.877v1.5a1.5,1.5,0,0,0,.173.77,1.8,1.8,0,0,0,1.057,1.058,1.51,1.51,0,0,0,.77.172l.532-.072a1.99,1.99,0,0,0,.882-.514l.313-.405a1.987,1.987,0,0,0,.273-1.009v-1.5a1.5,1.5,0,0,0-.172-.771,1.806,1.806,0,0,0-1.057-1.057,1.5,1.5,0,0,0-.771-.172l-.531.071a2,2,0,0,0-.883.515l-.313.4a1.991,1.991,0,0,0-.273,1.01Z"/><path class="b" d="M67.065,38.043a44.714,44.714,0,0,0-5.1.365c-1.059.126-2.116.269-3.173.412-1.073.145-2.074.283-2.889.39a2.054,2.054,0,0,0-2,2c.043.967.889,2.146,2,2q1.729-.228,3.457-.466l.452-.061.766-.1q.693-.092,1.387-.174a44.714,44.714,0,0,1,5.1-.365,2,2,0,0,0,0-4Z"/><path class="b" d="M100.9,42.043a44.7,44.7,0,0,1,5.1.365q.695.082,1.387.174l.766.1c-.39-.052.276.037.352.048,1.186.161,2.371.323,3.557.479a2,2,0,0,0,2-2,2.062,2.062,0,0,0-2-2l-.434-.057c-.25-.034-.287-.038-.109-.015l-.836-.113-1.412-.192c-1.089-.147-2.179-.3-3.271-.425a44.7,44.7,0,0,0-5.1-.365,2,2,0,0,0,0,4Z"/><path class="d" d="M83.565,49.258a32.44,32.44,0,0,1-4.228-.277c-3.05-.425-5.771-.622-9.181-3a11.4,11.4,0,0,1-4.094-6.936,16.028,16.028,0,0,1-.117-3.425,14.531,14.531,0,0,1,1.523-5.959,21.209,21.209,0,0,1,16.5-11.485,21.207,21.207,0,0,1,16.509,11.485A14.546,14.546,0,0,1,102,35.625a16.021,16.021,0,0,1-.116,3.425,11.141,11.141,0,0,1-4.094,6.936,18.825,18.825,0,0,1-9.247,3.141c-1.279.128-2.781.131-4.163.131"/><path class="e" d="M83.565,49.258a32.82,32.82,0,0,1-3.825-.226V45.473a12.042,12.042,0,0,1-4.768-2.59,5.955,5.955,0,0,1-1.788-3.168,18.537,18.537,0,0,1,2.881-12.372A14.178,14.178,0,0,1,81.5,24.321,8.967,8.967,0,0,1,86.049,24a12.206,12.206,0,0,1,5.859,3.343,18.537,18.537,0,0,1,2.881,12.372A5.955,5.955,0,0,1,93,42.883a12.042,12.042,0,0,1-4.768,2.59v3.682c-1.2.1-2.579.1-3.854.1Z"/><path class="b" d="M80.272,43.544a9.772,9.772,0,0,1-3.983-2.179,5.069,5.069,0,0,1-1.245-4,16.105,16.105,0,0,1,2.748-9.009,2.018,2.018,0,0,0-.718-2.736,2.041,2.041,0,0,0-2.736.717,19.9,19.9,0,0,0-3.283,11.874,8.623,8.623,0,0,0,2.4,5.987A14.174,14.174,0,0,0,79.208,47.4,2.019,2.019,0,0,0,81.669,46a2.041,2.041,0,0,0-1.4-2.46Z"/><path class="b" d="M88.765,47.4a14.4,14.4,0,0,0,5.651-3.1,9.011,9.011,0,0,0,1.991-2.972,9.486,9.486,0,0,0,.511-3.118,19.9,19.9,0,0,0-3.283-11.874,2.052,2.052,0,0,0-2.736-.717,2.017,2.017,0,0,0-.718,2.736,16.105,16.105,0,0,1,2.748,9.009,5.06,5.06,0,0,1-1.147,3.9A9.72,9.72,0,0,1,87.7,43.544,2.053,2.053,0,0,0,86.3,46a2.018,2.018,0,0,0,2.461,1.4Z"/><path class="a" d="M82.658,29.58c-.551.368-1.125.716-1.719,1.058A2.34,2.34,0,0,0,79.77,32.7c.014.863.006,1.672-.015,2.455a2.34,2.34,0,0,0,1,1.979c.692.483,1.229.871,1.757,1.285a2.359,2.359,0,0,0,2.913,0c.528-.414,1.065-.8,1.757-1.285a2.342,2.342,0,0,0,1-1.979c-.02-.783-.028-1.592-.014-2.455a2.339,2.339,0,0,0-1.17-2.061c-.593-.342-1.167-.69-1.718-1.058A2.357,2.357,0,0,0,82.658,29.58Z"/><path class="b" d="M81.649,27.853c-1.161.769-2.463,1.327-3.238,2.542-.744,1.164-.623,2.492-.638,3.805a10.391,10.391,0,0,0,.076,1.874,4.239,4.239,0,0,0,1.023,2.036A8.25,8.25,0,0,0,80.4,39.316q.289.207.575.419l.271.2c.118.09.071.054-.139-.108q.252.2.513.393a4.387,4.387,0,0,0,4.249.252,5.005,5.005,0,0,0,.979-.645c-.039.03-.364.275-.086.067l.328-.246c.554-.408,1.149-.775,1.67-1.225a4.592,4.592,0,0,0,1.424-3.747,9.235,9.235,0,0,0-.472-3.961c-.658-1.381-2.055-1.988-3.273-2.776a4.437,4.437,0,0,0-4.785-.091,2,2,0,0,0,2.018,3.454,1.3,1.3,0,0,1,.247-.144l-.221.089a1.761,1.761,0,0,1,.2-.062c.5-.135-.36.049.149-.009.25-.028-.458-.151-.055-.009.036.013.256.084.265.08-.067.03-.394-.236-.095-.021.127.092.266.173.4.258q.564.366,1.146.7c.093.055.2.126.3.172.322.149-.107-.038-.095-.1a2.715,2.715,0,0,0,.227.212c.173.146-.219-.364-.048-.064-.008-.014.115.213.121.214-.09-.006-.154-.453-.045-.076.132.461.007-.4.018.084.012.521-.009,1.043,0,1.564,0,.213.006.426.011.639a2.819,2.819,0,0,0,0,.575c-.107-.066.1-.439.006-.152.007-.02-.077.243-.077.243s.17-.455,0-.079c-.089.2.292-.293.045-.048a2.485,2.485,0,0,1-.185.18c.02.017.379-.278,0-.01q-.252.177-.5.357c-.457.328-.913.663-1.351,1.016.058-.046.366-.218.078-.076a1.456,1.456,0,0,0-.233.126c.211-.2.317-.108.112-.066a2.4,2.4,0,0,0-.252.056c.059-.1.44-.04.147-.04-.432,0,.356.1.085.028-.082-.022-.169-.049-.251-.063-.211-.036.345.218.055.025-.049-.033-.414-.187-.132-.065.355.154-.2-.152-.363-.278s-.324-.248-.488-.369a9.721,9.721,0,0,0-1.11-.793c.044-.036.343.349.105.065a1.449,1.449,0,0,0-.173-.19c.258.2.187.255.095.091-.166-.3.038.086.038.133a1.275,1.275,0,0,0-.077-.243c-.149-.383-.007.342,0,.087.009-.221,0-.446.007-.668.01-.546.014-1.093.008-1.639,0-.114-.006-.229,0-.343a1.7,1.7,0,0,1,.005-.189c.012-.158,0-.084-.031.222a1.334,1.334,0,0,0,.062-.24c.057-.158.054-.155-.011.01s-.069.167.006.017a1.5,1.5,0,0,0,.133-.207q-.269.333-.117.166c.042-.046.086-.089.132-.131.215-.214-.107.1-.108.084,0-.043.372-.219.4-.238.482-.283.957-.577,1.423-.886a2,2,0,1,0-2.018-3.454Z"/><path class="b" d="M83.565,47.258c-6.064-.043-14.595-1.231-15.557-8.671A14.047,14.047,0,0,1,69.736,29.7a19.151,19.151,0,0,1,6.191-6.552A21.811,21.811,0,0,1,84.5,20.11H83.436c5.728.873,10.847,3.57,14.094,8.492a14.363,14.363,0,0,1,2.5,8.792A8.923,8.923,0,0,1,95.569,45c-3.474,1.974-7.277,2.254-11.19,2.256-2.574,0-2.578,4,0,4,4.165,0,8.237-.362,12.04-2.189a12.868,12.868,0,0,0,7.306-8.967A17.728,17.728,0,0,0,102.2,28.656a24.313,24.313,0,0,0-7.441-8.483,23.415,23.415,0,0,0-9.719-3.837c-3.057-.482-6.625.965-9.308,2.314a23,23,0,0,0-8.26,7.184A18.377,18.377,0,0,0,63.9,36.689a13.292,13.292,0,0,0,6.05,11.553c3.964,2.436,9.046,2.984,13.613,3.016,2.575.018,2.577-3.982,0-4Z"/><path class="b" d="M48.2,57.32c4.335-.769,8.753-1.024,13.138-1.359q7.227-.552,14.474-.8a276.087,276.087,0,0,1,28.894.663c5.026.357,10.078.706,15.057,1.5a2.062,2.062,0,0,0,2.46-1.4,2.015,2.015,0,0,0-1.4-2.46,231.553,231.553,0,0,0-28.433-2.3,277.153,277.153,0,0,0-29.616.689,151.986,151.986,0,0,0-15.64,1.609,2.017,2.017,0,0,0-1.4,2.46,2.044,2.044,0,0,0,2.46,1.4Z"/><path class="e" d="M128.246,245.4c-10.292.534-81.912,1.2-88.582.507a1.4,1.4,0,0,1-1.22-1.47c0-2.224.052-7.417.137-14.316C60.519,230.118,106.465,230,130,230c.047,6.866.075,12.041.075,14.3a1.256,1.256,0,0,1-1.135,1.061C128.756,245.374,128.523,245.388,128.246,245.4Z"/><path class="b" d="M81.983,219.668V244.1c0,2.574,4,2.578,4,0V219.668c0-2.573-4-2.578-4,0Z"/><path class="b" d="M36.841,232.124q17.016,0,34.032-.041,20.142-.035,40.284-.067,9.451-.012,18.9-.015c2.574,0,2.578-4,0-4q-18.084,0-36.167.042-19.845.033-39.691.066-8.679.012-17.359.015c-2.574,0-2.578,4,0,4Z"/><path class="b" d="M81.983,106.379v98.664c0,2.574,4,2.579,4,0V106.379c0-2.573-4-2.578-4,0Z"/><path class="b" d="M25.584,219.781c-5.732,6.577-10.334,14.111-11.693,22.851a51.8,51.8,0,0,0,3.731,27.816,99.178,99.178,0,0,0,7.649,14.659c1.362,2.178,4.824.172,3.454-2.019-4.922-7.872-9.236-16.433-10.828-25.661-1.321-7.659-.655-16.031,2.647-23.122a50.293,50.293,0,0,1,7.868-11.7c1.685-1.933-1.133-4.773-2.828-2.828Z"/><path class="b" d="M97.3,96.165a67.884,67.884,0,0,1,4.467,5.413,2.781,2.781,0,0,1,.421.935c.045.18.108.843.151.61a17.216,17.216,0,0,1-.62,1.714,93.686,93.686,0,0,1-3.73,11.079l2.737-.718a34.492,34.492,0,0,1-7.708-5.776,85.967,85.967,0,0,1-6.444-6.391l-.405,3.142c4.656-3.3,9.486-6.461,13.959-10.008a2.011,2.011,0,0,0,0-2.828,2.049,2.049,0,0,0-2.828,0c.815-.647-.233.159-.441.31q-.75.543-1.5,1.082-2.2,1.576-4.4,3.147-3.4,2.424-6.8,4.843a2.037,2.037,0,0,0-.405,3.141,86.483,86.483,0,0,0,6.671,6.595c2.521,2.27,5.214,4.7,8.291,6.2a2.025,2.025,0,0,0,2.736-.717c1.832-4.058,2.918-8.335,4.3-12.55.053-.162.351-.994.072-.284a5.309,5.309,0,0,0,.455-1.831,6.481,6.481,0,0,0-1.091-3.763c-.716-1.073-1.647-2.035-2.454-3.039-.849-1.057-1.694-2.116-2.592-3.131C98.421,91.4,95.6,94.242,97.3,96.165Z"/><path class="b" d="M67.836,93.337a71.991,71.991,0,0,0-4.96,6.044,6.623,6.623,0,0,0-1.186,3.731,5.316,5.316,0,0,0,.464,1.989c-.231-.594-.007.046.07.284,1.368,4.216,2.435,8.494,4.266,12.55a2.036,2.036,0,0,0,2.737.717c3.079-1.5,5.778-3.928,8.306-6.2a85.612,85.612,0,0,0,6.686-6.595,2.037,2.037,0,0,0-.405-3.141q-3.405-2.415-6.8-4.843-2.2-1.572-4.4-3.147-.753-.54-1.5-1.082c-.22-.159-1.244-.946-.442-.31a2.061,2.061,0,0,0-2.828,0,2.013,2.013,0,0,0,0,2.828c4.474,3.547,9.3,6.706,13.959,10.008l-.4-3.142a85.24,85.24,0,0,1-6.46,6.391,34.706,34.706,0,0,1-7.723,5.776l2.736.718a91.645,91.645,0,0,1-3.7-11.079c-.167-.545-.478-1.125-.6-1.673-.062-.281.047.167.048-.008a2.754,2.754,0,0,1,.042-.483,2.847,2.847,0,0,1,.466-1.095,60.688,60.688,0,0,1,4.466-5.413C72.364,94.243,69.545,91.4,67.836,93.337Z"/><path class="b" d="M148.012,146.413c1.046,7.774,2.443,15.494,3.407,23.281.6,4.888,1.429,9.976-.136,14.766a15.9,15.9,0,0,1-7.076,8.939,19.419,19.419,0,0,1-13.529,1.626c-2.506-.574-3.576,3.282-1.064,3.857a24.5,24.5,0,0,0,14.186-.912,18.86,18.86,0,0,0,9.861-8.943c2.466-4.7,2.8-9.768,2.266-14.968-.526-5.153-1.256-10.293-2.039-15.412-.679-4.432-1.421-8.854-2.019-13.3a2.011,2.011,0,0,0-2.46-1.4,2.055,2.055,0,0,0-1.4,2.46Z"/><path class="b" d="M23.466,134.4c1.553-6.961,5.406-13.325,11.6-17.068a64.753,64.753,0,0,1,7.685-3.754c3.583-1.563,7.2-3.047,10.818-4.53,3.047-1.25,6.093-2.5,9.148-3.732a2.062,2.062,0,0,0,1.4-2.46,2.013,2.013,0,0,0-2.46-1.4c-6.655,2.677-13.3,5.379-19.893,8.218a73.337,73.337,0,0,0-8.41,4.02,28.666,28.666,0,0,0-8.5,7.782,31.312,31.312,0,0,0-5.245,11.858c-.559,2.508,3.3,3.579,3.857,1.063Z"/><path class="b" d="M144.968,129.3a32.055,32.055,0,0,0-4.5-11.267,25.154,25.154,0,0,0-8-7.457c-5.76-3.509-12.3-5.6-18.61-7.882-2.561-.925-5.1-1.875-7.7-2.691-2.462-.772-3.515,3.088-1.064,3.858,5.3,1.663,10.528,3.656,15.715,5.644a56.554,56.554,0,0,1,7.921,3.508,23.385,23.385,0,0,1,7.284,5.69,26.983,26.983,0,0,1,5.094,11.66c.541,2.516,4.4,1.451,3.857-1.063Z"/><path class="b" d="M18.943,209.628c-8.272,6.887-14.675,15.771-17.327,26.3C-1.408,247.934.133,260.661,3.59,272.4a210.261,210.261,0,0,0,7.991,21.484,2.067,2.067,0,0,0,2.46,1.4,2.012,2.012,0,0,0,1.4-2.46c-8.663-20.742-17.893-45.986-5.3-67.165a51.945,51.945,0,0,1,11.629-13.2c1.98-1.649-.863-4.465-2.828-2.828Z"/><path class="b" d="M42.523,140.8h29.1c2.574,0,2.579-4,0-4h-29.1c-2.574,0-2.578,4,0,4Z"/><path class="b" d="M42.523,156.8h29.1c2.574,0,2.579-4,0-4h-29.1c-2.574,0-2.578,4,0,4Z"/><path class="b" d="M96.526,140.8h29.106c2.574,0,2.578-4,0-4H96.526c-2.573,0-2.578,4,0,4Z"/><path class="b" d="M96.526,156.8h29.106c2.574,0,2.578-4,0-4H96.526c-2.573,0-2.578,4,0,4Z"/><path class="b" d="M38.85,218.634h90.265c2.574,0,2.578-4,0-4H38.85c-2.574,0-2.578,4,0,4Z"/><path class="d" d="M38.647,205.572H36.42V218.6c7.639,0,24.917-.045,33.634-.045l27.37.045c7.639,0,22.917-.045,31.634-.045h.852c-.034-4.122-.072-8.514-.112-13.023-8.567,0-24.514.045-32.374.045l-27.37-.045C62.1,205.528,47.032,205.565,38.647,205.572Z"/><path class="b" d="M36.42,207.573c11.212,0,22.423-.044,33.634-.045,2.574,0,2.578-4,0-4-11.211,0-22.422.044-33.634.045-2.574,0-2.578,4,0,4Z"/><path class="b" d="M36.42,220.6c11.212,0,22.423-.044,33.634-.045,2.574,0,2.578-4,0-4-11.211,0-22.422.044-33.634.045-2.574,0-2.578,4,0,4Z"/><path class="b" d="M97.424,207.573c11.211,0,22.423-.044,33.634-.045,2.574,0,2.578-4,0-4-11.211,0-22.423.044-33.634.045-2.574,0-2.578,4,0,4Z"/><path class="b" d="M97.424,220.6c11.211,0,22.423-.044,33.634-.045,2.574,0,2.578-4,0-4-11.211,0-22.423.044-33.634.045-2.574,0-2.578,4,0,4Z"/><path class="f" d="M99.259,218.341V206.064a2.854,2.854,0,0,0-2.854-2.854H70.831a2.854,2.854,0,0,0-2.853,2.854v12.392a2.846,2.846,0,0,0,2.865,2.854c5.962-.043,19.645-.094,25.581-.116A2.846,2.846,0,0,0,99.259,218.341Z"/><path class="b" d="M101.259,218.341v-8.334c0-1.249.023-2.5,0-3.748a4.987,4.987,0,0,0-3.668-4.9c-1.865-.483-4.162-.147-6.054-.147H72.071a12.024,12.024,0,0,0-2.1.091,4.937,4.937,0,0,0-3.989,4.921c-.088,3,0,6.019,0,9.021,0,1.059-.043,2.129,0,3.187a4.964,4.964,0,0,0,5.083,4.878c5.423.06,10.853-.057,16.276-.079q3.841-.017,7.684-.03a7.24,7.24,0,0,0,3.935-.726,5.009,5.009,0,0,0,2.3-4.132c.147-2.572-3.854-2.564-4,0-.082,1.432-3.183.862-4.135.865l-6.482.026q-6.8.027-13.607.064c-1.023.006-2.878.465-3.057-.9a22.269,22.269,0,0,1,0-2.83v-8.783c0-.731-.057-1.441.866-1.575a10.279,10.279,0,0,1,1.4,0H80.17c5.306,0,10.62-.081,15.926,0,.7.011,1.086.264,1.163,1.014a37.586,37.586,0,0,1,0,3.783v8.334C97.259,220.915,101.259,220.919,101.259,218.341Z"/><path class="b" d="M127.058,149.051c.393,15.318.482,30.647.636,45.969.155,15.386.306,30.772.374,46.158a21.511,21.511,0,0,0,.009,2.639c.011.087-.05.331,0,.407l.817-.861-.1.008c-.047-.016-.118.017-.167.01a4.867,4.867,0,0,0-.842.044c-1.9.086-3.8.129-5.7.174-6.636.155-13.274.245-19.912.326-16.064.2-32.132.335-48.2.269-4.532-.019-9.1.056-13.622-.231a3,3,0,0,0-.64-.049c.7-.92.461.986.734.4a1.449,1.449,0,0,0,0-.416c0-.361,0-.723.005-1.084q.016-2.9.051-5.8.1-9.193.23-18.387.076-5.544.156-11.09c.037-2.575-3.963-2.576-4,0-.172,11.961-.389,23.925-.44,35.887-.01,2.337.8,4.259,3.414,4.5.607.056,1.218.075,1.826.1,2.186.081,4.375.106,6.563.129,15.811.168,31.63.011,47.44-.155q11.2-.119,22.4-.316c2.492-.048,4.984-.1,7.474-.177,2.07-.064,5.024.26,6.147-1.877a7.1,7.1,0,0,0,.363-3.332q-.006-1.653-.015-3.305-.027-4.73-.062-9.46-.095-13.049-.22-26.1c-.16-16.917-.3-33.837-.636-50.751q-.036-1.817-.082-3.634c-.066-2.569-4.066-2.579-4,0Z"/><path class="a" d="M189.992,127.36a126.415,126.415,0,0,0-15.1-24.309,1.3,1.3,0,0,0-1.709-.308l-7.329,4.658a1.27,1.27,0,0,0-.535.706l-1.019,3.375a1.271,1.271,0,0,1-.536.706l-11.272,7.164-1.533.974.893.845Q90.074,160.432,28.3,199.691c-4.868,1.478-10.977,4-15.694,5.671l-.423.262a1.776,1.776,0,0,0-.971.3,69.087,69.087,0,0,0-5.614,4.22,2.149,2.149,0,0,0-.739,2.33,113.465,113.465,0,0,0,17.8,25.062,1.818,1.818,0,0,0,2.313.221c1.41-.875,3.924-2.748,5.656-4.082a2.178,2.178,0,0,0,.8-1.3l1.452-1.535a130.8,130.8,0,0,0,8.548-12.086c40.06-25.465,82.278-52.3,122.251-77.7l.873.66,12.382-7.87a1.279,1.279,0,0,1,.719-.2l4.012.115a1.271,1.271,0,0,0,.719-.2l7.154-4.546A1.286,1.286,0,0,0,189.992,127.36Z"/><path class="b" d="M7.007,211.558a51.367,51.367,0,0,1,4.779-3.615c.743-.509.378-.09.24-.461a9.089,9.089,0,0,0,.986,1.533q1.089,1.676,2.211,3.33c3.026,4.471,6.187,8.85,9.423,13.171,1.48,1.977,3.023,3.907,4.493,5.891.561.757.373.623-.4,1.207-1,.757-2,1.5-3.025,2.228-.422.3-.847.6-1.28.88a2.429,2.429,0,0,1-.48.308c-.134.027.474.282-.042-.075a9.805,9.805,0,0,1-1.369-1.511q-.759-.852-1.5-1.717c-1.792-2.084-3.522-4.222-5.166-6.424-1.914-2.564-3.728-5.2-5.413-7.924q-1.173-1.893-2.257-3.839-.531-.956-1.036-1.923c-.377-.721-.616-.6-.164-1.059,1.811-1.833-1.015-4.663-2.828-2.828a4.255,4.255,0,0,0-1.3,4.129A23.452,23.452,0,0,0,5.3,217.52a104.1,104.1,0,0,0,5.634,8.755q3.16,4.428,6.69,8.583c1.946,2.295,4.469,6.5,8.026,4.793a21.244,21.244,0,0,0,3.2-2.154,20.585,20.585,0,0,0,3.639-2.871,4.2,4.2,0,0,0,.778-4.009c-.474-1.424-1.762-2.637-2.66-3.812-4.032-5.272-7.955-10.632-11.685-16.123q-1.53-2.251-3.006-4.542c-1-1.556-2.313-2.8-4.321-2.448-1.551.27-2.886,1.527-4.117,2.444-1.12.833-2.245,1.673-3.295,2.594C2.239,210.43,5.078,213.249,7.007,211.558Z"/><path class="b" d="M13.133,207.29c4.363-1.558,8.655-3.312,13.04-4.81.952-.325,1.976-.556,2.9-.962a29.132,29.132,0,0,0,3.61-2.243l6.953-4.418,27.6-17.541,54.994-34.949L153.2,122.682c2.167-1.376.162-4.84-2.019-3.453L96.4,154.044,41.616,188.859l-7.586,4.82-3.792,2.41a16.264,16.264,0,0,1-3.588,2.022c-4.926,1.587-9.709,3.582-14.581,5.322-2.407.86-1.369,4.726,1.064,3.857Z"/><path class="b" d="M162.669,139.325,107.9,174.132l-55.058,34.99-7.631,4.85-3.6,2.286a6.013,6.013,0,0,0-1.914,1.478c-.3.446-.558.936-.846,1.394a122.991,122.991,0,0,1-7.389,10.292,2.066,2.066,0,0,0,0,2.829,2.013,2.013,0,0,0,2.828,0,113.293,113.293,0,0,0,8.861-12.5l-.718.717,47.608-30.255,48.06-30.543,26.584-16.9c2.167-1.377.162-4.84-2.019-3.454Z"/><path class="b" d="M150.514,123.351a88.468,88.468,0,0,1,6.777,10.664,2.018,2.018,0,0,0,2.737.718,2.045,2.045,0,0,0,.717-2.737,88.352,88.352,0,0,0-6.778-10.664,2.048,2.048,0,0,0-2.736-.718,2.023,2.023,0,0,0-.717,2.737Z"/><path class="b" d="M163.807,111.312c3.406,4.89,6.636,9.9,9.583,15.078,1.272,2.238,4.73.225,3.454-2.019-2.947-5.18-6.177-10.188-9.583-15.078a2.052,2.052,0,0,0-2.736-.717,2.018,2.018,0,0,0-.718,2.736Z"/><path class="b" d="M151.969,122.053l8.458-5.375c1.357-.862,2.734-1.7,4.074-2.589,1.649-1.094,1.935-2.76,2.472-4.539a4.689,4.689,0,0,0,.269-.891c.188.178-.751.651-.072.275.733-.406,1.429-.908,2.136-1.358l2.831-1.8c.45-.286,1.625-.745,1.905-1.211.02-.032.138-.056.144-.091.008-.057,4.123-.528-.35-.007-.615.071-.247,0-.061.367a22.523,22.523,0,0,0,2.13,2.78q1.935,2.622,3.716,5.353c2.306,3.531,4.425,7.182,6.384,10.916q.815,1.552,1.593,3.124c.236.476.381,1.338.737.511.168-.387.252-.208.033-.13a13.31,13.31,0,0,0-2.278,1.448,41.27,41.27,0,0,1-5.061,3.15l1.009-.273c-1.975.238-4.284-.606-6.114.4-1.093.6-2.128,1.353-3.18,2.021l-9.2,5.849c-2.166,1.377-.162,4.84,2.019,3.454l6.3-4,4.191-2.664a17.9,17.9,0,0,1,2.24-1.358l-1.009.274c2.04-.247,4.33.6,6.213-.464,1.933-1.092,3.774-2.4,5.648-3.59a10.72,10.72,0,0,0,2.058-1.411c1.945-2.047.2-4.579-.83-6.6a134.281,134.281,0,0,0-7.418-12.867q-2.177-3.318-4.578-6.479c-1.4-1.845-2.936-4.5-5.665-3.5a10.7,10.7,0,0,0-1.96,1.146L167.486,104c-.818.52-1.652,1.021-2.457,1.561a4.425,4.425,0,0,0-1.824,2.634l-.526,1.745a5.732,5.732,0,0,0-.218.72c-.064.394.073.237.141-.05.05-.212.157-.123-.155.051-.288.161-.562.358-.841.535L149.95,118.6c-2.166,1.377-.162,4.84,2.019,3.454Z"/><path class="d" d="M143,145.7c-5.307-.9-7.7,1.532-9.652,3.028-6.425,3.248-4.89,8.733-1.3,13.6-9.574,17.167,23.051,19.963,24.417-8.1-.664-5.838-2.256-12.526-7.416-15.566a3.907,3.907,0,0,0-4.819.362,6.487,6.487,0,0,0-.6,7.229"/><path class="b" d="M143.53,143.776a12.663,12.663,0,0,0-8.344,1.182,20.014,20.014,0,0,0-2.583,1.832,33.954,33.954,0,0,0-3.208,2.288c-4.252,4.183-2.114,10.087.929,14.261V161.32c-2.2,4-3.107,9.038.2,12.715,2.811,3.121,7.465,3.673,11.382,2.966a19.314,19.314,0,0,0,12.3-8.5,25.045,25.045,0,0,0,3.556-8.72,22.054,22.054,0,0,0,.681-5.725,33.378,33.378,0,0,0-1.185-6.545,20.705,20.705,0,0,0-3.042-6.7c-1.474-2.022-3.639-4.179-6.2-4.666-6.379-1.213-8.626,6.472-6.125,11.116,1.22,2.267,4.675.249,3.454-2.019a4.588,4.588,0,0,1,.043-4.481c1-1.522,2.853-.391,3.886.5,2.723,2.359,3.909,5.948,4.614,9.37a17.01,17.01,0,0,1,.473,4.994,26.734,26.734,0,0,1-.743,4.3,20.852,20.852,0,0,1-3,6.744,15.229,15.229,0,0,1-9.127,6.34q-.288.065-.577.119c-.082.015-.714.114-.471.081s-.278.029-.383.037c-.24.019-.479.036-.72.044-.391.013-.782.01-1.173-.012-.2-.012-.406-.032-.609-.05-.371-.033.023,0,.085.015-.123-.019-.245-.037-.367-.061-.357-.069-.711-.145-1.061-.247-.182-.052-.36-.114-.54-.172-.089-.029-.175-.066-.263-.1-.352-.127.256.12.032.015a9.605,9.605,0,0,1-.9-.471c-.151-.091-.294-.194-.443-.289-.215-.138.251.26-.161-.13-.268-.252-.522-.5-.767-.779-.225-.252.048.063.075.1-.06-.087-.129-.172-.183-.264-.1-.166-.2-.331-.3-.5-.045-.074-.076-.155-.118-.231-.173-.321.1.29.019.058-.069-.188-.137-.374-.193-.567s-.094-.4-.143-.6c-.1-.429-.015.333-.032-.238a9.833,9.833,0,0,1,1.459-5.44,1.982,1.982,0,0,0,0-2.019c-1.964-2.694-4.451-6.856-1.317-9.637.8-.709,1.79-1.135,2.629-1.794a17.242,17.242,0,0,1,1.67-1.215,8.172,8.172,0,0,1,5.707-1.041,2.065,2.065,0,0,0,2.46-1.4,2.015,2.015,0,0,0-1.4-2.46Z"/><path class="b" d="M19.609,133.339c-2.21,9.742-4.01,19.56-6.078,29.33-.543,2.568-1.241,5.125-1.689,7.709a26.034,26.034,0,0,0,.1,9.265,23.234,23.234,0,0,0,6.793,12.762,45.063,45.063,0,0,0,14.281,9.267,2.016,2.016,0,0,0,2.461-1.4,2.047,2.047,0,0,0-1.4-2.46,40.268,40.268,0,0,1-11.48-7.291,20.334,20.334,0,0,1-4.121-4.574,22.027,22.027,0,0,1-2.522-6.594,20.674,20.674,0,0,1-.173-8.382c.464-2.317,1.049-4.613,1.54-6.925.865-4.07,1.651-8.156,2.457-12.238q1.724-8.73,3.688-17.409c.569-2.506-3.287-3.576-3.857-1.063Z"/><path class="d" d="M55.681,215.322a16.086,16.086,0,0,1-2.36.942c-4.6,1.339-9.011,1.164-12.245-2.935a29.276,29.276,0,0,1-6.316-16.014c-.017-.319.091-1.273.091-1.273,2.8-5.2,8.625-9.738,13.056-11.944A79.385,79.385,0,0,1,61.36,185.91c1.979.543,3.006,3.975,1.613,5.48-.262.283-.518.557-.772.828a3,3,0,0,0,.333,4.392c2.043,1.621,6.154,3.768,5.51,7.254-.714,3.858-4.959,3.967-6.438,4.641-1.754.8.008,3.094-2.785,5.065A28.867,28.867,0,0,1,55.681,215.322Z"/><path class="b" d="M54.672,213.6a13.27,13.27,0,0,1-7.286,1.342c-2.594-.381-4.3-2.1-5.729-4.173-2.806-4.071-5.364-9.65-4.806-14.722l-.273,1.01c2.7-4.9,7.4-8.73,12.338-11.227l-1.009.273a60.583,60.583,0,0,1,9.7,1.064c1.113.191,3.091.19,3.7,1.209.994,1.653-.733,2.329-1.392,3.68a5.048,5.048,0,0,0,1.2,5.973c1.309,1.158,2.891,1.949,4.081,3.254a2.5,2.5,0,0,1,.461,3.281c-.759,1.033-2.145,1.3-3.317,1.619-1.739.469-3.209,1.24-3.575,3.173-.154.816-.077,1.607-.709,2.26a12.181,12.181,0,0,1-3.389,1.984c-2.312,1.133-.287,4.583,2.019,3.454,1.959-.96,4.288-2.051,5.289-4.118a8.631,8.631,0,0,0,.651-2.548c.061-.427.214-.275-.094-.164-.573.207.568-.034-.119.1.14-.029.276-.1.416-.131,3.147-.776,6.3-2.156,7.1-5.636.974-4.225-2.569-6.886-5.571-9.059-.415-.3-.931-.579-.969-1.173-.054-.842,1.039-1.478,1.464-2.122a5.694,5.694,0,0,0,.1-5.466c-1.58-3.373-6.01-3.439-9.227-3.879-1.88-.258-3.764-.487-5.655-.642-.587-.048-1.183-.11-1.773-.11a5.411,5.411,0,0,0-2.714.963,34.937,34.937,0,0,0-10.244,8.656c-1.273,1.624-2.547,3.251-2.585,5.386a22.551,22.551,0,0,0,1.12,6.63,32.447,32.447,0,0,0,3.276,7.419,18.493,18.493,0,0,0,5.162,6.03c4.3,2.9,9.958,1.926,14.372-.14a2.016,2.016,0,0,0,.717-2.736A2.044,2.044,0,0,0,54.672,213.6Z"/></svg>