<?xml version="1.0" encoding="UTF-8"?><svg id="b" xmlns="http://www.w3.org/2000/svg" width="478.321" height="289.784" viewBox="0 0 478.321 289.784"><defs><style>.e{fill:#957f6e;}.f{fill:#aaa0c7;}.g{fill:#fff;}.h{fill:#211715;}.i{fill:#b3b3b3;}.j{fill:#c6c6c6;}.k{fill:#645d5c;}</style></defs><g id="c"><g id="d"><path class="g" d="M74.735,201.07c-.654-2.859-.048-5.843.668-8.687.701-2.779,1.592-5.673,3.68-7.636,1.696-1.595,4.104-2.814,6.394-3.228,3.458-.625,13.068-1.514,15.193-1.34,5.188.424,10.128,3.259,13.113,7.523,1.165,1.665,2.062,3.632,1.932,5.66,0,0-2.168,2.476-6.779,7.698-3.837,4.346-6.708,8.958-6.708,8.958-.458,1.125-1.961,1.542-3.403,1.034-1.221-.43-2.557-2.027-3.805-2.367-2.292-.625-5.833-.042-8.22-.532-3.166-.65-6.802-1.449-8.179-4.373l-3.885-2.711Z"/><path class="g" d="M77.839,98.001c-.562-.779-1.131-1.606-1.725-2.488-1.12-1.66-1.498-2.716-1.831-3.993,0,0,.88-8.429,1.423-7.994.358.287.728.572,1.111.856.535.367,1.508,1.047,2.341,1.402s3.145,1.225,4.004,1.508c2.644,1.03,6.37,2.144,9.132,2.496,1.067.136,2.158.219,3.286.249,4.967.131,9.261-.926,13.183-3.254.364-.216,1.521,4.68,1.521,4.68-.25,2.01-1.021,5.451-1.501,8.751-.459,1.682-.756,3.223-1.167,4.694-1.491-.765-2.314-1.244-3.552-1.936-.137-.096-.274-.192-.412-.288-1.855,1.288-3.217,2.147-6.674,2.418-1.67.156-4.583.083-6.917-1-.86.74-1.917,1.417-3.267,2.25-1.89-1.04-3.43-2.18-4.82-3.49-1.483-1.398-2.786-2.99-4.135-4.862Z"/><path class="g" d="M121.289,50.567c-.326,4.697-.446,9.384-.651,13.702-.356,7.489-2.207,14.356-7.155,18.945-5.188,4.811-10.871,7.006-17.903,6.821-1.127-.03-2.218-.113-3.286-.249-2.762-.351-6.488-1.465-9.132-2.496-.86-.284-3.171-1.154-4.004-1.508s-1.806-1.035-2.341-1.402c-3.368-2.5-5.776-5.111-7.978-7.972,0,0-1.472-1.99-2.114-3.14,0,0-.118-.261-.286-.629-1.827.21-3.776-.328-4.584-.749-2.727-1.429-4.102-3.623-5.014-5.21-1.293-2.245-2.049-6.109-1.16-8.444.298-.781,1.074-2.162,3.389-2.661,1.064-.23,2.375-.138,3.457.539,0,0-3.65-27.168,32.366-27.929,31.556-.667,26.395,22.381,26.395,22.381Z"/><path class="g" d="M221.981,93.857c-.372-1.066-.748-2.148-1.124-3.234-2.997,3.262-6.127,5.344-10.494,5.916-2.501.328-5.504.461-7.959-.096-2.974-.675-5.815-1.815-9.267-3.563,1.463,5.653,2.122,11.408,1.888,17.411-.308,7.9-1.014,15.794-.923,23.699.043,3.696,1.126,22.03,1.293,25.863l.077,1.778c11.47-2.187,22.8-4.349,33.781-6.444.468-12.656,1.636-32.505-1.767-45.075-1.027-3.795-2.375-7.512-3.721-11.225-.577-1.592-1.176-3.288-1.784-5.03Z"/><path class="i" d="M226.639,13.174c-6.912-8.322-15.412-11.072-25.267-11.146-6.61-.05-16.371,1.624-25.139,11.383-4.014,4.703-5.654,7.875-6.877,13.396-.613,2.78-1.133,7.588-.87,10.415.162,1.732.611,4.495.921,7.297.752,5.444.45,12.887-.66,16.094-1.501,4.337-2.465,14.597,7.301,17.016,0,0,16.392,3.403,25.806.673,1.209.346,2.399.624,3.444.782.999.151,2.021.253,3.079.306,6.597.328,11.982-1.607,16.958-6.009,4.747-4.199,6.636-10.606,7.135-17.628.298-4.197.52-8.769.963-13.331.703-5.435.46-11.495-.4-15.637-1.025-4.94-3.04-9.863-6.394-13.61"/><path class="g" d="M185.061,44.352c3.831-2.061,7.195-3.961,10.232-6.393,7.91.445,9.162,1.293,16.532-1.551,6.303-2.433,10.396-6.361,12.548-8.797l.956-1.082c1.805,1.259,3.248,3.655,5.074,7.397,1.166,2.389,2.309,7.129,2.178,11.591l-.382,12.96c-.77,5.938-2.737,11.254-6.862,14.903-2.754,2.436-5.633,4.117-8.773,5.077.47,1.297.748,2.062.748,2.062,1.129,3.114,2.341,6.628,3.545,10.104-2.997,3.262-6.127,5.344-10.493,5.915-2.501.328-5.504.461-7.959-.096-2.974-.675-5.816-1.816-9.265-3.566-.981-3.8-2.324-7.556-4.001-11.316.517-4.023.588-5.458.968-8.519-2.702-2.227-4.7-4.534-6.532-7.034,0,0-3.18-4.517-1.848-3.629-1.81.264-3.813-.327-4.609-.766-2.529-1.402-3.772-3.491-4.592-5.002-1.165-2.136-1.789-5.78-.903-7.953.297-.727,1.055-2.006,3.241-2.424,1.004-.192,2.233-.077,3.234.582l6.965-2.464Z"/><path class="f" d="M243.005,152.563c3.884-.742,7.711-1.472,11.469-2.19-1.35-7.111-3.46-17.041-4.93-25.931-1.63-9.83-4.13-22.47-9.87-29.78-3.26-4.15-6.792-6.276-11.5-8.4-1.463-.66-5.974-2.354-5.974-2.354l-4.246-1.595c1.894,5.312,3.964,11.478,5.811,16.573,1.346,3.713,2.693,7.43,3.721,11.225,3.403,12.57,2.235,32.419,1.767,45.079,4.652-.889,9.241-1.766,13.752-2.627Z"/><path class="f" d="M167.809,166.913c-3.195.61-6.388,1.22-9.575,1.828-.58-9.19-.86-22.149-.98-30.149-.13-8.6,1.37-23.75,3.51-30.06,3.62-10.65,9.22-15.14,19.64-22.16,2.958-2.148,5.87-3.373,8.441-5.459,4.368,9.571,6.579,19.111,6.179,29.377-.308,7.9-1.014,15.794-.923,23.699.043,3.696,1.126,22.03,1.293,25.863l.077,1.778c-9.162,1.751-18.419,3.518-27.662,5.283Z"/><path class="h" d="M188.061,73.436c-.301,2.47-.526,4.948-.833,7.417-.059.472.266,1.094.586,1.414.347.347.916.608,1.414.586.517-.023,1.054-.193,1.414-.586.383-.417.516-.857.586-1.414.308-2.469.533-4.947.833-7.417.058-.473-.265-1.093-.586-1.414-.347-.347-.916-.608-1.414-.586-.517.023-1.054.193-1.414.586-.383.417-.518.857-.586,1.414h0Z"/><path class="h" d="M256.403,149.841c-1.179-6.194-2.466-12.366-3.624-18.564-1.11-5.942-1.962-11.936-3.313-17.831-1.263-5.509-2.897-11.064-5.623-16.046-2.663-4.866-6.61-8.72-11.499-11.328-3.584-1.911-7.435-3.231-11.251-4.593-2.429-.867-3.474,2.996-1.063,3.857,1.262.45,2.521.907,3.778,1.371.829.306,1.658.613,2.481.933.317.123.636.245.95.378-.499-.21.067.035.111.055.421.197.845.388,1.264.589,4.74,2.279,8.661,5.396,11.339,9.985,5.615,9.624,6.705,21.363,8.677,32.115,1.234,6.728,2.637,13.423,3.917,20.142.481,2.526,4.337,1.456,3.857-1.063h0Z"/><path class="h" d="M234.244,112.462c.508,6.827,1.656,13.636,1.184,20.5-.254,3.69-.858,7.361-1.736,10.953-.428,1.75-.913,3.456-1.074,5.259-.148,1.656.004,3.315.116,4.968.174,2.554,4.175,2.574,4,0-.108-1.59-.254-3.185-.131-4.779.138-1.796.756-3.532,1.158-5.28.84-3.647,1.409-7.387,1.666-11.122.472-6.864-.675-13.672-1.184-20.5-.19-2.551-4.192-2.572-4,0h0Z"/><path class="h" d="M167.575,45.92c.329,3.424.354,6.899.003,10.322-.212,2.07-.938,3.96-1.305,5.988-.759,4.189-.499,9.076,2.049,12.655,1.745,2.452,4.265,4.022,7.196,4.673l-.883-.514c1.369,1.497,3.634,2.15,5.571,2.448,2.685.414,5.476.288,8.012-.752.999-.41,1.708-1.329,1.397-2.46-.26-.945-1.455-1.809-2.46-1.397-2.749,1.128-7.045,1.366-9.46-.426-.064-.047-.435-.437-.636-.555-.423-.247-.953-.3-1.418-.436-.643-.189-1.236-.439-1.814-.779-1.028-.605-1.86-1.446-2.463-2.45-1.201-1.997-1.52-4.287-1.458-6.592.033-1.241.109-1.909.364-3.04.239-1.066.633-2.082.849-3.155.885-4.406.885-9.072.457-13.53-.103-1.075-.845-2-2-2-1.002,0-2.104.918-2,2h0Z"/><path class="h" d="M192.302,72.254c-2.184-1.712-4.154-3.66-5.899-5.818-.09-.112-.18-.224-.269-.336-.027-.034-.378-.485-.111-.138-.192-.25-.382-.502-.57-.756-.16-.216-.312-.435-.464-.656-.566-.827-1.131-1.663-1.605-2.546-.495-.923-1.851-1.288-2.736-.718-.938.605-1.247,1.749-.718,2.736.975,1.818,2.249,3.504,3.535,5.108,1.772,2.21,3.777,4.204,6.007,5.952.822.644,2.038.861,2.828,0,.66-.719.879-2.139,0-2.828h0Z"/><path class="h" d="M225.225,14.589c3.817,4.35,5.79,10.23,6.364,15.924.656,6.504-.317,12.944-.738,19.428-.37,5.699-.434,11.676-3.051,16.9-2.354,4.699-6.905,8.247-11.924,9.734-6.234,1.848-12.695.448-18.564-1.964-.999-.411-2.199.445-2.46,1.397-.315,1.148.394,2.048,1.397,2.46,5.98,2.458,12.464,3.731,18.884,2.416,5.734-1.175,11.24-4.719,14.618-9.504,3.689-5.227,4.471-11.703,4.875-17.911.239-3.683.416-7.378.809-11.049.365-3.416.521-6.816.293-10.249-.489-7.386-2.72-14.768-7.673-20.412-1.701-1.938-4.521.9-2.828,2.828h0Z"/><path class="h" d="M228.054,11.76c-4.414-5.254-10.23-9.03-16.927-10.628-5.694-1.358-11.858-1.532-17.595-.315-6.66,1.414-12.683,4.994-17.439,9.824-4.955,5.032-8.064,11.048-9.096,18.038-.52,3.519-.742,6.984-.277,10.516.492,3.741,1.17,7.536.967,11.322-.138,2.572,3.863,2.565,4,0,.32-5.972-1.607-11.785-1.157-17.759.459-6.104,2.14-11.776,6.009-16.596,4.077-5.079,9.498-9.082,15.787-10.916,4.917-1.434,10.255-1.571,15.295-.745,7.072,1.158,13,4.608,17.604,10.088,1.658,1.973,4.475-.869,2.828-2.828h0Z"/><path class="h" d="M179.105,45.089c-2.423-1.481-5.73-1.146-7.86.717-1.633,1.428-2.119,3.704-2.033,5.789.188,4.598,2.799,9.717,7.055,11.826,2.429,1.204,5.541,1.444,7.988.199.963-.489,1.24-1.843.718-2.736-.572-.978-1.77-1.209-2.736-.718-.244.124-.853.27-1.107.269-.298,0-.591.01-.889-.011-.146-.01-.291-.024-.436-.041.177.02.144.011-.099-.027-.489-.113-.96-.239-1.436-.396-.387-.127.271.191-.04-.021-.248-.169-.529-.299-.781-.465-.843-.558-1.722-1.519-2.166-2.161-.25-.363-.482-.738-.702-1.12-.112-.195-.223-.392-.329-.591-.036-.068-.331-.681-.239-.464-.415-.98-.7-2.202-.772-3.077-.049-.601-.066-1.218.008-1.818-.035.286.095-.423.115-.498.034-.127.074-.253.118-.377-.109.24-.127.278-.052.114.078-.137.148-.278.226-.415.079-.138.327-.338.02-.043.059-.057.543-.508.197-.24.199-.155.43-.29.659-.394-.152.06-.107.045.136-.043.155-.05.312-.094.471-.131.286-.051.342-.066.166-.046.154-.014.308-.021.462-.021.521.001.83.094,1.319.393,2.203,1.346,4.214-2.112,2.019-3.454h0Z"/><path class="h" d="M222.959,26.197c-3.204,3.604-7.159,6.521-11.666,8.283-2.223.869-4.583,1.735-6.984,1.907s-4.809-.142-7.193-.313c-2.569-.184-2.557,3.817,0,4,2.475.177,4.989.511,7.471.29,2.841-.252,5.551-1.135,8.186-2.192,4.987-2.002,9.443-5.13,13.014-9.147,1.705-1.918-1.114-4.757-2.828-2.828h0Z"/><path class="h" d="M199.526,30.809c-1.984,2.542-4.365,4.86-6.904,6.681-2.711,1.943-5.638,3.556-8.57,5.135-.951.512-1.249,1.827-.718,2.736.562.961,1.782,1.231,2.736.718,6.103-3.286,11.962-6.904,16.284-12.442.664-.851.83-1.999,0-2.828-.691-.691-2.16-.856-2.828,0h0Z"/><path class="h" d="M224.299,28.24c.066.047.24.189.082.058.108.089.213.184.316.279.244.228.473.472.692.725.389.451.758,1.008,1.106,1.568.844,1.358,1.795,3.115,2.337,4.393,1.344,3.175,1.826,6.831,1.75,10.253-.057,2.575,3.943,2.574,4,0,.09-4.04-.57-8.286-2.183-12.009-1.381-3.188-3.194-6.657-6.08-8.722-.879-.629-2.227-.154-2.736.718-.588,1.006-.163,2.106.718,2.736h0Z"/><path class="h" d="M186.834,81.306c2.758,5.963,4.817,12.292,5.719,18.814.943,6.821.308,13.697-.061,20.537-.287,5.313-.528,10.636-.305,15.956.166,3.967.388,7.932.602,11.896.205,3.781.437,7.561.604,11.343.113,2.564,4.114,2.578,4,0-.329-7.466-.837-14.924-1.17-22.391-.228-5.111-.074-10.216.189-15.324.356-6.919,1.064-13.881.291-20.795-.861-7.701-3.17-15.038-6.417-22.055-.454-.98-1.868-1.226-2.736-.718-1.006.588-1.173,1.752-.718,2.736h0Z"/><path class="h" d="M193.607,95.335c4.704,2.227,9.433,3.784,14.696,3.412,4.839-.342,8.902-1.915,12.492-5.216,1.899-1.746-.935-4.569-2.828-2.828-2.9,2.667-6.185,3.849-10.09,4.071-4.388.25-8.32-1.032-12.25-2.893-2.314-1.096-4.347,2.352-2.019,3.454h0Z"/><path class="h" d="M215.382,81.051c1.756,4.855,3.407,9.747,5.118,14.618,1.764,5.019,3.733,9.986,5.099,15.134,2.311,8.71,2.322,18.027,2.21,26.975-.064,5.064-.271,10.125-.471,15.186-.102,2.574,3.898,2.57,4,0,.369-9.333.772-18.69.243-28.025-.254-4.488-.707-9.006-1.686-13.399-1.138-5.108-3.076-10.008-4.828-14.925-1.971-5.532-3.831-11.104-5.829-16.626-.869-2.402-4.736-1.366-3.857,1.063h0Z"/><path class="h" d="M187.369,79.549c-1.612,1.266-3.446,2.228-5.196,3.282s-3.435,2.246-5.123,3.41c-2.698,1.861-5.372,3.788-7.838,5.952-4.606,4.044-7.901,9.016-10.007,14.762-2.085,5.688-2.698,11.979-3.277,17.969-.611,6.326-.707,12.608-.582,18.956.163,8.289.372,16.585.888,24.861.159,2.557,4.161,2.575,4,0-.453-7.26-.661-14.536-.824-21.807-.14-6.242-.244-12.447.23-18.679.453-5.956,1.036-12.076,2.642-17.849,1.495-5.373,4.344-10.241,8.362-14.105,2.485-2.39,5.274-4.425,8.103-6.385,1.855-1.285,3.703-2.591,5.64-3.749,1.997-1.194,3.976-2.35,5.81-3.79.85-.668.7-2.129,0-2.828-.839-.839-1.976-.669-2.828,0h0Z"/><path class="h" d="M199.989,62.255c-.232.221-.423.492-.596.762-.107.166-.2.342-.282.523-.154.339-.308.686-.416,1.044s-.152.733-.19,1.103c-.01.275.047.532.172.771.081.248.219.463.414.644.181.195.396.333.644.414.238.125.495.183.771.172l.532-.071c.339-.095.633-.266.883-.514l.313-.405c.181-.312.272-.648.273-1.009.003-.027.006-.055.009-.082l-.071.532c.045-.32.144-.63.268-.927l-.202.478c.124-.293.273-.581.467-.834l-.313.405c.048-.061.098-.119.154-.173.195-.181.333-.396.414-.644.125-.238.183-.495.172-.771.01-.275-.047-.532-.172-.771-.081-.248-.219-.463-.414-.644-.381-.35-.882-.61-1.414-.586l-.532.071c-.339.095-.633.266-.883.514h0Z"/><path class="h" d="M214.636,64.303c-.116.065-.236.123-.354.184-.237.123.139-.061.19-.076-.085.026-.169.066-.253.096-.285.102-.577.184-.872.252-.173.04-.347.075-.522.104-.078.013-.159.02-.237.037.076-.017.451-.052.172-.026-.342.032-.682.057-1.026.058-.315.002-.63-.012-.943-.044-.452-.046.409.072-.028-.007-.16-.029-.318-.063-.475-.105-.14-.037-.279-.08-.416-.13-.079-.029-.16-.072-.241-.094.11.029.345.153.106.04-.497-.236-1.002-.452-1.509-.664-.444-.185-1.147-.029-1.541.202-.415.243-.811.718-.919,1.195-.117.512-.091,1.087.202,1.541.302.468.686.706,1.195.919-.215-.09-.263-.112-.022-.003.086.039.172.079.258.118.188.087.377.174.567.256.445.192.888.387,1.36.503.817.2,1.685.286,2.527.271,1.643-.029,3.357-.363,4.802-1.175.913-.513,1.296-1.839.718-2.736-.595-.923-1.76-1.266-2.736-.718h0Z"/><path class="h" d="M198.457,48.475c-.341,1.44.157,4.668,2.849,4.767,3.532-.255,3.461-4.193,2.149-5.959-1.074-1.446-3.979-1.885-4.998,1.192Z"/><path class="h" d="M219.678,46.44c-.311,1.425.156,4.621,2.639,4.726,3.258-.244,3.183-4.142,1.968-5.895-.994-1.435-3.675-1.876-4.608,1.169Z"/><path class="h" d="M211.963,55.521c.26.401.511.809.757,1.219.264.441.541.887.753,1.356l-.202-.478c.045.109.08.217.099.334l-.071-.532c.005.055.005.105,0,.16l.071-.532c-.004.034-.013.068-.025.1l.202-.478c-.012.033-.028.064-.048.093l.313-.405c-.082.104-.18.193-.284.275l.405-.313c-.089.065-.18.119-.281.164l.478-.202c-.136.055-.274.085-.419.105l.532-.071c-.262.034-.526.059-.786.108-.469.087-.962.521-1.195.919-.251.429-.357,1.061-.202,1.541.157.484.457.951.919,1.195l.478.202c.354.095.709.095,1.063,0,.035-.007.07-.012.105-.017l-.532.071c.35-.046.72-.057,1.055-.177.533-.191,1.011-.459,1.406-.874.294-.309.549-.676.655-1.097.123-.488.106-.816.017-1.299-.074-.4-.271-.77-.461-1.127-.41-.775-.873-1.524-1.35-2.26-.282-.435-.687-.779-1.195-.919-.479-.132-1.116-.072-1.541.202-.427.275-.803.685-.919,1.195s-.092,1.088.202,1.541h0Z"/><path class="h" d="M176.793,128.463c-.009,5.16.082,10.322.218,15.48.154,5.863.255,11.787,1.038,17.607.144,1.072,1.52,1.655,2.46,1.397,1.157-.318,1.542-1.385,1.397-2.46.062.462-.037-.334-.046-.412-.032-.28-.061-.56-.088-.84-.062-.627-.114-1.255-.162-1.884-.105-1.372-.186-2.746-.256-4.12-.164-3.201-.269-6.405-.352-9.61-.13-5.051-.218-10.106-.209-15.159.004-2.574-3.996-2.578-4,0h0Z"/><path class="e" d="M105.383,103.711c-.419-.234-.838-.47-1.318-.739-.137-.096-.275-.192-.417-.285-1.853,1.286-3.215,2.144-6.67,2.415-1.67.156-4.583.083-6.917-1-.86.74-1.917,1.417-3.267,2.25-1.89-1.04-3.43-2.18-4.82-3.49-2.1-1.98-3.84-4.35-5.86-7.35-.789-1.17-1.21-2.04-1.506-2.899l-1.714.572s-5.131,1.712-6.415,2.249c-12.659,5.283-20.959,7.606-27.998,19.851-4.173,7.26-7.647,22.317-9.863,30.62-2.217,8.303-2.783,17.346-.534,25.547,1.402,5.112,3.882,9.805,7.167,13.563,8.808,10.077,30.515,16.754,39.35,15.317-.415-2.631.147-5.349.803-7.95.701-2.779,1.592-5.673,3.68-7.636,1.696-1.595,4.104-2.814,6.394-3.228,2.658-.48,8.948-1.116,12.682-1.306,14.198-2.712,29.212-5.579,44.541-8.502.126-15.263-.034-33.609-2.306-48.192-2.517-16.155-9.222-21.167-23.77-27.741-.639-.289-6.23-2.675-6.23-2.675,0,0-.124-.053-.337-.15-.343,2.003-.898,4.675-1.274,7.261-.459,1.682-.756,3.223-1.167,4.694-.912-.468-1.574-.829-2.234-1.197Z"/><path class="g" d="M239.635,199.522c-.199-.936.022-1.954.397-2.753.776-1.655,2.268-2.231,3.443-2.489,2.928-.644,7.034-1.142,12.753-1.653,8.005-.716,12.036-1.069,21.956-2.08,0,0,.626-.064,1.251-.128l-.624-1.622c-.417-1.083-2.8-3.281-5.626-5.666-1.292-1.09-3.473-3.132-4.358-4.307s-.598-2.931.317-4.083c1.27-1.599,3.469-1.421,5.083-.778,7.111,2.833,16.667,8.222,22.7,10.618,3.379,1.342,6.608,5.934,6.391,10.311,0,0,3.124,4.276,5.169,7.076-7.571,5.097-14.075,13.901-16.417,18.818l-6.509-2.768c-2.833-1.167-11.333-1.085-13.611-1.138-4.288-.1-8.778-.213-13.444-.266l-.483-1.925c-3.18.03-6.175.024-7.03-.061-1.531-.152-2.612-1.179-2.846-2.466-.229-1.263.895-2.801,2.161-3.237,0,0,.186-.064.373-.128l-2.801.272c-3.896.378-6.363-1.265-6.187-3.809.093-1.339,1.056-2.403,2.644-3.025l-1.1-.122c-2.344-.259-3.34-1.354-3.602-2.592Z"/><path class="g" d="M393.79,102.315c.035-.04.07-.08.103-.119,2.783-3.309,3.299-6.632,3.56-8.985.375-3.329-.943-8.14-3.54-10.207-.869-.691-2.738-1.756-6.134-.87-1.72.449-3.607,1.524-4.586,3.229-1.352-2.512-3.273-7.135-6.881-11.593-4.431-3.707-11.056-6.371-18.376-6.945-.364,1.799-.666,3.637-1.019,5.578-.378,2.079-.679,4.189-1.43,6.164-.477,1.255-1.244,2.334-2.06,3.371-1.488,1.892-3.141,3.644-3.507,6.064-.227,1.504.811,3.908.957,5.422.111,1.156.158,1.532.269,2.688l.869,4.945c1.032-.034,3.343-.014,4.959-.013.525,0,.948.493.922,1.086-.105,2.332-.928,3.256-1.717,4.917-.447.941-1.673,2.462-2.114,2.832l-.434.364c.233,1.327.77,4.38.77,4.38.929,1.87,1.135,2.095,2.529,3.649,1.427,1.591,2.791,2.627,5.169,3.58,4.737,1.898,10.595,3.195,17.529,2.28,1.536,2.096,3.476,6.461,4.227,8.516l1.232,3.373c3.506-2.538,7.399-4.469,11.08-5.683,6.127-2.021,12.5-3.395,18.935-3.726l-1.039-3.258c-11-1.167-19.909-11.873-23.666-17.217,0,0-.27-.384-.701-.997,1.82-.706,3.24-1.85,4.096-2.823Z"/><path class="h" d="M351.958,103.059c1.237-.043,2.477-.023,3.714-.019.31,0,.62.002.93.002.083,0,.167,0,.25,0,.227.006.163-.009-.192-.042-.197-.055-.367-.156-.509-.303-.184-.271-.221-.317-.11-.139-.106-.17-.155-.355-.146-.556.003.097,0,.193-.008.29-.003.057-.068.419-.04.466.042-.288.045-.323.011-.103-.015.09-.032.179-.05.268-.035.167-.075.334-.123.498-.044.154-.094.307-.149.458-.027.073-.054.145-.083.217.129-.301.152-.355.067-.163-.114.238-.227.475-.349.709-.272.52-.533,1.047-.807,1.566-.14.265-.302.517-.47.765-.092.135-.186.268-.282.4-.081.111-.356.389.019-.016-.336.363-.605.779-.981,1.107-.792.689-.758,2.132,0,2.828.844.775,1.984.735,2.828,0,.802-.698,1.465-1.66,2.034-2.548.547-.853,1.018-1.818,1.439-2.74.279-.61.537-1.232.686-1.888.197-.867.379-1.883.172-2.765-.241-1.028-1.023-1.879-2.035-2.189-.653-.201-1.424-.119-2.102-.121-1.237-.004-2.477-.024-3.714.019-1.044.036-2.05.894-2,2,.047,1.052.88,2.039,2,2h0Z"/><path class="k" d="M383.558,38.489c-12.679,3.826-18.904,10.62-23.634,21.267-.936,2.392-1.516,4.701-1.993,7.077,7.322.564,13.949,3.228,18.38,6.936,3.609,4.459,5.53,9.083,6.882,11.594.978-1.705,2.865-2.781,4.585-3.229,3.396-.887,5.265.179,6.134.87,2.597,2.067,3.915,6.878,3.54,10.207-.261,2.352-.777,5.675-3.56,8.985-.843.998-2.303,2.207-4.198,2.942.43.614.7.997.7.997,4.254,6.051,15.111,18.974,28.129,17.146,2.448-3.645,6.233-7.204,8.704-9.651,6.19-6.13,13.889-17.111,14.793-31.07.568-8.776-2.561-17.85-6.395-24.253-9.865-16.475-21.866-19.907-29.306-21.27s-16.08-.559-22.723,1.441c-.013.004-.025.008-.038.011Z"/><path class="h" d="M352.672,115.631c1.09,2.177,2.639,4.15,4.541,5.686,2.176,1.757,4.822,2.758,7.476,3.561,6.06,1.834,12.416,1.95,18.591.631,2.516-.538,1.451-4.395-1.063-3.857-5.361,1.146-10.851,1.009-16.118-.528-2.081-.607-4.307-1.312-6.057-2.635-1.694-1.281-2.976-2.999-3.916-4.877-1.153-2.302-4.604-.279-3.454,2.019h0Z"/><path class="h" d="M357.995,59.225c-1.339,3.495-2.032,7.14-2.681,10.813-.585,3.313-.842,6.987-2.814,9.818-1.634,2.346-3.837,4.353-4.447,7.268-.32,1.528-.014,2.996.372,4.484.389,1.504.57,2.958.721,4.504.105,1.075.844,2,2,2,1,0,2.106-.918,2-2-.146-1.499-.229-3.027-.584-4.494-.295-1.22-.862-2.506-.573-3.769.604-2.64,3.201-4.588,4.532-6.854,1.771-3.017,2.093-6.738,2.69-10.119.635-3.598,1.33-7.165,2.641-10.588.387-1.009-.428-2.194-1.397-2.46-1.127-.31-2.072.384-2.46,1.397h0Z"/><path class="h" d="M378.431,125.924c.796,1.272,1.473,2.619,2.107,3.978.159.34.315.682.467,1.025.069.156.138.313.206.469.037.085.073.17.11.254.032.074.164.385.026.059-.139-.33.057.139.098.238.061.149.121.297.18.447.103.26.204.521.3.784.36.979,1.373,1.749,2.46,1.397.961-.311,1.783-1.409,1.397-2.46-1.035-2.82-2.302-5.66-3.897-8.21-.554-.886-1.81-1.315-2.736-.718-.888.573-1.311,1.787-.718,2.736h0Z"/><path class="h" d="M388.667,107.145c6.022,8.535,14.544,16.959,25.393,18.208,1.075.124,2-1.008,2-2,0-1.184-.922-1.876-2-2-9.252-1.065-16.871-9.044-21.939-16.227-.622-.881-1.747-1.296-2.736-.718-.872.51-1.343,1.849-.718,2.736h0Z"/><path class="h" d="M385.209,85.91c1.458-1.892,5.059-2.759,6.98-1.659.054.031.605.389.387.23-.169-.124.468.428.562.527.422.443.738.956,1.028,1.494.676,1.255,1.103,2.709,1.275,4.124.689,5.655-2.453,12.15-8.418,13.153-1.066.179-1.662,1.495-1.397,2.46.31,1.13,1.391,1.577,2.46,1.397,6.959-1.17,10.596-7.682,11.338-14.168.577-5.042-1.728-12.338-7.369-13.475-3.855-.777-7.926.82-10.299,3.9-.66.856-.131,2.24.718,2.736,1.032.604,2.075.141,2.736-.718h0Z"/><path class="h" d="M356.53,80.231c-.681,1.732-.864,5.868,1.981,6.532,3.817.389,4.611-4.549,3.604-7.022-.824-2.024-3.821-3.155-5.585.49Z"/><path class="h" d="M361.65,60.766c2.069-4.626,4.626-9.054,8.312-12.586,3.764-3.606,8.475-5.977,13.411-7.541,9.999-3.169,21.347-3.238,31.127.785,10.097,4.154,17.831,13.286,22.095,23.149,2.68,6.197,3.993,12.978,3.278,19.716-.662,6.237-2.894,12.278-6.076,17.657-2.94,4.97-6.725,8.953-10.763,13.018-4.631,4.662-9.684,10.118-8.887,17.186.121,1.073.833,2,2,2,.987,0,2.122-.92,2-2-.362-3.212.565-5.673,2.383-8.272,1.747-2.496,3.921-4.69,6.077-6.83,3.776-3.747,7.268-7.612,10.083-12.157,3.382-5.462,5.833-11.596,6.833-17.955,1.129-7.18.313-14.369-2.183-21.188-4.126-11.271-12.368-21.908-23.371-27.132-9.851-4.677-21.282-5.267-31.831-2.875-6.382,1.447-12.608,4.119-17.629,8.37-4.627,3.918-7.859,9.15-10.312,14.634-.441.985-.285,2.15.718,2.736.854.5,2.293.273,2.736-.718h0Z"/><path class="h" d="M374.897,75.183c.111.138.221.275.33.414.215.275-.137-.183.071.093.186.247.37.495.551.747.35.487.688.982,1.016,1.484.625.959,1.211,1.943,1.765,2.944.878,1.584,1.66,3.216,2.482,4.83.476.934,1.865,1.279,2.736.718.954-.615,1.226-1.737.718-2.736-.848-1.666-1.656-3.35-2.567-4.983-1.246-2.234-2.67-4.345-4.273-6.338-.659-.819-2.152-.737-2.828,0-.798.869-.703,1.955,0,2.828h0Z"/><path class="h" d="M359.699,69.003c5.425.782,11.05,2.745,15.197,6.18.831.688,2.014.814,2.828,0,.709-.709.836-2.136,0-2.828-4.811-3.985-10.81-6.322-16.962-7.209-1.068-.154-2.149.263-2.46,1.397-.258.939.321,2.305,1.397,2.46h0Z"/><path class="j" d="M403.173,128.351c-2.364.556-4.704,1.225-7.008,1.985-8.968,2.958-19.193,10.176-22.047,20.012-.967.413-1.932.837-2.895,1.271-8.374,3.773-15.711,8.391-21.174,15.969-8.72,12.095-8.566,27.426-11.71,41.478-.749,3.35-1.078,7.414-3.644,11.232-7.439-6.602-12.115-12.03-19.232-19.409-1.057-1.096-2.712-1.36-4.064-.659-9.828,5.098-18.581,17.617-20.045,22.325-.087.279-.059.574.094.823,6.009,9.793,15.288,22.764,20.446,28.307,9.395,10.094,22.444,18.278,36.167,16,.258-.043.516-.095.772-.154,2.083,6.903,4.48,11.081,10.978,14.321,3.928,1.958,9.972,4.444,15.972,4.889,5.685.421,16.413.391,21.444-.222,5.222-7.444,19.061-27.825,25.222-36.333,7-9.667,24.778-38.111,27.124-42.026.563-4.574,1.219-9.737,1.32-13.891.25-10.25.787-18.546-2.021-27.996-2.808-9.45-9.924-21.616-21.102-24.751-1.224-2.691-3.744-10.444-5.366-12.915-.45-.686-.948-1.392-1.687-1.75-.602-.292-1.295-.317-1.964-.324-5.244-.059-10.471.618-15.581,1.82Z"/><path class="h" d="M2.506,200.531c13.443-2.569,26.885-5.146,40.33-7.71,2.526-.482,1.456-4.338-1.063-3.857-13.445,2.564-26.887,5.141-40.33,7.71-2.526.483-1.456,4.339,1.063,3.857h0Z"/><path class="h" d="M255.092,268.731c13.14-3.301,26.135-7.272,39.182-10.919,2.162-.604,4.32-1.228,6.492-1.795,2.489-.65,1.433-4.509-1.063-3.857-12.995,3.394-25.877,7.254-38.818,10.846-2.281.633-4.559,1.292-6.855,1.868-2.495.627-1.438,4.486,1.063,3.857h0Z"/><path class="h" d="M345.259,151.035c-6.942-1.943-13.891-3.862-20.84-5.782-4.103-1.133-8.206-2.265-12.309-3.397-1.884-.519-3.767-1.039-5.651-1.558-.859-.237-1.718-.473-2.577-.71-1.124-.31-1.936-.297-3.073-.08-14.017,2.672-28.033,5.345-42.049,8.018-16.638,3.174-33.276,6.348-49.914,9.524-17.634,3.365-35.268,6.731-52.902,10.098-17.268,3.297-34.535,6.594-51.803,9.892-2.013.384-4.025.769-6.038,1.153-2.526.482-1.456,4.338,1.063,3.857,13.701-2.617,27.403-5.234,41.105-7.85,14.364-2.743,28.729-5.485,43.094-8.227,14.094-2.69,28.188-5.38,42.282-8.07,13.163-2.512,26.327-5.023,39.49-7.534,11.311-2.157,22.621-4.314,33.932-6.47,1.273-.243,2.546-.485,3.819-.728h-1.063c14.127,3.893,28.26,7.77,42.371,11.72,2.483.695,3.543-3.163,1.063-3.857h0Z"/><path class="h" d="M115.996,214.7c5.826,2.955,11.693,5.83,17.552,8.72,3.364,1.659,6.727,3.319,10.086,4.988.781.388,1.619.956,2.461,1.188.821.226,1.789-.17,2.59-.358,1.695-.398,3.39-.796,5.085-1.195,14.029-3.303,28.05-6.64,42.074-9.964,7.372-1.748,14.745-3.493,22.121-5.226.85-.2,1.468-1.075,1.468-1.929,0-.954-.643-1.586-1.468-1.929-11.215-4.659-22.443-9.284-33.658-13.942-5.962-2.476-11.922-4.96-17.873-7.463-2.555-1.075-5.107-2.154-7.657-3.24-1.167-.497-2.334-.996-3.499-1.497-1.078-.463-2.655-1.492-3.83-1.492-1.119,0-2.358.428-3.455.642-1.199.235-2.398.47-3.596.705-2.254.443-4.507.887-6.761,1.332-4.369.863-8.737,1.729-13.106,2.592-2.523.499-1.455,4.355,1.063,3.857,8.794-1.739,17.587-3.484,26.386-5.2l-1.541-.202c17.591,7.639,35.354,14.888,53.076,22.219,4.464,1.846,8.927,3.693,13.388,5.546v-3.857c-18.558,4.36-37.099,8.79-55.65,13.175-5.051,1.194-10.103,2.385-15.156,3.569l1.541.202c-9.866-4.912-19.791-9.708-29.621-14.694-2.291-1.162-4.318,2.288-2.019,3.454h0Z"/><path class="h" d="M238.259,185.091c-11.995-4.895-24.289-9.05-36.415-13.602v3.857c16.885-3.359,33.748-6.831,50.624-10.235,4.096-.826,8.192-1.647,12.291-2.456h-1.063c9.723,3.172,19.486,6.226,29.243,9.293,10.647,3.347,21.299,6.678,31.956,9.994,3.235,1.007,6.47,2.014,9.709,3.007v-3.857c-6.967,1.783-13.963,3.453-20.97,5.072-2.507.579-1.446,4.437,1.063,3.857,7.007-1.618,14.003-3.289,20.97-5.072,1.964-.503,1.84-3.293,0-3.857-12.921-3.96-25.812-8.022-38.706-12.071-8.008-2.514-16.014-5.034-24.01-7.586-1.576-.503-3.151-1.007-4.725-1.514-1.343-.433-3.12-1.352-4.53-1.123-5.847.95-11.658,2.326-17.464,3.502-15.149,3.069-30.291,6.173-45.451,9.189-2.113.42-1.674,3.229,0,3.857,12.126,4.552,24.421,8.708,36.415,13.602,1.001.408,2.198-.443,2.46-1.397.315-1.146-.393-2.05-1.397-2.46h0Z"/><path class="h" d="M204.497,181.057c-5.364,2.108-10.757,4.139-16.105,6.285-1.755.704-2.032,3.253,0,3.857,13.551,4.031,27.004,8.392,40.494,12.622,2.462.772,3.515-3.088,1.063-3.857-13.49-4.23-26.943-8.591-40.494-12.622v3.857c5.348-2.146,10.742-4.178,16.105-6.285,1.005-.395,1.705-1.34,1.397-2.46-.263-.958-1.449-1.794-2.46-1.397h0Z"/><path class="h" d="M427.239,143.45c8.681,2.514,14.561,10.575,17.974,18.534,4.322,10.08,3.975,20.835,3.699,31.568-.157,6.11-1.082,12.153-1.768,18.217-.122,1.075,1.006,2,2,2,1.182,0,1.878-.922,2-2,1.319-11.664,2.729-23.429,1.668-35.188-.911-10.102-4.448-20.006-11.026-27.825-3.556-4.227-8.138-7.615-13.483-9.163-2.477-.717-3.535,3.141-1.063,3.857h0Z"/><path class="h" d="M429.498,140.512c-.554-1.238-1.224-3.122-1.796-4.644-.748-1.991-1.504-3.981-2.367-5.926-.739-1.665-1.627-3.474-3.167-4.535-2.157-1.486-5.64-.908-8.103-.738-10.435.722-21.587,3.483-30.146,9.735-4.382,3.2-8.252,7.238-10.529,12.216-.449.982-.28,2.153.718,2.736.86.503,2.285.269,2.736-.718,3.518-7.691,11.062-13.222,18.874-16.037,4.914-1.77,10.125-3.035,15.312-3.648,2.629-.311,5.479-.659,8.128-.415,1.45.134,2.071,1.976,2.607,3.161,1.602,3.538,2.693,7.286,4.279,10.83.441.986,1.876,1.221,2.736.718,1.015-.594,1.16-1.747.718-2.736h0Z"/><path class="h" d="M415.91,138.84c-8.954.087-17.866,1.472-26.476,3.912-8.32,2.358-16.614,5.53-24.254,9.597-6.89,3.668-13.052,8.593-17.461,15.091-4.572,6.739-6.707,14.726-8.122,22.649-.797,4.465-1.401,8.962-2.194,13.428-.39,2.195-.884,4.367-1.309,6.555-.469,2.41-.9,4.856-1.928,7.104-.449.982-.28,2.153.718,2.736.86.503,2.285.27,2.736-.718,1.727-3.779,2.348-7.946,3.15-11.995.761-3.838,1.324-7.711,1.937-11.574,1.205-7.587,2.573-15.372,6.143-22.259,3.53-6.81,9.062-12.118,15.608-16.022,7.071-4.217,14.964-7.299,22.797-9.766,9.293-2.927,18.901-4.644,28.654-4.739,2.572-.025,2.579-4.025,0-4h0Z"/><path class="h" d="M337.584,220.179c-5.917-5.138-11.304-10.782-16.679-16.474-2.517-2.665-5.433-7.079-9.695-5.558-3.16,1.128-6.116,3.687-8.576,5.893-4.591,4.117-8.761,9.13-11.697,14.572-.51.945-1.004,1.932-1.354,2.948-.621,1.807.27,3.059,1.201,4.541,1.965,3.129,4.01,6.208,6.107,9.25,7.924,11.492,16.454,23.217,29.03,29.969,6.615,3.551,14.096,5.472,21.606,4.451,7.334-.997,13.973-5.593,18.212-11.555,4.183-5.882,6.079-13.41,8.016-20.259,2.345-8.291,4.168-16.731,5.289-25.277.271-2.067.493-4.139.666-6.216.214-2.565-3.787-2.551-4,0-.656,7.871-2.08,15.662-3.945,23.332-1.694,6.967-3.537,14.152-6.36,20.761-2.52,5.899-6.721,10.611-12.514,13.444-6.193,3.029-13.468,2.442-19.807.177-12.276-4.388-20.992-14.569-28.442-24.783-2.058-2.822-4.061-5.684-6.013-8.58-.928-1.377-1.844-2.761-2.746-4.155-.452-.698-.901-1.399-1.345-2.102-.2-.316-.398-.632-.596-.949-.109-.174-.633-1.014-.595-.802.042.232.094-.182.156-.348.124-.33-.062.121.092-.225.194-.435.406-.863.627-1.285.538-1.027,1.136-2.022,1.765-2.995,1.546-2.391,3.289-4.644,5.185-6.768,2.09-2.342,4.363-4.576,6.878-6.463,1.238-.929,2.538-1.781,3.898-2.521,1.641-.892,2.464.476,3.548,1.61,4.91,5.14,9.692,10.406,14.889,15.263,1.432,1.338,2.892,2.646,4.371,3.931,1.936,1.681,4.776-1.137,2.828-2.828h0Z"/><path class="h" d="M280.538,187.787c-.615-1.387-1.976-2.542-3.065-3.551-1.474-1.366-3.05-2.616-4.518-3.988-.893-.834-3.031-2.247-2.568-3.666.491-1.507,2.168-1.122,3.309-.69,7.267,2.747,13.947,6.904,21.087,9.949,1.833.782,3.335,1.566,4.572,3.2,1.279,1.689,2.021,3.73,1.963,5.851-.071,2.575,3.93,2.573,4,0,.125-4.545-2.523-9.384-6.518-11.624-1.717-.962-3.671-1.603-5.453-2.447-2.132-1.01-4.243-2.064-6.356-3.113-2.191-1.087-4.382-2.173-6.597-3.21-2.013-.943-4.091-2.036-6.226-2.67-2.104-.625-4.603-.402-6.204,1.234-1.704,1.74-2.276,4.687-.864,6.77,1.311,1.934,3.274,3.519,5.037,5.022,1.142.973,2.278,1.958,3.349,3.01.599.589,1.257,1.171,1.598,1.941.438.988,1.878,1.219,2.736.718,1.018-.595,1.157-1.745.718-2.736h0Z"/><path class="h" d="M278.183,188.547c-7.182.731-14.369,1.4-21.559,2.044-3.836.343-7.683.701-11.484,1.339-3.209.539-6.234,1.53-7.295,4.976-1.111,3.609,1.249,6.65,4.86,7.136,1.069.144,2.147-.257,2.46-1.397.256-.932-.319-2.315-1.397-2.46-.571-.077-1.213-.145-1.713-.458-.176-.11-.237-.16-.365-.318.02.025-.058-.158-.065-.179-.176-.514-.011-1.306.309-1.791.632-.957,1.655-1.153,2.717-1.368,1.259-.254,2.529-.454,3.802-.624,6.145-.821,12.351-1.216,18.522-1.796,3.737-.351,7.472-.724,11.207-1.104,1.075-.109,2-.841,2-2,0-.997-.919-2.11-2-2h0Z"/><path class="h" d="M266.364,198.25c-4.495.127-8.985.348-13.463.765-2.129.198-4.259.42-6.38.69-1.997.254-4.073.818-5.479,2.361-2.603,2.855-1.15,7.027,2.211,8.409,1.837.755,3.761.673,5.698.493,1.881-.174,3.763-.331,5.645-.48,4.097-.325,8.197-.63,12.302-.84,2.561-.131,2.577-4.132,0-4-6.248.32-12.49.822-18.72,1.392-1.227.112-2.849.268-3.922-.508-.587-.424-.807-1.122-.308-1.734.836-1.027,2.632-1.103,3.822-1.242,1.837-.214,3.676-.41,5.518-.578,4.35-.395,8.711-.607,13.077-.73,2.569-.072,2.579-4.073,0-4h0Z"/><path class="h" d="M249.776,206.998c-2.379.944-4.327,3.483-3.441,6.139.745,2.233,2.783,3.394,5.041,3.518,3.142.173,6.32.047,9.464-.001,1.709-.027,3.419-.056,5.127-.116,2.567-.089,2.579-4.09,0-4-3.531.123-7.067.16-10.6.167-1.362.003-2.721-.032-4.081-.055-.077-.001-.154-.009-.231-.016.596.057-.308-.091-.278-.078-.409-.17-.428-.297-.604-.545-.056-.079-.085-.237.02-.442.145-.281.464-.642.645-.714,1.003-.398,1.705-1.337,1.397-2.46-.262-.955-1.45-1.798-2.46-1.397h0Z"/><path class="h" d="M258.505,218.615c5.205.062,10.408.225,15.613.295,1.955.026,3.911.072,5.862.205,1.682.114,3.461.216,5.049.833,1.007.391,2.195-.431,2.46-1.397.311-1.131-.386-2.067-1.397-2.46-1.712-.665-3.67-.787-5.483-.93-2.074-.164-4.155-.217-6.235-.247-5.29-.076-10.579-.235-15.869-.298-2.575-.03-2.576,3.969,0,4h0Z"/><path class="g" d="M475.73,255.186c0-14.748.393-18.438.535-43.736.038-6.686-6.367-11.536-12.788-9.669-16.456,4.783-40.278,11.736-56.638,16.456-5.514,1.591-9.313,6.627-9.337,12.366-.107,24.858-.385,34.882-.385,57.251l78.614-32.667Z"/><path class="h" d="M399.116,287.852c.001-12.842.141-25.682.258-38.523.032-3.532.06-7.064.083-10.597.013-1.98.024-3.961.034-5.941.008-1.743-.052-3.442.426-5.134.785-2.772,2.662-5.127,5.169-6.538,1.29-.726,2.705-1.076,4.117-1.484,1.584-.457,3.167-.915,4.75-1.374,13.868-4.015,27.728-8.056,41.59-12.09,3.066-.892,6.186-2.075,9.324-2.671,2.638-.501,5.373.47,7.214,2.393,2.358,2.462,2.185,5.504,2.163,8.685-.024,3.542-.057,7.085-.102,10.627-.111,8.806-.363,17.611-.405,26.419-.006,1.187-.008,2.375-.008,3.562,0,2.574,4,2.578,4,0,.002-9.063.244-18.122.375-27.183.05-3.434.087-6.868.116-10.302.031-3.75.526-7.738-1.03-11.258-1.293-2.924-3.789-5.161-6.753-6.303-3.299-1.271-6.422-.6-9.688.35-14.342,4.171-28.68,8.353-43.024,12.513-3.308.959-6.616,1.917-9.925,2.873-3.23.933-6.179,2.21-8.46,4.781s-3.619,5.798-3.818,9.223c-.236,4.057-.06,8.176-.09,12.24-.098,13.256-.279,26.512-.311,39.769-.005,1.988-.007,3.976-.007,5.963,0,2.574,4,2.578,4,0h0Z"/><path class="i" d="M75.727,42.297c1.278-3.556,4.056-7.556,7.556-8.944,5.307-2.303,11.519-2.296,17.303-2.351.909-.009,6.669,1.073,8.475,1.795,7.167,2.444,11.367,8.243,11.333,18.306l.669.855c.971-6.43.593-14.1-.549-19.129-1.416-6.241-3.774-11.743-8.764-16.074-7.008-7.809-14.787-10.069-25.566-10.069-7.03,0-17.38,2.188-26.47,13.038-4.16,5.215-5.83,8.713-6.99,14.756-.58,3.037-1.02,8.293-.67,11.361.364,3.182,1.233,9.725,3.236,13.42.228-.596.391-1.025.391-1.025.298-.781,1.074-2.162,3.389-2.661,1.064-.23,2.375-.138,3.457.539l6.422-.332c.111-2.513.403-5.325.861-7.638.142-.716,1.018-2.703,1.875-3.542,1-.978,2.007-1.787,3.764-2.25"/><path class="h" d="M58.119,146.939c-1.388,5.226-2.319,10.66-3.113,16.006-.316,2.126-.595,4.356.107,6.441.582,1.727,1.671,3.238,3.061,4.41,2.941,2.481,6.712,4.054,10.292,5.362,3.478,1.27,7.088,1.952,10.703,2.696,2.513.517,3.587-3.338,1.063-3.857-6.26-1.288-12.535-2.682-18.015-6.166-1.203-.765-2.38-1.716-3.032-3.014-.77-1.533-.545-3.356-.295-4.993.375-2.458.828-4.906,1.29-7.35.535-2.832,1.055-5.685,1.796-8.472.661-2.49-3.196-3.553-3.857-1.063h0Z"/><path class="h" d="M67.182,198.146c-4.866-.774-9.633-2.186-14.201-4.022-4.477-1.8-8.941-4.098-12.723-7.122-9.016-7.21-12.248-18.979-11.49-30.138.361-5.31,1.776-10.382,3.1-15.509,1.247-4.828,2.513-9.655,4.029-14.406,2.666-8.362,6.499-16.4,13.97-21.496,3.909-2.666,8.317-4.475,12.677-6.256,3.601-1.471,7.192-2.85,10.882-4.083,2.429-.811,1.388-4.676-1.063-3.857-3.347,1.118-6.617,2.343-9.884,3.676-4.271,1.742-8.616,3.429-12.599,5.779-3.921,2.313-7.289,5.312-10.053,8.925-2.968,3.881-4.994,8.206-6.624,12.79-1.767,4.967-3.154,10.065-4.488,15.162-1.349,5.149-2.864,10.291-3.565,15.577-1.611,12.136.858,25.481,9.78,34.43,4.039,4.051,9.187,6.993,14.384,9.286,5.365,2.367,11.006,4.198,16.806,5.12,1.065.169,2.152-.274,2.46-1.397.261-.952-.324-2.29-1.397-2.46h0Z"/><path class="h" d="M144.707,170.859c.115-15.88.078-31.943-2.354-47.674-.853-5.519-2.372-11.154-5.661-15.758-2.987-4.181-7.097-7.234-11.562-9.695-4.423-2.438-9.089-4.377-13.727-6.357-.993-.424-2.143-.296-2.736.718-.492.841-.281,2.31.718,2.736,3.771,1.61,7.551,3.193,11.216,5.038,4.38,2.204,8.671,4.757,11.852,8.562,3.22,3.853,4.757,8.79,5.673,13.645,1.386,7.345,1.855,14.901,2.199,22.356.406,8.803.446,17.618.382,26.428-.019,2.574,3.981,2.577,4,0h0Z"/><path class="h" d="M120.837,125.698c-1.238,14.527-1.731,29.109-1.475,43.686.045,2.571,4.045,2.579,4,0-.256-14.577.238-29.159,1.475-43.686.219-2.565-3.783-2.55-4,0h0Z"/><path class="h" d="M76.664,200.538c-.477-2.323-.045-4.676.502-6.947.47-1.952.961-3.964,1.983-5.712,1.836-3.141,5.372-4.274,8.732-4.718,3.142-.415,6.309-.71,9.472-.903,2.922-.178,5.62.011,8.339,1.268,3.637,1.682,8.159,5.431,8.023,9.836-.079,2.575,3.921,2.572,4,0,.154-4.989-3.75-9.395-7.681-11.989-3.287-2.169-7.237-3.339-11.174-3.192-3.621.136-7.251.503-10.844.963-4.314.552-8.558,1.756-11.373,5.346-1.676,2.137-2.511,4.762-3.168,7.362-.813,3.219-1.345,6.457-.668,9.75.518,2.52,4.374,1.453,3.857-1.063h0Z"/><path class="h" d="M100.585,191.104c1.207.198,2.398.482,3.553.888.235.083.469.17.7.262.195.077.293.128.042.015.119.054.239.106.357.161.449.209.889.438,1.315.689.371.218.732.453,1.08.706.053.038.375.214.103.074-.269-.139.022.021.088.076.152.126.301.257.445.392.349.325.669.678.974,1.044.076.091.15.183.225.274.36.44-.12-.174.071.089.18.248.362.494.534.748.585.865,1.788,1.329,2.736.718.862-.556,1.344-1.809.718-2.736-1.301-1.925-2.835-3.561-4.833-4.766-2.141-1.291-4.587-2.087-7.044-2.491-1.028-.169-2.203.267-2.46,1.397-.219.964.293,2.279,1.397,2.46h0Z"/><path class="h" d="M100.824,198.613c.145.01.29.025.434.044l-.532-.071c.62.092,1.201.279,1.788.493.211.077-.495-.221-.15-.064.062.028.125.056.187.085.157.073.312.15.465.23.311.164.614.342.909.535.133.087.265.177.394.27.07.051.15.098.214.157-.091-.085-.363-.287-.113-.084.258.209.507.431.744.665.122.121.241.246.356.374.041.046.271.385.328.388-.025-.001-.294-.396-.131-.166.048.067.096.134.142.202.1.148.194.299.283.453.523.907,1.832,1.3,2.736.718.915-.59,1.277-1.766.718-2.736-.908-1.575-2.303-2.849-3.832-3.809-1.489-.935-3.182-1.559-4.941-1.683-1.046-.073-2.046.972-2,2,.051,1.146.88,1.921,2,2h0Z"/><path class="h" d="M98.079,205.204c.445.073.875.207,1.291.382l-.478-.202c.514.222.996.504,1.441.843l-.405-.313c.426.331.809.709,1.139,1.135l-.313-.405c.275.363.507.753.692,1.17.19.429.764.8,1.195.919.479.132,1.116.072,1.541-.202.427-.275.803-.685.919-1.195l.071-.532c-.001-.361-.092-.697-.273-1.009-.58-1.306-1.597-2.352-2.749-3.17-.535-.38-1.114-.645-1.718-.897-.416-.174-.845-.309-1.291-.382-.547-.089-1.045-.088-1.541.202-.415.243-.811.718-.919,1.195-.117.512-.091,1.087.202,1.541.265.411.692.837,1.195.919h0Z"/><path class="h" d="M76.893,204.79c2.299,4.522,8.714,5.589,13.285,5.582,1.215-.002,2.479-.086,3.684.105,1.158.183,1.953,1.057,2.882,1.705,2.234,1.558,5.834,1.546,7.209-1.154,1.166-2.289-2.284-4.316-3.454-2.019-.099.195-.229.24-.048.163-.142.06-.211.109-.38.089-.409-.048-.684-.13-1.038-.349-.812-.502-1.491-1.199-2.33-1.662-1.943-1.072-4.382-.881-6.526-.878-1.99.003-3.836-.274-5.75-.826-1.672-.482-3.259-1.158-4.081-2.776-1.167-2.295-4.619-.273-3.454,2.019h0Z"/><path class="h" d="M72.354,92.051c.904,3.376,3.116,6.225,5.245,8.933,2.272,2.89,4.973,5.292,8.185,7.095.614.345,1.407.379,2.019,0,1.974-1.223,3.713-2.65,5.535-4.078,1.748-1.369,3.565-2.665,5.192-4.18l-2.424.313c3.506,2.181,6.828,4.602,10.5,6.5,1.134.586,2.586.103,2.938-1.195,1.237-4.559,2.122-9.292,2.739-13.977.141-1.073-1.02-2-2-2-1.198,0-1.858.924-2,2-.57,4.325-1.455,8.707-2.596,12.914l2.938-1.195c-3.672-1.898-6.994-4.319-10.5-6.5-.773-.481-1.784-.282-2.424.313-1.526,1.42-3.221,2.644-4.863,3.923-1.669,1.3-3.251,2.592-5.055,3.709h2.019c-2.803-1.574-5.116-3.631-7.116-6.142-1.786-2.241-3.725-4.692-4.476-7.497-.665-2.484-4.525-1.43-3.857,1.063h0Z"/><path class="h" d="M77.826,82.654c-.167-.124-.334-.249-.498-.376.24.186-.243-.196-.238-.191-.285-.229-.567-.462-.846-.699-.562-.478-1.11-.973-1.642-1.484-1.016-.975-1.973-2.008-2.881-3.084-.426-.505-.845-1.017-1.247-1.541.196.256.045.057.004,0-.098-.137-.198-.272-.296-.409-.608-.847-1.215-1.703-1.729-2.611s-1.837-1.297-2.736-.718c-.92.593-1.27,1.762-.718,2.736,1.084,1.912,2.482,3.695,3.894,5.371,2.049,2.43,4.369,4.559,6.915,6.459.842.628,2.27.164,2.736-.718.554-1.048.181-2.066-.718-2.736h0Z"/><path class="h" d="M82.631,89.22c8.401,3.229,17.889,4.202,26.098-.127,3.773-1.99,7.245-4.94,9.539-8.556,2.397-3.78,3.517-8.184,4.061-12.582.711-5.748.569-11.61.961-17.387.174-2.569-3.826-2.559-4,0-.329,4.84-.391,9.692-.697,14.532-.247,3.909-.94,7.951-2.694,11.488-3.388,6.832-10.81,11.125-18.327,11.436-4.809.199-9.415-.945-13.878-2.66-1.008-.388-2.194.428-2.46,1.397-.31,1.128.385,2.071,1.397,2.46h0Z"/><path class="h" d="M63.537,54.388c-2.562-1.484-6.002-1.115-8.201.879-1.664,1.509-2.145,3.856-2.023,6.017.275,4.862,3.109,10.22,7.643,12.39,2.567,1.228,5.893,1.462,8.44.091,2.267-1.221.25-4.675-2.019-3.454-.318.171-.89.327-1.23.357-.314.027-.632.025-.947.011-.155-.007-.31-.018-.465-.033-.257-.026-.304-.032-.142-.017-.524-.083-1.036-.22-1.539-.385-.101-.035-.201-.072-.3-.112.257.11.293.122.11.035-.201-.172-.503-.277-.732-.421-1.822-1.146-3.12-2.943-3.942-4.798-.381-.86-.747-2.279-.84-3.18-.064-.621-.081-1.257-.022-1.879.026-.271.001-.137.101-.537.018-.073.265-.833.12-.44-.132.359.065-.122.103-.191.056-.102.418-.564.098-.197.15-.172.305-.339.482-.486-.268.223.354-.203.432-.241.853-.416,1.905-.503,2.854.048,2.232,1.293,4.248-2.163,2.019-3.454h0Z"/><path class="h" d="M86.655,71.647c-.232.221-.423.492-.596.762-.107.166-.2.342-.282.523-.154.339-.308.686-.416,1.044s-.152.733-.19,1.103c-.01.275.047.532.172.771.081.248.219.463.414.644.181.195.396.333.644.414.238.125.495.183.771.172l.532-.071c.339-.095.633-.266.883-.514l.313-.405c.181-.312.272-.648.273-1.009.003-.027.006-.055.009-.082l-.071.532c.045-.32.144-.63.268-.927l-.202.478c.124-.293.273-.581.467-.834l-.313.405c.048-.061.098-.119.154-.173.195-.181.333-.396.414-.644.125-.238.183-.495.172-.771.01-.275-.047-.532-.172-.771-.081-.248-.219-.463-.414-.644-.381-.35-.882-.61-1.414-.586l-.532.071c-.339.095-.633.266-.883.514h0Z"/><path class="h" d="M108.529,34.725c2.913,1.011,5.598,2.898,7.228,5.466,2.02,3.183,2.634,7.041,2.637,10.911.002,2.574,4.002,2.578,4,0-.004-4.521-.779-9.259-3.297-13.107-2.266-3.462-5.63-5.782-9.504-7.127-1.02-.354-2.187.404-2.46,1.397-.302,1.101.373,2.105,1.397,2.46h0Z"/><path class="h" d="M90.635,32.199c.399-.905.878-1.769,1.479-2.555l-.313.405c.574-.74,1.242-1.391,1.981-1.965l-.405.313c.416-.319.85-.612,1.297-.886.891-.547,1.311-1.815.718-2.736-.577-.895-1.782-1.303-2.736-.718-1.219.748-2.392,1.641-3.328,2.728-.885,1.028-1.601,2.156-2.147,3.396-.224.51-.356.982-.202,1.541.128.464.486.967.919,1.195.464.245,1.026.368,1.541.202.463-.15.99-.454,1.195-.919h0Z"/><path class="h" d="M97.617,33.032c.166-.149.337-.292.508-.434-.36.3.19-.137.26-.186.364-.254.741-.487,1.129-.702.391-.216.792-.409,1.2-.591-.438.195.225-.085.304-.115.212-.08.426-.155.642-.226.877-.29,1.777-.512,2.685-.683.231-.044.463-.084.695-.121.082-.013.825-.115.347-.055.474-.06.948-.108,1.424-.149,1.04-.089,2.051-.856,2-2-.045-1.007-.884-2.096-2-2-4.356.374-8.687,1.455-12.023,4.434-.783.699-.765,2.126,0,2.828.836.767,1.994.746,2.828,0h0Z"/><path class="h" d="M70.95,55.782c.07-1.505.189-3.008.371-4.504.118-.974.276-2.296.665-3.377.095-.265-.147.292-.01.018.067-.134.124-.273.189-.408.123-.252.254-.499.396-.741.136-.232.278-.464.441-.678-.247.325-.02.038.046-.023.106-.099.207-.205.313-.304.196-.184.398-.362.605-.533.167-.138-.207.13.098-.068.103-.067.203-.138.307-.202.272-.169.558-.328.852-.453-.201.085.031-.006.106-.03.218-.068.431-.138.651-.199,1.041-.288,1.683-1.418,1.397-2.46s-1.416-1.686-2.46-1.397c-2.938.814-5.256,2.846-6.464,5.634-.61,1.408-.817,2.834-1.021,4.35-.239,1.784-.401,3.576-.484,5.374-.05,1.08.955,2,2,2,1.125,0,1.95-.917,2-2h0Z"/><path class="h" d="M77.656,42.829c.08-.22.163-.439.251-.656.112-.276.071-.109-.025.057.064-.11.109-.246.162-.362.197-.429.41-.85.638-1.264.233-.422.481-.835.745-1.238.139-.212.283-.422.43-.628.067-.094.136-.186.204-.279.281-.387-.278.337.025-.033.604-.738,1.248-1.436,1.98-2.05.101-.084.212-.162.309-.25-.15.136-.267.202-.037.037.194-.139.392-.271.594-.397.182-.112.367-.218.556-.318.112-.059.226-.116.341-.17.122-.057.51-.212-.015.001.502-.204.911-.433,1.195-.919.251-.429.357-1.061.202-1.541-.302-.932-1.422-1.818-2.46-1.397-4.417,1.793-7.366,5.979-8.952,10.341-.358.985.402,2.234,1.397,2.46,1.128.257,2.077-.342,2.46-1.397h0Z"/><path class="h" d="M112.313,20.087c3.657,4.056,5.563,9.306,6.547,14.611,1.007,5.432,1.071,11.264.274,16.727-.156,1.067.265,2.149,1.397,2.46.941.258,2.303-.321,2.46-1.397,1.726-11.829.493-25.977-7.85-35.23-1.727-1.916-4.549.92-2.828,2.828h0Z"/><path class="h" d="M57.111,58.423c-1.397-2.551-1.974-5.561-2.465-8.401-.444-2.57-.767-5.139-.703-7.752.146-6.027,1.214-12.178,4.469-17.344,3.611-5.73,8.782-10.562,14.932-13.45,4.573-2.147,9.51-2.89,14.52-2.771,7.072.168,13.905,1.749,19.396,6.431,1.949,1.661,4.791-1.155,2.828-2.828-5.448-4.644-11.928-6.868-19.008-7.439-5.8-.468-11.653-.064-17.126,2.035-7.055,2.706-12.925,7.602-17.384,13.654-4.118,5.59-5.919,11.954-6.473,18.815-.289,3.577-.049,7.003.499,10.539.556,3.588,1.3,7.315,3.061,10.53,1.237,2.259,4.692.242,3.454-2.019h0Z"/><path class="h" d="M89.051,105.829c2.748,1.233,5.788,1.545,8.764,1.191,1.487-.177,2.872-.471,4.245-1.075.973-.428,1.848-1.011,2.719-1.615.886-.616,1.293-1.752.718-2.736-.513-.877-1.845-1.337-2.736-.718-.761.529-1.528,1.057-2.366,1.457-.01.005-.455.197-.187.088.243-.098-.089.03-.133.046-.24.083-.479.165-.724.233-.3.084-.603.154-.908.214-.133.026-.267.048-.4.072-.31.056-.025.01-.226.035-1.136.14-2.282.183-3.424.102-.138-.01-.276-.021-.414-.034-.091-.009-.475-.053-.209-.017-.325-.044-.648-.105-.969-.175-.325-.071-.648-.153-.965-.251-.141-.044-.282-.09-.422-.139.01.004-.553-.226-.342-.131-.985-.442-2.15-.284-2.736.718-.5.855-.273,2.292.718,2.736h0Z"/><path class="h" d="M101.47,73.922c-.122.072-.246.142-.373.205-.061.03-.147.053-.2.095.309-.242.309-.125.108-.048-.301.115-.61.211-.922.29-.35.089-.709.129-1.059.21.092-.021.424-.048.148-.023-.086.008-.171.017-.257.025-.192.016-.385.027-.578.032-.335.01-.67.003-1.005-.023-.081-.006-.162-.017-.243-.023-.262-.017.43.073.177.025-.17-.033-.34-.059-.508-.1-.15-.036-.299-.078-.446-.128-.132-.044-.391-.211-.524-.2l.207.087c-.069-.03-.137-.059-.206-.089-.092-.04-.185-.08-.277-.12-.321-.137-.642-.274-.968-.401-.977-.381-2.237.419-2.46,1.397-.262,1.148.351,2.052,1.397,2.46.056.022.453.189.181.07-.248-.109.062.028.108.048.317.137.635.275.955.406.352.144.708.271,1.08.353.867.191,1.773.27,2.66.234,1.721-.07,3.527-.44,5.024-1.328.9-.534,1.305-1.825.718-2.736-.584-.906-1.773-1.289-2.736-.718h0Z"/><path class="h" d="M84.24,57.291c-.363,1.533.167,4.971,3.034,5.076,3.761-.272,3.685-4.465,2.288-6.346-1.144-1.54-4.237-2.008-5.322,1.27Z"/><path class="h" d="M106.837,55.14c-.33,1.487.163,4.823,2.793,4.931,3.45-.256,3.372-4.324,2.086-6.152-1.052-1.497-3.891-1.956-4.88,1.221Z"/><path class="h" d="M98.709,64.431c.293.429.576.865.853,1.304.296.47.62.949.845,1.458l-.202-.478c.039.097.069.192.088.295l-.071-.532c.007.059.008.112.005.171l.071-.532c-.01.058-.022.104-.045.158l.202-.478c-.017.034-.038.066-.063.095l.313-.405c-.081.091-.166.176-.26.254l.405-.313c-.107.082-.218.149-.342.202l.478-.202c-.216.083-.441.099-.666.147-.474.1-.957.511-1.195.919-.251.429-.357,1.061-.202,1.541.157.484.457.951.919,1.195.492.26.993.317,1.541.202.191-.04.387-.052.573-.113.555-.18.992-.441,1.419-.839.545-.508.904-1.247.847-2.003-.046-.61-.248-1.126-.545-1.656-.463-.827-.98-1.626-1.514-2.409-.296-.434-.676-.776-1.195-.919-.479-.132-1.116-.072-1.541.202-.427.275-.803.685-.919,1.195-.115.504-.1,1.099.202,1.541h0Z"/><path class="h" d="M27.606,140.65c-4.123.682-8.014,2.823-10.626,6.113-2.724,3.43-3.803,7.442-3.805,11.774-.003,8.523-.042,17.046-.071,25.569-.013,3.644-.028,7.287-.029,10.931,0,2.574,4,2.578,4,0,0-6.942.04-13.884.063-20.826.014-4.102.026-8.204.033-12.306.006-3.639-.233-7.26,1.548-10.576,2.052-3.82,5.727-6.124,9.95-6.823,1.066-.176,1.662-1.497,1.397-2.46-.311-1.132-1.391-1.574-2.46-1.397h0Z"/></g></g></svg>