<?xml version="1.0" encoding="UTF-8"?><svg id="b" xmlns="http://www.w3.org/2000/svg" width="273.97" height="313.842" viewBox="0 0 273.97 313.842"><defs><style>.d{fill:#7abee6;}.d,.e,.f,.g{stroke-width:0px;}.e{fill:#211715;}.f{fill:#645d5c;}.g{fill:#fff;}</style></defs><g id="c"><path class="g" d="M175.481,67.745c1.285-1.236,3.011-1.695,4.486-1.637,3.211.127,4.57,1.884,5.154,2.915,1.743,3.077,1.647,8.735.456,12.231-.844,2.476-2.225,6.263-5.531,8.97-1.505,1.232-3.79,1.995-5.87,1.372-1.487,5.068-4.155,11.141-8.801,16.795-3.473,4.227-6.793,6.954-10.7,8.937.034,1.963-.028,2.645.15,5.083.079,1.084.163,2.254.564,3.312.538,1.39,1.263,2.594,2.428,3.534.711.573,1.427,1.059,2.166,1.482-.674,2.925-1.385,5.881-2.124,8.854-7.222,2.522-15.625,3.924-23.159,4.095-6.707-.149-14.138-1.289-20.801-3.321-.002-.01-.005-.02-.007-.029-.773-3.062-1.507-6.112-2.203-9.127,1.032-.54,2.021-1.165,3-1.953,1.165-.94,1.889-2.144,2.428-3.534.401-1.057.485-2.228.564-3.312.148-2.023.131-2.837.138-4.173-4.286-2.083-8.13-5.399-11.786-9.847-4.724-5.749-7.403-11.933-8.876-17.052-2.039.52-4.237-.252-5.693-1.463-3.285-2.733-4.637-6.531-5.462-9.013-1.165-3.505-1.217-9.164.55-12.227.592-1.026,1.965-2.773,5.177-2.875,1.476-.047,3.198.426,4.473,1.672,0,0-10.216-39.55,40.895-39.55,44.778,0,38.384,39.861,38.384,39.861Z"/><path class="g" d="M99.157,259.662c-2.658,13.45-6.691,32.913-10.15,50.496-.122.618.353,1.187.983,1.187h93.489c.629,0,1.104-.566.983-1.184-3.374-17.27-8.617-42.931-9.943-49.46l-75.362-1.04Z"/><path class="d" d="M129.505,192.569c-1.425-4.034-2.715-8.028-4.654-13.99-3.987-12.211-7.745-25.351-10.954-38.21,6.665,2.031,14.095,3.171,20.803,3.32,7.5-.17,15.86-1.56,23.06-4.06l.098-.034c-.032.134-.065.269-.099.403-3.23,12.98-7.03,26.25-11.04,38.58-3.89,11.93-5.17,15.98-10.14,28.24h-1.597c-2.486-6.133-4.049-10.211-5.476-14.249Z"/><path class="e" d="M115.419,118.468c-.005,1.026-.02,2.051-.081,3.075-.039.658-.078,1.319-.15,1.974-.033.296-.042.35-.14.757-.043.184-.094.365-.152.544-.115.294-.131.353-.05.176-.219.547-.522,1.07-.851,1.557-.166.235-.194.273-.083.113-.11.129-.224.254-.343.374-.183.184-.375.358-.577.522.123-.088.067-.046-.169.127-.145.106-.291.209-.439.311-.29.199-.587.389-.889.57-.52.312-1.054.598-1.599.864-2.45,1.196-5.473,2.214-8.247,3.305-1.205.474-2.046,1.607-1.676,2.952.316,1.148,1.739,2.154,2.952,1.676,3.357-1.321,6.902-2.449,10.087-4.142,1.334-.709,2.665-1.576,3.768-2.613,1.177-1.107,1.966-2.521,2.555-4.007.985-2.487.872-5.491.886-8.137.007-1.297-1.108-2.4-2.4-2.4-1.307,0-2.393,1.098-2.4,2.4h0Z"/><path class="e" d="M152.286,118.468c.014,2.646-.099,5.65.886,8.137.589,1.486,1.377,2.9,2.555,4.007,1.103,1.037,2.434,1.904,3.768,2.613,3.185,1.693,6.73,2.821,10.087,4.142,1.206.475,2.635-.521,2.952-1.676.374-1.362-.465-2.476-1.676-2.952-2.766-1.089-5.808-2.115-8.247-3.305-.545-.266-1.08-.552-1.599-.864-.302-.181-.598-.371-.889-.57-.148-.101-.295-.205-.439-.311-.236-.173-.293-.215-.169-.127-.202-.163-.395-.337-.577-.522-.119-.12-.233-.245-.343-.374.11.16.083.123-.083-.113-.328-.485-.635-1.01-.851-1.557.081.177.065.118-.05-.176-.058-.179-.109-.361-.152-.544-.098-.407-.107-.461-.14-.757-.073-.655-.111-1.316-.15-1.974-.061-1.025-.075-2.049-.081-3.075-.007-1.297-1.098-2.4-2.4-2.4s-2.407,1.098-2.4,2.4h0Z"/><path class="g" d="M51.103,195.153c2.152-8.2,3.887-14.023,6.004-21.244,1.18-4.03,4.49-12.02,6.83-16.19,4.21-7.52,8.72-10.94,15.55-14.39,3.23-1.63,11.45-4.92,23.04-8.9l.301-.118c2.837-2.445,5.907-4.646,8.172-6.102.9,3.99,1.86,8.05,2.89,12.13,3.21,12.87,6.97,26.02,10.96,38.24,3.88,11.93,5.16,15.98,10.13,28.24h1.597c4.97-12.26,6.25-16.31,10.14-28.24,4.01-12.33,7.81-25.6,11.04-38.58.99-3.97,1.93-7.91,2.8-11.79,2.263,1.452,5.347,3.66,8.199,6.11l.28.11c11.59,3.98,19.81,7.27,23.04,8.9,6.83,3.45,11.34,6.87,15.55,14.39,2.34,4.17,5.65,12.16,6.83,16.19,2.78,9.48,4.9,16.55,8.17,29.75,1.29,5.23,3.84,17.23,4.2,25.56.44,10.12-2.67,14.36-10.05,17.74-1.72.79-5.5,1.94-9.21,2.62-5.34,1.06-11.25,1.81-16.19,2.47,0,0-32.012,1.78-58.235,1.78s-53.035-2.53-53.035-2.53c-4.54,0-10.54-.81-15.88-1.87-3.71-.68-7.68-1.78-9.44-2.47-7.18-2.8-10.49-7.62-10.05-17.74.36-8.33,2.91-20.33,4.2-25.56.779-3.145,1.493-5.941,2.166-8.506Z"/><path class="f" d="M184.236,51.723c-.194-5.069-.951-9.961-1.626-13.239-.166-.814-.357-1.622-.574-2.422-.673-2.484-1.586-4.897-2.711-7.215-4.913-10.189-13.904-18.528-24.537-22.946-5.989-2.499-12.502-3.742-19.1-3.383-8.134-.447-16.128,1.549-23.178,5.299-11.899,6.329-21.108,17.654-23.757,30.667-1.147,5.592-1.005,15.146.042,19.605,0,0,1.335,5.789,1.968,7.765.3-.052.622-.081.964-.092,1.476-.047,3.198.426,4.473,1.672l4.514-.892c.256-5.937,1.271-10.502,3.994-15.561,1.413-2.625,3.246-5.44,5.362-7.685,0,0,2.829-2.764,6.022-4.653,2.206,4.509,6.618,9.168,10.311,12.554,5.169,4.739,9.791,6.2,15.726,7.379,0,0,1.588-1.831,6.4-1.654.686.385,4.802,2.781,5.52,3.165,3.003,1.605,9.673,4.315,14.346,5.607l6.95,2.185c1.296-1.338,3.092-1.832,4.619-1.772.905.036,1.663.201,2.299.443,1.762-4.045,2.173-9.534,1.971-14.829Z"/><path class="e" d="M184.342,67.753c2.469-5.837,2.61-12.399,2.146-18.638-.456-6.134-1.35-12.471-3.653-18.206-5.211-12.974-16.029-23.128-29.093-27.987-7.16-2.663-14.809-3.191-22.383-2.814-6.389.318-12.61,2.005-18.364,4.777-11.21,5.402-20.346,15.096-24.757,26.755-2.226,5.883-2.82,12.13-2.666,18.382.116,4.699.95,9.107,2.101,13.638.252.99.501,1.985.817,2.957.951,2.925,5.587,1.673,4.629-1.276-1.092-3.359-2.091-7.185-2.454-10.594-.593-5.568-.612-11.523.706-16.993,2.647-10.987,10.129-20.444,19.68-26.334,4.891-3.016,10.292-5.095,15.963-6.053,2.759-.466,5.522-.518,8.312-.468,3.601.065,7.063.033,10.616.768,12.558,2.6,23.807,10.833,30.077,22.021,3.281,5.855,4.745,12.313,5.444,18.933.346,3.276.515,6.583.369,9.876-.131,2.95-.476,6.092-1.634,8.831-.504,1.193-.358,2.571.861,3.284,1.006.589,2.776.34,3.284-.861h0Z"/><path class="e" d="M113.159,37.89c2.407,6.015,7.111,11.047,11.885,15.309s10.268,6.452,16.449,7.692c1.27.255,2.592-.364,2.952-1.676.325-1.183-.399-2.696-1.676-2.952-5.352-1.074-10.193-2.77-14.331-6.457-4.073-3.63-8.585-8.031-10.651-13.191-.481-1.203-1.602-2.047-2.952-1.676-1.143.314-2.161,1.742-1.676,2.952h0Z"/><path class="e" d="M139.795,47.404c-2.661,3.418.199,6.577,3.055,8.615s5.87,3.894,8.961,5.585c4.993,2.731,10.472,4.868,15.948,6.405,2.979.836,4.25-3.794,1.276-4.629-4.44-1.246-8.857-2.907-12.988-4.962-2.421-1.205-4.77-2.589-7.052-4.037-1.264-.802-2.502-1.642-3.722-2.508-.438-.31-.838-.631-1.211-1.02-.162-.169-.299-.374-.468-.532-.494-.46.395-.551-.404.476.796-1.022.996-2.398,0-3.394-.829-.829-2.593-1.029-3.394,0h0Z"/><path class="e" d="M108.375,41.599c-3.23,3.484-5.756,7.652-7.544,12.044-1.671,4.104-2.311,8.494-2.515,12.898-.143,3.088,4.657,3.081,4.8,0,.372-8.013,3.137-15.598,8.654-21.549,2.098-2.263-1.288-5.665-3.394-3.394h0Z"/><path class="e" d="M96.843,259.024c-2.297,11.618-4.686,23.218-7.025,34.827-.635,3.15-1.267,6.3-1.894,9.451-.296,1.484-.59,2.969-.883,4.454-.338,1.713-.868,3.491.479,4.925,1.002,1.066,2.271,1.065,3.576,1.065,9.074,0,18.148,0,27.222,0,13.641,0,27.282,0,40.924,0,7.969,0,15.973.219,23.939,0,.524-.014,1.02-.068,1.523-.252,3.311-1.208,1.838-5.178,1.343-7.69-1.015-5.153-2.044-10.304-3.078-15.453-1.79-8.914-3.599-17.825-5.412-26.734-.241-1.184-.482-2.368-.723-3.553-.258-1.271-1.764-2.003-2.952-1.676-1.322.363-1.935,1.678-1.676,2.952,1.474,7.259,2.954,14.517,4.421,21.777,1.028,5.089,2.052,10.178,3.068,15.269.485,2.43.968,4.86,1.448,7.291.228,1.153.455,2.305.681,3.458.055.279.109.558.164.838.31,1.585-.279-1.516,1.492-1.028-.013-.004-.029.003-.042,0-.553-.128-1.291,0-1.854,0h-4.282c-4.791,0-9.581,0-14.372,0-13.054,0-26.109,0-39.163,0h-30.351c-.978,0-1.968-.045-2.945,0-.143.007-.331-.037-.471,0-.002,0-.005,0-.007,0l1.417,1.411c.058-.294.116-.588.174-.882.146-.739.292-1.478.438-2.217.296-1.491.592-2.982.89-4.473,2.35-11.77,4.762-23.527,7.127-35.294.481-2.396.96-4.792,1.434-7.189.251-1.27-.362-2.591-1.676-2.952-1.18-.324-2.7.398-2.952,1.676h0Z"/><path class="e" d="M113.162,142.653c3.711,1.124,7.501,1.961,11.337,2.526,3.778.556,7.659,1.026,11.483.87,7.591-.31,15.226-1.637,22.417-4.105,2.905-.997,1.657-5.635-1.276-4.629-6.799,2.334-13.96,3.645-21.141,3.934s-14.682-1.146-21.543-3.224c-2.963-.897-4.229,3.734-1.276,4.629h0Z"/><path class="e" d="M94.065,88.904c1.762,7.972,5.43,15.439,10.687,21.686,5.143,6.112,11.81,11.011,19.854,12.251,1.279.197,2.581-.325,2.952-1.676.312-1.137-.388-2.754-1.676-2.952-7.33-1.13-13.051-5.449-17.736-11.017-4.725-5.615-7.874-12.425-9.453-19.568-.666-3.015-5.295-1.739-4.629,1.276h0Z"/><path class="e" d="M172.713,87.628c-1.465,6.628-4.276,12.972-8.455,18.345-2.097,2.696-4.528,5.272-7.344,7.227-2.597,1.803-5.442,3.083-8.438,4.062-2.924.955-1.672,5.592,1.276,4.629,3.369-1.101,6.663-2.518,9.584-4.546,3.181-2.208,5.918-4.946,8.315-7.977,4.732-5.982,8.043-13.016,9.689-20.463.665-3.01-3.961-4.296-4.629-1.276h0Z"/><path class="e" d="M177.178,69.442c1.012-.904,2.428-1.124,3.725-.803.516.128.993.327,1.415.66-.205-.161.284.298.279.293.484.519-.192-.336.167.187,1.428,2.075,1.421,5.027,1.212,7.435-.212,2.448-1.082,4.91-2.231,7.074-1.158,2.182-3.429,5.527-6.334,5.135-1.283-.173-2.576.308-2.952,1.676-.307,1.118.383,2.778,1.676,2.952,7.486,1.01,11.815-6.107,13.804-12.307,1.628-5.074,1.726-13.062-3.092-16.509-3.346-2.395-8.075-1.857-11.064.812-2.309,2.062,1.095,5.447,3.394,3.394h0Z"/><path class="e" d="M97.898,65.737c-2.741-2.486-6.714-3.072-10.065-1.462-2.436,1.17-3.874,3.547-4.513,6.099-1.461,5.835-.039,12.511,3.24,17.51,2.237,3.41,5.807,6.5,10.162,5.948,1.286-.163,2.4-.986,2.4-2.4,0-1.17-1.105-2.564-2.4-2.4-3.217.408-5.358-2.238-6.758-4.811-1.192-2.19-2.099-4.729-2.316-7.221s-.179-5.358,1.209-7.527c.093-.133.069-.107-.073.077.07-.088.144-.172.221-.254.062-.061.544-.511.362-.371.427-.327.903-.522,1.422-.644,1.312-.31,2.705-.065,3.714.85,2.283,2.071,5.688-1.313,3.394-3.394h0Z"/><path class="e" d="M80.108,248.898c-6.581-.031-13.289-1.153-19.661-2.749-2.372-.594-4.736-1.229-6.866-2.365-.771-.411-1.751-1.033-2.22-1.423-.685-.569-1.566-1.505-1.891-1.974-2.655-3.835-2.561-8.964-2.174-13.623.474-5.701,1.52-11.359,2.702-16.95,2.275-10.753,5.341-21.35,8.433-31.892,1.47-5.013,3.195-9.868,5.386-14.617,2.228-4.829,4.899-9.436,8.982-12.936,2.084-1.787,4.484-3.19,6.908-4.459,1.664-.871,3.649-1.752,5.08-2.344,6.139-2.54,12.482-4.507,18.658-6.933,1.206-.474,2.046-1.608,1.676-2.952-.316-1.149-1.739-2.153-2.952-1.676-9.996,3.927-21.017,6.527-29.934,12.781-4.784,3.355-8.393,7.851-11.069,13.024-2.54,4.909-4.792,10.159-6.373,15.461-3.289,11.031-6.523,22.132-9.014,33.375-1.309,5.908-2.406,11.883-3.068,17.9-.604,5.491-.862,11.328,1.561,16.444,2.376,5.016,7.415,7.669,12.522,9.149,3.821,1.108,7.749,1.859,11.677,2.469,3.848.597,7.737,1.073,11.636,1.091,3.089.015,3.093-4.785,0-4.8h0Z"/><path class="e" d="M168.12,136.633c9.582,3.764,19.426,6.105,27.96,11.735,4.399,2.901,7.598,6.953,10.031,11.589,2.391,4.555,4.47,9.426,5.962,14.353,3.218,10.627,6.272,21.354,8.761,32.177,1.226,5.331,2.289,10.726,2.992,16.152.641,4.95,1.377,10.479-.399,15.237-.623,1.669-1.803,3.184-3.393,4.447-1.641,1.303-4.122,2.51-6.221,3.201-7.207,2.371-14.946,3.126-22.434,4.125-1.285.171-2.4.98-2.4,2.4,0,1.164,1.106,2.573,2.4,2.4,7.191-.959,14.549-1.705,21.558-3.649,4.893-1.357,9.87-3.587,13.019-7.732,3.126-4.114,3.516-9.553,3.239-14.533-.342-6.145-1.424-12.275-2.646-18.299-2.278-11.226-5.467-22.275-8.688-33.261-1.586-5.408-3.468-10.629-5.814-15.761-2.371-5.187-5.304-10.221-9.637-14.024-4.064-3.567-8.904-5.975-13.854-8.045-6.298-2.634-12.814-4.649-19.159-7.142-1.207-.474-2.635.52-2.952,1.676-.374,1.361.465,2.476,1.676,2.952h0Z"/><path class="e" d="M128.228,102.377c2.482,1.322,5.159,1.884,7.971,1.866,2.909-.019,5.801-.62,8.118-2.441.992-.78.877-2.589,0-3.394-1.052-.966-2.336-.832-3.394,0,.743-.584.248-.192.056-.068-.156.101-.317.194-.481.281-.203.107-.791.285-.086.066-.224.069-.44.171-.664.243-.607.197-1.228.323-1.857.427.35-.058.17-.022-.076.003-.182.018-.365.034-.547.045-.439.029-.88.04-1.32.037-.394-.002-.788-.016-1.182-.043-.181-.012-.361-.027-.541-.045-.098-.01-.755-.134-.161-.016-.584-.116-1.163-.216-1.735-.388-.243-.073-.48-.161-.72-.244-.577-.2.442.219-.079-.03-.297-.142-.591-.289-.882-.444-1.108-.59-2.662-.316-3.284.861-.588,1.113-.322,2.653.861,3.284h0Z"/><path class="e" d="M134.806,83.675c.339,1.305.665,2.63.859,3.965l-.086-.638c.023.183.033.363.015.547l.086-.638c-.013.085-.031.165-.06.246l.242-.573c-.025.057-.051.106-.086.158l.375-.486c-.04.049-.079.088-.128.128l.486-.375c-.099.064-.204.116-.311.166l.573-.242c-.171.072-.341.125-.525.154l.638-.086c-.166.02-.327.018-.493,0l.638.086c-.186-.026-.368-.072-.554-.097-.319-.1-.638-.114-.957-.043-.319.014-.617.109-.892.285-.498.291-.973.862-1.103,1.434-.14.614-.11,1.304.242,1.849.312.485.834,1.021,1.434,1.103.457.062.9.178,1.365.198.73.032,1.405-.195,2.055-.497.812-.376,1.451-1.13,1.666-2.005.183-.748.107-1.37-.019-2.119-.214-1.277-.507-2.543-.832-3.796-.151-.579-.589-1.134-1.103-1.434s-1.273-.429-1.849-.242c-1.252.405-2.015,1.65-1.676,2.952h0Z"/><path class="e" d="M114.394,72.349c-.656,2.152-.229,7.102,3.813,7.523,5.341-.032,5.625-6.017,3.827-8.831-1.472-2.304-5.801-3.262-7.64,1.308Z"/><path class="e" d="M157.166,72.349c.657,2.152.229,7.102-3.812,7.523-5.341-.032-5.626-6.017-3.828-8.831,1.472-2.304,5.801-3.262,7.64,1.308Z"/><path class="e" d="M64.317,221.009c.239-.103.195-.085-.133.054.099-.041.198-.081.297-.121.175-.07.35-.138.526-.204.38-.143.763-.277,1.149-.403.721-.235,1.45-.442,2.187-.621.72-.175,1.447-.324,2.178-.443.198-.032.417-.039.61-.092-.648.178-.228.031-.037.009.389-.045.779-.079,1.17-.105,1.25-.084,2.461-1.044,2.4-2.4-.055-1.228-1.058-2.49-2.4-2.4-3.6.241-7.067,1.149-10.37,2.58-.514.223-.962.921-1.103,1.434-.158.574-.087,1.339.242,1.849.33.512.822.964,1.434,1.103.671.153,1.224.029,1.849-.242h0Z"/><path class="e" d="M80.447,170.167c.684,11.036,1.537,22.058,3.165,33,.191,1.283,1.811,1.99,2.952,1.676,1.374-.378,1.868-1.665,1.676-2.952-1.564-10.514-2.336-21.121-2.993-31.724-.19-3.069-4.992-3.09-4.8,0h0Z"/><path class="e" d="M188.375,175.337c-.435,14.552-2.194,28.952-3.718,43.415-.136,1.291,1.2,2.4,2.4,2.4,1.411,0,2.264-1.105,2.4-2.4,1.524-14.463,3.282-28.863,3.718-43.415.092-3.09-4.708-3.087-4.8,0h0Z"/><path class="e" d="M109.63,252.722h60.136c3.089,0,3.094-4.8,0-4.8h-60.136c-3.089,0-3.094,4.8,0,4.8h0Z"/><path class="e" d="M150.931,208.559c9.471-16.425,18.982-32.896,27.505-49.839.673-1.338,1.114-2.643.598-4.119-.444-1.271-1.532-2.227-2.446-3.172-1.863-1.928-3.809-3.773-5.763-5.608l-.486,3.769c1.437-.819,2.874-1.639,4.31-2.46,1.197-.684,2.802-1.293,3.519-2.542,1.438-2.506-1.545-5.713-3.088-7.477-3.762-4.301-8.526-7.887-13.31-10.976-1.263-.816-3.195-.038-3.526,1.434-4.848,21.563-10.976,42.904-18.292,63.761-1.755,5.003-3.698,9.936-5.688,14.849l2.314-1.762h-1.597c.771.588,1.543,1.175,2.314,1.762-7.764-19.169-13.904-39.026-19.175-59.015-1.715-6.504-3.323-13.035-4.805-19.595-.332-1.471-2.262-2.252-3.526-1.434-4.737,3.063-9.442,6.615-13.196,10.85-1.543,1.741-4.585,4.961-3.265,7.484.695,1.329,2.344,1.953,3.584,2.661,1.436.82,2.872,1.639,4.307,2.46l-.486-3.769c-1.73,1.625-3.454,3.257-5.119,4.949-1.613,1.638-3.685,3.354-3.27,5.9.189,1.157.866,2.222,1.397,3.254.556,1.079,1.115,2.157,1.677,3.233,1.069,2.048,2.149,4.091,3.238,6.129,4.522,8.467,9.189,16.856,13.924,25.205,2.666,4.7,5.356,9.387,8.057,14.068,1.544,2.674,5.693.26,4.145-2.423-8.921-15.454-17.735-30.98-25.958-46.82-.279-.538-.557-1.075-.835-1.614-.224-.434-.452-1.307-.825-1.606-.349-.28.052-.136-.135.125-.209.292.327-.339.385-.401.419-.448.843-.89,1.271-1.329,1.765-1.809,3.6-3.548,5.442-5.278,1.125-1.056.824-3.02-.486-3.769-1.148-.657-2.297-1.312-3.445-1.968-.575-.328-1.149-.656-1.723-.984-.287-.164-.574-.328-.861-.492-.523-.349-.569-.334-.139.045l.328,1.211c-.024.526.23-.244.321-.394.189-.314.392-.62.602-.92.426-.608.91-1.171,1.406-1.723,1.263-1.406,2.649-2.696,4.072-3.937,2.518-2.195,5.206-4.189,8.01-6.002l-3.526-1.434c4.873,21.561,10.982,42.897,18.293,63.761,1.753,5.003,3.697,9.936,5.687,14.849.404.997,1.169,1.762,2.314,1.762h1.597c1.158,0,1.911-.766,2.314-1.762,7.752-19.14,13.881-38.959,19.152-58.914,1.726-6.536,3.345-13.101,4.828-19.696l-3.526,1.434c2.84,1.833,5.556,3.853,8.104,6.075,1.382,1.205,2.722,2.465,3.949,3.829.459.51.907,1.031,1.311,1.586.22.303.429.614.626.932.104.168.443,1.053.421.556l.328-1.211c.43-.379.384-.394-.139-.045-.287.164-.573.328-.86.492-.574.328-1.147.656-1.721.984-1.149.657-2.299,1.313-3.449,1.968-1.312.747-1.609,2.715-.486,3.769,1.618,1.52,3.231,3.046,4.795,4.621.702.707,1.39,1.427,2.074,2.153.578.613.34.384.229.235-.195-.263.219-.404-.136-.127-.335.262-.617,1.202-.825,1.606-2.009,3.896-4.058,7.772-6.135,11.631-4.292,7.974-8.705,15.883-13.176,23.757-2.474,4.357-4.968,8.704-7.471,13.045-1.546,2.681,2.6,5.101,4.145,2.423h0Z"/><path class="e" d="M2.318,239.015c10.971,0,21.942,0,32.913,0,2.845,0,5.689,0,8.534,0,3.089,0,3.094-4.8,0-4.8-11.241,0-22.483,0-33.724,0-2.574,0-5.149,0-7.723,0-3.089,0-3.094,4.8,0,4.8h0Z"/><path class="e" d="M228.409,239.015c11.449,0,22.899,0,34.348,0,2.965,0,5.93,0,8.895,0,3.089,0,3.094-4.8,0-4.8-12.327,0-24.654,0-36.981,0-2.087,0-4.175,0-6.262,0-3.089,0-3.094,4.8,0,4.8h0Z"/><path class="g" d="M95.912,91.098c-3.252,0-5.5,2.519-5.5,5.466,0,3.412,2.127,5.569,5.5,5.569,3.451,0,5.5-2.157,5.5-5.569,0-2.967-2.26-5.466-5.5-5.466Z"/><path class="e" d="M95.912,88.698c-3.501.045-6.616,2.259-7.595,5.663-.871,3.027.067,6.612,2.588,8.561,2.535,1.958,6.32,2.115,9.122.628,2.73-1.449,4.071-4.727,3.739-7.716-.212-1.905-.993-3.751-2.443-5.053-1.506-1.352-3.39-2.057-5.411-2.082-1.256-.016-2.458,1.115-2.4,2.4.059,1.314,1.054,2.383,2.4,2.4.16.002.319.015.479.018.55.013-.553-.118-.024-.005.245.052.486.107.724.185l.139.048c.24.092.183.066-.17-.079.033.04.2.095.258.125.126.065.25.136.37.211.08.05.158.102.235.156.203.148.153.108-.152-.12.07.161.381.345.505.479.057.062.298.416.081.075-.226-.355.022.037.059.093.141.211.236.459.379.665.178.257-.199-.579-.049-.122.059.18.123.356.17.54.024.092.046.185.065.278l.027.141c.042.259.033.189-.025-.208-.058.196.032.527.028.741-.003.151-.01.302-.021.452l-.013.147c-.029.263-.019.194.032-.208-.103.236-.107.559-.181.809-.038.128-.084.252-.126.378-.071.214-.179.15.092-.214-.146.195-.231.456-.368.662-.044.066-.105.134-.143.203.29-.539.225-.284.061-.107-.07.075-.142.147-.216.218-.188.177-.501.269.06-.02-.182.094-.346.236-.527.336-.108.059-.243.102-.343.171.483-.33.332-.134.085-.051-.216.072-.436.131-.658.178-.185.039-.63.043.074.007-.148.008-.296.031-.444.04-.304.018-.61.018-.914,0-.098-.006-.195-.017-.293-.023-.523-.036.574.124.075.004-.222-.053-.444-.096-.662-.164-.12-.037-.251-.108-.373-.131.599.113.288.128.048,0-.202-.107-.383-.265-.585-.365.495.247.318.271.149.103-.073-.072-.152-.139-.224-.212-.087-.088-.166-.182-.249-.274-.249-.273.138.162.147.191-.081-.248-.323-.526-.446-.765-.108-.209.039-.196.089.214-.015-.119-.094-.262-.13-.378-.067-.221-.11-.445-.162-.67-.117-.504.04.595.006.068-.01-.149-.025-.297-.03-.447-.01-.261.09-.648.024-.89.103.374-.091.466-.012.14.039-.161.07-.324.116-.484.039-.136.088-.267.132-.402.153-.467-.261.485-.02.059.148-.262.319-.513.467-.773.153-.272-.406.446-.073.105.13-.133.251-.272.387-.399.044-.041.193-.142.21-.184-.305.228-.355.268-.152.119.077-.054.155-.106.235-.157.1-.063.203-.122.307-.179.063-.035.126-.067.191-.098.231-.107.173-.084-.176.068.211.028.621-.206.852-.255l.149-.03c.261-.043.201-.037-.179.019.037.041.559-.032.637-.033,1.255-.016,2.459-1.092,2.4-2.4-.058-1.286-1.055-2.417-2.4-2.4Z"/><path class="g" d="M118.317,267.916c.534.354,1.067.687,1.586.98,1.2.678,3.932,1.469,5.659.48,1.07-.613,1.626-1.621,1.723-2.678.097.058.15.089.15.089,2.321,1.366,6.063,2.051,8.141.233,1.209-1.058,1.94-3.951.489-6.048-.198-.355-.475-.739-.815-1.147,1.208.473,3.468,1.092,4.772-1.624.862-1.798.102-4.58-2.064-6.661-.818-.785-2.514-2.793-4.192-4.265-.36-.313-.725-.625-1.092-.933l1.525-.227c1.121.067,2.482-.97,3.04-2.043.471-.906.338-2.331.011-3.22-.764-2.074-4.277-4.346-7.907-6.264-3.879-2.051-6.64-2.865-10.723-3.433-3.848-.379-6.498-.454-10.35.162-3.485.558-5.937,2.178-8.437,3.842-1.507,1.003-4.715,4.419-5.503,6.097-1.423,3.027-2.171,5.847-1.956,8.593.358,4.558,1.527,7.125,4.374,10.088,1.657,1.725,4.543,4.354,6.409,5.831,2.618,2.072,5.131,2.341,6.959,1.558,1.47-.63,1.635-3.402,1.044-4.5,0,0-.056-.104-.112-.208l.053.037c.586.41,1.099.768,1.48,1.039,1.339.949,3.546,2.767,5.738,4.221Z"/><path class="e" d="M119.67,249.382c2.461,1.93,4.85,3.945,7.214,5.992,2.129,1.844,4.387,3.608,6.28,5.702.509.563,1.219,1.473,1.307,2.3.052.488-.009.697-.159,1.238-.034.117-.074.233-.119.346.083-.213.065-.195-.056.053-.158.236-.153.248.013.034-.062.075-.129.145-.201.21-.098.089-.091.087.022-.007-.138.092-.28.176-.428.251.296-.146-.389.114-.488.141-.124.032-.25.057-.377.078.208-.032.161-.034-.142-.005-.314-.003-.624.005-.938-.018-.856-.064-2.092-.493-2.95-.982-2.689-1.53-5.11,2.615-2.423,4.145,2.361,1.344,5.165,1.984,7.855,1.465,2.621-.506,4.581-2.555,5.033-5.173,1-5.791-4.597-9.497-8.417-12.81-2.501-2.169-5.025-4.31-7.63-6.353-1.019-.799-2.4-.994-3.394,0-.831.831-1.026,2.59,0,3.394h0Z"/><path class="e" d="M135.566,262.443c3.061.639,5.769-.82,6.855-3.801,1.026-2.816-.283-5.957-2.12-8.109-3.761-4.405-8.356-7.916-12.937-11.412-1.031-.787-2.686-.161-3.284.861-.722,1.234-.173,2.495.861,3.284,3.66,2.793,7.254,5.637,10.423,9.039.571.613,1.245,1.182,1.717,1.863.232.336.531.883.601,1.065.095.246.167.501.227.758.031.134.069.567.047.226.015.234.019.474-.003.708.046-.48-.066.166-.087.237.124-.404-.044.083-.144.244-.106.171-.038.068-.205.281-.277.352.099.019-.249.17.46-.199-.112.001-.199.019.4-.084.118-.048-.134-.042-.506.012.426.088-.095-.021-1.268-.265-2.594.371-2.952,1.676-.327,1.191.402,2.686,1.676,2.952h0Z"/><path class="e" d="M112.009,254.546c2.498,1.988,5.021,3.944,7.473,5.99,1.381,1.152,2.778,2.306,4.019,3.612.756.796,1.502,1.525,1.394,2.356,0,.005-.094.341-.032.222-.131.25-.067.216-.281.413-.292.268-.761.314-1.254.296-1.348-.048-2.148-.537-3.26-1.242-2.471-1.567-4.702-3.473-7.098-5.148-1.179-.824-2.361-1.642-3.537-2.471-.624-.44-1.246-.881-1.864-1.329-.27-.196-.539-.392-.806-.592-.09-.067-.18-.135-.27-.203-.556-.42.344.275-.123-.097-1.013-.807-2.405-.989-3.394,0-.837.837-1.019,2.582,0,3.394,2.369,1.888,4.897,3.576,7.379,5.309,2.781,1.941,5.345,4.289,8.335,5.911,3.332,1.807,8.294,1.983,10.317-1.819,2.008-3.775-.719-7.189-3.405-9.655-3.234-2.969-6.768-5.611-10.2-8.343-1.013-.806-2.405-.989-3.394,0-.837.837-1.02,2.583,0,3.394h0Z"/><path class="e" d="M134.197,248.515c4.482-.119,6.848-4.962,5.144-8.827-.766-1.736-2.271-2.99-3.76-4.098-1.819-1.353-3.821-2.478-5.843-3.495-3.73-1.875-7.665-3.027-11.826-3.407s-8.707-.437-12.718.917c-3.215,1.085-6.391,3.001-8.83,5.365-2.637,2.555-4.502,5.291-5.601,8.819-1.158,3.714-1.083,7.939.256,11.607,1.228,3.365,3.584,5.908,6.155,8.321,3.033,2.847,6.573,6.532,11.064,6.41,2.015-.055,4.038-.803,4.97-2.707.891-1.819.872-3.985.024-5.805-.547-1.175-2.239-1.472-3.284-.861-1.205.705-1.41,2.104-.861,3.284-.237-.509-.036.327-.028-.066-.006.283.041.563.004.847,0-.003-.358.712.062.318.043-.041.579-.06-.188.069.1-.017-.777.139-.543.116-.69.069-1.404-.096-2.038-.37-2.44-1.052-4.59-3.469-6.474-5.281-1.685-1.62-3.388-3.324-4.235-5.552-.955-2.514-1.197-5.418-.547-8.027.644-2.586,1.735-4.633,3.521-6.563,1.836-1.984,3.185-2.958,5.601-4.281,2.777-1.522,5.888-1.942,9.021-1.983,3.18-.042,6.387.278,9.452,1.148,3.476.986,6.823,2.776,9.782,4.83.59.41,1.152.848,1.667,1.351.344.336.758.833.838,1.036.279.713.243,2.056-.783,2.083-3.083.082-3.095,4.882,0,4.8h0Z"/><path class="g" d="M151.951,272.202c-.56.372-1.12.721-1.665,1.029-1.26.712-4.127,1.542-5.941.504-1.123-.643-1.707-1.702-1.809-2.812-.102.06-.158.093-.158.093-2.436,1.434-6.365,2.153-8.546.244-1.269-1.111-2.037-4.147-.513-6.348.208-.373.498-.776.856-1.204-1.268.497-3.64,1.146-5.009-1.705-.905-1.887-.107-4.808,2.167-6.992.859-.824,2.639-2.932,4.401-4.477.378-.329.762-.656,1.147-.979l-1.6-.238c-1.177.071-2.606-1.018-3.191-2.144-.494-.951-.355-2.446-.011-3.38.802-2.177,4.49-4.562,8.3-6.576,4.072-2.153,6.97-3.007,11.256-3.604,4.039-.398,6.821-.477,10.865.171,3.658.586,6.233,2.287,8.856,4.033,1.582,1.053,4.95,4.639,5.777,6.4,1.493,3.178,2.279,6.138,2.053,9.02-.376,4.785-1.603,7.479-4.591,10.59-1.739,1.81-4.768,4.57-6.728,6.121-2.749,2.175-5.386,2.458-7.305,1.635-1.544-.662-1.717-3.571-1.096-4.723,0,0,.059-.109.118-.218l-.056.039c-.615.431-1.154.807-1.554,1.09-1.406.996-3.722,2.905-6.023,4.431Z"/><path class="e" d="M147.052,249.268c-2.466,1.934-4.864,3.948-7.234,5.997-2.048,1.771-4.166,3.487-6.086,5.398-1.975,1.965-3.769,4.352-3.65,7.283s1.653,5.402,4.457,6.421c2.925,1.064,6.435.211,9.052-1.278,2.684-1.528.269-5.676-2.423-4.145-.891.507-2.096.937-3.016,1.036-.606.065-1.225.053-1.572-.02-.519-.108-.909-.304-1.049-.397-.101-.089-.196-.186-.283-.289.157.199.155.179-.005-.06-.19-.455,0,.131-.158-.323-.217-.628-.26-.833-.197-1.508.075-.804.846-1.84,1.394-2.447,1.955-2.162,4.283-3.985,6.482-5.89,2.517-2.181,5.061-4.33,7.683-6.385,1.021-.801.839-2.555,0-3.394-1.008-1.008-2.371-.803-3.394,0h0Z"/><path class="e" d="M132.536,261.713c-.575.12.479.039-.131.026-.111-.002-.709-.063-.172.04-.057-.011-.603-.113-.323-.068.072.012-.076-.046-.107-.074-.035-.032-.342-.403-.246-.269-.048-.067-.379-.843-.244-.421-.031-.097-.143-.73-.096-.281-.022-.205-.016-.412-.009-.617.014-.167.008-.168-.019-.002l.049-.261c.055-.268.127-.537.22-.794.142-.392.392-.853.692-1.28.513-.73,1.213-1.328,1.821-1.98,3.329-3.572,7.092-6.551,10.965-9.507,1.029-.785,1.572-2.067.861-3.284-.592-1.013-2.247-1.652-3.284-.861-4.8,3.663-9.617,7.344-13.556,11.96-1.9,2.227-3.261,5.482-2.195,8.396,1.121,3.064,3.901,4.563,7.049,3.906,1.269-.265,2.004-1.759,1.676-2.952-.362-1.317-1.679-1.942-2.952-1.676h0Z"/><path class="e" d="M155.094,254.689c-3.193,2.542-6.429,5.032-9.517,7.702-2.818,2.436-6.257,5.534-5.274,9.67,1.076,4.528,6.214,5.299,9.956,3.806,3.446-1.375,6.242-4.129,9.24-6.244,2.838-2.002,5.754-3.912,8.472-6.079,1.014-.809.844-2.55,0-3.394-1.002-1.002-2.377-.811-3.394,0-.073.058-.335.26.023-.013-.09.068-.179.137-.269.204-.234.175-.469.35-.704.522-.548.401-1.1.796-1.653,1.188-1.161.823-2.329,1.636-3.497,2.449-2.386,1.662-4.644,3.496-7.033,5.152-1.26.873-2.426,1.68-3.75,2.009-.929.231-2.192.349-2.647-.522-.127-.243-.155-.608-.087-.912.108-.485.45-.907.749-1.266,1.062-1.277,2.332-2.382,3.591-3.458,2.995-2.559,6.109-4.968,9.19-7.421,1.015-.808.844-2.551,0-3.394-1.003-1.003-2.377-.81-3.394,0h0Z"/><path class="e" d="M135.281,246.917c-.957-.025-1.198-1.141-1.067-1.867.184-1.017,1.292-1.925,2.265-2.658,2.721-2.05,5.961-3.801,9.17-4.94,3.08-1.093,6.303-1.569,9.558-1.71s6.804-.004,9.869,1.225c2.459.986,4.75,2.502,6.37,4.06,1.831,1.761,3.38,3.564,4.276,5.961,1.11,2.971,1.371,5.92.653,9.016-.584,2.52-1.905,4.509-3.694,6.346-1.216,1.249-2.498,2.437-3.799,3.596-1.168,1.04-2.341,2.162-3.713,2.931-1.116.625-2.554,1.036-3.705.495.082.039.213.043.259.143.04.087-.188-.568-.208-.749.035.311.026-.578.021-.504-.029.373.265-.755.001-.192.55-1.173.328-2.588-.861-3.284-1.041-.609-2.731-.318-3.284.861-1.546,3.294-.339,7.705,3.499,8.552,4.287.946,7.767-1.687,10.804-4.345,2.764-2.419,5.738-4.989,7.597-8.204,1.882-3.255,2.66-7.476,2.211-11.194-.478-3.963-2.015-7.627-4.61-10.648-2.267-2.64-4.943-4.726-8.028-6.342-3.934-2.061-8.427-2.651-12.827-2.553-4.257.094-8.606.683-12.585,2.254-2.421.956-4.748,2.145-6.978,3.487-2.014,1.212-4.094,2.587-5.557,4.456-1.353,1.727-1.926,4.089-1.32,6.235.69,2.441,3.178,4.303,5.683,4.37,3.09.082,3.088-4.718,0-4.8h0Z"/></g></svg>