<?xml version="1.0" encoding="UTF-8"?><svg id="b" xmlns="http://www.w3.org/2000/svg" width="263.977" height="311.787" viewBox="0 0 263.977 311.787"><defs><style>.e{fill:#fff;}.e,.f,.g,.h{stroke-width:0px;}.f{fill:#3f88c9;}.g{fill:#211715;}.h{fill:#645d5c;}</style></defs><g id="c"><g id="d"><path class="e" d="m88.125,309.373h-3.132c-.63,0-1.105-.57-.983-1.188,3.049-15.491,6.596-32.612,8.936-44.454,0,0,1.52-7.691,3.039-15.382h71.412c1.837,9.045,3.674,18.09,3.674,18.09,1.12,5.512,5.532,27.109,8.394,41.747.121.617-.353,1.186-.983,1.186h-90.357Z"/><path class="g" d="m90.632,263.094c-2.22,11.228-4.535,22.437-6.788,33.659-.603,3.005-1.204,6.011-1.798,9.018-.288,1.459-.79,2.947.027,4.331.63,1.068,1.724,1.599,2.928,1.672.514.031,1.041,0,1.556,0,8.844,0,17.688,0,26.532,0,13.044,0,26.088,0,39.132,0,8.405,0,16.81,0,25.215,0,1.244,0,2.415.008,3.41-.969,1.927-1.891.542-5.257.089-7.548-.496-2.513-.996-5.025-1.499-7.537-1.761-8.81-3.547-17.615-5.339-26.418-.237-1.166-.475-2.333-.712-3.499-.258-1.271-1.764-2.003-2.952-1.676-1.322.363-1.935,1.678-1.676,2.952,1.466,7.215,2.936,14.429,4.39,21.646.978,4.85,1.95,9.702,2.912,14.556.21,1.06.419,2.119.628,3.179.095.483.117,1.261.334,1.701l.065.334,1.396-1.52s-.01.002-.013,0c-.098-.058-.374.009-.484,0-2.487-.207-5.082,0-7.575,0-4.802,0-9.604,0-14.406,0h-37.717c-9.726,0-19.453,0-29.179,0h-3.235c-.238,0-.516-.04-.751,0-.037.006-.082-.01-.119,0-.002,0-.005,0-.007,0l1.418,1.407c.058-.296.117-.592.175-.889.147-.745.295-1.49.442-2.235,2.249-11.334,4.574-22.654,6.853-33.982.463-2.301.923-4.603,1.379-6.906.251-1.27-.362-2.591-1.676-2.952-1.18-.324-2.7.399-2.952,1.676h0Z"/><path class="g" d="m104.633,250.75h60.136c3.089,0,3.094-4.8,0-4.8h-60.136c-3.089,0-3.094,4.8,0,4.8h0Z"/><path class="g" d="m126.211,274.065h5.028c.615,0,1.262-.268,1.697-.703.416-.416.73-1.099.703-1.697-.058-1.3-1.055-2.4-2.4-2.4h-5.028c-.615,0-1.262.268-1.697.703-.416.416-.73,1.099-.703,1.697.058,1.3,1.055,2.4,2.4,2.4h0Z"/><path class="g" d="m127.877,299.494h36.301c3.089,0,3.094-4.8,0-4.8h-36.301c-3.089,0-3.094,4.8,0,4.8h0Z"/><path class="g" d="m97.288,299.494h17.811c3.089,0,3.094-4.8,0-4.8h-17.811c-3.089,0-3.094,4.8,0,4.8h0Z"/><path class="g" d="m145.655,287.633h5.333c.615,0,1.262-.268,1.697-.703.416-.416.73-1.099.703-1.697-.028-.621-.232-1.264-.703-1.697s-1.047-.703-1.697-.703h-5.333c-.615,0-1.262.268-1.697.703-.416.416-.73,1.099-.703,1.697.028.621.232,1.264.703,1.697s1.047.703,1.697.703h0Z"/><path class="g" d="m141.404,261.855h4.623c.615,0,1.262-.268,1.697-.703.416-.416.73-1.099.703-1.697-.028-.621-.232-1.264-.703-1.697s-1.047-.703-1.697-.703h-4.623c-.615,0-1.262.268-1.697.703-.416.416-.73,1.099-.703,1.697.028.621.232,1.264.703,1.697s1.047.703,1.697.703h0Z"/><path class="e" d="m170.791,65.773c1.285-1.236,3.011-1.695,4.486-1.637,3.211.127,4.57,1.884,5.154,2.915,1.743,3.077,1.647,8.735.456,12.231-.844,2.476-2.225,6.263-5.531,8.97-1.505,1.232-3.79,1.995-5.87,1.372-1.487,5.068-4.155,11.141-8.801,16.795-3.474,4.227-6.793,6.955-10.701,8.937.029,1.647-.009,2.393.083,4.03-2.761,2.152-15.82,12.238-16.893,12.984-.568.058-2.723,0-2.723,0-1.159-.805-15.529-11.38-17.403-12.783.086-1.433.075-2.19.082-3.322-4.287-2.083-8.131-5.399-11.786-9.847-4.724-5.749-7.403-11.933-8.876-17.052-2.039.52-4.237-.252-5.693-1.463-3.285-2.733-4.637-6.531-5.462-9.013-1.165-3.505-1.217-9.164.55-12.227.592-1.026,1.965-2.773,5.177-2.875,1.476-.047,3.198.426,4.473,1.672,0,0-10.018-39.715,41.649-39.715s37.63,40.026,37.63,40.026Z"/><path class="e" d="m131.01,204.847c-4.969-12.263-6.248-16.312-10.133-28.241-5.249-16.12-10.127-33.851-13.864-50.426,1.81-2.064,4.016-4.492,5.964-6.634,1.611,1.202,16.301,12.013,17.473,12.827h2.723c1.172-.814,16.629-12.761,17.387-13.362,1.893,2.076,4.254,5.176,6.043,7.157-.874,3.901-1.82,7.865-2.816,11.859-3.23,12.98-7.03,26.25-11.04,38.58-3.89,11.93-5.17,15.98-10.14,28.24h-1.599Z"/><path class="h" d="m145.468,37.212c-6.071,6.836-16.356,12.437-27.812,18.713-5.888,2.657-8.768,4.029-19.291,7.548l-6.853,1.989c-1.275-1.246-2.998-1.718-4.473-1.672-.796.025-1.48.152-2.065.343l-.28-1.065c-1.363-5.179-1.937-10.284-1.746-14.738.797-18.638,10.76-30.154,19.557-36.619,7.577-5.568,17.045-8.89,28.195-8.89,10.63,0,19.239,2.728,26.372,7.656,1.588,1.097,4.66,3.438,6.15,4.665,7.918,6.519,14.563,17.479,15.234,33.187.218,5.096-.357,9.287-1.72,14.738l-.299,1.196c-.356-.067-.742-.111-1.159-.128-1.922-.076-4.269.726-5.508,2.982-6.187-1.903-12.446-7.986-16.142-12.705-3.788-4.835-6.158-10.643-8.159-17.202"/><path class="g" d="m110.729,116.496c-.005,1.026-.02,2.051-.081,3.075-.039.658-.078,1.319-.15,1.974-.033.296-.042.35-.14.757-.043.184-.094.365-.152.544-.115.294-.131.353-.05.176-.219.547-.522,1.07-.851,1.557-.166.235-.194.273-.083.113-.11.129-.224.254-.343.374-.183.184-.375.358-.577.522.123-.088.067-.046-.169.127-.145.106-.291.209-.439.311-.29.199-.587.389-.889.57-.52.312-1.054.598-1.599.864-2.45,1.196-5.473,2.214-8.247,3.305-1.205.474-2.046,1.607-1.676,2.952.316,1.148,1.739,2.154,2.952,1.676,3.357-1.321,6.902-2.449,10.087-4.142,1.334-.709,2.665-1.576,3.768-2.613,1.177-1.107,1.966-2.521,2.555-4.007.985-2.487.872-5.491.886-8.137.007-1.297-1.108-2.4-2.4-2.4-1.307,0-2.393,1.098-2.4,2.4h0Z"/><path class="g" d="m147.596,116.496c.014,2.646-.099,5.65.886,8.137.589,1.486,1.377,2.9,2.555,4.007,1.103,1.037,2.434,1.904,3.768,2.613,3.185,1.693,6.73,2.821,10.087,4.142,1.206.475,2.635-.521,2.952-1.676.374-1.362-.465-2.476-1.676-2.952-2.766-1.089-5.808-2.115-8.247-3.305-.545-.266-1.08-.552-1.599-.864-.302-.181-.598-.371-.889-.57-.148-.101-.295-.205-.439-.311-.236-.173-.293-.215-.169-.127-.202-.163-.395-.337-.577-.522-.119-.12-.233-.245-.343-.374.11.16.083.123-.083-.113-.328-.485-.635-1.01-.851-1.557.081.177.065.118-.05-.176-.058-.179-.109-.361-.152-.544-.098-.407-.107-.461-.14-.757-.073-.655-.111-1.316-.15-1.974-.061-1.025-.075-2.049-.081-3.075-.007-1.297-1.098-2.4-2.4-2.4s-2.407,1.098-2.4,2.4h0Z"/><path class="h" d="m175.924,47.095l7.017-.058c7.553.64,12.305-4.099,16.01-9.571-5.116-2.402-7.575-3.13-10.515-8.933-2.857-5.639-3.22-9.494-4.417-15.735-1.806-9.414-16.244-15.551-25.969-4.425l-3.228,4.817"/><path class="g" d="m143.771,35.515c-4.971,5.538-11.525,9.444-17.92,13.111-3.496,2.004-7.005,4.142-10.678,5.802-1.12.506-2.24,1.011-3.367,1.503-1.136.496-1.693.731-2.945,1.231-3.662,1.464-7.395,2.745-11.133,3.997-2.914.976-1.665,5.613,1.276,4.629,5.945-1.991,11.792-4.155,17.511-6.727,3.574-1.607,6.971-3.575,10.381-5.504,3.677-2.08,7.325-4.229,10.804-6.63,3.404-2.349,6.697-4.931,9.466-8.017,2.058-2.293-1.325-5.699-3.394-3.394h0Z"/><path class="g" d="m143.154,37.85c2.164,7.047,4.991,13.775,9.759,19.473,4.361,5.212,10.011,10.332,16.678,12.243,2.975.853,4.245-3.777,1.276-4.629-5.861-1.68-10.744-6.45-14.56-11.009-4.21-5.031-6.619-11.15-8.525-17.355-.904-2.944-5.539-1.689-4.629,1.276h0Z"/><path class="g" d="m89.376,86.933c1.762,7.972,5.43,15.439,10.687,21.686,5.143,6.112,11.81,11.011,19.854,12.251,1.279.197,2.581-.325,2.952-1.676.312-1.137-.388-2.754-1.676-2.952-7.33-1.13-13.051-5.449-17.736-11.017-4.725-5.615-7.874-12.425-9.453-19.568-.666-3.015-5.295-1.739-4.629,1.276h0Z"/><path class="g" d="m168.024,85.657c-1.465,6.628-4.276,12.972-8.455,18.345-2.097,2.696-4.528,5.272-7.344,7.227-2.597,1.803-5.442,3.083-8.438,4.062-2.924.955-1.672,5.592,1.276,4.629,3.369-1.101,6.663-2.518,9.584-4.546,3.181-2.208,5.918-4.946,8.315-7.977,4.732-5.982,8.043-13.016,9.689-20.463.665-3.01-3.961-4.296-4.629-1.276h0Z"/><path class="g" d="m172.488,67.47c1.012-.904,2.428-1.124,3.725-.803.516.128.993.327,1.415.66-.205-.161.284.298.279.293.484.519-.192-.336.167.187,1.428,2.075,1.421,5.027,1.212,7.435-.212,2.448-1.082,4.91-2.231,7.074-1.158,2.182-3.429,5.527-6.334,5.135-1.283-.173-2.576.308-2.952,1.676-.307,1.118.383,2.778,1.676,2.952,7.486,1.01,11.815-6.107,13.804-12.307,1.628-5.074,1.726-13.062-3.092-16.509-3.346-2.395-8.075-1.857-11.064.812-2.309,2.062,1.095,5.447,3.394,3.394h0Z"/><path class="g" d="m93.209,63.765c-2.741-2.486-6.714-3.072-10.065-1.462-2.436,1.17-3.874,3.547-4.513,6.099-1.461,5.835-.039,12.511,3.24,17.51,2.237,3.41,5.807,6.5,10.162,5.948,1.286-.163,2.4-.986,2.4-2.4,0-1.17-1.105-2.564-2.4-2.4-3.217.408-5.358-2.238-6.758-4.811-1.192-2.19-2.099-4.729-2.316-7.221s-.179-5.358,1.209-7.527c.093-.133.069-.107-.073.077.07-.088.144-.172.221-.254.062-.061.544-.511.362-.371.427-.327.903-.522,1.422-.644,1.312-.31,2.705-.065,3.714.85,2.283,2.071,5.688-1.313,3.394-3.394h0Z"/><path class="g" d="m123.57,102.58c2.482,1.322,5.159,1.884,7.971,1.866,2.909-.019,5.801-.62,8.118-2.441.992-.78.877-2.589,0-3.394-1.052-.966-2.336-.832-3.394,0,.743-.584.248-.192.056-.068-.156.101-.317.194-.481.281-.203.107-.791.285-.086.066-.224.069-.44.171-.664.243-.607.197-1.228.323-1.857.427.35-.058.17-.022-.076.003-.182.018-.365.034-.547.045-.439.029-.88.04-1.32.037-.394-.002-.788-.016-1.182-.043-.181-.012-.361-.027-.541-.045-.098-.01-.755-.134-.161-.016-.584-.116-1.163-.216-1.735-.388-.243-.073-.48-.161-.72-.244-.577-.2.442.219-.079-.03-.297-.142-.591-.289-.882-.444-1.108-.59-2.662-.316-3.284.861-.588,1.113-.322,2.653.861,3.284h0Z"/><path class="g" d="m130.148,83.878c.339,1.305.665,2.63.859,3.965l-.086-.638c.023.183.033.363.015.547l.086-.638c-.013.085-.031.165-.06.246l.242-.573c-.025.057-.051.106-.086.158l.375-.486c-.04.049-.079.088-.128.128l.486-.375c-.099.064-.204.116-.311.166l.573-.242c-.171.072-.341.125-.525.154l.638-.086c-.166.02-.327.018-.493,0l.638.086c-.186-.026-.368-.072-.554-.097-.319-.1-.638-.114-.957-.043-.319.014-.617.109-.892.285-.498.291-.973.862-1.103,1.434-.14.614-.11,1.304.242,1.849.312.485.834,1.021,1.434,1.103.457.062.9.178,1.365.198.73.032,1.405-.195,2.055-.497.812-.376,1.451-1.13,1.666-2.005.183-.748.107-1.37-.019-2.119-.214-1.277-.507-2.543-.832-3.796-.151-.579-.589-1.134-1.103-1.434s-1.273-.429-1.849-.242c-1.252.405-2.015,1.65-1.676,2.952h0Z"/><path class="g" d="m109.736,72.551c-.656,2.152-.229,7.102,3.813,7.523,5.341-.032,5.625-6.017,3.827-8.831-1.472-2.304-5.801-3.262-7.64,1.308Z"/><path class="g" d="m152.508,72.552c.657,2.152.229,7.102-3.812,7.523-5.341-.032-5.626-6.017-3.828-8.831,1.472-2.304,5.801-3.262,7.64,1.308Z"/><path class="g" d="m159.747,10.07c2.686-3.017,6.237-5.193,10.244-5.267,3.255-.06,6.476,1.152,8.783,3.371,1.009.97,1.949,2.289,2.39,3.387.824,2.051.997,4.391,1.405,6.55.9,4.766,2.322,9.472,4.904,13.622,1.192,1.915,2.657,3.548,4.507,4.841,1.77,1.237,3.813,2.054,5.759,2.965l-.861-3.284c-1.572,2.304-3.38,4.621-5.701,6.216-2.502,1.719-5.218,2.385-8.237,2.166-1.294-.094-2.4,1.17-2.4,2.4,0,1.377,1.102,2.306,2.4,2.4,3.765.273,7.539-.673,10.659-2.821,3.033-2.089,5.363-4.918,7.423-7.938.684-1.003.256-2.761-.861-3.284-3.647-1.706-6.648-2.909-8.728-6.384-2.647-4.423-3.717-9.301-4.629-14.309-.394-2.164-.762-4.208-1.794-6.175-.847-1.616-2.058-3.104-3.443-4.289C178.433,1.553,174.426.007,170.286,0c-5.429-.009-10.376,2.681-13.933,6.675-2.048,2.3,1.335,5.707,3.394,3.394h0Z"/><path class="g" d="m179.05,63.706c1.741-7.037,2.259-13.974,1.269-21.167-.816-5.933-2.609-11.728-5.489-16.991-2.414-4.413-5.628-8.468-9.465-11.728-4.103-3.487-8.557-6.804-13.474-9.043-11.789-5.369-26.189-5.839-38.388-1.532-10.018,3.537-18.722,10.427-24.687,19.2-8.207,12.07-10.054,27.278-6.437,41.262.773,2.988,5.404,1.722,4.629-1.276-2.994-11.573-1.931-23.977,4.021-34.461,4.645-8.182,11.791-14.705,20.185-18.643,10.679-5.009,23.861-5.48,34.987-1.687,4.957,1.69,9.261,4.486,13.383,7.661,3.533,2.722,6.704,5.795,9.192,9.516,3.342,4.999,5.459,10.654,6.53,16.558,1.289,7.102.841,14.079-.884,21.055-.742,2.999,3.886,4.278,4.629,1.276h0Z"/><path class="e" d="m112.977,119.546c-1.834,2.017-3.898,4.288-5.644,6.27-1.028,1.167-1.784,3.309-1.199,4.854.671,1.313,8.085,12.966,13.078,16.101,1.578-2.06,8.112-10.951,11.238-14.398-1.172-.814-15.862-11.625-17.473-12.827Z"/><path class="e" d="m150.56,119.01c1.784,1.957,3.984,4.823,5.73,6.805,1.028,1.167,1.784,3.309,1.199,4.854-.671,1.313-8.085,12.966-13.078,16.101-1.578-2.06-8.112-10.951-11.238-14.398,1.172-.814,16.629-12.761,17.387-13.362Z"/><path class="g" d="m111.28,117.848c-1.605,1.765-3.21,3.529-4.795,5.312-1.382,1.554-2.517,3.077-2.842,5.185-.414,2.68.949,4.512,2.335,6.607,1.747,2.64,3.61,5.21,5.607,7.667,1.871,2.303,3.902,4.603,6.416,6.223,1.186.764,2.525.132,3.284-.861,3.565-4.667,6.928-9.543,10.863-13.912,1.096-1.217.82-2.856-.486-3.769-5.916-4.136-11.686-8.513-17.473-12.827-1.04-.775-2.681-.17-3.284.861-.716,1.224-.181,2.507.861,3.284,5.787,4.314,11.557,8.691,17.473,12.827l-.486-3.769c-4.207,4.672-7.802,9.893-11.613,14.884l3.284-.861c-.804-.518-1.527-1.167-2.404-2.048-1.003-1.007-1.938-2.08-2.839-3.178-1.657-2.02-3.182-4.149-4.639-6.316-.547-.813-1.085-1.633-1.603-2.465-.164-.263-.326-.527-.483-.793-.06-.102-.148-.215-.188-.327-.082-.233.072.256.069.113-.033-1.627,1.117-2.654,2.129-3.785,1.395-1.559,2.802-3.107,4.209-4.655,2.074-2.281-1.311-5.686-3.394-3.394Z"/><path class="g" d="m148.863,120.707c1.279,1.417,2.475,2.904,3.687,4.378.92,1.12,2.381,2.338,2.676,3.828.068.343.084.45.048.801.026-.257.122-.258.044-.075-.105.247-.281.481-.421.71-.514.842-1.054,1.669-1.601,2.489-1.491,2.234-3.052,4.429-4.751,6.51-.902,1.104-1.837,2.184-2.839,3.199-.923.935-1.646,1.596-2.505,2.15l3.284.861c-3.812-4.99-7.406-10.212-11.613-14.884l-.486,3.769c3.067-2.155,5.985-4.554,8.953-6.841s5.972-4.566,8.92-6.896c1.018-.804.841-2.553,0-3.394-1.005-1.005-2.374-.806-3.394,0-2.92,2.308-5.201,4.029-8.157,6.306-2.899,2.234-5.749,4.576-8.744,6.68-1.303.916-1.583,2.55-.486,3.769,3.935,4.369,7.298,9.245,10.863,13.912.76.995,2.085,1.633,3.284.861,2.601-1.677,4.692-4.079,6.616-6.471,1.993-2.477,3.858-5.06,5.603-7.717,1.473-2.244,2.711-4.153,2.013-7.017-.524-2.151-2.014-3.654-3.379-5.302-1.395-1.684-2.752-3.399-4.218-5.023-2.074-2.298-5.46,1.105-3.394,3.394Z"/><path class="g" d="m138.886,142.933c-2.749,2.045-5.225,4.257-8.284,5.9h2.423c-3.059-1.642-5.535-3.855-8.283-5.9-1.041-.774-2.68-.17-3.284.861-.716,1.223-.182,2.508.861,3.284,1.375,1.023,2.738,2.132,4.231,3.246.738.551,1.487,1.088,2.259,1.59.858.558,1.95,1.391,3.005,1.391,1.019,0,2.053-.778,2.885-1.313.774-.498,1.523-1.032,2.261-1.58,1.532-1.139,2.936-2.283,4.349-3.333,1.038-.772,1.567-2.077.861-3.284-.599-1.024-2.238-1.639-3.284-.861h0Z"/><path class="f" d="m132.608,204.846c4.97-12.26,6.25-16.31,10.14-28.24,4.01-12.33,7.81-25.6,11.04-38.58.99-3.97,1.93-7.91,2.8-11.79,2.37,1.52,5.64,3.87,8.59,6.45.048.042.096.084.144.125,8.759,3.218,19.095,8.276,24.151,11.292,6.57,3.93,10.546,7.867,14.626,13.587,2.48,3.47,5.611,10.5,7.5,16.111,3.292,9.779,5.448,18.634,8.5,30.944,1.725,6.958,2.927,12.258,3.287,20.588.44,10.12-4.875,17.72-13.095,20.06l-17.472,3.583-20.891-14.43c-17.4.02-50.024.04-67.774.06l-36.052,11.452-16.635-.771c-.357-.053-.674-.123-1.123-.298-7.184-2.807-10.494-7.625-10.056-17.742.361-8.334,2.91-20.331,4.205-25.564,3.269-13.202,5.388-20.263,8.167-29.75,1.179-4.025,4.491-12.02,6.827-16.188,4.216-7.521,8.722-10.938,15.556-14.389,3.23-1.631,11.444-4.924,23.042-8.903l1.104-.409c2.749-2.327,5.664-4.413,7.843-5.809,3.729,16.559,8.601,34.267,13.844,50.368,3.885,11.929,5.164,15.978,10.133,28.241h1.599Z"/><path class="g" d="m59.32,219.037c.239-.103.195-.085-.133.054.099-.041.198-.081.297-.121.175-.07.35-.138.526-.204.38-.143.763-.277,1.149-.403.721-.235,1.45-.442,2.187-.621.72-.175,1.447-.324,2.178-.443.198-.032.417-.039.61-.092-.648.178-.228.031-.037.009.389-.045.779-.079,1.17-.105,1.25-.084,2.461-1.044,2.4-2.4-.055-1.228-1.058-2.49-2.4-2.4-3.6.241-7.067,1.149-10.37,2.58-.514.223-.962.921-1.103,1.434-.158.574-.087,1.339.242,1.849.33.512.822.964,1.434,1.103.671.153,1.224.029,1.849-.242h0Z"/><path class="g" d="m75.45,168.195c.684,11.036,1.537,22.058,3.165,33,.191,1.283,1.811,1.99,2.952,1.676,1.374-.378,1.868-1.665,1.676-2.952-1.564-10.514-2.336-21.121-2.993-31.724-.19-3.069-4.992-3.09-4.8,0h0Z"/><path class="g" d="m183.379,173.365c-.435,14.552-2.194,28.952-3.718,43.415-.136,1.291,1.2,2.4,2.4,2.4,1.411,0,2.264-1.105,2.4-2.4,1.524-14.463,3.282-28.863,3.718-43.415.092-3.09-4.708-3.087-4.8,0h0Z"/><path class="g" d="m210.929,247.709c9.26-2.723,14.677-11.244,14.876-20.67.232-11.013-3.112-21.964-5.783-32.529-2.62-10.366-5.34-20.837-9.794-30.592-4.208-9.215-10.829-16.684-19.544-21.885-8.783-5.242-18.321-9.009-27.819-12.711-1.208-.471-2.634.518-2.952,1.676-.373,1.359.464,2.48,1.676,2.952,8.132,3.169,16.153,6.447,23.837,10.621,7.8,4.237,14.542,9.997,18.767,17.922,4.635,8.693,7.293,18.356,9.794,27.835,1.407,5.334,2.726,10.692,4.042,16.049,1.138,4.629,2.158,9.282,2.618,14.034.486,5.027.792,10.244-1.587,14.876-1.966,3.828-5.278,6.58-9.407,7.794-2.957.87-1.699,5.503,1.276,4.629h0Z"/><path class="g" d="m52.106,242.974c-1.707-.302-3.827-1.511-4.987-2.418-1.496-1.171-2.353-2.278-3.148-3.962-1.742-3.692-1.43-8.718-1.024-12.899.988-10.184,3.481-20.189,6.075-30.061,1.255-4.775,2.587-9.528,3.965-14.268,1.286-4.421,2.536-8.822,4.256-13.099,1.809-4.501,3.818-9.032,6.639-13.002,2.709-3.812,6.349-6.593,10.423-8.814,8.26-4.503,17.58-7.151,26.593-10.487,1.215-.45,2.041-1.626,1.676-2.952-.321-1.169-1.731-2.128-2.952-1.676-8.52,3.153-17.343,5.794-25.516,9.813-4.395,2.162-8.615,4.863-11.888,8.551-3.542,3.991-5.948,8.729-8.055,13.589-4.009,9.247-6.561,19.06-9.162,28.778-2.798,10.455-5.383,20.981-6.651,31.748-.663,5.634-1.047,11.66,1.363,16.955.91,1.998,2.308,3.797,4.012,5.179,1.976,1.603,4.572,3.205,7.105,3.652,1.275.225,2.586-.344,2.952-1.676.319-1.159-.393-2.725-1.676-2.952h0Z"/><path class="f" d="m118.737,205.375c-9.282-16.087-19.323-33.83-27.712-50.234-.185-.362-.344-.758-.329-1.168.018-.491.261-.962.589-1.318,2.266-2.466,4.746-4.832,7.176-7.109-2.153-1.229-4.305-2.457-6.458-3.686-.239-.136-.5-.301-.567-.574-.059-.239.049-.484.156-.705,2.395-4.937,10.676-11.29,15.442-14.342,3.729,16.559,8.601,34.267,13.844,50.368,3.885,11.929,5.164,15.978,10.133,28.241"/><path class="f" d="m132.608,204.846c4.97-12.26,6.25-16.31,10.14-28.24,4.01-12.33,7.81-25.6,11.04-38.58.99-3.97,1.93-7.91,2.8-11.79,2.37,1.52,5.64,3.87,8.59,6.45,2.98,2.59,5.65,5.42,6.85,7.89.11.22.22.47.16.71-.07.27-.33.44-.57.57-2.15,1.23-4.3,2.46-6.46,3.69,2.43,2.28,4.91,4.64,7.18,7.11.33.36.57.83.59,1.32.01.41-.15.8-.33,1.16-8.39,16.41-18.43,34.15-27.71,50.24"/><path class="g" d="m120.809,204.163c-8.839-15.322-17.577-30.715-25.74-46.41-.558-1.073-1.113-2.147-1.665-3.223-.08-.156-.569-.734-.324-.442.185.221-.454.371.064.087.462-.254.941-1.003,1.321-1.396,1.841-1.903,3.762-3.727,5.693-5.538,1.124-1.055.825-3.021-.486-3.769-1.148-.655-2.296-1.311-3.444-1.966-.574-.328-1.148-.655-1.722-.983-.287-.164-.574-.328-.861-.491-.524-.347-.57-.333-.137.041l.328,1.211c-.026.603.214-.221.353-.45.204-.336.423-.664.653-.983.387-.536.816-1.04,1.257-1.533,1.247-1.398,2.612-2.689,4.022-3.919,2.552-2.227,5.277-4.256,8.124-6.089l-3.526-1.434c4.866,21.561,10.979,42.897,18.291,63.758,1.754,5.004,3.697,9.937,5.686,14.851.486,1.201,1.599,2.048,2.952,1.676,1.139-.313,2.166-1.744,1.676-2.952-7.82-19.316-13.993-39.326-19.295-59.468-1.672-6.352-3.236-12.733-4.682-19.141-.333-1.473-2.261-2.249-3.526-1.434-4.486,2.889-8.871,6.226-12.532,10.121-1.563,1.663-4.101,4.216-4.238,6.639-.116,2.046,1.498,2.868,3.032,3.743,1.722.983,3.444,1.966,5.166,2.949l-.486-3.769c-1.755,1.646-3.502,3.303-5.188,5.02-1.697,1.728-3.91,3.643-3.097,6.343.642,2.133,2.05,4.21,3.08,6.181,1.107,2.117,2.224,4.229,3.351,6.336,4.49,8.396,9.121,16.716,13.818,24.997,2.627,4.631,5.276,9.25,7.936,13.861,1.543,2.675,5.693.261,4.145-2.423h0Z"/><path class="g" d="m134.923,205.484c7.752-19.14,13.881-38.959,19.152-58.914,1.726-6.536,3.345-13.101,4.828-19.696l-3.526,1.434c2.84,1.833,5.556,3.853,8.104,6.075,1.382,1.205,2.722,2.465,3.949,3.829.459.51.907,1.031,1.311,1.586.22.303.429.614.626.932.104.168.443,1.053.421.556l.328-1.211c.43-.379.384-.394-.139-.045-.287.164-.573.328-.86.492-.574.328-1.147.656-1.721.984-1.149.657-2.299,1.313-3.449,1.968-1.312.747-1.609,2.715-.486,3.769,1.618,1.52,3.231,3.046,4.795,4.621.702.707,1.39,1.427,2.074,2.153.578.613.34.384.229.235-.195-.263.219-.404-.136-.127-.335.262-.617,1.202-.825,1.606-2.009,3.896-4.058,7.772-6.135,11.631-4.292,7.974-8.705,15.883-13.176,23.757-2.474,4.357-4.968,8.704-7.471,13.045-1.546,2.681,2.6,5.101,4.145,2.423,9.471-16.425,18.982-32.896,27.505-49.839.673-1.338,1.114-2.643.598-4.119-.444-1.271-1.532-2.227-2.446-3.172-1.863-1.928-3.809-3.773-5.763-5.608l-.486,3.769c1.437-.819,2.874-1.639,4.31-2.46,1.197-.684,2.802-1.293,3.519-2.542,1.438-2.506-1.545-5.713-3.088-7.477-3.762-4.301-8.526-7.887-13.31-10.976-1.263-.816-3.195-.038-3.526,1.434-4.848,21.563-10.976,42.904-18.292,63.761-1.755,5.003-3.698,9.936-5.688,14.849-.487,1.202.53,2.637,1.676,2.952,1.372.377,2.464-.47,2.952-1.676h0Z"/><path class="g" d="m101.238,237.043c18.914,0,37.828,0,56.742,0,4.892,0,9.783,0,14.675,0,3.089,0,3.094-4.8,0-4.8-18.963,0-37.926,0-56.888,0-4.843,0-9.685,0-14.528,0-3.089,0-3.094,4.8,0,4.8h0Z"/><path class="g" d="m2.318,237.047h38.5c3.089,0,3.094-4.8,0-4.8H2.318c-3.089,0-3.094,4.8,0,4.8h0Z"/><path class="g" d="m221.968,237.047h39.69c3.089,0,3.094-4.8,0-4.8h-39.69c-3.089,0-3.094,4.8,0,4.8h0Z"/><path class="g" d="m2.318,237.047h38.5c3.089,0,3.094-4.8,0-4.8H2.318c-3.089,0-3.094,4.8,0,4.8h0Z"/><path class="g" d="m221.968,237.047h39.69c3.089,0,3.094-4.8,0-4.8h-39.69c-3.089,0-3.094,4.8,0,4.8h0Z"/><path class="e" d="m81.736,228.214c6.501-.994,12.799-.923,18.324,3.705,3.26,2.731,9.368,6.994,10.255,11.764.353,1.899-.601,4.984-2.621,6.109l-4.572,13.246c1.643,1.496,1.904,2.687,1.144,3.766-1.025,1.457-2.37,2.012-4.161,1.984s-3.006-.583-4.5-1.563c.618,1.229-2.778,3.088-3.666,3.326-3.296.883-5.677-.525-8.119-2.481,1.025,2.96-3.279,6.483-6.7,4.377-3.503-2.157-6.033-3.896-8.107-7.087-2.014-3.098-2.953-6.525-4.182-8.812-1.95-3.856-5.773-6.301-5.423-8.844.521-4.713,4.985-10.753,7.559-13.554,3.321-3.615,10.109-5.224,14.77-5.937"/><path class="g" d="m117.778,264.513c-.781-1.488-1.627-2.945-2.451-4.41-5.647-10.041-11.423-20.011-17.224-29.963-2.751-4.721-5.511-9.436-8.308-14.13-.961-1.613-1.925-3.224-2.906-4.824-.574-.936-1.111-1.909-2.029-2.556-1.933-1.362-4.325-.905-6.141.437-1.716,1.268-2.124,3.314-1.49,5.204.055.219.131.441.262.666,3.756,6.508,8.059,12.743,12.142,19.046,5.775,8.914,11.573,17.814,17.436,26.67,1.634,2.469,3.236,4.972,4.959,7.38,1.077,1.505,2.897,2.468,4.691,1.431,1.887-1.091,1.976-3.205,1.06-4.951Z"/><path class="g" d="m82.374,230.529c3.341-.5,6.858-.725,10.159.135,3.195.833,5.58,2.753,8.09,4.789,2.326,1.887,4.849,3.884,6.422,6.476,1.053,1.735,1.612,4.459-.563,5.791-2.63,1.61-.222,5.764,2.423,4.145,2.522-1.544,4.048-4.716,3.873-7.661-.183-3.075-2.081-5.769-4.112-7.951-1.994-2.142-4.332-3.911-6.587-5.763-2.733-2.244-5.72-3.958-9.219-4.673-3.915-.8-7.841-.502-11.761.084-1.283.192-1.99,1.81-1.676,2.952.377,1.374,1.665,1.869,2.952,1.676h0Z"/><path class="g" d="m75.697,264.046c2.045,2.3,4.335,4.402,6.911,6.098,1.051.692,2.7.243,3.284-.861.635-1.202.261-2.545-.861-3.284-.539-.355-1.064-.731-1.576-1.124l.486.375c-1.765-1.367-3.367-2.931-4.849-4.598-.837-.941-2.552-.917-3.394,0-.922,1.004-.892,2.39,0,3.394h0Z"/><path class="g" d="m80.581,256.718c4.248,4.605,8.818,8.795,13.812,12.58,1.005.761,2.728.192,3.284-.861.668-1.265.211-2.471-.861-3.284-.158-.119-.315-.239-.472-.359-.101-.077-.424-.327-.164-.125-.304-.236-.606-.473-.907-.712-.559-.445-1.114-.896-1.663-1.353-1.104-.92-2.185-1.866-3.242-2.839-2.227-2.049-4.34-4.217-6.392-6.441-.853-.925-2.541-.929-3.394,0-.909.99-.91,2.407,0,3.394h0Z"/><path class="g" d="m87.071,249.841c4.449,5.319,9.176,10.28,14.353,14.895.937.835,2.483.993,3.394,0,.838-.913,1.001-2.502,0-3.394-5.177-4.615-9.903-9.576-14.353-14.895-.809-.967-2.57-.897-3.394,0-.944,1.028-.863,2.363,0,3.394h0Z"/><path class="g" d="m81.098,225.9c-5.205.81-10.806,2.188-14.909,5.674-1.9,1.614-3.441,3.823-4.835,5.868-1.555,2.282-2.933,4.755-3.769,7.397-.826,2.609-.729,4.882.911,7.129,1.563,2.142,3.394,3.973,4.565,6.387,1.385,2.852,2.29,5.899,4.096,8.542,1.631,2.386,3.694,4.26,6.064,5.894,1.359.937,2.869,2.089,4.495,2.49,1.547.382,3.138.18,4.579-.469,2.778-1.25,4.735-4.319,3.839-7.38l-4.011,2.335c3.056,2.418,6.653,4.351,10.651,3.033,2.34-.771,6.221-3.248,5.145-6.213l-3.526,2.71c3.203,2.057,7.645,2.872,10.738.129,1.266-1.123,2.118-2.68,1.879-4.399-.262-1.882-1.646-3.294-3.077-4.421l-2.335,4.011c2.785.754,6.158.703,8.234-1.609,1.565-1.744,2.018-4.322.803-6.387-1.094-1.859-2.724-3.515-4.123-5.146-1.306-1.523-2.652-3.012-3.868-4.609-2.018-2.651-3.638-5.56-5.314-8.432-1.556-2.667-5.706-.254-4.145,2.423,1.648,2.825,3.244,5.683,5.214,8.301,1.49,1.98,3.107,3.832,4.718,5.712.839.978,1.674,1.959,2.481,2.964.055.069.634.821.322.403.126.168.255.336.372.511.088.131.172.264.257.397.09.172.07.115-.059-.169.038.11.068.222.09.335-.034-.318-.046-.385-.037-.199.005.09.004.18-.002.27.29-.543-.044.102-.109.271.259-.676-.275.326-.057.042.235-.307-.564.479-.093.12-.093.071-.787.396-.494.291.01-.004-.66.182-.432.143-.838.143-1.679-.043-2.483-.26-2.148-.581-4.306,2.458-2.335,4.011.486.383.996.769,1.399,1.242.128.151.449.582.391.574-.165-.022.014-.389-.008-.463.058.199-.173.233.001.04-.21.232-.358.476-.632.654-1.529.99-3.551-.046-4.873-.895-1.689-1.085-4.242.736-3.526,2.71l-.011-.319c.253-.704.294-.909.121-.613.005.004.033-.012-.059.04-.296.167-.312.297-.67.529-.363.236-.742.433-1.122.639-.233.127-.206.083.021.006-.161.055-.316.102-.483.143-2.108.523-3.979-.655-5.571-1.915-1.743-1.379-4.747-.178-4.011,2.335.097.333.131.243.01.57.115-.309-.333.559-.207.391-.408.54-1.114.943-1.708,1.01-.892.101-1.58-.491-2.326-.963-.994-.629-1.992-1.27-2.909-2.009-1.894-1.526-3.303-3.367-4.412-5.525-1.143-2.225-1.889-4.631-3.05-6.846-1.129-2.154-2.807-3.858-4.257-5.781-.233-.309-.453-.636-.644-.974-.142-.251-.183-.187-.234-.593.048.38.078-.45.105-.585.108-.548.268-1.089.448-1.618.719-2.117,1.925-4.084,3.178-5.923,1.067-1.567,2.233-3.152,3.607-4.467,3.36-3.218,8.849-4.182,13.268-4.869,1.282-.199,1.992-1.805,1.676-2.952-.376-1.368-1.667-1.876-2.952-1.676h0Z"/><path class="e" d="m182.377,270.215c-.56.372-1.12.721-1.665,1.029-1.26.712-4.127,1.542-5.941.504-1.123-.643-1.707-1.702-1.809-2.812-.102.06-.158.093-.158.093-2.436,1.434-6.365,2.153-8.546.244-1.269-1.111-2.037-4.147-.513-6.348.208-.373.498-.776.856-1.204-1.268.497-3.64,1.146-5.009-1.705-.905-1.887-.107-4.808,2.167-6.992.859-.824,2.639-2.932,4.401-4.477.378-.329.762-.656,1.147-.979l-1.6-.238c-1.177.071-2.606-1.018-3.191-2.144-.494-.951-.355-2.446-.011-3.38.802-2.177,4.49-4.562,8.3-6.576,4.072-2.153,6.97-3.007,11.256-3.604,4.039-.398,6.821-.477,10.865.171,3.658.586,6.233,2.287,8.856,4.033,1.582,1.053,4.95,4.639,5.777,6.4,1.493,3.178,2.279,6.138,2.053,9.02-.376,4.785-1.603,7.479-4.591,10.59-1.739,1.81-4.768,4.57-6.728,6.121-2.749,2.175-5.386,2.458-7.305,1.635-1.544-.662-1.717-3.571-1.096-4.723,0,0,.059-.109.118-.218l-.056.039c-.615.431-1.154.807-1.554,1.09-1.406.996-3.722,2.905-6.023,4.431Z"/><path class="g" d="m177.478,247.28c-2.466,1.934-4.864,3.948-7.234,5.997-2.048,1.771-4.166,3.487-6.086,5.398-1.975,1.965-3.769,4.352-3.65,7.283s1.653,5.402,4.457,6.421c2.925,1.064,6.435.211,9.052-1.278,2.684-1.528.269-5.676-2.423-4.145-.891.507-2.096.937-3.016,1.036-.606.065-1.225.053-1.572-.02-.519-.108-.909-.304-1.049-.397-.101-.089-.196-.186-.283-.289.157.199.155.179-.005-.06-.19-.455,0,.131-.158-.323-.217-.628-.26-.833-.197-1.508.075-.804.846-1.84,1.394-2.447,1.955-2.162,4.283-3.985,6.482-5.89,2.517-2.181,5.061-4.33,7.683-6.385,1.021-.801.839-2.555,0-3.394-1.008-1.008-2.371-.803-3.394,0h0Z"/><path class="g" d="m162.962,259.725c-.575.12.479.039-.131.026-.111-.002-.709-.063-.172.04-.057-.011-.603-.113-.323-.068.072.012-.076-.046-.107-.074-.035-.032-.342-.403-.246-.269-.048-.067-.379-.843-.244-.421-.031-.097-.143-.73-.096-.281-.022-.205-.016-.412-.009-.617.014-.167.008-.168-.019-.002l.049-.261c.055-.268.127-.537.22-.794.142-.392.392-.853.692-1.28.513-.73,1.213-1.328,1.821-1.98,3.329-3.572,7.092-6.551,10.965-9.507,1.029-.785,1.572-2.067.861-3.284-.592-1.013-2.247-1.652-3.284-.861-4.8,3.663-9.617,7.344-13.556,11.96-1.9,2.227-3.261,5.482-2.195,8.396,1.121,3.064,3.901,4.563,7.049,3.906,1.269-.265,2.004-1.759,1.676-2.952-.362-1.317-1.679-1.942-2.952-1.676h0Z"/><path class="g" d="m185.52,252.701c-3.193,2.542-6.429,5.032-9.517,7.702-2.818,2.436-6.257,5.534-5.274,9.67,1.076,4.528,6.214,5.299,9.956,3.806,3.446-1.375,6.242-4.129,9.24-6.244,2.838-2.002,5.754-3.912,8.472-6.079,1.014-.809.844-2.55,0-3.394-1.002-1.002-2.377-.811-3.394,0-.073.058-.335.26.023-.013-.09.068-.179.137-.269.204-.234.175-.469.35-.704.522-.548.401-1.1.796-1.653,1.188-1.161.823-2.329,1.636-3.497,2.449-2.386,1.662-4.644,3.496-7.033,5.152-1.26.873-2.426,1.68-3.75,2.009-.929.231-2.192.349-2.647-.522-.127-.243-.155-.608-.087-.912.108-.485.45-.907.749-1.266,1.062-1.277,2.332-2.382,3.591-3.458,2.995-2.559,6.109-4.968,9.19-7.421,1.015-.808.844-2.551,0-3.394-1.003-1.003-2.377-.81-3.394,0h0Z"/><path class="g" d="m165.707,244.929c-.957-.025-1.198-1.141-1.067-1.867.184-1.017,1.292-1.925,2.265-2.658,2.721-2.05,5.961-3.801,9.17-4.94,3.08-1.093,6.303-1.569,9.558-1.71s6.804-.004,9.869,1.225c2.459.986,4.75,2.502,6.37,4.06,1.831,1.761,3.38,3.564,4.276,5.961,1.11,2.971,1.371,5.92.653,9.016-.584,2.52-1.905,4.509-3.694,6.346-1.216,1.249-2.498,2.437-3.799,3.596-1.168,1.04-2.341,2.162-3.713,2.931-1.116.625-2.554,1.036-3.705.495.082.039.213.043.259.143.04.087-.188-.568-.208-.749.035.311.026-.578.021-.504-.029.373.265-.755.001-.192.55-1.173.328-2.588-.861-3.284-1.041-.609-2.731-.318-3.284.861-1.546,3.294-.339,7.705,3.499,8.552,4.287.946,7.767-1.687,10.804-4.345,2.764-2.419,5.738-4.989,7.597-8.204,1.882-3.255,2.66-7.476,2.211-11.194-.478-3.963-2.015-7.627-4.61-10.648-2.267-2.64-4.943-4.726-8.028-6.342-3.934-2.061-8.427-2.651-12.827-2.553-4.257.094-8.606.683-12.585,2.254-2.421.956-4.748,2.145-6.978,3.487-2.014,1.212-4.094,2.587-5.557,4.456-1.353,1.727-1.926,4.089-1.32,6.235.69,2.441,3.178,4.303,5.683,4.37,3.09.082,3.088-4.718,0-4.8h0Z"/><path class="g" d="m103.39,237.043h68.57c3.089,0,3.094-4.8,0-4.8-18.078,0-36.156,0-54.234,0h-14.336c-3.089,0-3.094,4.8,0,4.8h0Z"/><path class="f" d="m41.661,267.667c1.77,0,2.96,1.81,2.25,3.43-.98,2.22-2.28,5.2-3.63,8.24h-15.95c.01-.04.03-.07.05-.11,1.96-4,3.99-8.05,5.25-10.49.34-.66,1.01-1.07,2.15-1.07h9.88Z"/><path class="e" d="m24.331,279.337h15.95c-.39.88-.78,1.77-1.17,2.65-1.51,3.37-4.86,5.55-8.55,5.55h-1c-4.22,0-7.01-4.38-5.23-8.2Z"/><path class="g" d="m27.557,267.523c-1.413,2.743-2.792,5.503-4.157,8.27-.698,1.413-1.565,2.846-1.852,4.412-.261,1.423-.196,2.924.321,4.285.99,2.607,3.204,4.734,6,5.261,2.555.482,5.281.12,7.643-.928,2.793-1.239,4.755-3.578,5.974-6.32,1.351-3.042,2.697-6.085,4.035-9.133.677-1.542,1.338-3.004.773-4.711-.513-1.551-1.769-2.801-3.359-3.227-1.202-.322-2.605-.17-3.834-.17h-5.889c-2.189,0-4.397.128-5.654,2.26-1.572,2.667,2.575,5.085,4.145,2.423.323-.548-.055.118-.086.079l-.102.06c-.173-.02-.086-.027.262-.021.059.003.12,0,.18,0,.418-.005.837,0,1.255,0h4.394c1.193,0,2.385,0,3.578,0,.133,0,.267-.005.399,0,.278.011-.46-.209.197.03-.439-.159.363.257-.05.008-.194-.117-.086.03.038.084l-.062-.138c.071.284.077.307.019.069.019-.304-.065.178-.109.288-1.009,2.569-2.234,5.076-3.352,7.599-.911,2.056-1.751,4.37-3.357,5.628-1.569,1.23-3.149,1.509-5.027,1.5-1.569-.008-2.583-.525-3.318-1.837-.026-.047-.203-.411-.062-.081-.127-.297-.199-.612-.276-.925-.153-.62-.058.314-.032-.33.004-.096.071-.972.008-.604.216-1.255.963-2.364,1.599-3.649,1.284-2.596,2.58-5.187,3.906-7.762.593-1.152.299-2.605-.861-3.284-1.075-.629-2.688-.296-3.284.861Z"/><path class="g" d="m25.983,281.733c4.599,0,9.198,0,13.797,0,1.255,0,2.458-1.104,2.4-2.4s-1.055-2.4-2.4-2.4h-13.797c-1.255,0-2.458,1.104-2.4,2.4s1.055,2.4,2.4,2.4h0Z"/></g></g></svg>