<?xml version="1.0" encoding="UTF-8"?><svg id="b" xmlns="http://www.w3.org/2000/svg" width="234.027" height="316.74" viewBox="0 0 234.027 316.74"><defs><style>.d{fill:#3d8dcc;}.e{fill:#fff;}.f{fill:none;}.g{fill:#211715;}.h{fill:#645d5c;}.i{fill:#febe69;}</style></defs><g id="c"><path class="e" d="M179.469,152.147c.13,4.64.24,9.28.36,13.92-11.84,7.15-22.09,23.71-22.91,52.61h-.05l-15.15,7.7c-7.43,3.77-12.5,10.99-13.52,19.26l-6.11,49.26h-1.46c-32.82-6.47-65.41-13.78-97.35-20.11l7.67-61.76c.75-6.03,4.44-11.3,9.87-14.06l51.47-26.17,87.18-20.65Z"/><path class="e" d="M121.359,79.737c-4.31-.59-8.11-2.34-11.71-5.34-4.71-3.92-6.62-9.94-7.17-16.56-.28-3.4-.51-7.05-.87-10.74l-.08.01c-.13-.69-.25-1.4-.34-2.12,0,0-.01,0,0-.01.24-.1.47-.21.69-.31.23-.11.44-.21.65-.31,6.09-3.04,12.89-8.64,18.6-12.35-.7,1.77-2.14,5.59-1.15,5.42,3.77-.21,8.71-3,12.15-6.95,1.7,3.6,4.3,7.6,7.94,10.88,1.82,1.64,6.16,4.25,7.45,4.97l8.43,2.78c.98-.66,2.19-.78,3.18-.6.17.03.33.07.48.11.09.02.18.05.26.08.1.03.19.06.28.09.03.01.06.03.09.04.09.04.18.08.26.12.44.21.78.47,1.05.74.08.07.14.14.2.21.15.18.27.36.37.52.06.1.11.2.15.29.03.06.05.11.07.16,0,.01.01.01.01.02.88,2.13.3,5.72-.83,7.82-.79,1.5-2,3.56-4.48,4.97-.79.44-2.79,1.05-4.58.79-.6,1.05-1.74,2.63-1.74,2.63-1.09,1.46-2.25,2.84-3.58,4.18l.07.07c.33.95.66,1.91.99,2.87.35,1.02.71,2.06,1.27,2.99.95,1.56,2.56,2.67,4.28,3.59-.44.31-.82.75-1.25,1.32-.34.46-.7.91-1.06,1.36-.29.36-.58.72-.88,1.07-1.96,2.31-4.17,4.5-6.59,6.56-.37.31-.74.62-1.12.93l-.33.27c-.96.77-1.95,1.52-2.98,2.25-.49.36-.99.7-1.5,1.05-1.33.91-2.71,1.78-4.14,2.61-.43.26-.86.51-1.3.75-.23.13-.46.26-.69.38-.37.21-.74.41-1.12.61-.34.18-.68.36-1.03.54-.1.06-.21.11-.32.16-.83-.63-1.33-1-1.33-1-2.3-1.71-4.8-4.81-6.69-7.71-1.84-2.83-3.34-5.27-5.03-8.19-.07-.13-.16-.26-.26-.39.78-.28,1.49-.54,2.08-.79,1.21-.39,2.34-1.25,3.07-2.33l.08-.51Z"/><path class="e" d="M64.689,156.507c1.34.14,2.14,1.55,1.97,3.05-.09.74-.51,3.16.47,4.52l-.46.06c-1.96,1.06-3.93,2.13-5.91,3.21-3.92,2.13-6.36,6.24-6.36,10.7v4.4l.47.92c-.18.14-.34.28-.5.41-3.1,2.65-5.95,5.9-8,10.15l-1.72-.87v-19.68c0-4.64,2.55-8.9,6.62-11.12l.06-.03c.23.25.52.35.84.28,1.34-.28,2.54-1,3.71-1.7,1.68-1.01,3.37-2.02,5.05-3.02.68-.41,1.4-.83,2.16-1.08.52-.17,1.05-.25,1.6-.2Z"/><path class="e" d="M187.059,125.607c.32,12.35.65,24.68.97,37.03-2.75.68-5.52,1.81-8.2,3.43-.12-4.64-.23-9.28-.36-13.92l-1.12-.57c4.31-6.78,6.45-14.9,5.71-24.42.93-.48,1.94-1,3-1.55Z"/><path class="h" d="M100.801,40.648c.061,1.454.185,2.915.379,4.335.481-.211.94-.43,1.343-.63,6.086-3.027,12.892-8.634,18.606-12.348-.698,1.773-2.142,5.592-1.151,5.42,3.769-.204,8.714-2.995,12.151-6.948,1.704,3.603,4.3,7.599,7.937,10.879,1.821,1.643,6.164,4.246,7.453,4.969l8.429,2.785c.98-.658,2.19-.782,3.18-.601,2.677.488,3.198,2.302,3.362,2.762,2.395-3.55,2.758-10.508,3.016-13.438.235-2.681.018-5.391-.61-8.02-.322-1.344-.692-2.627-1.135-3.855,1.402.43,2.205.675,2.205.675,3.73,1.14,7.52.48,11.75-1.34-2.71-2.26-3.76-4.48-4.93-7.99-.96-2.95-1.74-4.87-3.16-7.63-.93-1.78-2.54-3.41-3.8-4.32-4.32-3.13-7.92-4.06-12.79-2.86-3.666.919-6.934,2.766-8.249,6.106-4.174-1.558-8.241-2.008-12.318-1.881-10.317.322-18.676,4.014-24.347,10.214-3.274,3.58-5.676,8.822-6.643,13.513-.573,2.78-.835,6.464-.678,10.203Z"/><path class="g" d="M118.822,70.077c1.451.798,3.167,1.125,4.811,1.129.812.002,1.649-.086,2.435-.286.912-.231,1.74-.713,2.6-1.081.428-.183.802-.77.919-1.195.132-.479.072-1.116-.202-1.541-.275-.427-.685-.803-1.195-.919-.56-.128-1.018-.022-1.541.202-.341.146-.675.309-1.012.465-.08.037-.169.066-.245.111.403-.238.206-.086.063-.035-.132.047-.265.088-.401.124-.138.037-.277.067-.416.094-.072.014-.145.024-.217.037-.248.048.454-.046.198-.027-.33.024-.656.052-.987.052-.318,0-.636-.017-.952-.049-.079-.008-.158-.022-.237-.026.073.004.455.07.18.021-.153-.027-.307-.053-.459-.086-.31-.066-.618-.149-.918-.253-.067-.023-.133-.051-.201-.073-.229-.075.399.192.19.083-.131-.069-.267-.127-.397-.199-.917-.504-2.223-.254-2.736.718-.496.938-.261,2.198.718,2.736h0Z"/><path class="g" d="M129.041,53.428c-.338-1.418.147-4.597,2.798-4.699,3.479.246,3.415,4.124,2.126,5.866-1.055,1.426-3.916,1.863-4.924-1.166Z"/><path class="g" d="M108.335,52.743c-.306-1.421.148-4.612,2.576-4.722,3.186.236,3.116,4.126,1.93,5.878-.971,1.434-3.592,1.88-4.506-1.156Z"/><path class="g" d="M118.434,56.035c-.463.728-.913,1.471-1.31,2.237-.184.355-.383.722-.451,1.119-.076.446-.112.822.011,1.271.117.429.357.8.663,1.117.395.41.871.677,1.402.864.333.118.7.129,1.048.171l-.532-.071c.035.005.069.01.103.016.266.083.532.095.798.036.266-.012.514-.091.744-.237.415-.243.811-.718.919-1.195.117-.512.091-1.087-.202-1.541-.267-.414-.69-.83-1.195-.919-.272-.048-.547-.075-.821-.11l.532.071c-.129-.018-.253-.047-.375-.095l.478.202c-.099-.044-.19-.096-.278-.159l.405.313c-.103-.08-.2-.167-.282-.269l.313.405c-.02-.028-.036-.058-.048-.091l.202.478c-.012-.032-.02-.065-.025-.098l.071.532c-.005-.055-.005-.103,0-.158l-.071.532c.017-.115.051-.222.095-.33l-.202.478c.205-.464.473-.906.73-1.342.239-.406.483-.809.735-1.207.272-.428.334-1.059.202-1.541-.128-.464-.486-.967-.919-1.195-.464-.245-1.026-.368-1.541-.202-.507.164-.907.465-1.195.919h0Z"/><path class="g" d="M144.591,76.109c2.278-1.74,4.357-3.664,6.188-5.874,1.283-1.549,2.557-3.194,3.528-4.963.503-.917.255-2.223-.718-2.736-.937-.495-2.199-.262-2.736.718-.46.839-1.009,1.631-1.559,2.413-.131.187-.262.373-.399.555-.036.047-.372.481-.082.11-.1.128-.199.255-.3.382-.185.233-.372.464-.562.693-.793.958-1.631,1.878-2.519,2.748-.456.447-.925.881-1.407,1.301-.272.238-.549.471-.829.701-.143.117-.289.232-.432.348-.324.263.177-.131-.191.15-.432.33-.769.648-.919,1.195-.132.479-.072,1.116.202,1.541.528.819,1.847,1.397,2.736.718h0Z"/><path class="g" d="M137.271,75.209c-6.639,2.677-14.29,4.101-21.062,1.012-3.083-1.406-6.097-3.537-8.014-6.371-1.964-2.902-2.954-6.313-3.467-9.75-.707-4.743-.764-9.598-1.263-14.368-.112-1.074-.839-2-2-2-.994,0-2.113.919-2,2,.491,4.692.622,9.432,1.223,14.11.505,3.926,1.494,7.843,3.562,11.259,4.144,6.846,12.271,10.742,20.122,10.862,4.826.074,9.511-1.102,13.962-2.897,1.001-.404,1.707-1.333,1.397-2.46-.261-.95-1.453-1.803-2.46-1.397h0Z"/><path class="g" d="M156.958,50.837c.444-.277.885-.4,1.278-.403.152-.002.304.004.456.017-.18-.027-.127-.015.157.038.094.024.798.248.594.159.229.1.452.235.652.383-.265-.195-.015.014.091.116.068.071.134.145.196.221-.169-.223-.194-.249-.075-.077.06.133.15.281.226.407.075.164.058.123-.052-.121.045.122.084.245.119.37.02.071.163.789.121.481.07.514.065,1.044.038,1.56-.052.975-.296,2.084-.705,3.159-.052.13-.051.134.001.012-.055.124-.112.246-.173.367-.103.206-.214.408-.325.609-.238.43-.49.853-.765,1.26-.42.62-1.152,1.456-1.89,1.999-.275.203-.571.393-.871.555-.106.057-.622.243-.155.086-.419.141-.832.275-1.265.368-.76.162-1.968.187-2.594-.124-.967-.48-2.165-.259-2.736.718-.517.884-.254,2.254.718,2.736,2.187,1.086,4.842.99,7.09.101,2.301-.91,4.122-2.756,5.422-4.824,1.244-1.978,1.964-4.121,2.204-6.444.222-2.142-.107-4.487-1.598-6.135-1.998-2.21-5.691-2.594-8.177-1.045-2.18,1.359-.174,4.821,2.019,3.454h0Z"/><path class="g" d="M153.414,10.963c-4.945-3.452-10.52-5.606-16.538-6.133-5.409-.473-11.106.174-16.261,1.884-4.727,1.568-9.119,4.089-12.704,7.565-3.93,3.811-6.616,8.865-8.008,14.137-1.629,6.17-1.479,12.987-.303,19.218.477,2.526,4.333,1.457,3.857-1.063-1.82-9.64-.661-21.022,6.314-28.478,6.384-6.825,15.835-9.627,24.996-9.382,6.094.163,11.65,2.232,16.628,5.706,2.115,1.477,4.117-1.989,2.019-3.454h0Z"/><path class="g" d="M156.122,17.908c4.666,4.362,7.274,10.71,7.466,17.079.076,2.532-.21,5.159-.545,7.669-.337,2.531-.819,5.245-2.175,7.448s2.105,4.21,3.454,2.019c1.61-2.615,2.215-5.739,2.624-8.739.396-2.904.769-5.94.624-8.871-.357-7.24-3.292-14.454-8.619-19.434-1.879-1.757-4.714,1.066-2.828,2.828h0Z"/><path class="g" d="M146.553,9.511c1.438-3.313,4.857-4.771,8.24-5.352,3.724-.64,7.224.713,10.139,3.008,3.141,2.473,4.555,6.565,5.783,10.231,1.203,3.593,2.647,6.8,5.587,9.308l.883-3.343c-3.434,1.449-7.009,2.4-10.687,1.34-2.478-.714-3.536,3.144-1.063,3.857,4.352,1.255,8.722.386,12.813-1.34,1.244-.525,2.163-2.251.883-3.343-2.429-2.071-3.566-4.567-4.558-7.542-1.123-3.367-2.418-6.985-4.65-9.786-2.139-2.685-5.291-4.73-8.53-5.83-3.279-1.113-6.88-.846-10.139.202-3.422,1.1-6.676,3.167-8.154,6.572-.43.99-.292,2.146.718,2.736.846.495,2.304.279,2.736-.718h0Z"/><path class="g" d="M130.402,31.487c1.928,4.044,4.557,7.833,7.834,10.902,2.42,2.265,5.395,4.042,8.273,5.663,2.246,1.265,4.264-2.189,2.019-3.454-1.23-.693-2.433-1.435-3.619-2.199-.762-.491-1.516-.994-2.251-1.524-.164-.118-.325-.238-.487-.358-.336-.249.145.132-.186-.147-.313-.264-.62-.53-.92-.811-3.05-2.861-5.414-6.328-7.209-10.092-.465-.975-1.86-1.23-2.736-.718-.997.583-1.184,1.758-.718,2.736h0Z"/><path class="g" d="M98.638,47.907c1.723-.291,3.338-1.072,4.9-1.827.787-.381,1.14-1.455.919-2.259-.252-.917-1.043-1.361-1.929-1.468h-.006c.336,1.242.673,2.484,1.009,3.726,6.665-3.36,12.385-8.28,18.606-12.348l-2.938-2.259c-.636,1.622-1.379,3.335-1.53,5.088-.07.814.09,1.654.701,2.245.883.854,2.119.612,3.208.424,4.622-.798,8.913-3.898,11.963-7.34,1.702-1.92-1.117-4.76-2.828-2.828-1.606,1.812-3.438,3.367-5.546,4.567-.869.495-1.767.931-2.717,1.249-.48.161-.968.3-1.463.405-.221.047-.452.069-.67.117-.311.069-.512-.141-.002.062l.883.514.442.964c.013-.197.013-.239,0-.125-.059.07.05-.222.071-.311.106-.471.252-.935.402-1.394.284-.87.61-1.725.944-2.576.639-1.63-1.55-3.166-2.938-2.259-6.222,4.068-11.941,8.988-18.606,12.348-.783.395-1.143,1.445-.919,2.259.252.917,1.043,1.361,1.929,1.468h.006c-.336-1.242-.673-2.484-1.009-3.726-1.27.614-2.543,1.187-3.945,1.423-1.066.18-1.662,1.495-1.397,2.46.31,1.129,1.391,1.577,2.46,1.397h0Z"/><path class="g" d="M145.277,71.874c.683,1.968,1.245,4.051,2.217,5.901.873,1.662,2.3,2.925,3.857,3.932,3.065,1.982,6.599,3.268,9.963,4.633,1.001.406,2.198-.442,2.46-1.397.314-1.144-.392-2.052-1.397-2.46-2.933-1.191-5.897-2.332-8.633-3.996-1.166-.709-2.13-1.503-2.737-2.622-.829-1.527-1.289-3.374-1.873-5.056-.354-1.02-1.37-1.696-2.46-1.397-.991.272-1.753,1.435-1.397,2.46h0Z"/><path class="g" d="M109.307,87.801c2.253-.846,4.559-1.541,6.832-2.329,1.074-.373,2.149-.76,3.197-1.202,1.522-.642,2.72-1.669,3.666-3.017.603-.859.184-2.26-.718-2.736-1.025-.541-2.093-.199-2.736.718-.192.274.027-.009-.106.14-.088.099-.175.196-.268.29-.116.118-.237.229-.361.339-.078.07-.233.174-.062.054-.268.189-.549.354-.842.501-.117.059-.253.101-.055.025-.125.048-.25.093-.375.142-.967.383-1.945.735-2.93,1.071-2.101.717-4.227,1.368-6.306,2.148-.976.367-1.75,1.368-1.397,2.46.309.955,1.412,1.791,2.46,1.397h0Z"/><path class="g" d="M42.837,206.789c21.892,4.032,43.72,8.414,65.47,13.152,6.122,1.334,12.238,2.696,18.348,4.085,2.506.57,3.576-3.286,1.063-3.857-21.707-4.935-43.492-9.521-65.347-13.751-6.152-1.19-12.309-2.352-18.471-3.487-2.516-.463-3.595,3.391-1.063,3.857h0Z"/><path class="h" d="M122.453,302.677c-3.079,1.775-11.832,6.742-15.376,8.739-1.559.878-3.364,1.209-5.119.863-32.752-6.453-65.319-13.723-97.238-20.105-1.684-.337-2.845-1.886-2.698-3.598.133-1.547.283-3.055.44-4.556.13-1.245.941-2.286,2.092-2.777,5.744-2.449,11.293-4.584,17.171-6.76,32.435,6.403,65.56,13.84,98.902,20.41"/><path class="g" d="M92.358,175.004l.936-.476c2.295-1.167.273-4.619-2.019-3.454-6.919,3.517-13.837,7.035-20.756,10.552l-28.34,14.407c-.77.391-1.543.778-2.31,1.174-3.459,1.79-6.393,4.544-8.342,7.923-2.038,3.534-2.511,7.337-2.999,11.269l-3.934,31.708-2.101,16.936c-.383,3.088-.863,6.182-1.151,9.28-.014.154-.038.308-.057.462-.133,1.074,1.015,2,2,2,1.192,0,1.866-.923,2-2,.903-7.278,1.806-14.555,2.709-21.833,1.384-11.156,2.768-22.312,4.152-33.468.267-2.149.484-4.312.801-6.454.63-4.256,2.909-8.212,6.368-10.794,1.122-.838,2.359-1.466,3.601-2.097,8.623-4.384,17.246-8.768,25.87-13.152l15.402-7.83c2.887-1.468,5.858-2.835,8.686-4.416.138-.077.283-.144.424-.215l-2.019-3.454-.936.476c-2.295,1.167-.273,4.619,2.019,3.454h0Z"/><path class="g" d="M20.599,272.774c-5.345,1.986-10.663,4.042-15.917,6.259-2.325.981-3.906,2.367-4.22,4.986-.284,2.364-.99,5.278.234,7.474,1.302,2.336,3.719,2.652,6.101,3.131,2.774.558,5.547,1.121,8.319,1.689,5.575,1.141,11.147,2.299,16.717,3.465,22.784,4.769,45.541,9.674,68.378,14.188,2.906.574,5.401.54,8.055-.925,1.639-.905,3.261-1.843,4.889-2.766,3.44-1.95,6.882-3.897,10.308-5.872,2.23-1.285.218-4.743-2.019-3.454-2.745,1.582-5.501,3.144-8.256,4.708-1.502.853-3.004,1.704-4.507,2.555-1.33.753-2.714,1.763-4.224,2.083-1.095.232-2.104.028-3.183-.185-1.378-.272-2.756-.546-4.133-.821-2.673-.534-5.345-1.073-8.016-1.615-5.256-1.068-10.508-2.152-15.759-3.245-20.967-4.366-41.903-8.885-62.895-13.133-1.424-.288-2.848-.575-4.272-.86-.865-.173-1.885-.229-2.145-1.234-.272-1.054.138-2.525.245-3.601.099-.991.034-1.924.958-2.483,1.156-.7,2.602-1.114,3.852-1.625,1.33-.543,2.664-1.077,4.001-1.603,2.839-1.116,5.692-2.195,8.552-3.258,2.392-.889,1.357-4.756-1.063-3.857h0Z"/><path class="g" d="M22.324,276.631c25.345,5.025,50.588,10.543,75.892,15.767,7.287,1.504,14.579,2.984,21.879,4.423,2.514.496,3.591-3.359,1.063-3.857-25.501-5.028-50.897-10.565-76.347-15.838-7.136-1.478-14.276-2.935-21.424-4.352-2.514-.499-3.59,3.356-1.063,3.857h0Z"/><path class="g" d="M115.824,293.548l1.704-13.738,3.2-25.793c.629-5.07,1.193-10.154,1.888-15.216.767-5.583,3.538-10.706,7.772-14.419,2.413-2.116,5.298-3.458,8.13-4.897,6.594-3.352,13.189-6.705,19.783-10.057l.477-.242c2.295-1.167.273-4.619-2.019-3.454-6.048,3.075-12.097,6.149-18.145,9.224-2.365,1.202-4.83,2.31-7.102,3.687-5.865,3.554-10.255,9.32-12.091,15.931-.611,2.199-.835,4.474-1.115,6.732l-1.121,9.036-3.237,26.093-1.374,11.075c-.237,1.911-.596,3.85-.716,5.773-.006.088-.022.177-.033.265-.133,1.074,1.015,2,2,2,1.192,0,1.866-.923,2-2h0Z"/><path class="g" d="M124.085,294.892c1.342-10.813,2.683-21.627,4.025-32.44l1.945-15.677c.997-8.033,5.396-14.917,12.669-18.674,5.033-2.6,10.101-5.135,15.151-7.702,2.295-1.167.273-4.619-2.019-3.454-4.914,2.498-9.831,4.992-14.743,7.495-8.339,4.249-13.772,12.134-14.942,21.392-1.494,11.821-2.934,23.65-4.401,35.475-.562,4.529-1.124,9.057-1.686,13.586-.133,1.074,1.015,2,2,2,1.192,0,1.866-.923,2-2h0Z"/><path class="g" d="M46.651,193.054c0-3.607,0-7.215,0-10.822,0-1.804,0-3.607,0-5.411,0-1.638-.147-3.359.099-4.984.374-2.468,1.604-4.71,3.442-6.387,1.06-.968,2.336-1.599,3.589-2.279,1.636-.888,3.272-1.773,4.91-2.658,2.266-1.224.248-4.679-2.019-3.454-3.077,1.662-6.541,3.103-9.177,5.442-2.229,1.978-3.847,4.745-4.482,7.655-.761,3.491-.362,7.296-.362,10.846,0,4.017,0,8.035,0,12.052,0,2.574,4,2.578,4,0h0Z"/><path class="g" d="M56.398,182.446c0-1.887-.183-3.879.075-5.752.225-1.636.86-3.171,1.791-4.528.867-1.264,2.059-2.279,3.387-3.03,1.988-1.124,4.015-2.185,6.024-3.272,2.265-1.225.248-4.68-2.019-3.454-3.948,2.135-8.226,3.916-10.846,7.737-1.085,1.582-1.854,3.459-2.172,5.351-.385,2.288-.241,4.637-.241,6.948,0,2.574,4,2.578,4,0h0Z"/><path class="h" d="M182.528,116.252c3.906-1.864,10.556-4.971,14.52-6.696,1.589-.692,3.44-.069,4.328,1.42.511.857,1.019,1.76,1.472,2.601.919,1.707.236,3.835-1.496,4.705-3.799,1.91-10.604,5.382-14.29,7.324h-3.29"/><path class="g" d="M183.537,117.979c2.502-1.193,5.011-2.37,7.527-3.534,1.355-.627,2.711-1.249,4.071-1.863.913-.412,2.01-1.134,2.997-1.298,1.312-.218,1.846,1.244,2.366,2.171.498.886,1.115,1.722.49,2.599-.558.784-2.05,1.207-2.89,1.633-1.279.648-2.557,1.298-3.834,1.95-2.744,1.401-5.486,2.806-8.212,4.242-2.279,1.2-.259,4.653,2.019,3.454,2.818-1.483,5.652-2.935,8.488-4.382,1.425-.727,2.851-1.452,4.278-2.174,1.471-.743,2.896-1.426,3.734-2.936.894-1.612.86-3.517.064-5.151-.818-1.679-1.773-3.618-3.413-4.625-3.137-1.927-6.568.359-9.468,1.682-3.425,1.563-6.836,3.157-10.235,4.778-.975.465-1.23,1.86-.718,2.736.583.997,1.758,1.184,2.736.718h0Z"/><path class="g" d="M190.057,163.639c-.332-12.678-.664-25.355-.996-38.033-.067-2.569-4.068-2.579-4,0,.332,12.678.664,25.355.996,38.033.067,2.569,4.068,2.579,4,0h0Z"/><path class="d" d="M167.376,164.348l.723,4.876c.159,1.728.24,3.338.232,4.928-.008,3.285-1.207,10.737-6.53,15.2-5.495,4.635-11.43,8.715-17.723,12.184-9.298,5.075-28.897,15.335-37.779,19.729-.2,4.896-.395,9.754-.571,14.601-.583,15.164-1.084,17.431-1.414,32.754-.02.522-.163,2.625-.383,4.003-.477,2.173-2.287,3.803-4.496,4.052-5.385.803-10.973.685-18.449-.106-3.718-.391-6.237-.827-8.935-2.776-.954-.803-1.557-1.94-1.696-3.179-5.161.689-10.574.546-17.703-.204-3.713-.395-6.237-.832-8.935-2.784-2.132-1.537-2.148-5.617-2.112-12.424.077-14.609.053-17.729.465-31.56.016-.624.033-1.231.053-1.842.135-4.268.314-8.813.681-12.812.196-2.156.436-4.154.758-5.854,1.402-9.151,5.768-15.049,10.803-19.358,5.034-4.309,18.545-11.878,25.104-15.457,0,0,13.403-6.983,16.027-8.351.613.078,1.131.144,1.131.144l37.019,4.719,33.731-.484Z"/><path class="e" d="M99.481,282.722c-.3.12-.61.28-.91.48-4.49,2.89-9.82,6.28-13.71,8.74-2.46,1.47-4.49.53-4.96-1.09-.43-1.47-1.22-4.41-2.05-5.69-1.13-1.76-3.21-2.97-5.4-3.38,1.03-1.29,2.05-2.58,3.07-3.82.07-.09.14-.19.21-.29,1.05-1.66,2.48-.9,4.38-.38,2.29.63,5.47.77,9.09.81,5.13.05,8.28-.41,8.28-.41.7,1.33,1.41,3.1,2,5.03Z"/><path class="e" d="M66.401,271.852c.54,1.41,1.07,2.84,1.49,4.29-4.3,2.77-9.26,5.92-12.93,8.24-2.44,1.46-4.45.53-4.92-1.08-.43-1.46-1.21-4.38-2.03-5.65-1.13-1.73-3.18-2.94-5.35-3.35.69-.79,1.38-1.59,2.05-2.4.7-.88,1.75-1.4,2.87-1.44,0,0,5.35,1.29,9.49,1.11s8.68-.86,8.68-.86c.3.32.53.71.65,1.14Z"/><path class="g" d="M42.811,277.123c1.029-1.131,2.029-2.284,3.017-3.451.395-.467.693-.767,1.198-1.085.157-.099.543-.258.042-.188.05-.007.167.041.209.048,1.899.33,3.767.727,5.688.942,4.422.494,8.935-.095,13.315-.749l-1.946-.514c.458.544.626,1.552.86,2.205.339.944.651,1.894.931,2.857.717,2.467,4.579,1.417,3.857-1.063-.541-1.862-1.119-3.847-1.966-5.595-.688-1.421-1.699-1.894-3.206-1.687-2.8.386-6.241.834-9.287.739-2.504-.078-4.9-.581-7.35-1.029-3.733-.682-6.066,3.408-8.191,5.743-1.729,1.9,1.091,4.737,2.828,2.828h0Z"/><path class="g" d="M73.368,283.826c.988-1.243,1.968-2.492,2.971-3.723.394-.483.753-1.127,1.216-1.536-.295.26.026.1.379.173,1.101.228,2.144.638,3.261.822,1.389.229,2.793.358,4.198.431,4.184.218,8.461.226,12.617-.374l-2.259-.919c.89,1.724,1.517,3.552,2.056,5.412.714,2.468,4.576,1.418,3.857-1.063-.633-2.187-1.413-4.342-2.459-6.368-.443-.859-1.402-1.043-2.259-.919-.021.003.663-.074.125-.019-.313.032-.626.069-.94.099-.995.093-1.993.156-2.992.197-3.114.13-6.27.117-9.377-.157-1.18-.104-2.333-.294-3.473-.622s-2.278-.723-3.479-.543c-1.428.213-2.175,1.117-3.004,2.194-1.063,1.38-2.184,2.722-3.268,4.087-.671.845-.825,2.003,0,2.828.697.697,2.153.85,2.828,0h0Z"/><path class="g" d="M68.426,271.145c1.065,7.081,10.883,7.342,16.297,7.774,3.222.257,6.46.392,9.69.24,2.74-.129,6.228-.088,8.539-1.744,2.726-1.952,3.088-4.819,3.309-7.932.217-3.053.176-6.136.288-9.196.177-4.832.474-9.657.728-14.484.431-8.175.688-16.359,1.021-24.538l-.991,1.727c10.768-5.332,21.403-10.952,32.001-16.614,6.189-3.307,12.266-6.721,17.924-10.897,3.13-2.31,6.483-4.644,8.807-7.808,1.809-2.462,3.003-5.417,3.664-8.389,1.151-5.174.365-10.309-.4-15.469-.159-1.069-1.51-1.658-2.46-1.397-1.146.315-1.556,1.388-1.397,2.46.593,4.001,1.316,7.966.669,11.941-.448,2.752-1.33,5.436-2.825,7.801-1.873,2.963-4.938,5.071-7.709,7.133-5.514,4.105-11.424,7.493-17.471,10.73-5.432,2.908-10.884,5.777-16.348,8.623s-10.946,5.693-16.473,8.43c-.638.316-.963,1.054-.991,1.727-.465,11.411-.989,22.813-1.544,34.219-.254,5.226-.097,10.526-.644,15.728-.117,1.117-.376,2.14-1.319,2.854-.886.671-2.059.719-3.123.838-2.744.306-5.509.367-8.268.283-3.538-.109-7.158-.322-10.653-.901-2.553-.423-6.017-1.224-6.465-4.204-.161-1.069-1.508-1.659-2.46-1.397-1.144.314-1.558,1.388-1.397,2.46h0Z"/><path class="g" d="M72.03,269.108c-.411-14.682-.343-29.395-.103-44.079.098-6.013.086-12.285,1.89-18.069,1.106-3.545,3.143-6.564,5.973-8.964,2.313-1.961,4.976-3.569,7.516-5.213,6.846-4.43,13.809-8.713,20.89-12.758,2.235-1.277.222-4.734-2.019-3.454-6.432,3.675-12.754,7.56-18.999,11.544-6.028,3.845-12.726,7.647-15.89,14.382-2.945,6.269-3.173,13.54-3.321,20.354-.14,6.398-.166,12.799-.181,19.198-.022,9.02-.008,18.044.244,27.061.072,2.569,4.072,2.579,4,0h0Z"/><path class="g" d="M94.928,158.011c-5.378,2.802-10.763,5.591-16.133,8.406-4.029,2.112-7.978,4.401-11.899,6.706-4.716,2.772-9.576,5.572-13.781,9.099-4.555,3.821-8.048,8.755-10.008,14.375-2.446,7.014-2.607,14.846-2.882,22.196-.478,12.74-.614,25.49-.628,38.238-.003,2.849-.126,5.931.677,8.697.735,2.532,2.549,4.004,4.914,5.04,3.151,1.38,6.672,1.595,10.059,1.895,3.466.306,6.951.489,10.43.35,1.565-.062,3.125-.197,4.678-.399,1.071-.139,2-.82,2-2,0-.973-.921-2.14-2-2-6.515.845-13.464.589-19.939-.489-1.305-.217-2.64-.51-3.833-1.098-.537-.265-1.05-.575-1.546-.909-.896-.603.093.168-.322-.265-.151-.173-.166-.183-.046-.029-.075-.107-.145-.217-.209-.331-.889-1.735-.835-4.603-.857-6.775-.118-11.999.147-24.01.491-36.003.209-7.295.253-14.851,1.97-21.982,1.355-5.629,4.299-10.55,8.529-14.486,3.609-3.359,8.047-5.923,12.294-8.467,4.468-2.677,8.996-5.287,13.594-7.736,5.462-2.909,10.978-5.72,16.466-8.579,2.284-1.19.264-4.643-2.019-3.454h0Z"/><path class="i" d="M41.609,302.28c-5.079,2.67-13.407,3.976-18.823-.156-2.565-1.958-3.566-5.964-2.689-9.07,1.611-5.708,7.819-8.924,11.788-12.829,1.847-1.817,3.492-3.905,5.727-5.216,3.27-1.918,8.358-.501,10.397,2.645.824,1.271,1.606,4.19,2.03,5.645.471,1.615,2.482,2.547,4.923,1.088,3.858-2.441,9.151-5.809,13.603-8.675,2.215-1.426,4.395-.969,5.383,1.471.951,2.349-1.118,4.02-3.298,5.687-2.753,2.104-4.58,3.842-7.579,5.578-7.579,4.386-13.682,9.812-21.46,13.833Z"/><path class="h" d="M175.996,156.066c-9.874,5.261-19.702,10.495-29.868,16.036-3.917,2.135-6.363,6.244-6.363,10.706,0,1.913,0,3.824,0,5.73,13.805-7.604,26.864-14.53,40.094-21.584-.114-4.257-.22-8.513-.332-12.769-1.178.628-2.355,1.255-3.532,1.882Z"/><path class="g" d="M186.384,161.203c-15.893,8.502-31.836,16.913-47.629,25.603-2.256,1.241-.24,4.697,2.019,3.454,15.792-8.69,31.735-17.1,47.629-25.603,2.271-1.215.253-4.669-2.019-3.454h0Z"/><path class="g" d="M181.884,167.867c-.141-5.239-.269-10.478-.411-15.716-.069-2.569-4.07-2.579-4,0,.141,5.239.269,10.478.411,15.716.069,2.569,4.07,2.579,4,0h0Z"/><path class="e" d="M176.077,146.336c-12.654,6.745-25.206,13.417-38.166,20.462-4.075,2.215-6.619,6.48-6.619,11.118,0,37.364,0,74.727,0,112.091h8.473s0-52.543,0-107.199c0-4.462,2.445-8.57,6.363-10.706,10.23-5.576,20.124-10.845,30.064-16.142"/><path class="g" d="M141.764,290.006v-105.698c0-1.449-.018-2.82.372-4.225.671-2.415,2.235-4.552,4.363-5.885,2.875-1.802,6.001-3.286,8.987-4.895,3.166-1.706,6.335-3.405,9.506-5.101,2.271-1.214.253-4.669-2.019-3.454-5.673,3.034-11.34,6.079-16.992,9.153-4.666,2.538-7.865,6.744-8.195,12.168-.196,3.215-.023,6.491-.023,9.712v98.226c0,2.574,4,2.578,4,0h0Z"/><path class="g" d="M133.296,290.006v-110.839c0-3.742.968-7.172,4.02-9.598,1.723-1.37,3.887-2.283,5.815-3.326,2.228-1.205,4.458-2.408,6.689-3.608,2.268-1.22.25-4.675-2.019-3.454-3.875,2.085-7.979,3.981-11.683,6.355-2.995,1.919-5.238,4.881-6.24,8.299-.56,1.911-.582,3.857-.582,5.83v110.341c0,2.574,4,2.578,4,0h0Z"/><path class="h" d="M156.866,222.429c0-43.337,20.459-60.591,37.571-60.591s37.571,18.232,37.571,60.591-20.459,60.591-37.571,60.591-37.571-17.254-37.571-60.591"/><path class="g" d="M158.866,222.429c.021-12.883,1.667-26.317,7.481-37.981,3.829-7.68,9.462-14.417,17.185-18.102,2.659-1.269,6.45-2.279,9.292-2.458,3.559-.224,6.282.19,9.682,1.381,1.662.582,3.011,1.214,4.698,2.194,1.744,1.013,3.255,2.092,4.686,3.319,3.407,2.921,6.231,6.421,8.54,10.259,6.388,10.619,8.862,23.249,9.442,35.491.643,13.582-.591,27.828-5.961,40.459-3.508,8.251-9.077,16.008-16.798,20.458-2.95,1.7-6.343,2.942-9.641,3.384-3.143.422-6.325.16-9.396-.662-3.513-.94-6.46-2.408-9.539-4.635-3.111-2.25-6.168-5.497-8.47-8.813-6.683-9.625-9.635-21.455-10.699-32.986-.347-3.759-.495-7.532-.501-11.307-.004-2.574-4.004-2.578-4,0,.022,13.709,1.911,27.887,8.155,40.254,4.079,8.077,10.361,15.47,18.673,19.368,6.872,3.223,14.659,3.92,21.875,1.394,8.643-3.025,15.473-9.655,20.172-17.374,6.822-11.207,9.481-24.578,10.12-37.533.71-14.387-.761-29.355-6.497-42.69-3.813-8.864-9.903-17.164-18.415-21.997-6.655-3.779-14.413-5.008-21.845-3.045-8.402,2.22-15.324,7.998-20.27,14.995-7.13,10.088-10.222,22.588-11.41,34.719-.387,3.958-.552,7.933-.558,11.908-.004,2.574,3.996,2.578,4,0h0Z"/><path class="e" d="M194.437,174.008c-12.989,0-26.969,15.152-26.969,48.42s13.98,48.42,26.969,48.42c10.841,0,26.969-12.895,26.969-48.42s-16.128-48.42-26.969-48.42Z"/><path class="g" d="M194.365,226.609c-.168-.004-.536-.135-.096.005-.092-.029-.201-.06-.293-.081.395.09.141.082-.003-.01-.106-.068-.214-.13-.319-.2.374.25-.108-.14-.224-.259-.083-.086-.258-.377-.038-.038-.092-.141-.185-.277-.27-.422-.054-.092-.413-.829-.256-.459-.105-.248-.192-.505-.273-.762-.191-.606-.329-1.231-.418-1.861.061.435-.021-.302-.029-.427-.016-.248-.025-.497-.025-.746,0-.277.01-.554.029-.831.008-.115.017-.231.028-.346.011-.117.024-.234.038-.351-.029.207-.032.236-.009.088.094-.568.215-1.13.387-1.68.041-.131.347-.892.176-.522.12-.259.249-.514.398-.757.038-.062.359-.506.064-.133.066-.083.136-.164.208-.242.071-.076.151-.145.222-.222.31-.34-.323.146.08-.063.086-.045.182-.101.264-.151-.471.288.004.021.019.004.058-.064.531-.088.01-.037.172-.017.337-.006.509-.013.524-.021-.232-.069.056,0,.13.031.258.069.388.102.127.032.28.169-.048-.025.108.064.22.127.329.189.249.142-.317-.327.015.008.072.072.148.138.219.211.067.07.352.464.081.07.09.13.178.261.259.397.055.092.106.187.156.282.002.003.23.485.107.207-.123-.28.082.226.083.227.038.106.073.213.107.321.085.272.157.549.219.827.025.112.048.224.069.337.011.058.11.678.073.411-.043-.313.024.236.024.239.011.111.021.222.029.333.02.269.033.538.039.807.011.523-.004,1.048-.042,1.57-.012.165-.031.329-.044.494-.034.438.068-.342-.015.134-.048.277-.095.553-.159.827-.075.324-.165.645-.275.959-.036.103-.074.205-.114.306.171-.433-.015.01-.064.105-.072.139-.15.275-.234.407-.067.105-.368.428-.049.088-.069.073-.132.151-.203.222-.07.071-.143.139-.219.205.191-.14.227-.168.108-.085-.106.068-.217.129-.322.197-.321.207.319-.05-.096.039-.101.021-.214.054-.314.083-.227.042-.219.043.024.003-.121.01-.242.015-.363.015-1.08.022-2,.904-2,2,0,1.067.915,2.022,2,2,3.592-.072,5.627-3.021,6.139-6.308.464-2.976.362-6.265-1.053-8.989-1.664-3.205-5.851-4.335-8.617-1.787-2.258,2.08-2.921,5.903-2.667,8.828.311,3.576,1.951,8.145,6.198,8.256,1.081.028,2-.939,2-2,0-1.107-.916-1.972-2-2Z"/><path class="g" d="M194.437,172.008c-6.528.035-12.452,3.463-16.707,8.259-6.095,6.871-9.253,15.96-10.827,24.876-2.151,12.183-2.074,25.156.526,37.265,1.832,8.531,5.269,17.283,11.574,23.527,4.296,4.255,10.236,7.308,16.416,6.878,5.693-.396,10.854-3.48,14.757-7.516,5.778-5.977,9.148-13.978,11.022-21.974,2.775-11.841,2.927-24.578,1.021-36.562-1.399-8.796-4.304-17.62-9.865-24.693-3.583-4.558-8.579-8.487-14.367-9.673-1.165-.239-2.36-.381-3.549-.387-2.574-.013-2.577,3.987,0,4,.522.003,1.036.041,1.555.086.549.048-.223-.061.341.049.296.058.593.108.887.174.508.114,1.01.251,1.506.41.256.082.51.17.763.263.154.057.307.117.46.177.516.2-.373-.17.138.056,1.189.527,2.327,1.158,3.406,1.883,1.18.793,1.842,1.336,2.959,2.395,5.312,5.036,8.506,12.044,10.401,19.145,2.915,10.923,3.216,22.738,1.857,33.919-1.033,8.504-3.427,17.192-8.381,24.288-.848,1.215-1.747,2.322-2.833,3.462-.94.986-2.29,2.204-3.077,2.782-1.03.758-2.11,1.444-3.25,2.025-.255.13-.513.255-.773.374-.153.07-.308.139-.463.205.386-.164.038-.018-.061.019-.576.221-1.157.424-1.752.592-.492.139-.99.256-1.493.349-.116.022-.936.14-.346.067-.287.036-.574.065-.862.085-.506.035-1.014.042-1.522.026-.331-.011-.66-.037-.991-.061-.601-.045-.136.014-.731-.092-2.88-.511-4.915-1.385-7.329-3.044-5.656-3.889-9.466-10.76-11.692-17.411-3.596-10.747-4.228-22.477-3.408-33.71.685-9.38,2.696-19.124,7.709-27.214,1.748-2.82,3.876-5.394,6.52-7.465,2.018-1.581,4.444-2.822,7.026-3.436,1.425-.339,1.916-.391,3.434-.399,2.573-.014,2.579-4.014,0-4Z"/><path class="h" d="M122.342,299.119c0-11.183,8.189-15.635,15.038-15.635s15.038,4.705,15.038,15.635-8.189,15.635-15.038,15.635-15.038-4.452-15.038-15.635"/><path class="g" d="M124.342,299.119c.052-5.905,2.964-11.204,8.827-12.997,4.703-1.438,10.156-.387,13.709,3.278,4.388,4.526,4.716,12.608,1.329,17.789-2.768,4.234-8.272,6.203-13.033,5.402-2.832-.476-5.483-1.728-7.465-3.832-2.454-2.605-3.336-6.143-3.366-9.64-.022-2.573-4.023-2.579-4,0,.036,4.1,1.069,8.126,3.624,11.39,2.035,2.6,4.878,4.435,8.015,5.425,6.186,1.951,13.458.325,17.922-4.476,5.422-5.831,6.1-15.948,1.673-22.553-3.825-5.707-10.801-8.258-17.467-7.116-3.504.6-6.905,2.344-9.325,4.964-3.12,3.378-4.403,7.838-4.443,12.366-.023,2.575,3.977,2.577,4,0h0Z"/><path class="d" d="M155.666,80.378c.636.089,1.255.372,1.849.749,1.747,1.113,2.334,1.797,4.553,3.087,13.578,7.898,19.417,24.579,21.591,39.378,3.468,23.607-9.979,39.143-30.937,47.584l-19.077-6.345-37.019-4.719-4.841-5.641c-5.417,3.967-11.455,7.088-17.831,9.195l-6.535-18.507c10.565-9.512,16.022-22.458,20.64-35.42,4.07-11.422,12.885-21.648,24.796-25.709.98-.604,2.26-1.315,2.509-1.298.329.023.768.585,1.02,1.021,1.689,2.928,3.19,5.365,5.035,8.197,1.888,2.899,4.389,5.999,6.69,7.706l1.344.997c9.664-4.914,17.546-11.21,23.042-18.537.732-.975,1.357-1.579,2.297-1.732.294-.048.585-.047.873-.007Z"/><path class="f" d="M113.579,81.365c1.665,3.439,4.579,5.953,7.777,7.393,3.199,1.439,6.688,1.876,10.126,1.876,8.98-.013,17.932-3.035,25.476-8.591l1.404-1.107"/><path class="g" d="M105.77,111.561c-1.612,8.819-2.09,17.788-1.322,26.722.219,2.545,4.221,2.569,4,0-.736-8.569-.367-17.197,1.179-25.659.46-2.517-3.394-3.596-3.857-1.063h0Z"/><path class="g" d="M68.835,146.574c8.355-7.585,13.779-17.526,17.973-27.87,1.978-4.879,3.435-9.995,5.978-14.625,2.351-4.281,5.387-8.139,9.06-11.364,2.096-1.841,4.409-3.425,6.875-4.73,1.169-.618,2.367-1.175,3.604-1.643.788-.298,1.496-.57,2.225-.993.413-.24,1.06-.639,1.348-.687h-1.063l.208.073-.883-.514c.627.485.935,1.298,1.33,1.969.459.78.924,1.556,1.395,2.327.988,1.618,1.995,3.229,3.048,4.806,2.004,3.004,4.286,5.858,7.168,8.06.859.656,2.239.134,2.736-.718.602-1.029.144-2.078-.718-2.736-2.924-2.234-5.04-5.511-6.993-8.57-1.051-1.645-2.074-3.308-3.066-4.99-.798-1.352-1.642-3.395-3.429-3.601-1.527-.176-2.843,1.148-4.194,1.65-1.562.58-3.095,1.253-4.571,2.026-2.88,1.507-5.556,3.41-7.988,5.564-4.756,4.212-8.583,9.548-11.183,15.336-1.409,3.136-2.455,6.421-3.69,9.626s-2.575,6.393-4.085,9.492c-3.509,7.201-7.957,13.875-13.913,19.283-1.91,1.734.925,4.556,2.828,2.828h0Z"/><path class="g" d="M156.798,121.391c-1.446,8.365-2.401,16.809-2.832,25.288-.131,2.573,3.87,2.566,4,0,.412-8.124,1.303-16.209,2.689-24.225.184-1.063-.284-2.154-1.397-2.46-.963-.265-2.275.327-2.46,1.397h0Z"/><path class="g" d="M97.669,146.841c-6.837,6.735-15.14,11.855-24.245,14.897-2.429.812-1.388,4.676,1.063,3.857,9.763-3.262,18.675-8.701,26.011-15.926,1.837-1.809-.992-4.637-2.828-2.828h0Z"/><path class="g" d="M96.626,162.113c10.827,1.38,21.653,2.76,32.48,4.14l4.539.579c1.073.137,2-1.017,2-2,0-1.194-.924-1.863-2-2-10.827-1.38-21.653-2.76-32.48-4.14l-4.539-.579c-1.073-.137-2,1.017-2,2,0,1.194.924,1.863,2,2h0Z"/><path class="g" d="M124.524,105.133c10.266-4.349,20.063-10.528,27.357-19.069.828-.97,1.567-2.012,2.388-2.985.87-1.032,1.454-.736,2.551-.02.924.602,1.781,1.298,2.694,1.917,1.1.745,2.274,1.372,3.375,2.116,4.033,2.721,7.335,6.437,9.916,10.538,5.236,8.32,8.117,18.443,9.132,28.177.936,8.978-.74,17.939-5.797,25.505-5.651,8.455-14.67,14.178-23.949,17.938-1,.405-1.707,1.332-1.397,2.46.261.949,1.453,1.805,2.46,1.397,9.141-3.705,17.928-8.972,24.14-16.785,6.107-7.681,9.089-17.138,8.787-26.934-.162-5.277-1.151-10.588-2.459-15.693-1.355-5.291-3.24-10.492-5.842-15.303-2.489-4.603-5.717-8.909-9.729-12.293-2.166-1.827-4.584-3.156-6.895-4.765-2.229-1.553-4.645-3.763-7.579-2.707-1.469.529-2.331,1.749-3.25,2.933-.967,1.245-2.006,2.439-3.085,3.588-2.16,2.299-4.512,4.43-7.01,6.357-5.433,4.193-11.52,7.505-17.827,10.177-.995.421-1.213,1.889-.718,2.736.602,1.03,1.738,1.141,2.736.718h0Z"/><path class="e" d="M63.085,156.709c-.754.245-1.476.665-2.161,1.075-1.68,1.007-3.36,2.013-5.041,3.02-1.174.703-2.376,1.418-3.716,1.698-1.34.28-2.204-2.406-.439-6.365,2.193-4.922,6.674-8.449,10.082-10.223,3.407-1.773,5.621-2.138,9.675-1.328,4.047.808,7.251,4.467,7.442,8.589.192,4.123-2.015,7.354-5.198,9.982-.664.548-3.318,3.099-5.97,1.498-1.773-1.07-1.199-4.236-1.101-5.097.171-1.501-.625-2.91-1.968-3.049-.548-.057-1.084.03-1.604.199Z"/><path class="e" d="M152.445,164.78c1.354,2.756.624,6.076-1.734,8.043-3.331,2.778-5.975,4.123-6.954,3.609-.096-.05-.182-.106-.259-.166-.901-.698-2.114-.748-2.94.037-1.835,1.745-3.971,3.175-6.291,4.191-.956.419-1.981.737-3.022.663-2.657-.189-4.741-1.487-5.507-3.339-.604-1.46-.456-3.091.15-4.55,1.968-4.738,4.775-9.313,9.006-12.215,2.464-1.69,5.27-2.725,8.171-3.5,3.005-.804,6.157.661,7.528,3.453l1.853,3.772Z"/><path class="g" d="M40.6,300.553c-3.45,1.777-7.678,2.676-11.539,2.046-1.887-.308-3.946-.989-5.368-2.323-1.354-1.271-1.932-3.214-1.904-5.031.062-4.036,3.633-7.02,6.496-9.364,1.566-1.282,3.187-2.506,4.658-3.899,1.666-1.577,3.096-3.49,4.991-4.808,2.787-1.937,7.256-.984,8.733,2.202.798,1.722.913,3.8,1.856,5.442,1.087,1.894,3.354,2.618,5.418,2.134,2.3-.54,4.436-2.362,6.401-3.612,2.174-1.382,4.345-2.767,6.514-4.157,1.005-.644,1.992-1.388,3.049-1.945.545-.287,1.153-.514,1.681-.102,1.796,1.399-.954,3.231-1.947,4.005-2.171,1.693-4.267,3.514-6.6,4.985-2.492,1.572-5.017,3.06-7.45,4.729-4.912,3.37-9.694,6.932-14.989,9.696-2.283,1.192-.263,4.645,2.019,3.454,5.295-2.764,10.077-6.326,14.989-9.696,2.493-1.711,5.094-3.22,7.638-4.848,2.378-1.522,4.507-3.396,6.738-5.117,1.979-1.527,4.28-3.385,4.197-6.15-.078-2.597-2.148-5.011-4.753-5.257-2.704-.255-5.013,1.78-7.147,3.147-2.456,1.572-4.915,3.139-7.376,4.702-.827.525-4.103,3.31-4.937,1.978-.44-.702-.554-1.932-.81-2.722-.372-1.15-.768-2.376-1.421-3.401-2.489-3.902-8.104-5.6-12.333-3.752-2.499,1.092-4.354,3.272-6.211,5.19-1.603,1.655-3.395,3.076-5.182,4.522-3.669,2.968-7.507,6.489-8.124,11.44-.333,2.675.289,5.576,1.887,7.774,1.655,2.276,4.304,3.689,6.994,4.379,5.266,1.349,11.077.271,15.852-2.188,2.289-1.179.268-4.632-2.019-3.454Z"/><path class="g" d="M62.554,154.781c-3.194,1.164-5.952,3.41-8.928,5.019-.151.082-1.582.778-1.605.722-.015-.037.727.317.762.333.198.089.071.066.058.097.065-.155-.112-.796-.101-1.024.036-.752.248-1.486.495-2.193,1.704-4.872,6.496-9.025,11.235-10.866,4.467-1.736,10.678-.257,12.176,4.773.724,2.432.053,4.936-1.343,6.987-1.117,1.641-2.91,3.493-4.683,4.291-.682.307-1.652.468-2.002-.311-.376-.836-.055-2.037.024-2.918.127-1.403-.253-2.903-1.255-3.938-1.294-1.335-3.119-1.454-4.833-.972-2.474.696-1.423,4.556,1.063,3.857.413-.116.759-.293.991.077.226.361.025,1.009-.021,1.414-.142,1.25-.167,2.602.26,3.804,1.239,3.482,5.314,3.887,8.19,2.221,5.298-3.069,9.464-9.735,7.361-15.909-2.271-6.668-10.206-9.639-16.656-7.358-6.269,2.216-12.15,7.438-14.363,13.783-.843,2.418-1.319,7.796,2.572,7.849,1.957.027,3.968-1.404,5.573-2.366,1.943-1.164,3.96-2.739,6.094-3.516,2.4-.874,1.363-4.741-1.063-3.857Z"/><path class="g" d="M150.718,165.789c.929,2.031.187,4.208-1.421,5.62-.999.877-2.113,1.667-3.258,2.34-.35.206-.716.427-1.09.582-.144.059-.294.099-.44.151-.355.127-.391-.05-.21.058.85.506-.082-.2-.431-.367-.623-.298-1.346-.473-2.041-.437-1.636.085-2.607,1.154-3.788,2.135-1.817,1.509-4.739,3.631-7.23,3.236-2.238-.355-3.923-1.882-3.329-4.286.606-2.455,2.151-4.942,3.564-7.011,1.436-2.103,3.237-4.005,5.392-5.378,2.221-1.414,5.045-2.684,7.671-3.065,3.927-.57,5.246,3.643,6.611,6.423,1.135,2.31,4.586.286,3.454-2.019-.614-1.251-1.202-2.519-1.845-3.756-1.406-2.706-4.135-4.488-7.183-4.665-1.599-.093-3.162.393-4.664.881-1.772.576-3.527,1.286-5.153,2.201-2.872,1.617-5.222,3.913-7.167,6.553-.94,1.276-1.764,2.635-2.497,4.041-.804,1.544-1.712,3.232-2.093,4.939-.75,3.358.681,6.67,3.798,8.198,3.377,1.655,6.655.881,9.795-.88,1.495-.838,2.899-1.861,4.185-2.994.66-.581.457-.658,1.139-.294.6.32,1.109.548,1.811.546,1.328-.003,2.645-.682,3.759-1.337,1.607-.945,3.306-2.119,4.602-3.463,2.627-2.724,3.053-6.603,1.512-9.97-.449-.982-1.871-1.224-2.736-.718-1.009.59-1.169,1.75-.718,2.736Z"/><path class="i" d="M71.407,309.974c-5.118,2.691-13.509,4.006-18.966-.158-2.585-1.972-3.593-6.009-2.71-9.139,1.623-5.752,7.878-8.992,11.877-12.926,1.861-1.83,3.519-3.935,5.77-5.256,3.295-1.933,8.422-.505,10.476,2.665.83,1.281,1.618,4.222,2.045,5.688.474,1.628,2.501,2.566,4.96,1.097,3.887-2.459,9.221-5.853,13.707-8.741,2.231-1.437,4.428-.977,5.424,1.482.958,2.367-1.126,4.051-3.323,5.73-2.774,2.12-4.614,3.871-7.637,5.62-7.636,4.419-13.786,9.887-21.623,13.938Z"/><path class="g" d="M70.398,308.247c-3.464,1.785-7.693,2.682-11.573,2.075-1.887-.295-3.895-.971-5.356-2.244s-2.077-3.308-2.048-5.193c.063-4.072,3.66-7.082,6.55-9.446,1.621-1.327,3.3-2.593,4.815-4.043,1.678-1.606,3.131-3.551,5.082-4.845,2.793-1.853,7.206-.775,8.65,2.338.807,1.741.939,3.811,1.87,5.484,1.142,2.051,3.672,2.68,5.816,2.043,2.232-.663,4.308-2.417,6.254-3.654,2.192-1.394,4.381-2.79,6.568-4.192,1.018-.652,2.091-1.566,3.218-2.012.625-.248,1.166-.242,1.601.307,1.307,1.651-1.455,3.259-2.543,4.099-2.151,1.66-4.2,3.456-6.517,4.889-2.539,1.57-5.077,3.106-7.538,4.8-4.86,3.345-9.605,6.858-14.848,9.595-2.283,1.192-.263,4.645,2.019,3.454,5.309-2.771,10.106-6.338,15.03-9.719,2.52-1.731,5.147-3.261,7.72-4.904,2.299-1.468,4.358-3.267,6.51-4.935,1.987-1.54,4.467-3.331,4.547-6.113.072-2.481-1.754-5.058-4.24-5.532-2.816-.537-5.135,1.438-7.351,2.857-2.482,1.59-4.967,3.174-7.455,4.754-1.103.701-2.188,1.469-3.327,2.109-.574.323-1.565.81-2.016.117-.46-.706-.561-1.953-.822-2.761-.362-1.12-.751-2.305-1.365-3.315-2.434-3.999-8.177-5.75-12.443-3.895-2.467,1.073-4.311,3.193-6.141,5.09-1.661,1.722-3.509,3.204-5.365,4.705-3.693,2.986-7.56,6.533-8.181,11.516-.344,2.758.326,5.72,2.002,7.962s4.35,3.618,7.022,4.289c5.28,1.325,11.092.24,15.875-2.224,2.289-1.179.268-4.632-2.019-3.454Z"/></g></svg>