<svg xmlns="http://www.w3.org/2000/svg" width="134.172" height="419.681" viewBox="0 0 134.172 419.681"><defs><style>.a{fill:#b3b3b3;}.b{fill:#645d5c;}.c{fill:#fff;}.d{fill:#211715;}.e{fill:#95cbeb;}.f{fill:#f2635f;}</style></defs><path class="a" d="M32.056,335.584c-1.574-32.887-3.5-75.758-4.314-102.514-.148-4.836-.132-9.146-.052-12.773,9.434.192,69.249.192,78.694,0,.082,3.627.1,7.937-.049,12.773-1.289,42.161-5.319,124.337-6.411,144.407a4.76,4.76,0,0,1-3.381,4.392,46.759,46.759,0,0,1-11.8,1.664c-5.337-.059-13.8-.587-17.708-1.727-3.91,1.14-12.372,1.668-17.709,1.727a46.759,46.759,0,0,1-11.8-1.664,4.76,4.76,0,0,1-3.381-4.392C33.754,370.144,32.963,354.519,32.056,335.584Z"/><path class="b" d="M51.055,86.6l.854-1.426a21.745,21.745,0,0,0,2.983,1.844c.088-.616.161-1.224.214-1.848A24.416,24.416,0,0,1,46.253,78.1a33.033,33.033,0,0,1-6.268-11.827,4.7,4.7,0,0,1-3.995-1q-.361-.3-.681-.615c-.67,1.111-1.249,2.067-1.249,2.067a14.016,14.016,0,0,0-1.575,5,22.857,22.857,0,0,0-.155,3.16c.039,2.509.671,5.076.8,7.585s-1.514,6.192-3.9,7c-.765,1.234,3.357,5.275,10.973,4.089l1.24,2.1,5.622-2.506.085-.038C47.987,91.719,49.928,88.478,51.055,86.6Z"/><path class="c" d="M91.03,73.136C88.8,76.875,84.8,82.19,80.082,84.693c.045.586.105,1.168.184,1.749a26.8,26.8,0,0,1-13.2,3.723,26.463,26.463,0,0,1-12.17-3.15c.089-.616.161-1.223.215-1.847A24.458,24.458,0,0,1,46.253,78.1a33.033,33.033,0,0,1-6.268-11.827,4.7,4.7,0,0,1-3.995-1,13.128,13.128,0,0,1-3.853-6.249c-.825-2.432-.877-6.364.353-8.5a4.03,4.03,0,0,1,3.621-2.012v-.787c2.342-.347,4.416-.509,7.106-.654,7.872-.424,15.947-1.084,23.821-1.134,7.874.05,15.967.465,23.822,1.134,2.483.212,4.654.383,7.106.7v.741a4.03,4.03,0,0,1,3.621,2.012c1.23,2.134,1.178,6.066.352,8.5a13.125,13.125,0,0,1-3.852,6.249A4.783,4.783,0,0,1,94.4,66.338l-.354-.059a28.049,28.049,0,0,1-1.271,3.447A23.291,23.291,0,0,1,91.03,73.136Z"/><path class="c" d="M56.7,3.489A37.389,37.389,0,0,0,38.02,16.674a42.934,42.934,0,0,0-8.172,22.68,18.632,18.632,0,0,0-3.591,5.91,5.563,5.563,0,0,0,.126,3.452,1.632,1.632,0,0,0,2.036.735,35.588,35.588,0,0,1,4.858-1.244,66.652,66.652,0,0,1,9.94-1.134c7.872-.424,15.947-1.084,23.821-1.134,7.874.05,15.967.465,23.822,1.134,3.668.313,6.657.537,10.877,1.267a30.4,30.4,0,0,1,3.921,1.111,1.6,1.6,0,0,0,2.036-.735,5.557,5.557,0,0,0,.125-3.452,18.474,18.474,0,0,0-3.548-5.859,42.9,42.9,0,0,0-8.177-22.727A37.365,37.365,0,0,0,77.416,3.485c-6.395-2.161-15.3-1.739-20.716,0"/><path class="c" d="M7.565,207.626c-2.887,8.82-6.031,19.626-5.508,27.966.134,2.137.669,3.834,2.67,4.6a4.084,4.084,0,0,0,3.981-.939,11.118,11.118,0,0,0,2.441-3.5,79.3,79.3,0,0,0,4.493-10.15c1.122,2.892,3.725,4.991,5.493,5.052a3.359,3.359,0,0,0,2.439-.711,3.949,3.949,0,0,0,1.216-2.6,213.824,213.824,0,0,0-.72-22.607c-4.95-.3-11.066-.9-15.09-1.36C8.528,204.718,8.05,206.144,7.565,207.626Z"/><path class="c" d="M126.514,207.623c-.484-1.481-.961-2.906-1.412-4.254-4.029.463-10.145,1.061-15.095,1.361a213.824,213.824,0,0,0-.72,22.607,3.949,3.949,0,0,0,1.216,2.6,3.359,3.359,0,0,0,2.439.711c1.767-.061,4.371-2.16,5.493-5.053a79.248,79.248,0,0,0,4.493,10.151,11.1,11.1,0,0,0,2.441,3.5,4.084,4.084,0,0,0,3.981.939c2-.763,2.536-2.46,2.67-4.6C132.543,227.251,129.4,216.444,126.514,207.623Z"/><path class="d" d="M7.2,202.391c-2.818,8.411-5.672,16.9-6.81,25.735a42.089,42.089,0,0,0-.384,6.226c.038,1.88.155,3.964,1.261,5.562a5.621,5.621,0,0,0,5.5,2.382,7.975,7.975,0,0,0,5.357-4.157,73.883,73.883,0,0,0,5.906-13.311c.856-2.433-3.007-3.48-3.857-1.064a83.542,83.542,0,0,1-4.107,9.695c-.774,1.547-1.563,3.757-3.179,4.625a1.72,1.72,0,0,1-2.639-1.2,15.736,15.736,0,0,1-.219-4.728,45.334,45.334,0,0,1,.546-5.275,97.317,97.317,0,0,1,2.678-11.514c1.156-4,2.477-7.958,3.8-11.91.82-2.446-3.042-3.5-3.857-1.063Z"/><path class="d" d="M22.038,204.343c.48,5.682.764,11.389.822,17.091.014,1.389.012,2.778-.017,4.166-.018.873.185,2.4-.713,2.921-1.88,1.082-4.049-2.3-4.683-3.737a2.013,2.013,0,0,0-2.736-.717,2.049,2.049,0,0,0-.717,2.736c1.276,2.889,4.152,5.953,7.559,5.848a5.137,5.137,0,0,0,4.224-2.234c1.069-1.552,1.041-3.374,1.073-5.178a205.6,205.6,0,0,0-.812-20.9c-.215-2.546-4.217-2.569-4,0Z"/><path class="d" d="M123.019,203.454c2.4,7.167,4.825,14.375,6.2,21.823a40.845,40.845,0,0,1,.786,10.491c-.086,1.107-.41,2.583-1.787,2.622-1.695.047-2.732-2.054-3.386-3.3a85.114,85.114,0,0,1-4.935-11.324c-.849-2.412-4.715-1.374-3.857,1.064a94.362,94.362,0,0,0,5.159,11.931c1.013,1.968,2.255,3.96,4.317,4.959a5.74,5.74,0,0,0,6.375-.756c2.957-2.551,2.315-7.823,1.972-11.279a81.762,81.762,0,0,0-2.625-13.372c-1.279-4.693-2.819-9.309-4.364-13.92-.814-2.429-4.678-1.387-3.857,1.063Z"/><path class="d" d="M108.039,204.343a205.6,205.6,0,0,0-.812,20.9c.031,1.748,0,3.485.972,5.021a5.138,5.138,0,0,0,4.325,2.391c3.4.125,6.29-2.975,7.559-5.848a2.063,2.063,0,0,0-.717-2.736,2.015,2.015,0,0,0-2.737.717c-.646,1.464-2.757,4.749-4.65,3.752-.931-.49-.727-2.067-.745-2.936-.029-1.388-.031-2.777-.017-4.166.057-5.7.342-11.409.822-17.091.217-2.564-3.784-2.55-4,0Z"/><path class="b" d="M87.489,410.918c-2.816-2.309-5.52-4.621-8.7-6.971-1.577-1.166-3.539-1.973-5.037-3.239a8.83,8.83,0,0,1-2.029-2.7c-1.768-3.367-1.612-9.651-.939-13.394,0,0,.07-.387.189-1.055,4.369.5,9.829.75,13.722.789a51.7,51.7,0,0,0,9.411-.92l1.732,2.721c1.257,1.41,3.6,4.227,4.96,5.538,4.053,3.91,5.511,5.765,8.46,9.033,2.265,2.512,4.253,7.552,3.68,11.088-.443,2.73-3.066,4.224-5.624,5.273a20.533,20.533,0,0,1-7.456.383,20.185,20.185,0,0,1-8.78-3.683C89.836,412.826,88.653,411.872,87.489,410.918Z"/><path class="d" d="M92.38,384.438c2.542,4.719,6.881,8.35,10.506,12.189a59.194,59.194,0,0,1,5.525,6.226c1.594,2.267,2.93,5.491,2.6,8.317-.269,2.314-3.088,3.846-5.181,4.229a17.349,17.349,0,0,1-8.064-.488c-3.48-1.031-6.123-3.158-8.886-5.423-3.043-2.5-6.027-5.107-9.243-7.382-1.535-1.085-3.426-1.784-4.787-3.1a8.155,8.155,0,0,1-2.118-4.185,25.588,25.588,0,0,1-.021-9.677,2.06,2.06,0,0,0-1.4-2.461,2.017,2.017,0,0,0-2.46,1.4c-1.155,6.661-1.168,15.2,5.168,19.282,1.658,1.069,3.351,1.984,4.924,3.187,1.7,1.3,3.358,2.669,5.011,4.035,3.136,2.593,6.225,5.54,10,7.17,5.852,2.527,13.787,3.1,18.764-1.609,2.753-2.607,2.648-6.507,1.655-9.9-1.027-3.511-2.991-6.117-5.373-8.807-2.4-2.71-4.961-5.227-7.46-7.84a34.929,34.929,0,0,1-5.712-7.179c-1.221-2.267-4.676-.249-3.454,2.019Z"/><path class="b" d="M46.588,410.918c2.815-2.309,5.52-4.621,8.7-6.971,1.578-1.166,3.54-1.973,5.038-3.239a8.83,8.83,0,0,0,2.029-2.7c1.768-3.367,1.612-9.651.939-13.394,0,0-.07-.387-.189-1.055-4.369.5-9.829.75-13.722.789a51.692,51.692,0,0,1-9.411-.92l-1.732,2.721c-1.257,1.41-3.6,4.227-4.96,5.538-4.053,3.91-5.512,5.765-8.46,9.033-2.265,2.512-4.253,7.552-3.68,11.088.443,2.73,3.066,4.224,5.624,5.273a20.533,20.533,0,0,0,7.456.383A20.19,20.19,0,0,0,43,413.782C44.241,412.826,45.424,411.872,46.588,410.918Z"/><path class="d" d="M38.243,382.419a33.73,33.73,0,0,1-5.116,6.541c-2.132,2.314-4.45,4.441-6.554,6.786-2.167,2.416-4.485,4.731-5.831,7.73-1.41,3.144-2.53,7.208-.982,10.5,1.287,2.742,4.743,4.838,7.674,5.319a22.021,22.021,0,0,0,9.742-.473c8.207-2.355,13.352-9.745,20.448-14.024,1.925-1.16,3.921-2.166,5.31-4a12.751,12.751,0,0,0,2.335-5.253,31.483,31.483,0,0,0-.049-11.471,2.016,2.016,0,0,0-2.46-1.4,2.047,2.047,0,0,0-1.4,2.461,27.556,27.556,0,0,1,.185,8.574,10.516,10.516,0,0,1-1.125,3.653,9.051,9.051,0,0,1-3.772,3.365,69.513,69.513,0,0,0-9.188,6.876c-2.775,2.293-5.512,4.945-8.822,6.449a17.683,17.683,0,0,1-8.531,1.529c-2.316-.138-4.978-.864-6.446-2.83-1.576-2.112-.178-5.872.847-7.937,1.254-2.528,3.337-4.533,5.212-6.608,4.007-4.436,9.095-8.435,11.974-13.78,1.221-2.266-2.232-4.288-3.454-2.019Z"/><path class="d" d="M66.5,379.879A51.567,51.567,0,0,1,55.675,381.3,55.982,55.982,0,0,1,43,381.006q-1.692-.282-3.363-.673a5.543,5.543,0,0,1-2.565-.953c-.9-.806-.92-1.948-.98-3.061q-.141-2.622-.276-5.245-.867-16.727-1.66-33.457-1.073-22.326-2.063-44.654-.974-22.079-1.813-44.161c-.491-13.336-1.21-26.747.066-40.061.029-.3.057-.589.091-.883a2.013,2.013,0,0,0-2-2,2.048,2.048,0,0,0-2,2c-1.412,12.28-.737,24.747-.3,37.064q.791,22.182,1.792,44.356,1,22.918,2.105,45.834.837,17.52,1.732,35.038.144,2.772.291,5.544a19.442,19.442,0,0,0,.261,3.052,6.76,6.76,0,0,0,4.053,4.826,30.582,30.582,0,0,0,6.867,1.491,43.71,43.71,0,0,0,7.045.455,111.39,111.39,0,0,0,12.245-.851,35.579,35.579,0,0,0,5.039-.931c2.473-.7,1.422-4.559-1.064-3.857Z"/><path class="d" d="M65.031,234.95q.012,8.726.006,17.451,0,16.624,0,33.25,0,19.542,0,39.084l0,34.954q0,10.411,0,20.823v1.127c0,2.574,4,2.578,4,0q0-9.238,0-18.476,0-16.889,0-33.777,0-19.557,0-39.114,0-17.244,0-34.487,0-9.931-.006-19.863,0-.486,0-.972c0-2.574-4-2.579-4,0Z"/><path class="d" d="M66.51,383.736a55.742,55.742,0,0,0,11.512,1.538,62.617,62.617,0,0,0,13.035-.242c4.219-.61,9.651-1.288,10.7-6.286a38.236,38.236,0,0,0,.4-5.756q.858-16.376,1.634-32.757,1.091-22.579,2.095-45.163,1.007-22.674,1.874-45.356c.5-13.619,1.266-27.319-.028-40.917-.03-.313-.06-.626-.1-.939a2.061,2.061,0,0,0-2-2,2.013,2.013,0,0,0-2,2c1.378,11.99.754,24.16.329,36.186q-.765,21.657-1.739,43.307-.986,22.611-2.067,45.217-.844,17.719-1.744,35.437-.153,2.981-.309,5.961c-.091,1.716.236,4.344-1.228,5.532a5.456,5.456,0,0,1-2.241.787q-1.77.421-3.564.721a38.372,38.372,0,0,1-6.961.518,112.091,112.091,0,0,1-12.05-.79,30.6,30.6,0,0,1-4.494-.855c-2.482-.7-3.541,3.158-1.064,3.857Z"/><path class="d" d="M32.334,65.716c-2.241,4.245-2.21,8.855-1.567,13.491.273,1.967.64,3.893-.107,5.794a6.433,6.433,0,0,1-.95,1.682c-.554.678-1.309.785-1.894,1.37-2.049,2.049.624,4.8,2.331,5.854C33.3,95.85,37.17,96,40.735,95.485a2.013,2.013,0,0,0,1.4-2.46,2.054,2.054,0,0,0-2.461-1.4,12.057,12.057,0,0,1-6.75-.764,5.652,5.652,0,0,1-1.635-1.109c-.044-.041-.38-.354-.16-.173.257.211-.107-.159-.078-.158.209.009.057.438.039.038a1.7,1.7,0,0,1-.13,1.015l-1.2.919c3.621-1.4,5.6-5.655,5.336-9.4-.34-4.851-1.726-9.685.689-14.263,1.2-2.275-2.25-4.3-3.453-2.018Z"/><path class="d" d="M42.875,99.369c.872-.305,1.717-.743,2.555-1.127q1.929-.882,3.851-1.777c1.007-.467,2.014-.937,3.023-1.4.1-.048.21-.092.313-.143s.268-.117-.163.067c-.513.22-.068.036.064-.017.253-.1.507-.2.752-.322a5.424,5.424,0,0,0,2.41-2.23,8.551,8.551,0,0,0,.815-2.852c.227-1.464.478-2.92.611-4.4a2.008,2.008,0,0,0-2-2,2.054,2.054,0,0,0-2,2,37.386,37.386,0,0,1-.891,5.287c-.059.246.2-.313.041-.115a1.887,1.887,0,0,0-.131.233c-.223.394.179-.132-.067.088a2.565,2.565,0,0,0-.213.2c.216-.252.158-.1.029-.023-.1.059-.193.124-.293.181-.037.021-.455.23-.275.149s-.146.055-.146.054c-.153.062-.333.139-.484.205l-.065.028c-.1.045-.2.092-.3.137-2.146.986-4.283,1.988-6.428,2.974-.556.255-1.113.511-1.671.762l-.532.236c-.445.2.5-.187.132-.058a2,2,0,0,0,1.063,3.857Z"/><path class="d" d="M78.107,85.01c.124,1.379.324,2.746.55,4.112a15.8,15.8,0,0,0,.4,2.118,5.386,5.386,0,0,0,1.471,2.432,6.1,6.1,0,0,0,1.308.917,10.7,10.7,0,0,0,.984.426c.638.245-.464-.224-.22-.1,1.905.975,3.883,1.832,5.818,2.747.925.437,1.844.891,2.788,1.286a2,2,0,0,0,2.461-1.4,2.064,2.064,0,0,0-1.4-2.46c.993.416.082.02-.15-.089q-.622-.292-1.242-.586-1.682-.793-3.362-1.591c-.867-.41-1.733-.822-2.6-1.228l-.282-.131-.073-.032c-.143-.063-.337-.145-.483-.2-.059-.024-.365-.17-.061-.019-.178-.088-.351-.18-.523-.281-.057-.033-.342-.221-.112-.061.2.141.014.011-.023-.026-.063-.062-.13-.132-.2-.191-.29-.261.1.076.063.1a4.6,4.6,0,0,1-.287-.483c-.111-.167.088.174.078.2a2.476,2.476,0,0,0-.119-.352c-.047-.16-.086-.324-.12-.487-.081-.386-.133-.777-.192-1.166-.085-.564-.187-1.125-.272-1.689-.036-.241-.041-.277-.081-.615-.045-.383-.083-.766-.118-1.15a2.043,2.043,0,0,0-2-2,2.022,2.022,0,0,0-2,2Z"/><path class="e" d="M93.554,220.4c7.734-.03,13.192-.076,14-.138a1.134,1.134,0,0,0,1.026-.958c0-2.207-.161-7.5-.339-14.475,5.238-.25,12.493-.952,17.007-1.475,1.29-.149,5.087-.641,4.854-3.752-2.713-18.637-6-52.5-8.148-67.587-.76-5.34-2.67-14.72-6.17-20.63q-.245-.374-.5-.733c-4.454-6.344-10.594-9.733-18.322-13.057L88.275,94l-1.026-.423-5.036-8.411a26.959,26.959,0,0,1-15.152,5,26.955,26.955,0,0,1-15.152-5L47.15,93.116l-1.138.507-8.9,3.969c-8.02,3.45-14.33,6.97-18.82,13.79-3.5,5.91-5.41,15.29-6.17,20.63C9.972,147.1,6.685,180.962,3.971,199.6c-.232,3.111,3.565,3.6,4.855,3.752,4.522.524,11.794,1.228,17.049,1.477-.176,6.976-.336,12.267-.336,14.473a1.134,1.134,0,0,0,1.026.958c.821.063,6.4.109,14.286.139C55.722,220.455,78.788,220.455,93.554,220.4Z"/><path class="d" d="M40.665,48.249a6.738,6.738,0,0,0-7.344-1.093,6.408,6.408,0,0,0-3.348,4.308A16,16,0,0,0,32.294,64.1c1.644,2.446,4.242,4.652,7.388,4.243a2.065,2.065,0,0,0,2-2,2.012,2.012,0,0,0-2-2c-2.177.283-3.594-1.52-4.538-3.262a12.9,12.9,0,0,1-1.551-4.819,8.267,8.267,0,0,1,.825-5.038c-.326.524.511-.436.2-.211a1.832,1.832,0,0,1,.919-.419,2.5,2.5,0,0,1,2.3.489c1.915,1.709,4.754-1.11,2.828-2.829Z"/><path class="d" d="M96.24,51.078a2.47,2.47,0,0,1,2.172-.516,1.921,1.921,0,0,1,1.045.446c-.3-.221.52.721.2.211a8.252,8.252,0,0,1,.825,5.038,12.946,12.946,0,0,1-1.551,4.819c-.944,1.742-2.361,3.545-4.538,3.262a2.01,2.01,0,0,0-2,2,2.049,2.049,0,0,0,2,2c5.117.664,8.263-4.857,9.542-8.994,1.149-3.717,1.09-9.467-2.542-11.843a6.7,6.7,0,0,0-7.984.748c-1.924,1.718.913,4.539,2.829,2.829Z"/><path class="d" d="M92.636,63.707a28.116,28.116,0,0,1-1.265,4.219c-.193.506-.324.765-.565,1.362-.2.5.145-.292-.027.067-.061.128-.118.257-.179.385a35.906,35.906,0,0,1-3.091,5.144c-2.681,3.8-6.35,7.949-11.062,9.056-2.505.588-1.444,4.446,1.064,3.857,5.6-1.316,9.906-5.99,13.15-10.472a36.745,36.745,0,0,0,3.359-5.5c.2-.418.383-.844.562-1.272.215-.513-.164.355.072-.165.153-.337.291-.682.428-1.025a28.068,28.068,0,0,0,1.411-4.595c.524-2.511-3.331-3.585-3.857-1.063Z"/><path class="d" d="M37.5,64.672c2.4,10.534,10.334,22.019,21.718,23.737a2.066,2.066,0,0,0,2.46-1.4,2.016,2.016,0,0,0-1.4-2.461c-10.092-1.522-16.8-11.63-18.924-20.943-.572-2.509-4.43-1.447-3.857,1.064Z"/><path class="d" d="M52.047,52.482c-.46,1.5-.16,4.935,2.672,5.228,3.745-.022,3.944-4.181,2.683-6.136C56.371,49.973,53.336,49.307,52.047,52.482Z"/><path class="d" d="M82.03,52.482c.46,1.5.16,4.936-2.672,5.228-3.745-.022-3.944-4.181-2.684-6.136C77.706,49.973,80.741,49.307,82.03,52.482Z"/><path class="d" d="M61.585,73.637a11.941,11.941,0,0,0,5.747,1.342,9.476,9.476,0,0,0,5.916-1.794,2,2,0,0,0,0-2.828,2.062,2.062,0,0,0-2.829,0c.693-.54-.015-.019-.233.1-.169.088-.618.229.015.012-.156.054-.307.119-.465.169-.422.136-.888.157-1.3.3.211-.071.331-.039.031-.01-.128.013-.256.024-.384.032-.308.02-.616.028-.925.026-.276,0-.552-.011-.828-.03-.127-.009-.253-.019-.38-.031q-.108-.011-.216-.024-.236-.029.188.025a8.321,8.321,0,0,1-1.216-.27c-.17-.051-.336-.112-.5-.17-.446-.153.425.2.021.012-.209-.1-.415-.2-.618-.308a2,2,0,1,0-2.019,3.454Z"/><path class="d" d="M66.05,60.442a25.424,25.424,0,0,1,.6,2.755l-.071-.532a1.676,1.676,0,0,1,.01.381l.071-.532a.991.991,0,0,1-.041.171l.2-.478a.651.651,0,0,1-.06.11l.313-.4a.631.631,0,0,1-.091.088l.405-.313a1.747,1.747,0,0,1-.218.116l.478-.2a1.571,1.571,0,0,1-.368.108l.532-.072a1.483,1.483,0,0,1-.346,0l.532.071c-.13-.018-.258-.05-.388-.067a1.506,1.506,0,0,0-.8-.036,1.486,1.486,0,0,0-.743.237,2,2,0,0,0-.718,2.737l.313.4a2,2,0,0,0,.883.515c.348.047.686.134,1.041.149a3.433,3.433,0,0,0,1.6-.39A2.443,2.443,0,0,0,70.5,63.666a3.751,3.751,0,0,0-.014-1.65c-.15-.887-.355-1.767-.583-2.638a2,2,0,0,0-2.46-1.4,2.027,2.027,0,0,0-1.2.92,2.1,2.1,0,0,0-.2,1.541Z"/><path class="d" d="M65.038,105.006V220.441c0,2.573,4,2.578,4,0V105.006c0-2.573-4-2.578-4,0Z"/><path class="d" d="M23.26,132.94c0,5.712.351,11.426.576,17.133.272,6.914.443,13.829.474,20.748.053,12.1-.2,24.2-.515,36.3-.1,3.644-.215,7.288-.268,10.933a7.734,7.734,0,0,0,.06,1.781,3.2,3.2,0,0,0,3,2.43c.374.031.753.028,1.128.035,4.6.095,9.2.087,13.805.1q23,.084,46,.016c5.567-.015,11.135-.025,16.7-.088,1.089-.013,2.2.024,3.285-.068a3.2,3.2,0,0,0,2.977-2.429,8.344,8.344,0,0,0,.058-1.929c-.025-1.577-.066-3.154-.107-4.73-.279-10.9-.57-21.806-.654-32.713-.105-13.442.351-26.84.857-40.269.091-2.416.174-4.834.174-7.251,0-2.574-4-2.579-4,0,0,5.563-.337,11.127-.559,16.684-.27,6.785-.449,13.571-.488,20.361-.067,11.856.167,23.713.471,35.564.1,3.85.217,7.7.291,11.55.011.537-.032,1.1.025,1.631.008.073-.014.168,0,.241v.115q-.038.814.952-.825c-.051-.023-.142.02-.2.01a7.684,7.684,0,0,0-1.338.033c-4.683.083-9.368.083-14.051.1q-22.458.079-44.917.015c-5.565-.014-11.13-.026-16.695-.084a18.721,18.721,0,0,0-3.571-.064c-.05.01-.132-.03-.178-.009l.951.934v-.167a1.742,1.742,0,0,0,0-.3c.06-.59.016-1.21.028-1.8.033-1.666.077-3.332.121-5,.285-10.906.562-21.812.631-32.721.084-13.145-.394-26.249-.879-39.382-.084-2.294-.16-4.59-.16-6.885,0-2.574-4-2.579-4,0Z"/><path class="d" d="M79.986,129.3h19c2.574,0,2.578-4,0-4h-19c-2.573,0-2.578,4,0,4Z"/><path class="d" d="M56.166,1.561A39.713,39.713,0,0,0,36.533,15.349a45.093,45.093,0,0,0-8.685,24.005l.586-1.415c-1.943,2.482-4.276,5.289-4.389,8.6-.054,1.554.3,3.451,1.682,4.37,1.577,1.046,3.144.46,4.789-.007,7.224-2.053,14.974-1.962,22.414-2.406a237.3,237.3,0,0,1,24.561-.287,193.8,193.8,0,0,1,23,1.942,25.582,25.582,0,0,1,2.994.7,9.328,9.328,0,0,0,2.938.713,3.767,3.767,0,0,0,3.5-3.543c.59-3.9-1.978-7.137-4.236-10.023l.586,1.414c-.747-9.88-4.3-19.515-11.043-26.89A38.044,38.044,0,0,0,56.169,1.557c-2.448.767-1.4,4.63,1.063,3.857,12.291-3.853,25.826.137,34.624,9.347A38.366,38.366,0,0,1,101.2,32.443a41.991,41.991,0,0,1,.877,4.863,18.225,18.225,0,0,0,.268,2.631,7.906,7.906,0,0,0,1.529,2.2,12.6,12.6,0,0,1,2.02,3.663,5.977,5.977,0,0,1,.052,1.838c.01.729.248-.1.247-.112a6.06,6.06,0,0,0-1.455-.48A53.037,53.037,0,0,0,94.5,45.391q-5.691-.537-11.4-.888a223.675,223.675,0,0,0-23.83-.349c-4.066.182-8.126.451-12.188.7-3.752.227-7.5.372-11.227.906-1.71.245-3.42.541-5.1.944q-.813.195-1.617.432a4.053,4.053,0,0,0-.934.287.936.936,0,0,0-.371.131q.559.747.3.084a5.884,5.884,0,0,1,.052-1.838,9.955,9.955,0,0,1,.919-1.995,16.989,16.989,0,0,1,1.125-1.7,7.976,7.976,0,0,0,1.547-2.217A23.711,23.711,0,0,0,32.1,36.8c.126-.954.292-1.9.483-2.847a44.689,44.689,0,0,1,1.576-5.775A38.684,38.684,0,0,1,39.49,18.031,35.24,35.24,0,0,1,57.229,5.418c2.448-.767,1.4-4.63-1.063-3.857Z"/><path class="f" d="M53.3,33.517a80.781,80.781,0,0,0-13.4,1.328,2.013,2.013,0,0,0-1.4,2.46,2.051,2.051,0,0,0,2.461,1.4A74.411,74.411,0,0,1,53.3,37.517a2,2,0,0,0,0-4Z"/><path class="f" d="M80.773,37.517A74.316,74.316,0,0,1,93.114,38.7a2,2,0,1,0,1.064-3.857,80.782,80.782,0,0,0-13.4-1.328,2.018,2.018,0,0,0-2,2,2.04,2.04,0,0,0,2,2Z"/><path class="d" d="M62.242,37.582q.191-.03.381-.057c-.18.024-.2.026-.052.008.226-.022.451-.052.677-.073.391-.038.783-.066,1.175-.089.866-.049,1.734-.063,2.6-.057,1.782.012,3.563.11,5.342.206a2.012,2.012,0,0,0,2-2,2.045,2.045,0,0,0-2-2,53.833,53.833,0,0,0-11.187.2,2.007,2.007,0,0,0-1.4,2.46,2.061,2.061,0,0,0,2.46,1.4Z"/><path class="d" d="M64.938,30.215V40a2,2,0,0,0,4,0V30.215a2,2,0,0,0-4,0Z"/><path class="d" d="M25.86,202.828c-5.726-.281-11.484-.76-17.171-1.493-.525-.067.458.09-.155-.026-.207-.039-.414-.074-.619-.122a5.9,5.9,0,0,1-1.115-.336c-.455-.209-.823-.457-.86-.994a15.164,15.164,0,0,1,.4-2.852q.266-1.944.521-3.89c1.4-10.7,2.583-21.428,3.79-32.151,1.038-9.222,2.037-18.7,3.3-27.746a78.859,78.859,0,0,1,3.444-15,25.846,25.846,0,0,1,3.705-7.368,27.139,27.139,0,0,1,5.412-5.281c3.957-2.908,8.455-4.847,12.914-6.835l8.646-3.854a2.014,2.014,0,0,0,.718-2.736,2.051,2.051,0,0,0-2.737-.718L38.1,94.973a87.937,87.937,0,0,0-11.535,5.73A29.579,29.579,0,0,0,15.116,113.19a66.7,66.7,0,0,0-4.667,16.6C8.9,139.266,8.016,148.871,6.942,158.4c-1.27,11.258-2.5,22.523-3.955,33.759q-.245,1.89-.5,3.778a29.333,29.333,0,0,0-.523,3.961c.015,2.817,2.357,4.557,4.89,5.142a63.226,63.226,0,0,0,8.172.958c3.606.345,7.219.648,10.837.826,2.573.126,2.567-3.875,0-4Z"/><path class="d" d="M108.217,206.828c5.834-.286,11.7-.784,17.49-1.534,2.085-.27,4.313-.889,5.576-2.712,1.422-2.054.58-4.664.269-6.937-1.476-10.8-2.659-21.637-3.879-32.467-1.13-10.035-2.2-20.082-3.563-30.088a84.358,84.358,0,0,0-3.327-15.209,33.127,33.127,0,0,0-3.481-7.826,29.667,29.667,0,0,0-5.642-6.312c-6.779-5.71-15.472-8.621-23.564-11.962a2.012,2.012,0,0,0-2.46,1.4,2.051,2.051,0,0,0,1.4,2.46c6.435,2.657,12.606,4.8,18.46,8.519a25.736,25.736,0,0,1,10.162,11.387,65.552,65.552,0,0,1,4.163,15.609c1.393,8.714,2.252,17.806,3.256,26.706,1.2,10.68,2.378,21.365,3.725,32.029q.505,4,1.058,7.993c.1.735.5,1.893.109,2.488a3.684,3.684,0,0,1-2.017.865c-.166.034-.333.062-.5.09-.14.024.249-.026-.2.027-.663.081-1.327.151-1.991.223q-2.508.271-5.02.5c-3.336.312-6.677.585-10.023.749-2.562.125-2.578,4.126,0,4Z"/><path class="d" d="M48.474,94.8l5.162-8.62-3.141.405a27.7,27.7,0,0,0,33.132,0l-3.141-.405,5.162,8.62c1.321,2.206,4.781.2,3.454-2.019L83.94,84.16a2.037,2.037,0,0,0-3.141-.405c.809-.626.194-.151,0-.018-.279.189-.558.377-.844.556a27.289,27.289,0,0,1-2.916,1.586,22.917,22.917,0,0,1-19.955,0,27.483,27.483,0,0,1-2.916-1.586c-.285-.179-.564-.367-.843-.556-.2-.133-.81-.608,0,.018a2.037,2.037,0,0,0-3.141.405L45.02,92.78c-1.326,2.214,2.131,4.228,3.454,2.019Z"/></svg>