<?xml version="1.0" encoding="UTF-8"?><svg id="b" xmlns="http://www.w3.org/2000/svg" width="123.293" height="416.989" viewBox="0 0 123.293 416.989"><defs><style>.d{fill:#3d8dcc;}.e{fill:#fff;}.f{fill:none;}.g{fill:#211715;}.h{fill:#645d5c;}.i{fill:#cfcfcf;}</style></defs><g id="c"><path class="e" d="M89.459,46.826c.897-.862,2.106-1.186,3.14-1.15,2.251.079,3.209,1.297,3.621,2.012,1.23,2.134,1.178,6.066.352,8.499-.585,1.723-1.543,4.359-3.853,6.248-.952.779-2.353,1.292-3.692,1.066l-.354-.06c-.425,1.404-.95,2.78-1.27,3.448-.939,2.548-6.126,11.483-12.689,14.967.097,1.259.26,2.506.48,3.76.343,1.964.237,3.716,2.97,4.704.075.027,1.498.7,3.138,1.476-1.577,1.175-2.966,2.21-2.966,2.21-3.768,3.088-10.615,4.433-16.774,4.433-5.23,0-11.619-1.178-16.556-4.433,0,0-1.107-.888-2.434-1.953,1.949-.903,3.673-1.705,3.751-1.734,2.734-.988,2.615-2.739,2.97-4.704.195-1.137.349-2.185.444-3.286-3.238-1.412-6.118-3.796-8.851-7.068-3.327-3.982-5.222-8.272-6.268-11.825-1.428.367-2.971-.164-3.995-1.001-2.31-1.89-3.268-4.526-3.853-6.248-.826-2.433-.878-6.365.352-8.499.412-.715,1.37-1.932,3.621-2.012,1.034-.036,2.243.287,3.14,1.15,0,0-3.768-28.366,27.787-28.366s27.787,28.366,27.787,28.366Z"/><path class="e" d="M47.726,180.869c.004-2.175.003-4.346-.003-6.462l-.255-24.561c-.012-.316-.012-.632-.023-.948-.579-26.59-5.728-51.783-6.075-57.116,0,0-.006-.091-.012-.181l3.649,2.406c4.936,3.255,11.325,4.433,16.556,4.433,6.159,0,13.006-1.345,16.774-4.433l3.689-3.023c-.026.399-.052.798-.052.798-.347,5.332-5.497,30.526-6.075,57.116-.012.316-.012.632-.023.948l-.255,24.561c-.012,4.011-.005,8.216.023,12.277-8.116,0-19.871,0-27.94,0,.011-1.918.019-3.868.022-5.815Z"/><path class="e" d="M7.25,216.809c-2.533,7.623-5.569,17.435-5.101,24.892.112,1.789.56,3.209,2.234,3.847,1.12.427,2.423-.004,3.331-.786.908-.782,1.497-1.862,2.043-2.929,1.807-3.535,2.732-5.656,3.76-8.495.938,2.42,3.117,4.177,4.596,4.228.973.034,1.611-.218,2.041-.595.576-.505.987-1.414,1.018-2.179.231-5.702-.193-14.125-.63-19.241,0,0-.042-.486-.107-1.255-4.571-.725-8.398-1.256-11.75-1.788-.436,1.32-.926,2.765-1.436,4.3Z"/><path class="e" d="M116.094,216.809c-.51-1.534-.999-2.98-1.436-4.3-3.351.532-7.178,1.063-11.75,1.788-.066.768-.107,1.255-.107,1.255-.437,5.117-.861,13.54-.63,19.241.031.765.441,1.674,1.018,2.179.43.377,1.068.629,2.041.595,1.479-.051,3.659-1.808,4.597-4.229,1.027,2.839,1.953,4.96,3.76,8.495.545,1.067,1.134,2.147,2.043,2.929.908.782,2.212,1.212,3.331.786,1.675-.638,2.122-2.058,2.234-3.847.467-7.457-2.568-17.27-5.101-24.892Z"/><path class="h" d="M94.996,63.069c-.512-.444-1.052-.855-1.619-1.225-.206.204-.425.402-.658.592-.952.779-2.353,1.292-3.692,1.066,0,0-.128-.022-.354-.06-.425,1.404-.95,2.78-1.27,3.448-.957,2.598-6.333,11.838-13.08,15.167,1.814,1.574.989,4.788,2.029,6.793l1.652-.396c1.197-.287,2.185.967,1.621,2.062-3.188,6.195,3.301.828,5.36.847.157.063.243.098.243.098,3.61,1.436,8.775,3.558,12.493,5.258-1.021-3.407-.899-7.1-.059-10.608,1.03-4.29,3.11-8.75,2.62-13.13-.441-3.808-2.403-7.406-5.286-9.911Z"/><path class="g" d="M92.573,63.707c2.256,1.575,4.069,3.893,5,6.489,1.153,3.212.768,6.287-.142,9.51-.947,3.356-2.083,6.604-2.366,10.106s.321,6.973,1.79,10.177c.45.982,1.87,1.224,2.736.718,1.008-.59,1.169-1.751.718-2.736-1.425-3.108-1.611-6.701-.994-10.031.672-3.628,2.208-7.038,2.774-10.691,1.04-6.706-1.974-13.138-7.498-16.995-2.115-1.477-4.117,1.989-2.019,3.454h0Z"/><path class="g" d="M37.507,96.532c.871-.305,1.717-.743,2.555-1.127,1.285-.589,2.568-1.183,3.851-1.778,1.007-.467,2.014-.936,3.023-1.4.104-.048.21-.093.313-.143.089-.044.268-.117-.163.067-.513.22-.068.035.064-.017.253-.101.506-.203.752-.322.987-.476,1.886-1.258,2.41-2.23.486-.902.661-1.854.815-2.852.226-1.464.478-2.921.611-4.398.094-1.045-.987-2.045-2-2-1.164.052-1.899.881-2,2-.151,1.678-.46,3.49-.891,5.286-.059.246.197-.313.041-.115-.053.067-.089.158-.131.233-.223.395.179-.132-.067.089-.064.057-.154.137-.213.205.216-.252.158-.1.028-.023-.099.059-.192.124-.293.181-.037.021-.454.23-.275.149.176-.08-.145.055-.145.054-.153.062-.333.138-.484.204-.022.009-.043.019-.065.029-.101.044-.2.091-.3.137-2.145.985-4.282,1.988-6.428,2.973-.556.256-1.113.511-1.671.762-.177.08-.355.158-.532.237-.445.198.5-.187.132-.058-.985.345-1.745,1.384-1.397,2.46.315.974,1.403,1.767,2.46,1.397h0Z"/><path class="h" d="M51.495,39.213c-6.115,2.974-12.431,5.563-17.922,7.352-.851-.668-1.909-.921-2.829-.888-1.677.059-2.636.75-3.187,1.393-4.472-15.814.518-28.062,7.901-35.131,4.424-4.236,14.394-10.006,25.596-10.006,6.325,0,10.916,1.065,15.227,2.708,7.799,4.087,7.635,4.014,11.205,7.458,5.601,5.403,9.493,15.125,10.113,23.831.177,2.486-.028,8.915-.416,13.43l-.964-1.672c-.412-.715-1.37-1.932-3.621-2.012-.952-.034-2.052.238-2.917.96-4.076-2.376-8.512-5.838-11.513-10.528-1.66-2.594-3.743-6.866-5.226-10.305-4.97,4.475-13.017,9.308-21.449,13.409Z"/><path class="g" d="M72.739,82.173c.125,1.379.325,2.747.55,4.112.117.707.182,1.431.394,2.119.281.908.758,1.79,1.472,2.432.394.354.834.678,1.308.917.319.16.651.299.983.427.638.244-.464-.225-.22-.1,1.905.975,3.883,1.832,5.818,2.747.925.437,1.844.891,2.788,1.286.968.406,2.241-.436,2.46-1.397.266-1.17-.36-2.026-1.397-2.46.993.416.083.02-.15-.089-.414-.195-.828-.39-1.242-.586-1.121-.53-2.241-1.061-3.362-1.591-.867-.41-1.733-.822-2.602-1.228-.094-.044-.188-.089-.282-.131-.024-.011-.048-.022-.072-.032-.144-.063-.337-.145-.483-.204-.059-.024-.365-.17-.061-.019-.179-.089-.351-.18-.524-.281-.057-.033-.342-.221-.112-.062.204.141.014.012-.023-.026-.062-.062-.13-.132-.196-.191-.291-.26.101.076.063.103-.02.014-.265-.449-.288-.483-.111-.167.088.174.078.196.012-.027-.109-.318-.119-.351-.047-.161-.086-.324-.121-.488-.081-.386-.133-.776-.192-1.166-.085-.564-.187-1.125-.272-1.689-.036-.241-.041-.277-.081-.615-.045-.383-.083-.766-.118-1.15-.094-1.039-.853-2.051-2-2-1.003.045-2.101.884-2,2h0Z"/><path class="g" d="M87.27,60.87c-.3,1.437-.744,2.847-1.266,4.219-.192.506-.324.765-.564,1.363-.202.502.145-.292-.028.067-.061.127-.118.257-.179.384-.863,1.803-1.94,3.514-3.091,5.144-2.681,3.799-6.35,7.949-11.062,9.056-2.505.589-1.444,4.446,1.063,3.857,5.599-1.316,9.907-5.99,13.151-10.472,1.256-1.735,2.425-3.566,3.359-5.498.202-.418.383-.844.562-1.272.214-.513-.165.356.072-.165.153-.337.291-.682.428-1.025.59-1.488,1.085-3.026,1.412-4.594.524-2.512-3.331-3.586-3.857-1.063h0Z"/><path class="g" d="M32.137,61.834c2.402,10.534,10.334,22.02,21.718,23.737,1.067.161,2.15-.268,2.46-1.397.26-.945-.322-2.298-1.397-2.46-10.092-1.522-16.801-11.631-18.924-20.943-.572-2.509-4.43-1.447-3.857,1.063h0Z"/><path class="g" d="M56.218,70.8c1.792.946,3.72,1.355,5.748,1.342,2.136-.014,4.214-.468,5.916-1.794.829-.646.729-2.159,0-2.828-.88-.807-1.944-.689-2.828,0,.692-.539-.015-.018-.234.096-.169.089-.618.229.016.013-.156.053-.308.118-.465.169-.422.136-.888.157-1.302.297.212-.072.331-.04.031-.01-.128.013-.256.023-.384.032-.308.02-.617.028-.925.026-.276-.002-.553-.011-.828-.03-.127-.009-.253-.019-.379-.031-.072-.007-.144-.015-.216-.024-.157-.019-.095-.011.188.025-.015.053-1.105-.237-1.216-.27-.17-.051-.336-.112-.504-.17-.446-.153.425.203.021.012-.209-.098-.414-.201-.618-.308-.925-.488-2.217-.265-2.736.718-.488.924-.27,2.215.718,2.736h0Z"/><path class="g" d="M60.683,57.605c.238.907.466,1.827.602,2.755l-.071-.532c.016.127.023.253.01.38l.071-.532c-.009.059-.022.115-.042.171l.202-.478c-.018.04-.036.074-.06.11l.313-.405c-.028.034-.055.061-.09.089l.405-.313c-.07.045-.143.081-.218.115l.478-.202c-.12.05-.239.087-.368.107l.532-.071c-.116.014-.229.013-.345,0l.532.071c-.13-.018-.258-.05-.388-.067-.266-.083-.532-.095-.798-.036-.266.012-.514.091-.744.237-.415.243-.811.718-.919,1.195-.117.512-.091,1.087.202,1.541l.313.405c.25.248.544.419.883.514.348.047.687.134,1.041.15.572.025,1.093-.155,1.601-.39.639-.297,1.144-.905,1.314-1.592.145-.589.087-1.059-.013-1.649-.15-.888-.355-1.767-.583-2.638-.127-.483-.49-.944-.919-1.195s-1.061-.357-1.541-.202c-.484.157-.951.457-1.195.919-.253.48-.342,1.007-.202,1.541h0Z"/><path class="g" d="M35.299,45.412c-2.024-1.806-4.871-2.227-7.344-1.094-1.766.809-2.851,2.48-3.349,4.308-1.137,4.179-.075,9.066,2.321,12.631,1.644,2.446,4.242,4.652,7.389,4.244,1.071-.139,2-.82,2-2,0-.973-.921-2.14-2-2-2.177.282-3.594-1.52-4.538-3.262-.759-1.399-1.408-3.153-1.551-4.819-.155-1.803-.042-3.645.825-5.039-.326.524.512-.436.202-.21.399-.292.498-.326.918-.42.818-.182,1.647-.092,2.299.489,1.915,1.709,4.754-1.11,2.828-2.828h0Z"/><path class="g" d="M90.873,48.241c.616-.549,1.403-.659,2.172-.516.498.093.62.137,1.045.447-.303-.221.52.72.202.21.87,1.396.98,3.231.825,5.039-.143,1.662-.796,3.426-1.551,4.819-.944,1.741-2.36,3.544-4.538,3.262-1.073-.139-2,1.019-2,2,0,1.196.924,1.86,2,2,5.117.664,8.263-4.857,9.542-8.994,1.149-3.716,1.09-9.467-2.542-11.843-2.475-1.619-5.836-1.168-7.983.749-1.925,1.717.912,4.538,2.828,2.828h0Z"/><path class="g" d="M46.68,49.645c-.46,1.495-.16,4.935,2.673,5.228,3.744-.022,3.943-4.181,2.683-6.137-1.032-1.601-4.066-2.267-5.356.909Z"/><path class="g" d="M76.663,49.645c.46,1.495.16,4.935-2.672,5.228-3.744-.023-3.944-4.181-2.683-6.137,1.032-1.601,4.066-2.267,5.356.909Z"/><path class="g" d="M71.373,27.175c1.803,4.114,3.724,8.343,6.474,11.923,2.811,3.66,6.417,6.606,10.353,8.986,2.209,1.335,4.221-2.122,2.019-3.454-3.526-2.132-6.863-4.773-9.336-8.101-2.548-3.428-4.35-7.48-6.056-11.373-.434-.989-1.881-1.218-2.736-.718-1.021.597-1.153,1.743-.718,2.736h0Z"/><path class="g" d="M71.685,24.248c-5.094,4.603-11.223,8.101-17.281,11.263-6.671,3.482-13.594,6.526-20.732,8.917-2.429.813-1.387,4.678,1.063,3.857,7.459-2.498,14.717-5.682,21.687-9.32,6.368-3.324,12.738-7.052,18.09-11.888,1.914-1.73-.922-4.551-2.828-2.828h0Z"/><path class="g" d="M77.846,3.119c-11.443-4.598-24.172-4.117-35.181,1.472-4.182,2.123-8.073,4.924-11.056,8.568-3.211,3.923-5.521,8.523-6.712,13.456-1.65,6.834-1.177,13.959.653,20.705.673,2.482,4.533,1.428,3.857-1.063-2.72-10.027-1.927-20.921,4.399-29.459,5.635-7.604,15.772-12.18,25.055-12.792,6.161-.406,12.212.676,17.922,2.97,1.003.403,2.197-.439,2.46-1.397.314-1.141-.391-2.056-1.397-2.46h0Z"/><path class="e" d="M85.806,380.734c1.215,2.337,5.333,6.948,6.692,8.259,4.053,3.909,6.174,5.771,9.123,9.039,2.265,2.512,4.144,7.202,3.017,11.082-.772,2.655-3.066,4.223-5.624,5.273-1.116.458-5.326.777-7.456.382-3.326-.616-6.3-1.775-8.781-3.683-4.251-3.268-7.796-6.513-12.288-9.835-1.577-1.166-3.54-1.973-5.038-3.239-.865-.731-1.502-1.696-2.029-2.699-1.768-3.368-1.611-9.651-.939-13.394"/><path class="h" d="M32.493,379.406c-.124-.157-.201-.351-.215-.559-3.088-45.44-6.087-95.184-7.651-140.52-.504-14.612-1.56-29.635,3.247-43.443l6.137-7.978s.06-.078.163-.222c17.217,0,40.981,0,57.547,0,.051.128.093.222.093.222l3.511,7.978c4.808,13.808,4.079,28.846,3.247,43.443-2.474,43.409-4.367,97.064-7.646,140.527-.031.415-.311.768-.71.887-9.004,2.692-19.872,2.744-28.621.106-8.748,2.638-19.608,2.585-28.608-.105-.2-.06-.371-.179-.495-.336Z"/><path class="e" d="M37.538,380.734c-1.215,2.337-5.333,6.948-6.692,8.259-4.053,3.909-6.174,5.771-9.123,9.039-2.265,2.512-4.144,7.202-3.017,11.082.772,2.655,3.066,4.223,5.624,5.273,1.116.458,5.326.777,7.456.382,3.326-.616,6.3-1.775,8.781-3.683,4.251-3.268,7.796-6.513,12.288-9.835,1.577-1.166,3.54-1.973,5.038-3.239.865-.731,1.502-1.696,2.029-2.699,1.768-3.368,1.611-9.651.939-13.394"/><path class="g" d="M84.079,381.743c1.209,2.245,2.988,4.244,4.662,6.15,1.843,2.098,3.879,3.986,5.898,5.911,3.876,3.696,9.894,8.648,8.069,14.778-.664,2.232-3.22,3.823-5.43,4.164-2.799.432-5.517.197-8.199-.649-3.377-1.066-5.978-3.235-8.673-5.449-3.029-2.488-5.999-5.123-9.229-7.352-1.493-1.031-3.311-1.713-4.627-2.983-1.157-1.116-1.776-2.645-2.118-4.185-.689-3.105-.563-6.556-.022-9.677.184-1.063-.284-2.155-1.397-2.46-.963-.265-2.275.327-2.46,1.397-1.137,6.561-1.195,15.083,5.001,19.172,1.632,1.077,3.336,1.963,4.899,3.15,1.712,1.3,3.372,2.668,5.029,4.037,3.134,2.589,6.233,5.583,9.992,7.237,5.822,2.562,13.514,3.209,18.561-1.33,2.825-2.541,3.366-6.437,2.59-10.001-.793-3.641-2.924-6.41-5.452-9.029-2.563-2.655-5.381-5.056-7.93-7.721-2.073-2.167-4.282-4.522-5.713-7.178-1.221-2.267-4.676-.25-3.454,2.019h0Z"/><path class="g" d="M35.811,379.724c-1.281,2.378-3.21,4.464-5.025,6.442-2.184,2.381-4.639,4.506-6.942,6.77-2.411,2.369-4.847,4.759-6.196,7.913-1.434,3.354-1.982,7.607.037,10.858,3.584,5.771,11.613,6.09,17.449,4.308,8.063-2.462,13.173-9.818,20.231-14.011,1.873-1.113,3.793-2.123,5.138-3.893,1.18-1.554,1.953-3.341,2.334-5.253.75-3.763.604-7.705-.048-11.471-.185-1.065-1.491-1.663-2.46-1.397-1.126.309-1.582,1.392-1.397,2.46.478,2.757.589,5.715.199,8.489-.181,1.291-.496,2.597-1.139,3.738-.87,1.544-2.095,2.392-3.598,3.264-3.246,1.884-6.125,4.304-9.013,6.688-2.79,2.303-5.535,4.976-8.815,6.57-2.691,1.308-5.584,1.858-8.549,1.716-2.446-.117-4.809-.738-6.479-2.691-1.894-2.214-1.234-5.7-.099-8.113,1.247-2.652,3.53-4.69,5.599-6.706,2.258-2.2,4.643-4.284,6.765-6.619,1.964-2.16,4.07-4.461,5.462-7.045,1.221-2.266-2.231-4.289-3.454-2.019h0Z"/><path class="g" d="M59.285,231.512c0,8.238.016,16.476.032,24.714.022,11.56.048,23.119.076,34.679.029,12.404.061,24.809.092,37.213.027,10.595.054,21.189.079,31.784.015,6.3.033,12.601.039,18.901,0,.35,0,.701,0,1.051,0,2.574,4,2.578,4,0,0-5.585-.019-11.171-.032-16.756-.024-10.199-.05-20.398-.076-30.597-.031-12.325-.062-24.649-.092-36.974-.028-11.797-.056-23.593-.079-35.39-.017-8.794-.035-17.588-.039-26.381,0-.748,0-1.495,0-2.243,0-2.574-4-2.578-4,0h0Z"/><path class="f" d="M95.325,194.884c4.808,13.808,4.079,28.846,3.247,43.443-2.474,43.409-4.367,97.064-7.646,140.527-.031.415-.311.768-.71.887-8.216,2.456-17.982,2.715-26.277.735"/><path class="f" d="M27.874,194.884c-4.808,13.808-3.751,28.831-3.247,43.443,1.564,45.335,4.563,95.08,7.651,140.52.028.417.309.775.71.895,8.215,2.455,17.978,2.713,26.272.734"/><path class="g" d="M6.138,213.831c-2.398,7.156-4.817,14.378-5.745,21.899-.38,3.079-1.011,7.516,1.098,10.117,1.159,1.43,3.008,2.102,4.818,1.762,1.929-.363,3.377-1.761,4.397-3.363,2.218-3.484,3.76-7.585,5.127-11.466.857-2.433-3.006-3.479-3.857-1.063-1.254,3.562-2.669,7.324-4.724,10.51-.55.854-2.024,2.322-2.823.885-.717-1.288-.349-3.678-.259-5.066.518-7.933,3.319-15.672,5.825-23.152.82-2.446-3.042-3.496-3.857-1.063h0Z"/><path class="g" d="M18.542,215.552c.404,4.779.642,9.58.689,14.376.011,1.164.009,2.328-.017,3.492-.014.647.053,1.829-.433,2.083-.513.268-1.054-.011-1.645-.475-.84-.659-1.401-1.573-1.828-2.535-.438-.988-1.878-1.219-2.736-.718-1.018.595-1.157,1.745-.718,2.736,1.12,2.527,3.642,5.139,6.607,5.056,1.561-.044,2.934-.735,3.816-2.031s.908-2.769.938-4.274c.118-5.901-.179-11.831-.675-17.71-.091-1.076-.854-2-2-2-1.012,0-2.091.918-2,2h0Z"/><path class="g" d="M113.348,214.894c2.506,7.479,5.306,15.218,5.825,23.152.091,1.396.458,3.779-.259,5.066-.794,1.427-2.271-.03-2.823-.885-2.054-3.185-3.47-6.95-4.724-10.51-.849-2.412-4.715-1.374-3.857,1.063,1.218,3.458,2.668,6.805,4.35,10.063.867,1.678,1.931,3.356,3.669,4.241,1.703.868,3.723.826,5.307-.283,2.919-2.044,2.547-6.396,2.28-9.519-.33-3.844-1.141-7.638-2.137-11.36-1.093-4.08-2.431-8.088-3.772-12.092-.814-2.428-4.678-1.387-3.857,1.063h0Z"/><path class="g" d="M100.802,215.552c-.496,5.879-.796,11.81-.675,17.71.031,1.503.061,2.98.938,4.274.883,1.301,2.257,1.977,3.816,2.031,2.961.103,5.494-2.543,6.607-5.056.437-.987.287-2.149-.718-2.736-.851-.498-2.297-.275-2.736.718-.425.959-.986,1.882-1.828,2.535-.58.45-1.113.762-1.657.471.186.1-.119-.099-.155-.148-.098-.132-.172-.355-.204-.497-.091-.397-.049-.869-.058-1.277-.029-1.216-.032-2.433-.02-3.649.046-4.796.285-9.597.689-14.376.091-1.078-.984-2-2-2-1.158,0-1.909.919-2,2h0Z"/><path class="g" d="M99.172,49.499c.509-5.952.906-12.074-.124-17.99-1.153-6.62-3.815-13.188-8.016-18.464-2.128-2.673-4.769-5.126-7.706-6.881-2.215-1.324-4.229,2.133-2.019,3.454,6.513,3.892,10.619,10.958,12.731,18.062,2.123,7.14,1.762,14.477,1.134,21.819-.219,2.565,3.782,2.55,4,0h0Z"/><path class="g" d="M47.729,188.683h28.04c2.574,0,2.578-4,0-4h-28.04c-2.574,0-2.578,4,0,4h0Z"/><path class="d" d="M18.624,214.014c-5.708-.882-10.211-1.48-14.106-2.222-1.37-.261-2.397-1.602-2.28-2.991,1.454-17.348,5.071-81.132,6.734-88.21,1.382-5.884,3.088-11.051,8.54-16.729,3.988-4.153,15.124-8.909,23.854-12.164.003.054.005.084.005.084.347,5.332,5.497,30.526,6.075,57.116.012.316.012.632.023.948l.255,24.561c.035,11.755-.093,25.186-.337,31.758-.16,1.506-1.469,2.626-2.978,2.496-4.791-.41-13.617-1.679-19.129-3.222-.502,3.132-.798,6.303-.954,9.495-2.029-.343-3.924-.645-5.701-.92Z"/><path class="d" d="M104.668,214.022c5.733-.887,10.251-1.486,14.158-2.23,1.37-.261,2.397-1.602,2.28-2.991-1.454-17.348-5.071-81.132-6.734-88.21-1.382-5.884-3.088-11.051-8.54-16.729-3.988-4.153-15.124-8.909-23.854-12.164-.003.054-.005.084-.005.084-.347,5.332-5.497,30.526-6.075,57.116-.012.316-.012.632-.023.948l-.255,24.561c-.035,11.755.093,25.186.337,31.758.16,1.506,1.469,2.626,2.978,2.496,4.767-.408,13.528-1.666,19.045-3.198.518,3.125.837,6.289,1.013,9.475,2.019-.341,3.904-.642,5.674-.916Z"/><path class="g" d="M43.323,88.857c-6.799,2.453-13.622,5.101-19.986,8.55-2.497,1.354-5.052,2.865-7.082,4.879-2.781,2.759-5.082,6.101-6.643,9.692-3.029,6.969-3.472,14.361-4.097,21.825-.871,10.395-1.57,20.805-2.271,31.212-.717,10.65-1.401,21.303-2.134,31.952-.252,3.663-.506,7.326-.802,10.986-.118,1.451.021,2.777.942,3.978,1.163,1.516,2.802,1.816,4.571,2.122,3.417.591,6.853,1.068,10.282,1.586,2.178.329,4.353.67,6.526,1.029,1.065.176,2.153-.278,2.46-1.397.263-.956-.325-2.283-1.397-2.46-3.914-.646-7.839-1.221-11.761-1.812-1.526-.23-3.051-.464-4.573-.722-.963-.163-2.978-.066-3.124-1.304-.08-.679.111-1.489.164-2.171.063-.802.123-1.604.183-2.406.139-1.868.271-3.737.402-5.605.701-10.061,1.347-20.127,2.02-30.19.693-10.375,1.39-20.751,2.212-31.117.297-3.747.605-7.495.992-11.235.071-.687.145-1.373.225-2.059.032-.277.066-.554.1-.832.017-.138.036-.275.053-.413-.003.027-.058.396.003-.016.18-1.218.44-2.392.749-3.588,1.6-6.198,4.681-12.438,10.115-16.137,5.55-3.778,11.997-6.34,18.232-8.741,1.561-.601,3.129-1.183,4.702-1.75,2.403-.867,1.366-4.734-1.063-3.857h0Z"/><path class="g" d="M78.957,92.714c6.48,2.338,12.965,4.859,19.031,8.147,2.347,1.272,4.735,2.643,6.595,4.588,2.506,2.621,4.589,5.691,5.907,9.08.896,2.305,1.625,4.748,2.073,7.182.074.404.131.811.192,1.218.081.546-.044-.377.048.369.037.297.073.594.108.892.391,3.344.676,6.701.954,10.055.835,10.049,1.515,20.111,2.194,30.172.7,10.376,1.368,20.755,2.077,31.131.256,3.752.515,7.504.808,11.254.053.678.251,1.496.164,2.171-.159,1.236-2.156,1.14-3.124,1.304-3.33.564-6.676,1.031-10.016,1.536-2.108.319-4.215.65-6.318.997-1.067.176-1.661,1.497-1.397,2.46.311,1.132,1.391,1.573,2.46,1.397,4.034-.666,8.079-1.255,12.121-1.866,1.564-.237,3.128-.479,4.687-.749,1.771-.306,3.407-.604,4.571-2.122,1.409-1.837.93-4.075.768-6.205-.143-1.873-.277-3.747-.41-5.621-.726-10.3-1.384-20.605-2.072-30.907-.717-10.733-1.434-21.467-2.29-32.191-.534-6.697-.75-13.631-2.605-20.126-1.906-6.671-5.654-13.059-11.452-17.047s-12.607-6.64-19.135-9.159c-1.619-.625-3.246-1.229-4.878-1.818-2.426-.875-3.47,2.989-1.063,3.857h0Z"/><path class="g" d="M43.998,95.733c5.324,3.437,11.892,4.79,18.17,4.701,6.046-.086,12.73-1.153,17.583-5.014.846-.673.703-2.126,0-2.828-.836-.836-1.98-.675-2.828,0-1.881,1.496-4.306,2.298-6.608,2.86-2.798.684-5.673.973-8.55.986-5.483.024-11.099-1.158-15.747-4.159-2.169-1.4-4.177,2.061-2.019,3.454h0Z"/><path class="g" d="M79.974,91.781c-.021.309-.051.618-.085.926-.021.189-.043.378-.066.567-.016.131-.092.713-.068.538.027-.203-.062.443-.076.541-.037.262-.075.524-.113.786-.091.624-.185,1.248-.279,1.871-.485,3.199-.984,6.397-1.452,9.598-1.319,9.02-2.44,18.072-3.155,27.161-.894,11.361-.872,22.733-.99,34.119-.046,4.463-.079,8.924-.07,13.388.01,4.671.04,9.341.102,14.011.047,3.595-.074,7.273.236,10.858.178,2.064,1.557,3.87,3.608,4.378,1.577.391,3.452-.061,5.042-.255,3.88-.475,7.753-1.064,11.582-1.855,1.656-.342,3.309-.72,4.932-1.199,1.662-.491,3.482-.996,4.435-2.573.865-1.433.59-3.078.484-4.659-.092-1.376-.19-2.751-.288-4.126-1.172-16.393-2.18-32.784-2.395-49.223-.034-2.593-.05-5.185-.051-7.778-.001-2.574-4.001-2.578-4,0,.007,17.091.817,34.152,2.029,51.196.204,2.87.416,5.739.614,8.61.075,1.091.416,2.502.236,3.577-.152.907-2.159,1.136-2.96,1.354-3.533.962-7.162,1.596-10.779,2.146-1.635.249-3.273.47-4.917.657-1.006.114-3.064.802-3.575-.349-.076-.17-.01.054,0,.099-.032-.141-.013-.347-.018-.498-.011-.356-.024-.712-.034-1.068-.024-.801-.045-1.603-.063-2.405-.044-1.902-.077-3.805-.105-5.708-.065-4.541-.099-9.083-.114-13.624s.005-9.106.052-13.66c.104-10.07.028-20.161.64-30.217.558-9.16,1.553-18.291,2.817-27.379.82-5.9,1.835-11.774,2.61-17.68.093-.707.183-1.415.232-2.127.177-2.569-3.823-2.558-4,0h0Z"/><path class="g" d="M39.37,91.781c.332,4.811,1.353,9.621,2.061,14.385,1.259,8.475,2.335,16.978,3.063,25.516.967,11.331,1.021,22.648,1.139,34.007.126,12.162.153,24.327-.13,36.488-.018.755-.037,1.509-.059,2.264-.011.36-.022.72-.034,1.08-.006.167.002.338-.018.504-.035.293.165-.222-.016.1-.594,1.056-2.715.371-3.712.256-3.549-.408-7.086-.957-10.59-1.65-1.662-.329-3.32-.691-4.955-1.136-.789-.215-2.828-.452-2.96-1.354-.166-1.132.165-2.556.244-3.7.093-1.344.189-2.687.286-4.03,1.147-15.942,2.09-31.889,2.298-47.875.034-2.593.05-5.185.051-7.778.001-2.574-3.999-2.578-4,0-.007,17.539-.871,35.044-2.124,52.534-.205,2.864-.417,5.728-.609,8.593-.11,1.636-.392,3.339.568,4.795.974,1.478,2.743,1.963,4.35,2.438,3.558,1.051,7.245,1.698,10.906,2.273,1.917.301,3.839.567,5.766.801,1.601.194,3.462.634,5.046.199,4.077-1.118,3.51-5.852,3.581-9.132.093-4.326.141-8.653.172-12.98.041-5.755.056-11.51-.004-17.265-.103-9.91-.009-19.848-.525-29.748-.505-9.691-1.536-19.345-2.837-28.959-.505-3.731-1.055-7.455-1.624-11.176-.215-1.406-.432-2.812-.646-4.219-.089-.589-.178-1.179-.264-1.769-.039-.264-.077-.529-.115-.794-.02-.142-.137-1.002-.076-.541-.093-.707-.183-1.415-.232-2.127-.176-2.554-4.178-2.573-4,0h0Z"/><path class="d" d="M40.387,90.001c1.558,8.083,3.954,16.026,6.486,23.85,2.161,6.678,4.341,13.551,7.479,19.85.426.855.885,1.736,1.526,2.455,1.256,1.406,3.454,1.933,5.263,2.036,1.973.112,4.528-.452,5.962-1.908.611-.62,1.056-1.462,1.454-2.228,3.102-5.971,5.222-12.569,7.364-18.927,2.772-8.226,5.48-16.605,7.126-25.141.245-1.271-.358-2.59-1.676-2.952-1.175-.323-2.706.397-2.952,1.676-1.375,7.134-3.545,14.138-5.774,21.043-1.206,3.738-2.474,7.457-3.821,11.147-.575,1.575-1.165,3.145-1.779,4.706-.279.71-.563,1.418-.854,2.123-.058.14-.366.872-.186.449-.148.348-.298.695-.451,1.041-.425.961-.862,1.92-1.368,2.841-.165.3-.365.583-.527.883-.262.485.206-.23.097-.109-.07.078-.136.167-.221.229.978-.711-.329.041-.62.13-.524.159-1.022.231-1.571.205-.533-.025-1.064-.138-1.563-.335-.507-.2-.846-.549-.272-.041-.463-.41.288.547-.124-.147-.209-.352-.421-.698-.613-1.061-.525-.993-.981-2.023-1.425-3.054-.182-.422-.046-.107-.01-.02-.072-.171-.143-.343-.214-.515-.134-.323-.265-.647-.396-.972-.314-.782-.62-1.568-.921-2.355-1.356-3.555-2.605-7.152-3.795-10.766-2.742-8.324-5.334-16.791-6.994-25.406-.245-1.273-1.773-2-2.952-1.676-1.332.366-1.922,1.675-1.676,2.952h0Z"/><path class="e" d="M77.672,141.334c-10.667,0-21.333,0-32,0,0,6.71,0,13.419,0,20.129,10.667,0,21.333,0,32,0,0-6.71,0-13.419,0-20.129Z"/><path class="g" d="M77.672,139.334c-10.667,0-21.333,0-32,0-1.081,0-2,.916-2,2,0,6.71,0,13.419,0,20.129,0,1.081.916,2,2,2,10.667,0,21.333,0,32,0,1.081,0,2-.916,2-2,0-6.71,0-13.419,0-20.129,0-2.574-4-2.578-4,0,0,6.71,0,13.419,0,20.129l2-2c-10.667,0-21.333,0-32,0l2,2c0-6.71,0-13.419,0-20.129l-2,2c10.667,0,21.333,0,32,0,2.574,0,2.578-4,0-4Z"/><path class="i" d="M50.77,147.971v6.165c0,1.309.477,1.782,1.066,1.782,1.46,0,4.218,0,7.029,0,.589,0,1.067-.474,1.067-1.063v-6.966c0-.507-.478-.985-1.067-.985h-7.029c-.589,0-1.067.478-1.067,1.067Z"/><rect class="e" x="58.314" y="131.68" width="6.848" height="11.193" rx="1.532" ry="1.532"/><path class="g" d="M56.314,133.212v6.202c0,.883-.108,1.882.099,2.751.314,1.315,1.417,2.396,2.754,2.631.555.098,1.1.078,1.66.078,1.165,0,2.477.159,3.626-.099,1.452-.327,2.473-1.581,2.666-3.02.043-.321.043-.623.043-.945v-7.006c0-.477.012-.942-.099-1.415-.395-1.684-1.921-2.696-3.593-2.709-.618-.005-1.236,0-1.854,0-.811,0-1.649-.062-2.45.078-1.689.297-2.773,1.8-2.852,3.454-.05,1.047.955,2.047,2,2,1.126-.05,1.947-.879,2-2-.021.452-.064.222-.01.102-.197.445-.091.176-.03.095-.272.364-.134.16-.048.087-.052.044-.362.234-.063.076-.056.03-.417.156-.077.065-.116.031-.456.016-.049.044.291.02.592,0,.884,0,.491,0,.983,0,1.474,0,.245,0,.489,0,.734,0,.107,0,.233.011.342,0,.378-.039-.191-.09-.008-.027.261.09-.318-.192-.087-.047.23.144-.267-.253-.076-.062s-.207-.304-.063-.075c.146.231-.138-.347-.048-.086.058.166.005-.343-.027-.075-.032.27,0,.565,0,.837v6.407c0,.226-.05.517,0,.739,0,.002-.003.046,0,.048.001,0,.042-.232.044-.239-.091.34.035-.021.065-.077-.058.111-.202.263.076-.063-.074.086-.278.225.087-.047-.082.061-.35.167.095-.03-.301.133.078-.135.099-.01-.012-.07-2.497,0-2.7,0h-.702c-.075,0-.301-.042-.362,0,.057-.039.353.127.085.01.075.033.355.225.095.03.059.044.301.298.087.047.044.052.235.362.076.063.03.056.156.417.065.077.007.027.003.283.044.215.075-.125,0-.52,0-.663v-7.442c0-1.046-.92-2.048-2-2s-2,.879-2,2Z"/><path class="g" d="M23.351,204.908c-2.13,13.584-.956,27.499-.443,41.169.502,13.388,1.107,26.772,1.783,40.153,1.367,27.072,3.02,54.129,4.819,81.176.243,3.662.428,7.334.739,10.99.174,2.045,1.064,2.962,3.022,3.508,1.661.463,3.349.83,5.05,1.111,7.115,1.176,14.44,1.038,21.471-.606,2.506-.586,1.445-4.443-1.063-3.857-5.882,1.375-12.06,1.603-18.045.803-1.436-.192-2.866-.46-4.278-.783-.627-.144-1.441-.541-2.071-.525l-.204-.058c-.357-.148-.318-.012.119.407-.047-.006-.098-1.446-.108-1.593-.212-3.132-.423-6.265-.631-9.397-.862-12.964-1.69-25.93-2.469-38.899-1.568-26.085-2.953-52.184-3.974-78.297-.281-7.196-.57-14.394-.784-21.593-.224-7.549-.248-15.165.925-22.645.167-1.066-.272-2.151-1.397-2.46-.95-.261-2.292.323-2.46,1.397h0Z"/><path class="g" d="M96.051,205.991c2.175,13.375.791,27.074.066,40.515-.676,12.529-1.281,25.061-1.883,37.593-1.248,25.993-2.449,51.992-4.133,77.962-.222,3.42-.452,6.839-.695,10.257-.116,1.637-.235,3.275-.356,4.912-.006.083-.071,1.214-.091,1.215.485-.519.456-.652-.085-.4l-.41.112c-.899.241-1.806.454-2.718.642-6.968,1.433-14.346,1.369-21.275-.249-2.504-.585-3.573,3.271-1.063,3.857,6.61,1.543,13.465,1.752,20.177.803,1.579-.223,3.148-.511,4.699-.881,1.435-.343,3.29-.572,4.156-1.914.778-1.205.599-3.016.701-4.407.121-1.644.238-3.287.353-4.931.919-13.115,1.68-26.241,2.38-39.369,1.425-26.727,2.573-53.468,3.976-80.196.812-15.464,2.56-31.197.058-46.585-.174-1.067-1.499-1.661-2.46-1.397-1.134.312-1.571,1.39-1.397,2.46h0Z"/></g></svg>