<?xml version="1.0" encoding="UTF-8"?><svg id="b" xmlns="http://www.w3.org/2000/svg" width="254.637" height="285.331" viewBox="0 0 254.637 285.331"><defs><style>.d{fill:none;}.d,.e,.f,.g,.h{stroke-width:0px;}.e{fill:#211715;}.f{fill:#645d5c;}.g{fill:#fff;}.h{fill:#c6c6c6;}</style></defs><g id="c"><path class="e" d="M2.318,257.259c2.581,0,5.162,0,7.742,0,6.2,0,12.401,0,18.601,0,8.904,0,17.809,0,26.713,0,10.754,0,21.509,0,32.263,0,11.776,0,23.552,0,35.328,0,11.883,0,23.765,0,35.648,0,11.072,0,22.145,0,33.217,0,9.434,0,18.868,0,28.303,0,6.945,0,13.889,0,20.834,0,3.538,0,7.076,0,10.615,0,.245,0,.49,0,.735,0,3.089,0,3.094-4.8,0-4.8-2.585,0-5.17,0-7.755,0-6.204,0-12.407,0-18.611,0-8.907,0-17.814,0-26.721,0-10.756,0-21.512,0-32.268,0-11.777,0-23.554,0-35.33,0-11.882,0-23.765,0-35.647,0-11.071,0-22.142,0-33.213,0-9.432,0-18.864,0-28.296,0-6.941,0-13.883,0-20.824,0-3.534,0-7.068,0-10.602,0-.244,0-.488,0-.732,0-3.089,0-3.094,4.8,0,4.8h0Z"/><path class="g" d="M106.671,143.224c7.01,12.45,17.273,29.51,22.529,38.349h1.394c7.801-13.096,26.542-44.007,29.566-51.618,6.879,1.804,15.123,4.614,22.527,8.368l21.973,12.506c10.49,18.188,17.601,34.244,22.435,50.521,2.742,9.235,3.557,19.693-1.408,27.949-4.975,8.273-15.783,11.876-25.266,10.075-9.484-1.801-17.605-8.181-23.45-15.864v41.006c-47.103,0-121.227,0-121.227,0-12.193-3.385-23.973-9.761-26.919-22.991-4.898-21.996,6.381-54.992,18.137-73.312,12.803-19.951,30.353-29.23,53.128-37.466,1.157,2.63,3.568,7.128,6.581,12.477Z"/><path class="h" d="M130.595,181.573c7.801-13.095,26.541-44.006,29.567-51.618,3.939,1.033,8.325,2.396,12.745,4.076-.355,1.095-.645,2.332-.926,3.972-.779,4.556-.674,9.882,1.767,14.237.166.296.375.642.635,1-1.69,1.904-3.547,3.996-3.547,3.996,1.473,5.943,2.921,11.997,4.256,17.599v15.681c-27.926,0-103.405,0-103.405,0,0,0,0-23.702-.003-46.65,8.373-5.242,17.826-9.293,28.407-13.12,3.849,8.752,21.594,38.191,29.11,50.826"/><path class="g" d="M168.86,67.923c1.334-1.282,3.13-1.763,4.668-1.709,3.346.118,4.77,1.928,5.382,2.99,1.829,3.172,1.752,9.016.524,12.633-.869,2.561-2.294,6.479-5.727,9.288-1.415,1.158-3.497,1.92-5.488,1.584,0,0-.135-.023-.378-.063-.65,1.896-1.463,3.582-1.737,4.415-1.161,3.152-6.743,12.949-14.234,19.035v4.714c-3.976,3.169-14.464,10.943-20.255,15.68h-3.3c-8.399-5.309-15.413-10.589-19.965-14.012v-3.701c-3.883-2.297-7.489-5.526-10.718-9.391-4.692-5.615-7.448-11.646-9.025-16.738-2.082.475-4.308-.305-5.796-1.523-3.433-2.809-4.858-6.727-5.727-9.288-1.228-3.616-1.305-9.461.524-12.633.613-1.063,2.036-2.872,5.382-2.99,1.538-.054,3.334.427,4.668,1.709,0,0-4.792-38.073,40.601-38.073s40.601,38.073,40.601,38.073Z"/><path class="f" d="M97.476,127.786c1.282-.398,2.49-.887,3.6-1.448,3.767-1.904,6.398-4.637,6.903-7.43,0,0,.02-.112.054-.317-3.761-2.288-7.26-5.446-10.401-9.206-4.692-5.615-7.448-11.645-9.026-16.742-2.081.48-4.307-.301-5.796-1.518-.37-.302-.716-.618-1.041-.943-1.397,2.261-2.413,4.901-2.867,8.319-.059.486-.109.989-.146,1.51-.071.982-.103,2.027-.087,3.142.062,3.694.997,7.473,1.177,11.167.171,3.678-.787,7.302-4.294,8.486-.14.047-.171.499-.164.616.008.281.132.545.281.787.429.67,1.13,1.169,1.8,1.574,3.912,2.4,9.936,3.818,16.302,2.852,1.284-.196,2.525-.484,3.704-.85Z"/><path class="e" d="M78.934,90.324c-2.343,4.668-3.016,9.979-2.528,15.149.265,2.804.837,5.574,1.013,8.387.111,1.775.132,3.875-.931,5.403-.409.588-.922.933-1.575,1.231-1.457.665-2.172,1.962-1.84,3.568.522,2.525,3.195,3.968,5.363,4.932,4.865,2.163,10.252,2.767,15.507,2.024,5.691-.804,11.616-3.377,14.976-8.222.739-1.066.196-2.665-.861-3.284-1.193-.698-2.543-.207-3.284.861-2.847,4.106-8.811,5.86-13.543,6.126-2.662.15-5.307-.091-7.878-.804-1.079-.299-2.144-.661-3.152-1.151-.521-.253-1.027-.532-1.522-.832-.165-.1-.351-.195-.505-.312-.862-.655.126-.363-.551.619l-1.434,1.103c6.123-2.257,6.443-8.706,5.716-14.283-.793-6.081-1.695-12.376,1.174-18.092,1.382-2.753-2.757-5.187-4.145-2.423h0Z"/><path class="g" d="M129.201,181.573c-6.707-11.276-21.561-35.935-27.419-47.329.521-1.304,3.52-8.805,4.418-11.135.337-.874,1.401-1.195,2.149-.632,4.552,3.423,11.566,8.703,19.965,14.012h3.3c5.792-4.738,16.279-12.511,20.255-15.68.775-.617,1.919-.249,2.206.699.766,2.529,1.559,4.975,2.785,9.164l2.627.834c-4.483,9.578-21.543,37.73-28.893,50.068"/><path class="f" d="M87.505,68.254c-1.316-1.264-3.089-1.739-4.606-1.686-.486.017-.931.07-1.338.152-.689-2.464-1.775-7.143-1.775-7.143-1.085-4.591-1.232-14.402-.044-20.152C84.084,18.115,105.526,1.205,127.995,2.452c6.791-.381,13.478.909,19.638,3.476,10.926,4.532,20.181,13.112,25.226,23.584.837,1.727,1.559,3.5,2.156,5.314.229.697.44,1.399.631,2.107.22.821.425,1.657.587,2.493,1.364,6.57,3.036,19.476.074,27.719-.715-.317-1.598-.538-2.688-.576-1.517-.053-3.29.421-4.606,1.686l-5.191-2.393c-5.548-3.671-11.253-10.247-13.603-14.188-1.621-2.718-4.77-8.554-6.352-12.686-15.157,12.14-29.846,24.295-54.902,28.159l-1.459,1.109Z"/><path class="e" d="M83.875,66.082c-1.19-4.298-2.233-8.483-2.467-12.845-.304-5.681-.069-11.434,1.594-16.905,3.251-10.692,11.003-19.746,20.578-25.361,4.951-2.904,10.407-4.89,16.087-5.757,2.78-.424,5.528-.373,8.327-.362,3.658.015,7.16.045,10.759.811,12.607,2.682,23.941,10.855,30.415,22.01,3.416,5.887,5.052,12.37,5.841,19.08.761,6.466,1.166,13.513-1.018,19.754-.428,1.223.487,2.626,1.676,2.952,1.323.364,2.523-.448,2.952-1.676,2.105-6.015,1.989-12.791,1.399-19.056-.621-6.583-1.787-13.083-4.495-19.154-5.592-12.537-16.73-22.277-29.587-26.862-3.786-1.35-7.732-2.187-11.733-2.55-1.916-.174-3.825-.189-5.746-.134-1.597.046-3.194-.069-4.795.005-6.336.296-12.501,1.911-18.249,4.567-11.175,5.164-20.55,14.541-25.364,25.9-4.371,10.312-4.46,22.059-1.835,32.829.328,1.347.663,2.692,1.032,4.028.823,2.973,5.455,1.711,4.629-1.276h0Z"/><path class="e" d="M165.032,63.789c-8.867-5.951-14.908-15.464-18.781-25.246-.477-1.204-1.606-2.046-2.952-1.676-1.146.315-2.156,1.74-1.676,2.952,4.365,11.027,10.988,21.404,20.986,28.114,2.572,1.726,4.977-2.43,2.423-4.145h0Z"/><path class="e" d="M142.061,37.376c-11.921,9.551-24.054,18.898-38.712,23.831-4.893,1.647-9.925,2.826-15.024,3.624-1.282.201-1.992,1.804-1.676,2.952.376,1.367,1.667,1.877,2.952,1.676,8.928-1.398,17.573-4.059,25.706-8.007,7.065-3.429,13.596-7.815,19.838-12.558,3.484-2.648,6.895-5.389,10.31-8.125,1.012-.811.846-2.548,0-3.394-1-1-2.379-.813-3.394,0h0Z"/><path class="e" d="M120.538,102.149c2.541,1.342,5.276,1.912,8.151,1.893,2.969-.019,5.918-.624,8.29-2.472.995-.775.875-2.591,0-3.394-1.055-.969-2.332-.827-3.394,0,.745-.58.236-.185.045-.062-.16.103-.325.198-.494.286-.222.116-.78.252-.103.072-.23.061-.454.174-.681.248-.623.2-1.261.332-1.906.435.357-.057.134-.019-.095.004-.187.019-.374.034-.562.046-.451.029-.903.041-1.355.038-.405-.002-.809-.016-1.213-.044-.185-.013-.371-.028-.556-.046-.086-.009-.765-.128-.182-.017-.6-.114-1.194-.22-1.781-.395-.25-.075-.493-.164-.739-.248-.583-.199.431.214-.096-.035-.305-.144-.606-.294-.905-.452-1.11-.586-2.66-.318-3.284.861-.586,1.109-.324,2.658.861,3.284h0Z"/><path class="e" d="M127.321,83.14c.348,1.328.682,2.676.882,4.035l-.086-.638c.024.186.034.37.015.557l.086-.638c-.013.087-.032.168-.061.25l.242-.573c-.026.058-.053.108-.088.161l.375-.486c-.041.05-.081.089-.132.13l.486-.375c-.102.065-.21.118-.32.169l.573-.242c-.176.073-.35.127-.539.157l.638-.086c-.17.02-.336.019-.506,0l.638.086c-.191-.027-.378-.073-.569-.099-.319-.1-.638-.114-.957-.043-.319.014-.617.109-.892.285-.498.291-.973.862-1.103,1.434-.14.614-.11,1.304.242,1.849.312.484.835,1.022,1.434,1.103.463.062.913.179,1.385.2.738.032,1.42-.197,2.078-.5.82-.378,1.463-1.133,1.681-2.016.185-.75.108-1.383-.019-2.134-.22-1.3-.52-2.589-.855-3.864-.152-.579-.588-1.133-1.103-1.434s-1.273-.429-1.849-.242c-1.25.404-2.018,1.651-1.676,2.952h0Z"/><path class="e" d="M106.302,71.624c-.674,2.19-.235,7.228,3.914,7.657,5.484-.033,5.775-6.124,3.929-8.987-1.511-2.345-5.955-3.32-7.844,1.331Z"/><path class="e" d="M150.215,71.624c.674,2.19.235,7.228-3.914,7.656-5.484-.033-5.776-6.124-3.93-8.988,1.511-2.345,5.955-3.32,7.844,1.331Z"/><path class="e" d="M166.358,88.613c-.392,2.905-1.693,5.562-2.749,8.266.166-.426.111-.254-.021.028-.082.175-.163.351-.247.525-.194.401-.396.797-.604,1.19-.509.962-1.054,1.905-1.622,2.833-2.927,4.784-6.486,9.301-10.841,12.867-2.389,1.957-5.079,3.494-8.052,4.185-3.008.698-1.735,5.328,1.276,4.629,6.206-1.441,11.388-5.93,15.46-10.633,3.419-3.949,6.6-8.401,8.776-13.173,1.353-2.969,2.816-6.199,3.254-9.44.173-1.283-.308-2.576-1.676-2.952-1.118-.307-2.778.383-2.952,1.676h0Z"/><path class="e" d="M85.334,89.728c1.905,8.187,5.782,15.836,11.303,22.178,5.434,6.243,12.656,11.553,21.013,12.805,1.28.192,2.58-.321,2.952-1.676.311-1.133-.387-2.759-1.676-2.952-7.639-1.144-13.929-5.865-18.895-11.571s-8.353-12.689-10.068-20.06c-.7-3.007-5.329-1.734-4.629,1.276h0Z"/><path class="e" d="M89.355,66.226c-2.81-2.521-6.838-3.109-10.273-1.512-2.537,1.18-4.043,3.594-4.716,6.236-1.543,6.06-.005,13.056,3.484,18.197,2.34,3.448,5.999,6.551,10.448,5.962,1.285-.17,2.4-.981,2.4-2.4,0-1.165-1.106-2.571-2.4-2.4-3.433.454-5.751-2.385-7.241-5.132-1.218-2.248-2.156-4.838-2.38-7.394-.222-2.535-.225-5.632,1.286-7.815.152-.212.154-.214.006-.007.074-.087.152-.171.233-.252.072-.064.557-.473.395-.358.445-.314.924-.5,1.453-.619,1.369-.308,2.849-.063,3.91.889,2.294,2.057,5.699-1.326,3.394-3.394h0Z"/><path class="e" d="M170.557,69.62c1.018-.913,2.403-1.173,3.728-.927.601.112,1.134.304,1.635.657-.214-.151.266.233.313.274.11.108.215.22.316.337-.148-.208-.146-.206.006.007,1.508,2.18,1.512,5.282,1.286,7.815-.229,2.559-1.162,5.142-2.38,7.394-1.486,2.748-3.81,5.586-7.241,5.132-1.287-.17-2.4,1.225-2.4,2.4,0,1.438,1.109,2.229,2.4,2.4,7.332.97,11.793-7.03,13.626-12.932,1.642-5.286,1.641-13.545-3.503-16.972-3.431-2.286-8.197-1.655-11.18,1.021-2.304,2.067,1.099,5.452,3.394,3.394h0Z"/><path class="d" d="M146.709,121.361c0,1.241,0,2.098.135,4.051.087,1.116.173,2.319.587,3.406.548,1.424,1.299,2.665,2.492,3.637,1.434,1.155,2.896,1.963,4.474,2.675"/><path class="d" d="M101.86,135.631c2.04-.837,3.849-1.742,5.639-3.175,1.193-.972,1.944-2.213,2.492-3.637.414-1.087.5-2.29.587-3.406.144-1.953.135-2.81.144-4.051"/><path class="e" d="M74.086,190.517v-44.529c0-3.089-4.8-3.094-4.8,0v44.529c0,3.089,4.8,3.094,4.8,0h0Z"/><path class="e" d="M142.86,146.649c-3.084-4.019-6.136-8.107-9.549-11.857v3.394c4.745-3.873,9.656-7.542,14.525-11.255,1.08-.824,2.159-1.648,3.235-2.478.495-.382.989-.763,1.481-1.148.213-.166.53-.339.699-.549l.16-.127c-.545.427-1.057.359-1.535-.204-.135.233.404,1.418.492,1.703.187.606.375,1.211.562,1.817.55,1.785,1.089,3.573,1.615,5.365.868,2.958,5.502,1.699,4.629-1.276-.587-2.002-1.192-3.998-1.808-5.991-.477-1.544-.77-3.574-1.899-4.774-2.881-3.062-6.368.698-8.531,2.354-5.695,4.359-11.463,8.634-17.02,13.169-1.037.847-.802,2.514,0,3.394,3.138,3.448,5.962,7.19,8.798,10.886.788,1.027,2.065,1.574,3.284.861,1.01-.591,1.655-2.249.861-3.284h0Z"/><path class="e" d="M120.978,149.379c2.915-3.796,5.81-7.651,9.034-11.193,1.063-1.169.862-2.915-.486-3.769-6.186-3.921-12.155-8.16-18.015-12.548-1.157-.867-2.304-2.013-3.835-2.056-1.945-.054-3.195,1.176-3.872,2.874-.815,2.045-1.613,4.096-2.428,6.141-.66,1.658-1.322,3.315-1.985,4.972-.482,1.204.526,2.636,1.676,2.952,1.368.376,2.469-.468,2.952-1.676.681-1.701,1.36-3.403,2.038-5.106.52-1.307,1.04-2.614,1.557-3.923.197-.498.393-.996.588-1.495.06-.153.276-.503.259-.666-.135.433-.444.669-.926.709-.418-.117-.512-.104-.281.039.059.343,1.535,1.153,1.835,1.378.635.476,1.272.95,1.909,1.423,1.551,1.15,3.11,2.289,4.681,3.412,3.739,2.673,7.543,5.253,11.425,7.713l-.486-3.769c-3.498,3.844-6.621,8.046-9.784,12.164-.79,1.029-.158,2.687.861,3.284,1.237.724,2.492.17,3.284-.861h0Z"/><path class="e" d="M158.871,132.1c7.779,2.006,15.424,4.676,22.605,8.295,1.157.583,2.601.306,3.284-.861.624-1.067.301-2.698-.861-3.284-7.547-3.803-15.575-6.67-23.752-8.779-2.993-.772-4.27,3.857-1.276,4.629h0Z"/><path class="e" d="M158.042,128.817c-.07.195-.148.387-.221.581-.207.556.227-.483-.048.111-.232.502-.459,1.006-.701,1.504-.633,1.305-1.305,2.591-1.988,3.871-1.857,3.482-3.804,6.917-5.768,10.34-4.641,8.088-9.412,16.1-14.196,24.104-2.198,3.678-4.404,7.352-6.597,11.033-1.585,2.66,2.563,5.077,4.145,2.423,8.824-14.809,17.944-29.485,26.126-44.664,1.4-2.598,2.886-5.238,3.878-8.027.434-1.221-.492-2.627-1.676-2.952-1.328-.365-2.516.451-2.952,1.676h0Z"/><path class="e" d="M131.273,180.362c-8.742-14.696-17.734-29.285-25.841-44.345-.808-1.501-1.604-3.008-2.356-4.538-.28-.569-.554-1.14-.813-1.719-.055-.123-.106-.249-.164-.371-.201-.424.199.507.049.117-.088-.23-.181-.457-.263-.689-.432-1.221-1.638-2.037-2.952-1.676-1.183.325-2.111,1.725-1.676,2.952.849,2.398,2.086,4.679,3.271,6.922,1.848,3.498,3.791,6.947,5.751,10.383,4.64,8.136,9.416,16.196,14.207,24.244,2.212,3.715,4.431,7.426,6.642,11.142,1.578,2.653,5.729.241,4.145-2.423h0Z"/><path class="e" d="M168.52,157.874c1.451,5.859,2.857,11.728,4.256,17.599.301,1.261,1.734,2.011,2.952,1.676,1.289-.354,1.978-1.687,1.676-2.952-1.4-5.871-2.805-11.741-4.256-17.599-.312-1.258-1.726-2.013-2.952-1.676-1.28.352-1.989,1.69-1.676,2.952h0Z"/><path class="e" d="M56.383,262.203c-10.257-2.872-21.255-8.245-24.672-19.173-1.646-5.264-1.832-10.999-1.582-16.467.273-5.971,1.244-11.885,2.618-17.696,2.807-11.874,7.201-23.486,13.135-34.155,5.461-9.819,12.652-18.536,21.744-25.204,10.78-7.906,23.269-12.986,35.795-17.407,1.222-.431,2.037-1.639,1.676-2.952-.325-1.184-1.724-2.11-2.952-1.676-11.77,4.155-23.555,8.838-33.975,15.813-10.141,6.788-18.514,15.671-24.78,26.139-6.466,10.803-11.254,22.784-14.464,34.942-3.152,11.939-5.082,24.928-2.549,37.169,1.222,5.905,4.303,11.251,8.799,15.273,4.522,4.045,10.028,6.757,15.728,8.721,1.387.478,2.791.906,4.204,1.302,2.979.834,4.251-3.796,1.276-4.629h0Z"/><path class="e" d="M202.589,152.04c5.111,8.876,9.855,17.969,13.948,27.362,3.616,8.298,7.005,16.973,9.104,25.795,1.919,8.063,2.229,17.866-3.266,24.692-4.725,5.87-12.892,8.307-20.205,7.354-9.38-1.223-17.52-7.632-23.126-14.944-.787-1.027-2.066-1.573-3.284-.861-1.011.591-1.655,2.249-.861,3.284,5.746,7.495,13.333,13.919,22.605,16.44,8.529,2.319,18.032.77,25.031-4.741,7.698-6.061,9.929-16.355,8.903-25.693-.546-4.971-1.875-9.725-3.409-14.469-1.507-4.658-3.191-9.257-5.035-13.792-4.61-11.336-10.156-22.25-16.26-32.85-1.541-2.676-5.69-.262-4.145,2.423h0Z"/><path class="e" d="M132.257,115.902c-.209-2.97,2.058-4.962,6.076-5.103,4.046-.142,6.096,1.471,6.218,3.804.123,2.353-1.752,5.2-5.8,5.466-3.655.24-6.326-1.502-6.494-4.167Z"/><path class="e" d="M169.212,92.641c-3.149,5.686-6.863,11.289-12.342,14.979-2.872,1.934-6.006,3.569-9.332,4.557-3.54,1.051-7.096,1.426-10.773,1.564-3.079.115-3.094,4.916,0,4.8,4.081-.153,8.121-.57,12.049-1.735,3.706-1.1,7.278-2.882,10.479-5.04,6.186-4.172,10.493-10.253,14.064-16.701,1.498-2.705-2.646-5.128-4.145-2.423h0Z"/><path class="e" d="M134.657,115.902c-.014-.238-.003-.472-.002-.71.003-.501-.135.578-.017.1.021-.086.035-.173.057-.258.032-.127.076-.249.114-.374.071-.234.165-.084-.094.217.129-.149.311-.483.394-.659-.212.445-.278.331-.13.184.094-.093.18-.192.277-.282.039-.036.17-.123.202-.177l-.27.208c.075-.055.151-.108.229-.158.203-.132.417-.239.63-.353.318-.171-.114.123-.157.06.006.009.384-.139.445-.159.264-.085.533-.155.804-.212.147-.031.369-.109.519-.094-.058-.006-.563.052-.093.017.723-.055,1.444-.083,2.168-.026.08.006.281,0,.367.035-.534-.212-.139-.018.052.019.263.051.524.114.78.193.096.03.19.067.287.096.497.152-.484-.262-.044-.019.212.117.419.263.633.37.256.128-.425-.428-.139-.105.052.059.122.11.178.167.023.023.222.269.24.265-.241.044-.302-.485-.168-.203.045.095.115.214.175.3.166.237-.213.029-.099-.257-.013.033.157.621.188.676-.204-.35-.041-.551-.036-.219.002.098.01.196.01.294,0,.079-.007.157-.007.235,0,.489-.142-.063.032-.162-.056.032-.121.533-.14.598-.024.08-.054.158-.079.238-.13.42.29-.532.016-.046-.097.172-.185.346-.293.512-.171.262-.322.212.058-.05-.058.04-.127.152-.179.209-.159.176-.334.33-.506.493-.37.351.464-.288.02-.017-.13.079-.253.167-.385.244-.113.066-.231.121-.345.185-.254.142-.343.004.056-.012-.245.01-.573.2-.813.261-.116.029-.232.056-.349.08l-.18.035c-.27.044-.244.042.077-.004-.211.137-.83.056-1.064.056-.279,0-.747.062-1.007-.055l.289.039c-.113-.018-.226-.038-.339-.06-.164-.033-.327-.071-.489-.115-.131-.036-.26-.075-.389-.118-.076-.025-.151-.051-.225-.08-.243-.096-.195-.076.143.061.002-.017-.652-.364-.715-.4-.307-.179-.042-.215.083.077-.04-.094-.231-.202-.311-.282-.072-.071-.19-.263-.278-.304.183.087.3.434.059.046-.056-.09-.098-.211-.164-.293-.082-.166-.047-.077.103.267-.033-.084-.064-.169-.091-.255-.028-.087-.052-.175-.074-.263-.159-.655.017.385-.018-.053-.1-1.248-1.032-2.461-2.4-2.4-1.214.054-2.508,1.06-2.4,2.4.133,1.65.738,3.195,1.968,4.346,1.188,1.112,2.742,1.826,4.346,2.067,3.601.541,7.309-.4,9.507-3.461,1.726-2.403,1.707-5.794-.235-8.049-2.215-2.57-6.331-2.732-9.41-2.141-3.529.678-6.39,3.491-6.176,7.237.071,1.251,1.053,2.46,2.4,2.4,1.239-.056,2.476-1.058,2.4-2.4Z"/><path class="g" d="M174.041,94.21c-5.908,0-10.386-5.487-10.386-15.188s5.411-14.535,10.388-14.535c5.062,0,11.801,3.992,11.801,14.535,0,9.169-5.213,15.188-11.804,15.188Z"/><path class="e" d="M174.041,91.81c-1.751-.024-3.272-.611-4.585-1.923-1.545-1.544-2.469-3.835-2.959-6.129-1.08-5.06-.599-11.643,3.397-15.21,1.267-1.13,2.783-1.688,4.35-1.659.204.004.407.019.611.031.086.005.758.111.195.016.429.072.853.166,1.271.287,1.03.297,1.341.434,2.368,1.089,1.448.924,2.793,2.513,3.595,4.338,1.179,2.684,1.367,5.843,1.042,8.722-.311,2.749-1.304,5.625-3.19,7.658-1.681,1.811-3.747,2.747-6.094,2.778-3.086.041-3.095,4.842,0,4.8,6.91-.093,11.947-5.446,13.531-11.885s.645-14.668-4.688-19.227c-3.989-3.41-9.818-4.636-14.469-1.786-6.161,3.776-7.743,11.823-6.983,18.512.436,3.842,1.583,7.625,4.18,10.576,2.139,2.43,5.21,3.767,8.43,3.81,3.09.042,3.091-4.758,0-4.8Z"/><path class="g" d="M175.703,128.054c2.969-5.909,3.265-21.321,2.533-27.356-.244-2.01.271-3.968,2.634-4.68,2.251-.678,3.726.824,4.233,2.846-1.994-6.715-3.21-8.97-3.334-13.34-.029-1.027.929-2.451,1.89-2.873.06-2.852-.175-4.925,2.467-6.623.976-.627,2.802-.914,3.928-.636,2.817.696,3.62,2.262,4.57,5.032,1.082,3.155,4.488,15.552,4.981,18.701.692,4.424,1.303,8.851,1.65,13.321.329,5.779.523,10.594-.216,14.856-.283,1.632-1.141,4.023-1.815,5.536-2.101,4.713-1.991,8.011-1.661,14.002.098,1.782-.822,4.08-2.507,4.667-4.716,1.643-9.038,2.666-14.339,3.985-4.186,1.042-6.131-1.751-6.973-3.252-2.441-4.354-2.546-9.681-1.767-14.237s1.633-5.999,3.723-9.95"/><path class="e" d="M173.631,126.843c-1.34,2.53-2.701,5.056-3.412,7.848-.83,3.259-1.259,6.739-.998,10.099.417,5.355,2.697,12.624,8.993,13.281,1.699.177,3.344-.314,4.976-.719,1.855-.46,3.71-.921,5.556-1.416,1.64-.44,3.273-.909,4.891-1.426,1.67-.534,3.369-.984,4.539-2.38,2.229-2.657,1.697-5.86,1.62-9.057-.068-2.835.168-5.512,1.165-8.186.61-1.635,1.359-3.202,1.873-4.876.533-1.736.784-3.529.944-5.335.361-4.064.107-8.166-.122-12.229-.173-3.071-4.975-3.091-4.8,0,.334,5.905.908,12.105-1.149,17.768-.894,2.462-2.004,4.737-2.403,7.356-.424,2.783-.335,5.568-.188,8.37.052.998.193,2.19-.526,3.027-.572.665-2.082.873-3.045,1.171-3.03.938-6.107,1.711-9.185,2.475-1.192.296-2.601.865-3.816.694-.963-.135-1.309-.482-1.904-1.079-.027-.027-.496-.618-.201-.218-.103-.139-.198-.283-.291-.429-.265-.412-.5-.845-.715-1.285-.629-1.286-1.003-2.704-1.246-4.111-.54-3.135-.203-6.445.494-9.527.615-2.719,1.791-4.931,3.093-7.391,1.445-2.728-2.697-5.157-4.145-2.423h0Z"/><path class="e" d="M177.775,129.266c1.338-2.733,1.934-5.744,2.352-8.738.506-3.626.766-7.278.831-10.938.051-2.9.006-5.812-.299-8.698-.12-1.134-.297-2.555,1.194-2.648.322-.02.361.062.568.337.41.545.476,1.421.587,2.123.707,4.449,1.465,8.889,2.154,13.341.198,1.282,1.806,1.991,2.952,1.676,1.369-.376,1.875-1.666,1.676-2.952-.68-4.397-1.428-8.782-2.128-13.176-.331-2.079-1.069-4.161-2.95-5.337-2.121-1.327-4.917-.876-6.796.669-3.03,2.492-1.905,6.557-1.791,9.945.128,3.801.02,7.618-.31,11.406-.176,2.024-.427,4.04-.832,6.032-.176.867-.38,1.729-.631,2.577-.119.4-.247.798-.391,1.19-.067.183-.134.366-.211.545.16-.373-.069.12-.119.222-.57,1.164-.315,2.596.861,3.284,1.056.618,2.712.308,3.284-.861h0Z"/><path class="e" d="M185.188,95.017c-.447-3.071-.985-6.02-1.008-9.147-.004-.595.309-1.476,1.223-.809.879.642,1.324,1.901,1.664,2.895,2.152,6.292,3.464,12.959,4.719,19.473.245,1.273,1.773,2,2.952,1.676,1.332-.366,1.922-1.675,1.676-2.952-1.192-6.185-2.515-12.399-4.379-18.422-.904-2.92-2.283-6.352-5.459-7.414-3.859-1.291-7.327,1.877-7.19,5.722.123,3.447.678,6.848,1.174,10.256.187,1.284,1.814,1.989,2.952,1.676,1.377-.379,1.864-1.665,1.676-2.952h0Z"/><path class="e" d="M186.077,81.429c.025-1.249-.038-2.275.904-3.071.967-.819,2.379-.821,3.38-.341.492.236.699.439.924.76.417.595.667,1.268.907,1.946.317.895.591,1.804.862,2.714,1.517,5.085,3.021,10.241,4.074,15.445.9,4.447,1.367,9.047,1.728,13.565.103,1.292,1.029,2.4,2.4,2.4,1.219,0,2.504-1.101,2.4-2.4-.39-4.888-.92-9.858-1.866-14.674-.571-2.906-1.369-5.776-2.14-8.633-.779-2.89-1.564-5.786-2.476-8.637-1.111-3.473-2.74-6.646-6.63-7.454-2.526-.525-5.276.251-7.112,2.068-1.734,1.716-2.109,3.973-2.156,6.312-.062,3.09,4.738,3.09,4.8,0h0Z"/><path class="g" d="M49.876,180.465c.309,20.541,1.141,74.312,1.464,94.589.07,4.37,3.629,7.867,7.999,7.865,26.143-.013,109.815-.013,135.957,0,4.37.002,7.93-3.495,7.999-7.865.324-20.277,1.155-74.049,1.464-94.59.067-4.466-3.529-8.116-7.995-8.116-26.788-.002-112.128,0-138.897,0-4.466,0-8.06,3.651-7.993,8.117Z"/><path class="e" d="M47.476,180.465c.27,17.918.547,35.835.825,53.753.146,9.436.293,18.871.441,28.307.056,3.586.113,7.172.17,10.758.038,2.384.178,4.645,1.382,6.779,1.308,2.319,3.549,4.068,6.092,4.833,1.765.531,3.624.424,5.443.423,1.389,0,2.779-.001,4.168-.002,3.406-.001,6.811-.002,10.217-.003,8.508-.002,17.016-.003,25.525-.004,19.091-.002,38.183-.001,57.274,0,8.07,0,16.141.002,24.211.004,3.077,0,6.154.002,9.23.003,1.608,0,3.242.091,4.831-.197,2.648-.48,4.981-2.078,6.535-4.25,2.427-3.391,1.909-7.845,1.972-11.801.064-4.042.127-8.084.19-12.126.154-9.867.308-19.735.46-29.602.151-9.79.302-19.581.452-29.371.061-3.978.122-7.956.182-11.934.065-4.291.605-8.679-2.274-12.264-1.798-2.239-4.492-3.572-7.34-3.794-1.352-.105-2.735-.03-4.091-.03-3.124,0-6.248,0-9.371,0-8.107,0-16.215,0-24.322,0-19.124,0-38.248,0-57.371,0-8.61,0-17.219,0-25.829,0-6.198,0-12.412-.127-18.609,0-5.778.119-10.355,4.728-10.393,10.517-.02,3.089,4.78,3.093,4.8,0,.014-2.117,1.053-4.002,2.922-5.041,1.445-.804,3.05-.675,4.644-.675,2.912,0,5.823,0,8.735,0,7.598,0,15.196,0,22.794,0,18.633,0,37.266,0,55.899,0,15.337,0,30.674,0,46.011,0,1.272,0,2.565-.065,3.835.008,2.062.118,3.937,1.427,4.777,3.316.696,1.565.453,3.362.427,5.03-.026,1.709-.052,3.417-.078,5.126-.133,8.713-.266,17.426-.401,26.139-.283,18.391-.568,36.783-.859,55.174-.052,3.269.672,7.554-2.245,9.818-2.27,1.762-5.803,1.159-8.515,1.158-7.02-.003-14.039-.004-21.059-.005-18.242-.003-36.484-.003-54.726-.003-16.147,0-32.295.002-48.442.007-1.389,0-2.779,0-4.168.002-1.482,0-3.068.178-4.479-.353-1.869-.703-3.261-2.423-3.561-4.401-.22-1.453-.086-3.041-.11-4.511-.13-8.208-.258-16.417-.386-24.625-.294-18.87-.586-37.74-.873-56.611-.049-3.184-.097-6.368-.145-9.552-.046-3.086-4.847-3.095-4.8,0Z"/><path class="d" d="M64.904,269.513c12.136-.077,37.363.001,62.414.087,25.051-.086,48.653-.164,60.789-.087"/><path class="d" d="M120.348,223.213c-.005,2.459-.009,6.243.01,8.849.009,1.241,1.02,2.237,2.261,2.233,2.585-.009,6.814-.009,9.399,0,1.241.004,2.252-.992,2.261-2.233.018-2.606.015-6.39.01-8.849-.003-1.242-1.007-2.243-2.249-2.243-2.601,0-6.842,0-9.443,0-1.242,0-2.246,1.001-2.249,2.243Z"/></g></svg>