<?xml version="1.0" encoding="UTF-8"?><svg id="b" xmlns="http://www.w3.org/2000/svg" width="473.966" height="296.646" viewBox="0 0 473.966 296.646"><defs><style>.d{fill:#fff;}.e{fill:none;}.f{fill:#211715;}.g{fill:#c6c6c6;}.h{fill:#4d4544;}</style></defs><g id="c"><path class="d" d="M47.506,201.9c2.8-.54,5.7-1.09,8.69-1.66l92.25-17.62c50.11-9.57,112.01-21.39,151.98-29.04,14.17,3.9,35.99,9.91,46.76,12.93,0,0,3.73.74,7.13,1.41v79.14c-12.09,3.32-147.44,43.73-162.05,47.58L1.976,210.61c2.97-.57,7.44-1.42,13.21-2.53,8.29-1.59,19.27-3.69,32.32-6.18Z"/><path class="d" d="M37.006,196.62c3.2,2.26,6.79,3.94,10.5,5.28-13.05,2.49-24.03,4.59-32.32,6.18l-.19-1.02c0-6.55.1-36.09.1-47.06,0-6.94,4.37-12.67,10.82-14.55l.89.08c-.52,6.11-.67,12.25-.81,18.39-.2,8.26-.3,16.95,3.57,24.26,1.78,3.34,4.35,6.26,7.44,8.44Z"/><path class="d" d="M358.886,68.95l2.62,1.31c3.27,1.49,6.58,3,10.11,3.68,3.25.62,6.6.52,9.89.83.61.05,1.23.13,1.74.45.64.41,1,1.14,1.31,1.83,1.97,4.5,4.13,11.39,3.6,16.38l3.03.43c1.09-1,2.25-1.75,3.86-2.01,1.81-.28,3.5.1,4.73,1.18,1.82,1.6,2.45,4.66,2.11,7.1-.64,4.51-2.66,7.84-5.92,10.15l.33,1.59c.68,3.15,3,7.95,5.39,10.38,2.54,2.58,9.16,4.66,13.21,5.34l2.7.64c-.25.57-.43,1.15-.53,1.74-6.08.06-12.16,1.05-18.05,2.62-5.64,1.51-11.38,3.76-15.88,7.36l-1.46-1.51c-1.26-3.53-2.9-6.39-2.95-6.55-.34-.93-1.32-1.49-2.29-1.27-4.05.91-10.2.05-14.64-1.8-2.27-.94-4.42-2.68-6.02-6.05-.75-1.58-1.3-3.69-1.69-5.85-.59-3.28-.82-6.69-.84-8.64-.33-1.44-.9-2.79-1.9-3.96-1.51-1.78-4.01-3.22-2.58-6.13.55-1.1,1.54-1.9,2.65-2.44,5.58-2.71,6.17-10.98,6.6-16.93-.01-2.81.21-5.41.62-7.81.07-.72.16-1.41.25-2.06Z"/><path class="f" d="M16.994,207.059c0-7.398.031-14.797.051-22.195.022-8.403-.145-16.829.053-25.23.135-5.724,3.89-10.601,9.351-12.258,2.457-.745,1.41-4.607-1.063-3.857-5.41,1.641-9.707,5.688-11.463,11.093-1.316,4.052-.83,8.654-.837,12.863-.017,9.572-.046,19.144-.07,28.716-.009,3.623-.021,7.245-.021,10.868,0,2.574,4,2.578,4,0h0Z"/><path class="f" d="M192.802,296.571c5.874-1.552,11.697-3.321,17.528-5.024,10.516-3.072,21.023-6.172,31.53-9.275,12.235-3.613,24.468-7.235,36.701-10.856,10.718-3.172,21.436-6.346,32.157-9.508,6.249-1.842,12.491-3.711,18.76-5.484.31-.088.621-.175.931-.26,2.479-.681,1.427-4.541-1.063-3.857-5.529,1.519-11.019,3.19-16.519,4.81-10.341,3.045-20.677,6.106-31.014,9.165-12.223,3.618-24.446,7.237-36.671,10.85-10.868,3.212-21.738,6.42-32.614,9.605-6.56,1.921-13.114,3.875-19.706,5.685-.361.099-.722.197-1.083.293-2.487.657-1.432,4.516,1.063,3.857h0Z"/><path class="f" d="M2.506,212.536c12.565-2.401,25.128-4.811,37.693-7.211,5.509-1.052,11.017-2.104,16.526-3.154,2.526-.482,1.456-4.338-1.063-3.857-15.735,3.001-31.468,6.01-47.201,9.022-2.339.448-4.678.896-7.018,1.343-2.526.483-1.456,4.339,1.063,3.857h0Z"/><path class="f" d="M347.72,164.578c-12.143-3.399-24.302-6.742-36.459-10.094-3.431-.946-6.862-1.891-10.292-2.837-2.485-.685-3.546,3.173-1.063,3.857,12.739,3.51,25.479,7.018,38.212,10.552,2.847.79,5.694,1.582,8.539,2.378,2.483.695,3.543-3.163,1.063-3.857h0Z"/><path class="d" d="M151.245,199.513c-2.47-1.051-4.393-1.881-5.578-2.413,25.715-5.33,71.02-14.127,98.866-19.959,13.375,4.626,38.473,12.952,55.888,18.872l4.284,1.456c-30.634,7.096-71.54,16.832-101.661,23.758-15.904-6.709-40.045-16.713-51.8-21.714Z"/><path class="f" d="M194.923,188.863c17.699,6.743,35.487,13.251,53.239,19.853,5.086,1.891,10.17,3.786,15.25,5.693,1.011.38,2.192-.422,2.46-1.397.308-1.122-.382-2.079-1.397-2.46-18.571-6.969-37.191-13.806-55.77-20.753-4.244-1.587-8.485-3.179-12.719-4.792-1.01-.385-2.193.426-2.46,1.397-.309,1.126.384,2.074,1.397,2.46h0Z"/><path class="f" d="M152.255,197.786c-1.864-.793-3.729-1.585-5.578-2.413l-.478,3.655c12.259-2.54,24.539-4.984,36.816-7.434,13.838-2.761,27.678-5.511,41.509-8.309,6.851-1.386,13.7-2.783,20.541-4.215h-1.063c16.049,5.548,32.179,10.863,48.269,16.293,3.97,1.34,7.937,2.687,11.903,4.036v-3.857c-26.783,6.205-53.531,12.557-80.303,18.805-7.117,1.661-14.236,3.315-21.358,4.953h1.063c-14.039-5.921-28.114-11.756-42.164-17.65-3.055-1.282-6.109-2.566-9.158-3.862-.993-.422-2.143-.297-2.736.718-.491.84-.282,2.311.718,2.736,8.438,3.589,16.905,7.112,25.366,10.646,4.855,2.028,9.711,4.055,14.564,6.086,2.306.965,4.612,1.931,6.917,2.899,1.085.456,2.17.912,3.255,1.368,1.23.518,2.233,1.114,3.596.834,10.586-2.174,21.09-4.887,31.612-7.352,11.211-2.626,22.42-5.263,33.629-7.896,12.018-2.822,24.036-5.642,36.062-8.428,2.034-.471,1.764-3.258,0-3.857-10.281-3.495-20.573-6.955-30.867-10.412-5.423-1.821-10.846-3.642-16.266-5.472-2.493-.842-4.984-1.686-7.475-2.535-.969-.33-1.938-.662-2.907-.994-1.135-.389-2.513-1.12-3.721-.915-4.835.821-9.637,1.999-14.443,2.978-5.46,1.112-10.922,2.214-16.386,3.31-11.422,2.293-22.847,4.564-34.271,6.845-11.261,2.249-22.522,4.496-33.766,6.826-1.597.331-2.044,2.955-.478,3.655,1.849.827,3.714,1.619,5.578,2.413.993.423,2.143.297,2.736-.718.492-.84.282-2.311-.718-2.736Z"/><path class="e" d="M56.82,154.171c-1.122,5.915-2.245,11.83-3.367,17.746"/><path class="d" d="M61.879,50.747c-1.11-.729-2.473-.854-3.585-.64-2.421.467-3.259,1.886-3.587,2.692-.978,2.41-.279,6.447,1.015,8.812.912,1.672,2.293,3.986,5.098,5.535.883.485,3.104,1.136,5.109.841-1.479-.984,2.054,4.018,2.054,4.018,2.226,3.027,4.672,5.798,8.119,8.476v1.655c.657-.077,1.348.075,1.911.513,5.677,4.418,11.9,8.156,18.115,11.169,2.794-1.963,5.652-4.314,7.493-5.972v-1.843c3.849-1.002,7.334-2.955,10.654-5.902,5.253-4.662,7.335-11.765,7.875-19.547.275-3.954.296-8.253.77-12.517-.688-9.951-5.337-15.589-12.78-17.819,0,0-7.605-.687-16.735-.742-9.131-.056-11.82,1.827-11.82,1.827-3.288,1.785-5.555,6.056-6.397,9.718-1.859.673-2.806,1.631-3.724,2.773-.747.93-1.377,2.997-1.432,3.721-.044.58-.074,1.188-.093,1.814-1.719,1.77-2.6,2.642-4.16,2.588-1.171-.04-2.834-.686-3.902-1.169"/><path class="d" d="M85.707,126.39c-6.262-12.216-12.43-24.835-16.425-35.018l.534-.888,4.373-7.264c.778-1.126,2.604-1.523,3.824-.574,5.677,4.418,11.9,8.156,18.115,11.169,2.794-1.963,5.652-4.314,7.493-5.972.387-.348,1.584-.083,1.836.239,1.549,1.981,6.866,8.548,5.042,6.577-.951,12.617-10.439,59.221-10.439,59.221-4.099-7.876-9.258-17.55-14.354-27.492Z"/><path class="g" d="M61.879,50.747c1.067.483,2.731,1.129,3.902,1.169,1.559.054,2.441-.819,4.16-2.588.019-.626.049-1.235.093-1.814.055-.724.684-2.791,1.432-3.721.918-1.142,1.865-2.1,3.724-2.773.842-3.661,3.109-7.933,6.397-9.718,0,0,2.689-1.882,11.82-1.827,9.131.056,16.735.742,16.735.742,7.767,2.326,12.491,8.366,12.851,19.145.598-2.98.867-6.324.871-9.605.019-3.827-.316-7.51-.913-10.368-1.36-6.5-5.004-13.886-9.826-17.834-7.092-7.377-14.977-9.55-25.82-9.55-7.255,0-17.94,2.206-27.312,13.149-4.294,5.278-6.013,8.796-7.216,14.898-.596,3.071-1.044,8.359-.686,11.46.229,1.908.637,5.008,1.356,7.99.309,1.28.674,2.538,1.108,3.671.088-.216.152-.374.152-.374.328-.806,1.166-2.224,3.587-2.692,1.112-.215,2.474-.09,3.585.64"/><path class="e" d="M115.317,13.67c3.724,4.147,6.488,10.247,7.633,15.72,1.062,5.075,1.292,12.752.19,19.218"/><path class="f" d="M113.936,15.014c7.668,8.318,9.031,21.384,7.426,32.14-.159,1.067.267,2.15,1.397,2.46.943.259,2.3-.322,2.46-1.397,1.829-12.26.28-26.557-8.455-36.031-1.749-1.897-4.572.937-2.828,2.828h0Z"/><path class="f" d="M56.494,52.669c-2.103-5.621-2.85-11.916-2.343-17.876.254-2.981.782-5.942,1.72-8.788.919-2.786,2.405-5.3,4.143-7.651,3.869-5.235,9.175-9.676,15.269-12.072,4.702-1.848,9.547-2.411,14.565-2.233,6.998.248,13.772,1.911,19.249,6.467,1.965,1.635,4.81-1.18,2.828-2.828-5.339-4.442-11.592-6.7-18.46-7.398-5.777-.587-11.696-.365-17.256,1.425-6.675,2.15-12.546,6.259-17.172,11.498s-7.537,11.302-8.505,18.241c-1.032,7.394-.531,15.233,2.104,22.279.378,1.011,1.352,1.701,2.46,1.397.971-.267,1.777-1.443,1.397-2.46h0Z"/><path class="f" d="M109.609,32.146c1.738.531,3.136,1.147,4.707,2.221,1.14.78,2.557,2.182,3.356,3.341,2.333,3.386,3.16,7.473,3.319,11.615.099,2.566,4.099,2.579,4,0-.184-4.802-1.159-9.823-3.991-13.814-2.537-3.576-6.158-5.948-10.328-7.221-2.468-.753-3.522,3.107-1.063,3.857h0Z"/><path class="f" d="M90.468,29.844c.054-.136.109-.272.166-.407l-.202.478c.409-.958.913-1.868,1.544-2.698l-.313.405c.633-.819,1.374-1.537,2.189-2.173l-.405.313c.314-.242.637-.471.967-.691.435-.29.778-.681.919-1.195.132-.479.072-1.116-.202-1.541-.559-.867-1.805-1.338-2.736-.718-1.279.852-2.5,1.835-3.458,3.045-.488.616-.946,1.244-1.328,1.932-.389.702-.705,1.443-1,2.188-.179.452-.033,1.139.202,1.541.243.415.718.811,1.195.919.512.117,1.087.091,1.541-.202.464-.299.717-.685.919-1.195h0Z"/><path class="f" d="M97.766,30.89c.167-.161.336-.319.51-.471.087-.076.176-.149.264-.224.137-.117.153-.126.001-.009.387-.298.796-.57,1.214-.823.396-.239.804-.459,1.221-.662.21-.102.423-.197.636-.292.28-.126-.281.102.01-.002.138-.05.274-.108.412-.16.899-.335,1.822-.603,2.756-.819.507-.117,1.017-.219,1.53-.308.243-.042.487-.082.731-.119.038-.006.416-.062.194-.03-.248.036.3-.038.289-.036,1.034-.128,2.052-.828,2-2-.044-.973-.888-2.138-2-2-4.587.569-9.181,1.835-12.596,5.126-.755.727-.786,2.107,0,2.828.811.744,2.023.776,2.828,0h0Z"/><path class="f" d="M77.113,41.567c.213-.913.492-1.809.838-2.68.027-.068.054-.135.082-.202.056-.137.036-.09-.06.141.046-.027.095-.217.118-.268.101-.224.206-.445.315-.665.23-.462.479-.915.749-1.355.256-.417.535-.814.821-1.211.162-.225-.306.369-.002.005.077-.092.152-.185.23-.276.154-.181.313-.357.478-.528.323-.337.67-.643,1.027-.944.188-.159-.329.227-.024.022.094-.063.185-.131.279-.193.206-.137.417-.263.633-.383.916-.507,1.294-1.843.718-2.736-.598-.928-1.756-1.26-2.736-.718-3.914,2.168-6.334,6.701-7.321,10.928-.237,1.017.315,2.214,1.397,2.46,1.022.233,2.206-.307,2.46-1.397h0Z"/><path class="h" d="M129.913,194.51s8.223-2.819,9.828-3.589c3.396-1.629,6.055-4.155,6.055-4.155,2.673-2.445,2.772-6.81,2.599-10.149-.256-4.942-1.123-9.874-1.783-14.785-1.958-14.565-2.995-29.626-6.98-43.81-1.212-4.312-2.751-8.585-5.219-12.322-3.215-4.868-7.86-7.863-13.261-9.832-1.681-.613-10.305-2.943-10.305-2.943,0,0-.141-.038-.278-.077.092,8.964-10.508,61.034-10.508,61.034-9.362-17.985-24.245-45.352-31.293-63.861l-.142.053-12.236,4.593c-11.761,4.597-18.796,11.146-23.34,21.315-1.282,2.869-2.553,6.948-3.245,10.014-1.345,5.955-2.307,11.996-2.878,18.074-.619,6.595-.777,13.224-.934,19.846-.197,8.268-.299,16.955,3.577,24.26,1.774,3.343,4.344,6.261,7.436,8.444,4.27,3.013,9.229,5.004,14.235,6.505,2.728.818,16.643,3.563,24.24,3.562h19.657l34.776-12.177Z"/><path class="h" d="M92.038,115.74c.024-.832.032-1.409.023-1.635-.043-1.017-1.386-6.472-2.009-9.386l-.128-.436c1.58-1.84,3.17-3.479,4.97-5.289.182-.183.382-.365.634-.439.538-.159,1.065.235,1.486.594,1.725,1.47,3.165,2.681,4.864,4.246-.02.244-.033.41-.033.41-.2,1.883-.646,5.24-.749,6.877-.141,2.223,1.617,10.006,3.044,16.019,0,0,.267,1.135.676,2.876-2.45,12.991-4.754,24.308-4.754,24.308-2.759-5.3-5.997-11.414-9.373-17.877.077-1.096.127-1.814.127-1.814.647-5.036,1.11-14.546,1.223-18.452Z"/><path class="f" d="M75.48,204.687c-5.042-.02-10.095-.814-15.05-1.68-4.072-.712-8.077-1.513-11.982-2.889-5.962-2.101-11.99-5.205-15.677-10.527-3.73-5.386-4.682-11.93-4.83-18.341-.167-7.223.133-14.522.57-21.731.459-7.581,1.463-15.105,3.116-22.52,1.261-5.654,3.22-11.157,6.409-16.022,2.74-4.18,6.405-7.646,10.64-10.285,6.282-3.914,13.588-6.102,20.48-8.689,1.011-.379,1.702-1.351,1.397-2.46-.267-.97-1.444-1.778-2.46-1.397-6.23,2.339-12.749,4.37-18.644,7.49-4.873,2.579-9.31,6.033-12.731,10.377-3.741,4.749-6.246,10.213-7.939,15.997-2.09,7.138-3.159,14.669-3.853,22.061-.739,7.869-.936,15.818-1.005,23.719-.06,6.884.396,13.927,3.35,20.253,2.916,6.242,8.246,10.659,14.373,13.578,5.089,2.424,10.345,3.882,15.853,4.907,5.898,1.097,11.967,2.137,17.982,2.16,2.574.01,2.578-3.99,0-4h0Z"/><path class="f" d="M147.211,188.181c2.606-2.521,3.24-6.222,3.238-9.705-.003-4.315-.686-8.632-1.301-12.893-1.287-8.914-2.172-17.878-3.402-26.8-1.205-8.742-2.653-17.672-5.681-25.995-1.419-3.902-3.272-7.674-6.005-10.832-2.376-2.744-5.423-4.908-8.686-6.471-4.424-2.119-9.282-3.214-13.997-4.489-2.488-.673-3.55,3.185-1.063,3.857,3.435.929,6.95,1.753,10.305,2.943,3.113,1.104,6.153,2.746,8.619,4.958,2.723,2.444,4.638,5.533,6.092,8.87,3.3,7.575,4.736,16.118,5.981,24.236,1.276,8.318,2.079,16.699,3.178,25.041.637,4.835,1.489,9.651,1.833,14.52.228,3.227.606,7.468-1.939,9.93-1.854,1.793.977,4.62,2.828,2.828h0Z"/><path class="f" d="M75.48,208.687h15.39c1.519,0,3.357.287,4.851-.09,1.287-.324,2.557-.895,3.808-1.333,10.207-3.574,20.41-7.16,30.621-10.722,6.057-2.113,12.267-3.846,17.06-8.361,1.878-1.769-.955-4.594-2.828-2.828-1.196,1.127-2.555,2.094-3.965,2.933-.566.337-1.147.637-1.735.932-.478.24.071-.018-.252.109-.769.303-1.543.595-2.32.88-2.245.823-4.506,1.603-6.764,2.388-3.826,1.33-7.645,2.677-11.468,4.016l-17.84,6.247c-1.657.58-3.341,1.112-4.979,1.743-.088.034-.344.067-.403.141-.09.112.758.005.332-.053-.791-.108-1.673,0-2.469,0h-17.04c-2.574,0-2.578,4,0,4h0Z"/><path class="f" d="M56.113,140.244c-1.122,5.915-2.245,11.83-3.367,17.746-.201,1.06.296,2.158,1.397,2.46.977.268,2.258-.33,2.46-1.397,1.122-5.915,2.245-11.83,3.367-17.746.201-1.06-.296-2.158-1.397-2.46-.977-.268-2.258.33-2.46,1.397h0Z"/><path class="e" d="M118.598,95.57c-2.818-1.065-7.801-2.541-10.464-3.662-1.343-.433-2.597-1.387-3.407-2.585"/><path class="f" d="M92.519,55.191c.37-1.627-.223-5.26-3.258-5.345-3.979.322-3.86,4.76-2.364,6.739,1.225,1.62,4.504,2.086,5.622-1.393Z"/><path class="f" d="M115.74,54.17c.333-1.63-.224-5.277-3.004-5.374-3.643.308-3.517,4.76-2.139,6.75,1.128,1.63,4.133,2.109,5.144-1.376Z"/><path class="f" d="M100.528,60.243c.294.452.578.91.856,1.372.299.496.612.999.851,1.528l-.202-.478c.051.123.091.245.112.376l-.071-.532c.006.062.006.118,0,.181l.071-.532c-.005.039-.014.076-.028.113l.202-.478c-.014.037-.032.072-.054.104l.313-.405c-.093.117-.202.218-.319.311l.405-.313c-.1.073-.203.135-.316.186l.478-.202c-.153.062-.309.096-.472.119l.532-.071c-.273.035-.548.062-.818.113-.469.088-.962.52-1.195.919-.251.429-.357,1.061-.202,1.541.157.484.457.951.919,1.195.498.263.987.306,1.541.202.039-.007.079-.014.118-.02l-.532.071c.373-.05.765-.063,1.121-.192.558-.201,1.06-.486,1.472-.921.302-.318.564-.692.673-1.125.124-.493.109-.84.018-1.329-.079-.429-.291-.826-.495-1.209-.464-.872-.987-1.717-1.526-2.545-.283-.435-.687-.779-1.195-.919-.479-.132-1.116-.072-1.541.202-.427.275-.803.685-.919,1.195s-.093,1.089.202,1.541h0Z"/><path class="f" d="M77.516,79.066c-2.423-1.893-4.61-4.049-6.547-6.436-.22-.272-.438-.545-.652-.822.226.292-.143-.19-.151-.201-.096-.127-.191-.254-.286-.382-.177-.239-.347-.482-.515-.727-.628-.915-1.256-1.841-1.783-2.819-.497-.922-1.85-1.289-2.736-.718-.937.604-1.249,1.75-.718,2.736,1.075,1.996,2.475,3.85,3.892,5.611,1.968,2.445,4.193,4.652,6.667,6.585.823.643,2.037.862,2.828,0,.659-.718.881-2.141,0-2.828h0Z"/><path class="f" d="M62.888,49.02c-2.611-1.589-6.15-1.225-8.447.77-1.771,1.539-2.278,4.017-2.182,6.265.213,5.021,3.076,10.613,7.729,12.908,2.621,1.293,5.997,1.557,8.634.21.962-.491,1.241-1.842.718-2.736-.572-.977-1.771-1.21-2.736-.718-.827.422-2.118.4-2.97.24-.546-.103-1.066-.263-1.592-.436-.405-.133.249.151-.097-.045-.293-.166-.585-.329-.866-.514-1.775-1.171-3.13-3.108-3.916-4.927-.467-1.08-.774-2.326-.87-3.466-.056-.664-.079-1.352.005-2.014-.011.09.101-.491.133-.61.048-.178.428-.958.093-.343.084-.154.163-.308.25-.46.051-.089.343-.412.055-.092.427-.475.431-.487.991-.739.883-.397,2.054-.446,3.05.16,2.205,1.342,4.217-2.116,2.019-3.454h0Z"/><path class="f" d="M82.106,85.581c8.647,3.544,18.416,4.738,27.04.459,4.015-1.992,7.702-5.027,10.177-8.781,2.421-3.672,3.716-8.029,4.349-12.348.878-5.989.565-12.074,1.396-18.067.148-1.069-.259-2.148-1.397-2.46-.935-.257-2.311.32-2.46,1.397-1.245,8.979.149,18.909-4.067,27.252-3.659,7.242-11.617,11.654-19.616,11.79-4.997.085-9.764-1.216-14.359-3.099-1-.41-2.199.444-2.46,1.397-.315,1.147.393,2.049,1.397,2.46h0Z"/><path class="e" d="M62.05,92.925c3.74-1.127,9.447-2.974,10.721-6.03.471-1.136.739-2.355.914-3.565.222-1.487.305-2.549.379-4.239"/><path class="f" d="M103.68,70.688c-1.445-.083-2.892-.139-4.339-.177-.734-.02-1.468-.034-2.202-.038-.378-.002-.748.011-1.124.055-.338.039-.674.093-1.012.136.529-.067-.191.016-.286.025-1.039.095-2.051.852-2,2,.045,1.002.884,2.101,2,2,.219-.02.437-.046.655-.074.232-.031.463-.062.694-.094.233-.032.215-.03-.052.007.356-.087.76-.057,1.124-.055.734.004,1.468.019,2.202.038,1.447.039,2.894.094,4.339.177,1.046.06,2.046-.963,2-2-.051-1.135-.879-1.936-2-2h0Z"/><path class="f" d="M60.869,52.474c1.627.731,3.528,1.577,5.357,1.431.937-.075,1.835-.351,2.612-.891.834-.579,1.552-1.283,2.258-2.006.732-.749.802-2.092,0-2.828-.791-.726-2.047-.799-2.828,0-.295.302-.591.603-.897.893-.132.125-.266.247-.403.366-.067.058-.16.112-.216.181.035-.043.37-.267.151-.118-.124.084-.245.171-.375.246-.068.04-.14.074-.208.114-.244.144.225-.087.225-.087-.048.071-.354.118-.435.137-.02.005-.171.049-.181.036,0,0,.598-.042.202-.035-.151.003-.3.009-.451,0-.017-.001-.21-.017-.21-.018,0-.008.571.091.146.014-.357-.065-.708-.157-1.054-.263-.357-.109-.71-.234-1.059-.368-.166-.064-.328-.143-.496-.199.059.02.414.179.169.07-.096-.042-.191-.084-.287-.127-.505-.227-.986-.355-1.541-.202-.464.128-.967.486-1.195.919-.462.874-.301,2.278.718,2.736h0Z"/><path class="f" d="M67.887,93.258c6.822,16.895,15.446,33.054,23.907,49.167,2.182,4.155,4.371,8.305,6.539,12.468.77,1.478,3.315,1.197,3.655-.478,1.207-5.931,2.371-11.87,3.516-17.814,2.011-10.441,3.991-20.897,5.626-31.404.611-3.93,1.338-7.938,1.435-11.924.062-2.575-3.938-2.574-4,0-.084,3.478-.596,6.284-1.087,9.527-.756,4.996-1.62,9.976-2.511,14.95-1.752,9.774-3.63,19.526-5.565,29.266-.42,2.113-.841,4.225-1.27,6.336l3.655-.478c-8.269-15.881-16.816-31.631-24.403-47.855-1.978-4.23-3.891-8.493-5.64-12.823-.404-1.001-1.333-1.707-2.46-1.397-.95.261-1.804,1.453-1.397,2.46h0Z"/><path class="f" d="M116.701,103.393c1.658,1.949,3.217,3.968,4.614,6.114l.313-2.424c-1.631,2.096-3.251,4.439-4.835,6.398-.704.871-.793,1.959,0,2.828,1.915,2.101,3.831,4.203,5.746,6.304l-.514-1.946c-2.008,8.17-4.012,16.34-6.014,24.512-.612,2.5,3.244,3.566,3.857,1.063,1.497-6.111,2.996-12.222,4.496-18.332.317-1.29.633-2.579.95-3.869.277-1.126.994-2.777.366-3.851-.657-1.123-1.879-2.124-2.75-3.079-1.103-1.21-2.206-2.42-3.309-3.63v2.828c1.639-2.028,3.436-4.602,4.835-6.398.532-.683.835-1.621.313-2.424-1.581-2.427-3.364-4.718-5.239-6.923-1.67-1.964-4.488.877-2.828,2.828h0Z"/><path class="f" d="M60.503,101.225c-1.964,3.126-3.501,6.593-4.232,10.222-.23,1.139.325,2.052,1.397,2.46,2.435.928,4.944,1.685,7.323,2.752l-.405-3.141c-2.149,2.145-4.006,4.561-6.154,6.706-.572.571-.831,1.721-.313,2.424,6.203,8.406,11.956,17.131,18.071,25.6.631.874,1.74,1.3,2.736.718.864-.505,1.353-1.856.718-2.736-6.115-8.469-11.867-17.194-18.071-25.6l-.313,2.424c2.149-2.145,4.006-4.561,6.154-6.706.832-.83.793-2.604-.405-3.141-2.7-1.211-5.517-2.103-8.279-3.155l1.397,2.46c.67-3.324,2.031-6.404,3.829-9.266,1.373-2.186-2.086-4.196-3.454-2.019h0Z"/><path class="f" d="M104.611,103.217c-1.386-1.321-2.81-2.598-4.262-3.845-1.559-1.339-3.502-3.623-5.771-2.571-.944.438-1.653,1.335-2.37,2.068-.687.703-1.367,1.412-2.033,2.134-1.455,1.576-2.819,3.223-4.131,4.92-.661.855-.13,2.241.718,2.736,1.033.604,2.074.14,2.736-.718,2.04-2.641,4.345-5.083,6.711-7.434.167-.166.397-.23.046-.131-.246.178-.527.199-.842.063l.208.132c.1.152.47.407.672.579.596.507,1.192,1.015,1.783,1.527,1.262,1.094,2.498,2.215,3.708,3.367,1.864,1.776,4.697-1.048,2.828-2.828h0Z"/><path class="f" d="M106.067,126.168c-1.007-4.248-2.045-8.511-2.736-12.824-.482-3.007.169-6.364.512-9.54.116-1.076-1.002-2-2-2-1.178,0-1.883.921-2,2-.212,1.962-.481,3.918-.667,5.884-.143,1.516.023,2.945.255,4.449.681,4.406,1.751,8.76,2.778,13.095.594,2.504,4.451,1.444,3.857-1.063h0Z"/><path class="f" d="M88.123,105.251c.608,2.825,1.36,5.627,1.876,8.471.033.181.072.363.093.547-.062-.541-.028-.202-.029-.074-.002.22,0,.441-.004.661-.014.909-.049,1.818-.085,2.726-.215,5.536-.466,11.11-1.159,16.61-.135,1.073,1.016,2,2,2,1.193,0,1.864-.923,2-2,.704-5.58.956-11.237,1.169-16.854.06-1.584.156-3.114-.128-4.679-.516-2.844-1.267-5.646-1.876-8.471-.542-2.515-4.399-1.451-3.857,1.063h0Z"/><path class="f" d="M100.675,109.489c-2.462.133-4.928.228-7.392.31-1.044.035-2.049.895-2,2,.047,1.054.88,2.037,2,2,2.464-.082,4.93-.177,7.392-.31,1.043-.057,2.05-.879,2-2-.046-1.035-.881-2.061-2-2h0Z"/><path class="f" d="M111.332,92.302c-1.074-1.377-2.165-2.74-3.253-4.106-1.001-1.257-1.753-2.328-3.489-2.482-1.87-.166-3.002,1.292-4.315,2.394-1.665,1.397-3.381,2.727-5.155,3.983h2.019c-4.002-1.951-7.894-4.123-11.625-6.552-1.963-1.278-3.882-2.625-5.746-4.045-1.563-1.19-3.232-1.768-5.141-1.015-1.986.783-2.867,2.904-3.902,4.622l-2.634,4.375c-1.331,2.211,2.126,4.224,3.454,2.019l2.251-3.739,1.51-2.508c.157-.26.312-.521.47-.78.211-.346-.004-.113.111-.175.434-.232.671-.198,1.086.056.926.568,1.779,1.358,2.662,1.995,1.644,1.187,3.327,2.321,5.041,3.404,3.37,2.128,6.864,4.05,10.446,5.796.612.298,1.417.426,2.019,0,1.48-1.047,2.924-2.144,4.339-3.277.65-.52,1.294-1.049,1.929-1.588.288-.244.575-.49.859-.738.348-.303.922-.539.04-.258-.129.041-.365-.468-.129-.014.114.219.335.424.486.615.414.522.829,1.042,1.243,1.563.869,1.092,1.739,2.183,2.597,3.284.665.853,2.131.698,2.828,0,.842-.842.666-1.974,0-2.828h0Z"/><path class="f" d="M71.923,50.453c.004-.589.016-1.178.042-1.766.012-.282.027-.563.046-.845.004-.06-.012-.331.029-.392.012-.017-.113.581-.038.307.092-.339.154-.684.259-1.021.062-.2.13-.399.202-.596.043-.117.108-.242.14-.362-.049.179-.149.339-.022.065.086-.185.178-.368.28-.545.047-.082.102-.161.148-.243.17-.299-.259.306-.089.101.266-.32.531-.638.825-.933.148-.148.301-.291.46-.427.288-.246-.036-.057-.053.03.012-.058.226-.162.271-.193.193-.131.392-.251.596-.362.108-.059.218-.116.329-.169.096-.046.531-.227.1-.052.502-.204.911-.433,1.195-.919.251-.429.357-1.061.202-1.541-.302-.932-1.422-1.819-2.46-1.397-2.142.871-4.176,2.382-5.205,4.517-.44.913-.827,1.899-1.02,2.898-.242,1.253-.228,2.573-.238,3.844-.008,1.046.925,2.048,2,2,1.09-.049,1.992-.879,2-2h0Z"/><path class="d" d="M133.668,191.76c-.978-4.083-3.137-8.011-6.567-10.293-3.379-2.248-7.563-2.896-11.518-2.693-2.152.111-10.139.703-10.949,3.425l-.322,1.263c-2.532-.391-5.116-.468-7.669-.349-3.923.183-8.03.401-11.327,2.727-1.55,1.093-2.904,2.441-4.175,3.841-1.026,1.13-1.444,2.5-1.602,4.085-.14,1.404-.083,2.935.192,4.433.431,2.348,1.397,4.613,2.979,6.168,1.432,1.407,3.301,2.313,5.242,2.825,3.315.873,6.739.687,10.119.434,1.154-.086,2.304.159,3.324.704,1.859.992,4.133,2.161,5.589,3.067,1.47.914,3.302,1.207,5.001.878.644-.125,1.301-.358,1.739-.846.438-.489.583-1.286.181-1.805,0,0-.602-.777-1.204-1.554.851.441,1.811.939,1.811.939.623.323,1.279.621,1.979.673.7.052,1.458-.187,1.866-.757.408-.571.773-1.967.265-2.616,0,0-.006-.007-.006-.008,6.42-.122,10.59-2.813,10.59-2.813,2.575-1.185,4.342-3.615,4.753-5.625.411-2.01.186-4.109-.291-6.103Z"/><path class="f" d="M106.563,182.731c-.053.148-.104.151.048.008.136-.128.121-.13.428-.293.571-.303,1.085-.488,1.738-.674,1.382-.395,2.811-.636,4.239-.791,3.557-.385,7.21-.411,10.596.904,4.057,1.576,6.612,5.202,7.822,9.265.621,2.084,1.151,4.608.452,6.74-.595,1.814-2.07,3.006-3.689,3.872-.046.025-.098.041-.145.063.677-.321-.084.029-.25.094-.691.27-1.391.517-2.096.746-2.402.782-4.866,1.347-7.366,1.701-1.07.152-1.657,1.514-1.397,2.46.316,1.151,1.386,1.549,2.46,1.397,3.662-.519,7.447-1.425,10.814-3.008,2.217-1.043,4.121-2.974,5.115-5.214,1.186-2.673.954-5.754.318-8.541-1.158-5.079-4.083-9.981-8.796-12.464-4.185-2.204-8.962-2.517-13.589-2.042-3.478.357-9.178.813-10.559,4.713-.861,2.431,3.002,3.477,3.857,1.063h0Z"/><path class="f" d="M109.064,193.999c2.084,1.277,4.095,2.675,5.984,4.227.959.788,1.891,1.607,2.796,2.457.452.425.897.857,1.335,1.297.219.22.428.45.651.665.008.007.309.326.134.119-.168-.199.107.178.136.224.013.021.125.286.05.093-.086-.22.036.153.048.203.022.092.048.185.061.279-.006-.043-.028-.287-.025-.055,0,.054-.017.452.01.212.025-.216-.025.089-.029.11-.013.066-.047.365-.002.054-.011.073-.094.283-.018.07-.055.154-.334.156.007.017.057-.023.256-.165.108-.048-.123.097.022.016.122.005-.119.013-.233.002-.351.009-.024.002-.325-.022-.099.002.249.026-.141-.03-.197-.044-.218-.054-.433-.111-.645-.183-.12-.04-.238-.085-.356-.131.032.012.261.118.058.022-.176-.083-.352-.167-.523-.261-.389-.213-.739-.476-1.099-.734-.944-.675-1.897-1.338-2.863-1.983-2.229-1.488-4.531-2.859-6.857-4.189-2.239-1.279-4.256,2.176-2.019,3.454,2.361,1.349,4.696,2.741,6.956,4.255,1.972,1.321,3.828,3.011,6.191,3.586,1.425.346,2.972.29,4.13-.706,1.052-.905,1.554-2.341,1.465-3.709-.097-1.476-.734-2.646-1.75-3.692s-2.08-2.057-3.179-3.022c-2.557-2.247-5.31-4.278-8.212-6.057-2.201-1.349-4.212,2.109-2.019,3.454h0Z"/><path class="f" d="M116.896,207.318c.175.271-.015.009.005-.011-.025-.192-.036-.212-.033-.06-.007.12-.004.131.009.033.06-.17-.049.191-.059.229-.024.095-.054.189-.088.281l.059-.143-.078.144.099-.119c-.028-.08.159.035-.094.054.3-.022-.261-.075-.068-.021.174.049-.186-.041-.15-.028-1.359-.498-2.665-1.302-3.919-2.073-2.782-1.71-5.454-3.589-8.331-5.142-2.266-1.223-4.288,2.23-2.019,3.454,3.67,1.98,7.002,4.515,10.668,6.499,1.894,1.026,4.213,1.944,6.185.539,1.632-1.162,2.4-3.905,1.266-5.655-.586-.906-1.774-1.28-2.736-.718-.901.527-1.307,1.826-.718,2.736h0Z"/><path class="f" d="M123.581,202.384c4.216-1.646,2.073-6.108.293-8.82-2.021-3.081-4.691-5.672-7.762-7.698-6.96-4.591-15.437-5.397-23.553-4.467-4.301.493-7.853,1.976-11.008,4.982-1.421,1.354-2.784,2.765-3.465,4.64-.619,1.705-.709,3.676-.574,5.471.278,3.697,1.572,7.547,4.536,9.95,3.328,2.699,7.683,3.428,11.864,3.393,2.276-.019,4.731-.688,6.827.41,1.937,1.014,3.808,2.194,5.76,3.168,1.991.993,4.445,1.327,6.593.641,2.337-.747,3.831-3.132,2.54-5.439-1.257-2.247-4.714-.232-3.454,2.019-.488-.871.41-.319-.339-.376-.28-.021-.75.136-1.046.146-.626.021-1.239-.065-1.832-.268-1.376-.469-2.696-1.477-3.982-2.165-1.359-.728-2.758-1.626-4.249-2.054-1.787-.513-3.612-.194-5.432-.118-3.129.129-6.512.038-9.326-1.504-2.563-1.405-3.82-3.848-4.318-6.653-.223-1.254-.27-2.608-.115-3.875.191-1.561.836-2.516,1.911-3.63,2.197-2.277,4.49-3.862,7.627-4.496,3.121-.631,6.512-.687,9.683-.532,3.261.159,6.535.794,9.531,2.124,2.839,1.26,5.442,3.02,7.612,5.244,1.115,1.142,2.091,2.381,2.921,3.744.386.634.797,1.306,1.077,1.995.074.182.116.4.196.577.084-.041.087.047.007.263.022-.256.16-.432.414-.528-1.006.393-1.704,1.342-1.397,2.46.264.959,1.448,1.792,2.46,1.397h0Z"/><path class="d" d="M187.371,53.645c.983.45,2.38.768,3.459.79,1.125.023,2.813-.987,3.437-2.426l.181-.043c2.137-7.498,3.103-12.498,12.538-18.61,3.007,2.518,6.46,4.337,9.752,5.505,4.491,1.593,7.475,1.049,12.216-.322.315.145.637.283.958.415.809.331,1.62.621,2.35.87,2.295.782,4.917,1.07,7.043,2.235,1.748.957,2.982,2.673,3.738,4.517.34.829.852,2.566,1.221,3.87-.527,4.188-.534,8.435-.804,12.325-.503,7.243-2.441,13.853-7.329,18.191-3.702,3.285-7.625,5.244-12.083,5.954-.57,2.481,1.925,3.824,3.852,4.487,1.168.515,2.892,1.113,4.67,1.713-1.696,3.018-3.205,5.534-5.059,8.456-1.904,3.002-4.425,6.211-6.745,7.979,0,0-.506.386-1.355,1.033-10.407-5.435-18.765-12.502-24.329-20.757,1.132-.728,2.02-1.569,2.425-2.541.438-1.057.688-2.191.851-3.317.218-1.463.292-2.484.363-4.219-2.259-2.008-4.029-4.09-5.67-6.322,0,0-3.288-4.655-1.912-3.739-1.866.275-3.932-.331-4.754-.782-2.61-1.441-3.895-3.594-4.744-5.151-1.205-2.201-1.855-5.958-.945-8.2.305-.75,1.085-2.07,3.338-2.505,1.035-.2,2.303-.083,3.336.595"/><path class="h" d="M185.486,93.855c-10.386,4.681-17.512,10.237-21.746,19.699-1.193,2.674-2.375,6.47-3.021,9.323-1.252,5.536-2.147,11.161-2.674,16.817-.576,6.142-.726,12.304-.875,18.466-.179,7.554-.278,15.476,3.132,22.195,34.229-6.537,72.477-13.843,104.974-20.054-1.481-11.262-2.972-22.535-4.453-33.797-.865-6.599-2.524-12.911-5.397-18.904-2.872-6.003-8.319-9.859-14.829-12.294-1.521-.567-6.301-2.405-6.301-2.405l-1.321-.508c-1.866,3.352-3.464,6.03-5.462,9.18-1.904,3.002-4.425,6.211-6.745,7.979,0,0-.506.386-1.355,1.033-9.743-5.088-17.69-11.607-23.231-19.193"/><path class="h" d="M185.49,93.853c2.515-1.097,6.658-2.581,10.197-3.795"/><path class="g" d="M194.449,51.967c2.137-7.498,3.103-12.498,12.538-18.61,3.007,2.518,6.46,4.337,9.752,5.505,4.491,1.593,7.475,1.049,12.216-.322.315.145.637.283.958.415.809.331,1.62.621,2.35.87,2.295.782,4.917,1.07,7.043,2.235,1.748.957,2.982,2.673,3.738,4.517.266.649.638,1.855.964,2.973l.294-.737c.8-3.006,1.26-7.43,1.005-10.689-.998-12.786-7.437-20.853-13.902-23.512-5.317-5.881-15.721-8.471-25.483-7.202-7.953,1.034-12.666,4.117-17.146,8.365-6.979,4.645-12.405,14.152-11.612,27.708.217,3.716.938,6.717,2.315,10.576l.853,2.391c.182-.447.364-.894.364-.894.305-.75,1.085-2.07,3.338-2.505,1.035-.2,2.303-.083,3.336.595.983.45,2.38.768,3.459.79,1.125.023,2.813-.987,3.437-2.426"/><path class="e" d="M190.831,15.25c7.171-5.374,13.91-6.808,20.687-6.648,10.74.252,19.475,4.168,25.436,10.824,3.441,3.843,5.992,9.492,7.045,14.559.989,4.761,1.185,11.992.11,18.025"/><path class="e" d="M185.528,19.414c-4.262,4.15-6.277,8.816-7.53,14.479-.628,2.851-.827,5.785-.557,8.684.293,3.122.729,10.476,3.159,14.344"/><path class="f" d="M200.562,35.77c-2.209,2.074-4.052,4.521-5.284,7.297-1.197,2.698-1.953,5.537-2.759,8.369-.295,1.038.362,2.176,1.397,2.46,1.052.289,2.164-.354,2.46-1.397.384-1.352.753-2.708,1.164-4.052.192-.627.393-1.25.612-1.868.102-.287.207-.572.317-.856.061-.157.123-.313.187-.468.14-.341-.191.413.074-.17,1.192-2.617,2.594-4.549,4.658-6.487.788-.74.747-2.082,0-2.828-.786-.786-2.039-.742-2.828,0h0Z"/><path class="f" d="M186.362,55.372c.886.396,1.783.707,2.741.871.97.166,1.919.284,2.887.042,1.655-.412,3.299-1.704,4.004-3.266.228-.505.354-.986.202-1.541-.128-.464-.486-.967-.919-1.195-.875-.462-2.277-.301-2.736.718-.066.147-.138.289-.222.426-.019.032-.162.208-.161.241,0-.031.315-.382.134-.175-.107.122-.215.242-.332.354-.07.067-.143.13-.216.194-.243.213.335-.239.141-.106-.258.177-.523.317-.796.468-.178.099.514-.185.196-.085-.067.021-.132.046-.199.067-.14.042-.281.074-.425.097l.532-.071c-.404.054-.816.007-1.218-.045l.532.071c-.44-.062-.875-.148-1.304-.264-.202-.055-.403-.115-.601-.182-.104-.035-.207-.076-.31-.112-.341-.121.435.193.091.039-.506-.227-.985-.355-1.541-.202-.464.128-.967.486-1.195.919-.461.872-.302,2.28.718,2.736h0Z"/><path class="f" d="M204.396,33.743c3.06,2.822,6.594,4.967,10.443,6.527,1.909.774,3.858,1.33,5.916,1.512,2.003.177,4.022-.133,5.972-.577,2.509-.572,1.447-4.429-1.063-3.857-1.575.359-3.127.568-4.745.449-1.726-.126-3.426-.731-5.016-1.384-3.178-1.305-6.154-3.17-8.678-5.499-1.89-1.743-4.726,1.079-2.828,2.828h0Z"/><path class="f" d="M219.013,32.991c3.64,4.497,8.504,7.665,14.088,9.173,2.675.722,5.635,1.082,7.264,3.594,1.23,1.896,1.701,4.231,2.296,6.384.685,2.478,4.545,1.426,3.857-1.063-.639-2.311-1.2-4.762-2.404-6.859-1.684-2.931-4.346-4.44-7.534-5.295-2.918-.782-5.944-1.466-8.519-3.128-2.361-1.523-4.456-3.455-6.22-5.634-.68-.84-2.121-.707-2.828,0-.831.831-.682,1.986,0,2.828h0Z"/><path class="f" d="M231.517,16.855c10.709,5.562,13.63,20.657,10.856,31.426-.643,2.494,3.214,3.558,3.857,1.063,3.205-12.442-.388-29.551-12.694-35.943-2.281-1.185-4.307,2.266-2.019,3.454h0Z"/><path class="f" d="M181.409,53.527c-2.287-6.475-3.022-13.279-1.596-20.047,1.094-5.193,3.433-10.059,7.261-13.783,1.849-1.798-.981-4.625-2.828-2.828-9.897,9.627-11.098,25.254-6.694,37.722.852,2.411,4.718,1.373,3.857-1.063h0Z"/><path class="f" d="M190.813,16.613c4.821-4.402,10.482-6.889,17.018-7.402,6.963-.546,14.459.695,20.165,4.94.867.645,2.234.142,2.736-.718.596-1.019.152-2.09-.718-2.736-6.311-4.695-14.915-6.141-22.609-5.451-3.885.349-7.664,1.208-11.213,2.845-3.046,1.405-5.74,3.439-8.208,5.692-1.905,1.74.93,4.562,2.828,2.828h0Z"/><path class="f" d="M221.966,87.567c.032,1.959,1.15,3.462,2.729,4.519.675.452,1.434.774,2.188,1.068.162.063.493.162.146.036.259.094.51.217.764.323.318.131.638.256.959.377,2.918,1.102,5.929,1.945,8.832,3.086,1.006.395,2.196-.434,2.46-1.397.312-1.135-.388-2.063-1.397-2.46-2.607-1.025-5.302-1.813-7.938-2.758-.572-.205-1.137-.423-1.703-.644-.507-.198.372.161-.095-.04-.238-.103-.478-.195-.719-.288-.137-.052-.275-.102-.411-.158.35.145-.038-.022-.104-.056-.302-.154-.602-.307-.886-.492-.039-.026-.425-.312-.241-.163s-.171-.163-.204-.195c-.051-.05-.367-.463-.139-.125-.064-.095-.119-.195-.18-.291-.089-.179-.102-.204-.04-.073.058.133.055.104-.01-.087l-.038-.171c.031.237.04.233.027-.011-.018-1.081-.907-2-2-2-1.071,0-2.018.915-2,2h0Z"/><path class="f" d="M188.062,94.826c3.219-.971,6.608-2.029,9.26-4.172,1.406-1.136,2.169-2.625,2.615-4.358.524-2.035.68-4.179.774-6.272.047-1.047-.954-2.047-2-2-1.124.05-1.95.879-2,2-.087,1.945-.155,3.217-.576,4.986-.107.448-.25.88-.39,1.317-.187.584.112-.131-.074.187-.079.135-.158.269-.238.403-.217.365.091-.049-.023.037-.127.095-.232.258-.346.37-.107.105-.218.207-.332.305-.081.07-.459.345-.084.077-.549.393-1.122.744-1.721,1.056-.344.179-.693.346-1.046.505-.057.025-.54.233-.345.152.181-.075-.375.149-.438.174-1.343.525-2.718.96-4.097,1.377-1.001.302-1.735,1.415-1.397,2.46.327,1.011,1.387,1.721,2.46,1.397h0Z"/><path class="f" d="M226.273,72.064c-1.345-.077-2.691-.129-4.038-.165-.683-.018-1.366-.032-2.05-.036-.352-.002-.696.01-1.046.051-.327.038-.652.091-.978.131.567-.069-.123.009-.23.018-1.039.095-2.051.852-2,2,.045,1.002.884,2.101,2,2,.204-.019.407-.043.61-.069.228-.03.455-.061.683-.092.229-.032.2-.028-.085.012.31-.102.723-.053,1.046-.051.683.004,1.367.018,2.05.036,1.347.036,2.693.088,4.038.165,1.046.06,2.046-.963,2-2-.051-1.135-.879-1.936-2-2h0Z"/><path class="f" d="M215.885,57.781c.344-1.514-.207-4.895-3.032-4.975-3.703.3-3.592,4.43-2.2,6.271,1.14,1.508,4.192,1.941,5.232-1.297Z"/><path class="f" d="M237.495,56.83c.31-1.517-.208-4.911-2.796-5.001-3.391.287-3.273,4.43-1.991,6.282,1.05,1.516,3.846,1.963,4.787-1.281Z"/><path class="f" d="M223.22,62.553c.274.421.538.847.797,1.277.278.462.569.93.792,1.422l-.202-.478c.048.114.085.228.104.35l-.071-.532c.005.058.006.11,0,.168l.071-.532c-.005.036-.013.071-.026.105l.202-.478c-.013.035-.03.067-.051.097l.313-.405c-.086.109-.188.203-.297.289l.405-.313c-.093.068-.189.125-.294.173l.478-.202c-.142.057-.287.09-.439.111l.532-.071c-.266.035-.534.06-.798.11-.469.088-.962.52-1.195.919-.251.429-.357,1.061-.202,1.541.157.484.457.951.919,1.195.498.263.987.306,1.541.202.037-.007.073-.013.11-.018l-.532.071c.359-.048.737-.06,1.081-.183.543-.195,1.03-.47,1.431-.893.297-.313.555-.682.662-1.108.123-.49.107-.826.017-1.311-.076-.411-.279-.792-.474-1.158-.432-.812-.919-1.598-1.42-2.368-.283-.435-.687-.779-1.195-.919-.479-.132-1.116-.072-1.541.202-.427.275-.803.685-.919,1.195s-.093,1.089.202,1.541h0Z"/><path class="f" d="M188.381,51.919c-2.484-1.512-5.846-1.16-8.029.738-1.674,1.456-2.162,3.801-2.071,5.928.201,4.72,2.888,9.973,7.261,12.132,2.485,1.227,5.675,1.472,8.175.196.962-.491,1.241-1.842.718-2.736-.572-.977-1.771-1.21-2.736-.718-.283.145-.877.275-1.172.289-.306.015-.612.011-.917-.01-.15-.01-.3-.024-.45-.042.166.019.126.009-.118-.029-.508-.098-.992-.246-1.482-.406-.39-.127.259.185-.057-.027-.257-.173-.545-.307-.806-.479-.905-.597-1.778-1.549-2.261-2.247-.259-.374-.498-.761-.726-1.154-.116-.201-.231-.404-.34-.609-.042-.078-.325-.659-.254-.492-.432-1.007-.725-2.238-.804-3.188-.052-.619-.071-1.256.005-1.875-.029.238.097-.449.119-.531.052-.193.42-.906.072-.286.079-.142.152-.287.233-.428.072-.127.332-.357.03-.057.158-.156.298-.325.477-.46-.311.235.346-.173.417-.206.263-.121.894-.261,1.305-.261.53,0,.899.109,1.393.41,2.205,1.342,4.217-2.116,2.019-3.454h0Z"/><path class="f" d="M202.022,79.902c-2.255-1.762-4.29-3.768-6.093-5.99-.205-.253-.407-.508-.607-.765.257.331-.098-.131-.119-.159-.089-.118-.178-.237-.266-.355-.165-.222-.323-.448-.479-.676-.585-.851-1.169-1.713-1.659-2.623-.497-.922-1.85-1.289-2.736-.718-.937.604-1.249,1.75-.718,2.736,1.006,1.868,2.318,3.602,3.644,5.25,1.831,2.276,3.902,4.33,6.204,6.128.823.643,2.037.862,2.828,0,.659-.718.881-2.141,0-2.828h0Z"/><path class="f" d="M206.158,86.196c8.069,3.304,17.2,4.419,25.246.426,3.714-1.843,7.119-4.63,9.441-8.078s3.555-7.547,4.157-11.614c.829-5.595.534-11.281,1.308-16.88.148-1.069-.259-2.148-1.397-2.46-.934-.257-2.311.32-2.46,1.397-1.154,8.344.139,17.585-3.776,25.337-3.361,6.656-10.667,10.734-18.019,10.893-4.677.101-9.137-1.116-13.437-2.877-1-.409-2.198.444-2.46,1.397-.315,1.146.393,2.049,1.397,2.46h0Z"/><path class="f" d="M162.027,179.344c-2.907-5.864-3.015-12.589-2.904-18.996.122-7.048.286-14.119.967-21.139.662-6.823,1.723-13.774,3.797-20.324,1.604-5.064,4.042-9.751,7.759-13.59,4.166-4.302,9.439-7.26,14.849-9.713.984-.446,1.223-1.873.718-2.736-.592-1.011-1.749-1.165-2.736-.718-5.214,2.364-10.257,5.229-14.461,9.162-4.116,3.85-7.129,8.65-9.089,13.916-2.481,6.664-3.64,13.824-4.493,20.857-.907,7.477-1.102,15.011-1.274,22.533-.177,7.739-.099,15.68,3.414,22.767,1.143,2.306,4.595.282,3.454-2.019h0Z"/><path class="f" d="M233.764,94.83c6.908,2.657,14.458,4.976,18.691,11.553,2.907,4.515,4.469,10.108,5.545,15.319,1.208,5.851,1.751,11.861,2.531,17.781.915,6.938,1.831,13.876,2.743,20.815.141,1.071.818,2,2,2,.971,0,2.142-.921,2-2-.859-6.53-1.72-13.06-2.582-19.59-.823-6.239-1.423-12.559-2.576-18.747-1.06-5.688-2.761-11.613-5.645-16.667-2.389-4.187-6.151-7.439-10.371-9.697-3.572-1.911-7.5-3.171-11.275-4.623-1.008-.388-2.194.428-2.46,1.397-.31,1.128.385,2.071,1.397,2.46h0Z"/><path class="f" d="M183.221,137.022c-1.044,5.505-2.089,11.01-3.133,16.514-.201,1.06.296,2.158,1.397,2.46.977.268,2.258-.33,2.46-1.397,1.044-5.505,2.089-11.01,3.133-16.514.201-1.06-.296-2.158-1.397-2.46-.977-.268-2.258.33-2.46,1.397h0Z"/><path class="f" d="M186.499,95.58c.111-.048.652-.315.131-.058.168-.083.351-.146.524-.216.377-.154.756-.304,1.135-.452.84-.328,1.684-.645,2.53-.956,1.792-.659,3.594-1.291,5.399-1.911.987-.339,1.744-1.388,1.397-2.46-.317-.979-1.401-1.761-2.46-1.397-3.591,1.233-7.189,2.483-10.674,3.996-.963.418-1.255,1.903-.718,2.736.644.999,1.706,1.165,2.736.718h0Z"/><path class="f" d="M194.454,92.4c6.248,8.489,14.66,15.029,23.949,19.91.58.305,1.451.433,2.019,0,2.872-2.189,5.239-4.606,7.351-7.554,2.422-3.381,4.503-7.041,6.542-10.661,1.265-2.246-2.189-4.264-3.454-2.019-1.897,3.369-3.841,6.75-6.034,9.937-1.054,1.532-2.2,3-3.496,4.336-1.113,1.148-1.711,1.58-2.928,2.507h2.019c-8.644-4.542-16.685-10.556-22.514-18.475-.639-.869-1.734-1.304-2.736-.718-.857.501-1.361,1.862-.718,2.736h0Z"/><path class="f" d="M209.169,71.758c-.22.505-.428.997-.517,1.542s-.159,1.088-.111,1.64c-.01.275.047.532.172.771.081.248.219.463.414.644.181.195.396.333.644.414.238.125.495.183.771.172l.532-.071c.339-.095.633-.266.883-.514l.313-.405c.181-.312.272-.648.273-1.009-.029-.325-.022-.65.019-.974l-.071.532c.053-.388.154-.766.304-1.127l-.202.478c.01-.024.02-.048.031-.072.146-.23.225-.477.237-.744.06-.266.048-.532-.036-.798-.062-.26-.181-.487-.358-.68-.141-.218-.328-.389-.561-.515-.464-.245-1.026-.368-1.541-.202l-.478.202c-.301.178-.54.417-.718.718h0Z"/><path class="f" d="M299.906,151.648c-18.283,3.498-36.568,6.993-54.852,10.487-20.957,4.005-41.914,8.008-62.871,12.011-11.422,2.182-22.844,4.363-34.266,6.545-2.526.482-1.456,4.338,1.063,3.857,20.698-3.953,41.396-7.906,62.093-11.86,20.278-3.874,40.556-7.748,60.833-11.625,9.687-1.852,19.375-3.704,29.062-5.558,2.526-.483,1.456-4.339-1.063-3.857h0Z"/><path class="d" d="M280.515,191.42c-10.381,1.104-15.207,1.544-23.584,2.326-5.984.559-11.533,1.304-14.598,2.008-1.23.283-2.791.912-3.603,2.719-.911,2.029-.952,5.342,3.354,5.839l1.337.154c-1.772.699-2.851,1.947-2.952,3.531-.185,2.904,2.397,4.78,6.474,4.348l2.923-.309c-.191.072-.383.143-.383.143-1.325.497-2.501,2.253-2.262,3.695.244,1.469,1.376,2.641,2.978,2.815,1.754.191,13.372-.168,16.923-.306,6.213-.24,13.612.091,18.692.422l6.209,3.591c5.775-5.972,13.057-13.456,19.234-19.498-2.532-2.127-5.317-4.467-5.317-4.467.58-4.638-2.657-9.471-5.977-11.476-6.761-4.082-16.468-10.058-24.171-12.584-1.761-.577-3.476-.885-4.887.317-1.194,1.018-1.221,2.586-.373,3.907.848,1.32,3.006,3.666,4.293,4.928,2.816,2.761,5.19,5.908,5.963,7.62"/><path class="h" d="M434.524,59.233c-8.787-13.518-18.915-17.433-26.108-18.98-.856-.184-1.671-.335-2.437-.464-7.387-1.247-14.634-.361-21.213,1.617-13.787,4.144-20.442,13.488-21.6,15.58-2.243,4.055-3.586,7.189-4.289,12.083,4.138,1.814,8.259,4.012,12.74,4.872,3.253.624,6.597.523,9.895.826.602.055,1.226.132,1.736.455.644.407,1.001,1.134,1.307,1.832,1.815,4.13,3.782,10.292,3.68,15.136,1.206.223,2.938.562,3.539.648l.592.085c.772-.525,1.632-.903,2.685-1.068,1.803-.284,3.498.097,4.725,1.172,1.825,1.6,2.454,4.661,2.111,7.102-.636,4.534-2.679,7.882-5.971,10.207.212.856.382,1.532.382,1.532.673,3.151,2.998,7.949,5.391,10.382,2.54,2.581,9.161,4.664,13.206,5.344l2.758.501c1.879-4.315,7.141-8.302,10.246-11.404,5.576-5.57,13.814-16.55,14.062-32.31.137-8.709-2.782-17.642-6.667-23.931-.256-.414-.513-.819-.771-1.216Z"/><path class="f" d="M383.603,137.904c-.881-2.41-1.941-4.757-3.15-7.02-.797-1.492-2.23-2.427-3.961-2.27-1.448.131-2.808.399-4.279.368-3.218-.067-6.565-.704-9.542-1.946-2.593-1.081-4.42-3.287-5.421-5.88-1.319-3.415-1.722-7.255-1.929-10.885-.101-1.772-.222-3.252-.965-4.899-.643-1.425-1.65-2.555-2.732-3.659-.624-.636-1.476-1.331-1.205-2.297.381-1.357,1.884-1.775,2.929-2.468,2.348-1.557,3.816-3.929,4.775-6.53,2.447-6.641,1.336-13.888,2.795-20.705.537-2.51-3.318-3.583-3.857-1.063-1.342,6.272-.579,12.795-2.257,19.003-.612,2.265-1.629,4.737-3.73,6.004-1.389.838-2.695,1.524-3.654,2.896-.923,1.322-1.342,3.083-.885,4.653.803,2.759,3.748,4.054,4.578,6.828.432,1.446.253,3.216.402,4.722.195,1.959.46,3.92.866,5.847.727,3.452,2.058,6.879,4.617,9.398,2.217,2.183,5.18,3.276,8.149,4.011,3.622.897,7.482,1.297,11.18.663.14-.024.341-.102.481-.093.392.026.027-.026.009-.04-.033-.027.141.285.195.391.181.355.369.707.55,1.062.824,1.615,1.559,3.266,2.181,4.969.876,2.398,4.743,1.362,3.857-1.063h0Z"/><path class="f" d="M360.619,71.227c.516-5.08,2.073-10.156,5.007-14.388.188-.272.384-.539.583-.803.044-.059-.104.125.119-.151.161-.2.323-.4.488-.597.629-.752,1.293-1.475,1.984-2.171,1.751-1.764,3.668-3.346,5.736-4.723,10.659-7.098,24.7-9.046,36.916-5.286,11.317,3.483,20.204,12.919,24.856,23.614,5.65,12.989,4.5,27.774-2.9,39.801-2.64,4.291-5.941,7.916-9.644,11.305-2.416,2.211-4.853,4.466-6.692,7.2-1.662,2.469-2.238,4.984-1.995,7.912.126,1.517.316,3.037.601,4.533.481,2.526,4.337,1.456,3.857-1.063-.466-2.444-1.03-5.359-.033-7.58,1.35-3.008,4.036-5.36,6.413-7.55,3.94-3.629,7.529-7.399,10.439-11.927,8.039-12.513,9.782-28.112,4.481-42.04-4.618-12.132-14.104-22.93-26.458-27.436-12.566-4.583-27.372-3.127-39.022,3.337-8.748,4.854-15.613,12.578-17.883,22.478-.418,1.822-.664,3.68-.853,5.537-.109,1.076.997,2,2,2,1.172,0,1.89-.921,2-2h0Z"/><path class="f" d="M392.603,95.278c1.713-1.545,4.792-2.393,6.367-.172,1.466,2.068,1.092,4.891.41,7.162-1.392,4.638-5.187,7.422-9.664,8.823-2.448.766-1.403,4.629,1.063,3.857,4.831-1.512,9.305-4.396,11.495-9.12,2.153-4.645,2.995-12.303-2.421-15.166-3.436-1.817-7.335-.686-10.078,1.788-1.916,1.728.92,4.549,2.828,2.828h0Z"/><path class="f" d="M360.962,86.857c-.752,1.688-.965,5.772,2.147,6.534,4.179.527,5.064-4.328,3.97-6.81-.896-2.033-4.173-3.263-6.117.276Z"/><path class="f" d="M394.369,112.398c.542,2.43,1.584,4.796,2.798,6.961,1.144,2.039,2.525,4.004,4.424,5.4,1.826,1.344,3.998,2.231,6.119,2.991,2.16.774,4.391,1.381,6.653,1.771,1.063.183,2.154-.283,2.46-1.397.264-.962-.327-2.276-1.397-2.46-3.906-.673-8.159-1.836-11.462-4.106-.514-.353-1.131-.957-1.673-1.64-.634-.799-1.172-1.69-1.671-2.579-1.057-1.885-1.924-3.891-2.395-6.006-.56-2.511-4.417-1.449-3.857,1.063h0Z"/><path class="f" d="M354.857,109.385c.259.066.515.139.767.229.085.03.226.057.297.112-.296-.232-.108-.043.026.022.209.101.414.212.612.332.109.066.215.134.32.205.194.131.229.136.018-.004.178.118.339.283.492.431.085.082.167.167.247.254.044.048.32.345.11.115-.203-.222.056.087.081.125.048.073.094.148.138.224.053.093.094.195.15.286.11.177-.161-.532-.016-.014.033.116.07.231.099.348,0-.003.101.528.06.259-.04-.266.017.259.017.259.006.107.009.214.009.32,0,.133-.018.268-.016.4.004.239.084-.351-.003.026-.056.241-.138.475-.196.714-.05.204.147-.246-.032.075-.073.131-.139.264-.216.393-.075.125-.16.242-.237.365.09-.144.16-.185.013-.027-.19.203-.379.402-.589.585-.085.074-.172.147-.261.217.348-.271-.111.062-.15.088-.866.584-1.329,1.788-.718,2.736.556.863,1.809,1.343,2.736.718,1.375-.927,2.469-2.07,3.119-3.61.627-1.486.715-3.202.275-4.757-.779-2.748-3.428-4.609-6.089-5.285-1.013-.257-2.217.329-2.46,1.397-.237,1.039.312,2.185,1.397,2.46h0Z"/><path class="h" d="M350.407,268.141l-6.308-.329c-11.792-.25-23.486-9.856-32.774-19.934-6.961-7.553-14.163-16.73-20.272-24.474,6.708-6.944,15.791-16.296,22.758-22.98,8.186,7.724,15.585,15.089,23.338,22.116.987-1.955,1.665-3.303,1.665-3.303,2.915-5.791,5.135-29.444,5.962-33.162,1.626-7.317,4.309-13.358,6.639-17.072,3.726-5.941,10.216-11.161,16.34-14.578,2.63-1.467,5.288-2.803,7.983-4.01,3.364-10.326,13.462-15.196,23.281-17.825,7.364-1.972,15.024-3.017,22.63-2.497.664.045,1.35.109,1.931.433.713.397,1.167,1.126,1.575,1.832,2.144,3.714,1.505,5.118,4.941,11.56,11.142,3.103,17.576,15.239,20.372,24.641,2.793,9.392,4.4,21.845,4.307,33.019l-2.938,27.829s-80.425,25.08-81.211,26.65c-1.343,2.68-3.077,5.14-5.466,7.308-2.571,2.333-6.957,4.446-11.306,4.954l-3.448-.18Z"/><path class="f" d="M429.778,138.571c-.681-1.791-1.191-3.641-1.966-5.395-.771-1.745-1.772-3.702-3.581-4.541-2.055-.953-4.885-.692-7.1-.671-2.381.023-4.759.187-7.122.472-8.361,1.006-17.134,3.069-24.438,7.422-3.759,2.241-7.033,5.191-9.392,8.894-1.387,2.177,2.073,4.186,3.454,2.019,3.624-5.689,9.825-9.007,16.062-11.095,7.621-2.552,15.773-3.932,23.816-3.687.853.026,2.273-.159,3.062.265.647.348,1.059,1.448,1.372,2.067.853,1.688,1.307,3.552,1.977,5.315.384,1.009,1.348,1.702,2.46,1.397.967-.266,1.783-1.445,1.397-2.46h0Z"/><path class="f" d="M429.61,145.866c7.365,2.131,12.4,8.44,15.717,15.043,3.681,7.329,5.366,15.637,6.407,23.715.724,5.62,1.079,11.29,1.043,16.956-.016,2.574,3.984,2.577,4,0,.065-10.288-1.032-20.748-3.597-30.723-1.999-7.777-5.333-15.479-10.841-21.433-3.183-3.44-7.145-6.107-11.666-7.415-2.477-.717-3.535,3.142-1.063,3.857h0Z"/><path class="f" d="M418.35,139.615c-10.433.093-20.889,1.385-30.911,4.345-9.431,2.786-19.038,6.866-26.937,12.801-4.118,3.094-7.923,6.698-10.707,11.065-2.424,3.801-4.171,8.093-5.519,12.381-1.822,5.796-2.339,11.761-3.153,17.754-.544,4.003-1.12,8.006-1.866,11.978-.313,1.664-.653,3.325-1.078,4.964-.173.669-.359,1.334-.575,1.991-.101.308-.211.612-.326.915-.023.062-.16.384-.049.129.117-.268-.119.243-.142.291-1.132,2.302,2.316,4.331,3.454,2.019s1.69-4.884,2.207-7.386c.684-3.312,1.208-6.657,1.694-10.003.493-3.389.934-6.786,1.377-10.182.272-2.089.411-3.728.85-5.902.925-4.58,2.491-9.138,4.566-13.324,2.011-4.056,4.711-7.52,8.066-10.56,7.208-6.532,16.518-10.869,25.664-13.955,10.769-3.634,22.041-5.22,33.384-5.321,2.573-.023,2.579-4.023,0-4h0Z"/><path class="f" d="M340.445,222.818c-8.623-7.704-16.814-15.871-25.22-23.808-.797-.753-2.03-.767-2.828,0-7.775,7.468-15.269,15.228-22.758,22.98-.816.844-.68,1.966,0,2.828,7.037,8.92,14.072,17.854,21.836,26.16,6.483,6.936,13.528,13.565,22.412,17.261,4.037,1.68,8.493,2.815,12.879,2.952,3.52.11,7.292-.035,10.587-1.344,2.307-.917,4.604-1.724,6.694-3.108s3.892-3.143,5.433-5.125c3.001-3.859,4.755-8.454,6.055-13.126,3.621-13.019,5.739-26.551,6.85-40.005.212-2.565-3.789-2.552-4,0-.959,11.621-2.816,23.152-5.563,34.484-1.11,4.58-2.272,9.258-4.617,13.387-2.293,4.038-5.606,7.117-9.909,8.902-1,.415-2.029.757-3.026,1.17-.283.117.494-.154-.063.016-.128.039-.255.078-.385.113-.381.104-.77.18-1.158.248-1.694.296-3.442.373-5.159.399-3.895.059-7.518-.627-11.451-2.011-8.463-2.98-15.223-9.133-21.309-15.516-8.331-8.737-15.805-18.216-23.276-27.685v2.828c7.489-7.752,14.983-15.512,22.758-22.98h-2.828c8.405,7.937,16.596,16.104,25.22,23.808,1.915,1.71,4.753-1.109,2.828-2.828h0Z"/><path class="f" d="M282.518,190.134c-1.65-3.494-4.627-6.269-7.253-9.018-1.036-1.084-2.74-2.5-3.233-3.97-.676-2.017,2.783-.998,3.567-.733,7.868,2.653,15.087,7.271,22.153,11.543,3.725,2.252,6.662,5.869,6.191,10.477-.11,1.076.998,2,2,2,1.173,0,1.89-.921,2-2,.5-4.891-2.287-9.791-6.141-12.644-1.85-1.369-3.966-2.462-5.943-3.637-2.126-1.263-4.264-2.505-6.432-3.696-4.291-2.358-8.79-4.747-13.506-6.139-2.529-.747-5.41-.602-7.085,1.713-1.516,2.097-.833,4.574.621,6.475,3.036,3.972,7.436,7.051,9.608,11.649,1.099,2.326,4.548.298,3.454-2.019h0Z"/><path class="f" d="M373.679,176.478c1.472,4.938,2.329,10.023,2.646,15.164.066,1.078.872,2,2,2,1.031,0,2.067-.916,2-2-.338-5.487-1.217-10.956-2.789-16.227-.734-2.461-4.595-1.413-3.857,1.063h0Z"/><path class="f" d="M280.515,189.42c-7.724.821-15.454,1.566-23.188,2.289-4.415.413-8.841.888-13.21,1.656-3.392.597-6.557,1.683-7.602,5.364-1.067,3.758,1.227,6.982,5.038,7.512,1.068.149,2.148-.26,2.46-1.397.257-.935-.32-2.31-1.397-2.46-.618-.086-1.295-.167-1.823-.527-.291-.198-.413-.439-.48-.632-.092-.266-.063-.246-.07-.336-.008-.103.011-.666-.014-.458.026-.216.09-.428.142-.638.087-.351.088-.314.171-.482.58-1.177,1.641-1.486,2.84-1.742,1.486-.317,2.989-.556,4.491-.775,6.775-.989,13.624-1.457,20.436-2.122,4.07-.397,8.138-.819,12.204-1.251,1.074-.114,2-.838,2-2,0-.993-.919-2.115-2-2h0Z"/><path class="f" d="M267.539,200.077c-5.294.164-10.575.534-15.84,1.112-2.417.265-4.89.462-7.28.915-2.004.38-4.071,1.429-5.148,3.231-2.146,3.592.19,7.772,3.999,8.763,1.98.515,3.97.212,5.967.013s3.996-.387,5.996-.568c4.283-.388,8.571-.78,12.865-1.021,2.56-.144,2.576-4.145,0-4-6.695.376-13.386,1.027-20.056,1.71-1.683.172-6.479.504-5.501-2.507.406-1.251,2.133-1.642,3.262-1.82,2.088-.329,4.207-.535,6.308-.762,5.128-.555,10.273-.907,15.428-1.067,2.568-.08,2.579-4.08,0-4h0Z"/><path class="f" d="M248.474,210.454c-3.711,1.652-4.356,6.864-1.051,9.245,1.884,1.358,4.466,1.06,6.666,1.034,5.918-.071,11.835-.435,17.752-.43,4.662.003,9.323.204,13.974.504,2.57.166,2.56-3.835,0-4-6.658-.43-13.313-.608-19.982-.375-4.678.163-9.368.347-14.049.312-.861-.006-1.549.108-2.093-.316-1.073-.838-.151-2.096.801-2.519.987-.439,1.22-1.877.718-2.736-.595-1.017-1.746-1.159-2.736-.718h0Z"/><path class="f" d="M360.495,71.983c3.278,1.5,6.604,3.046,10.149,3.797,1.862.394,3.769.571,5.666.681,1.755.102,3.667-.024,5.393.325,1.109.225,1.504,2.155,1.867,3.108.563,1.479,1.062,2.983,1.484,4.508.813,2.937,1.386,5.972,1.105,9.029-.099,1.077.99,2,2,2,1.164,0,1.9-.92,2-2,.311-3.379-.35-6.846-1.247-10.092-.455-1.645-.999-3.266-1.618-4.856-.578-1.487-1.119-3.341-2.333-4.447-1.453-1.323-3.488-1.299-5.338-1.406-2.045-.119-4.104-.144-6.138-.404-3.872-.494-7.453-2.088-10.97-3.697-.982-.449-2.153-.28-2.736.718-.503.86-.269,2.285.718,2.736h0Z"/><path class="d" d="M471.419,250.731c0-15.113.386-20.032.554-46.147.051-7.863-7.379-13.629-14.979-11.612-15.997,4.244-37.143,9.785-57.461,15.208-6.925,1.848-11.754,8.105-11.797,15.273-.134,22.028-.323,34.324-.323,58.743"/><path class="f" d="M473.419,250.731c.002-9.394.232-18.784.37-28.176.05-3.398.09-6.795.123-10.193.02-2.101.037-4.202.052-6.303.013-1.833-.017-3.638-.528-5.415-1.814-6.311-8.157-10.706-14.72-9.998-3.585.387-7.174,1.702-10.653,2.622-3.89,1.028-7.78,2.054-11.67,3.081-8.446,2.228-16.892,4.457-25.334,6.697-4.237,1.124-8.56,2.092-12.742,3.407-3.172.997-6.1,2.881-8.249,5.427s-3.621,5.62-4.105,8.923c-.554,3.778-.257,7.747-.285,11.56-.106,14.39-.236,28.779-.258,43.169-.003,2.222-.005,4.444-.005,6.666,0,2.574,4,2.578,4,0,0-14.224.095-28.447.208-42.67.028-3.481.054-6.961.079-10.442.024-3.426-.295-6.963.853-10.25.947-2.713,2.845-5.169,5.232-6.769,2.988-2.003,6.65-2.589,10.07-3.499,15.722-4.183,31.458-8.315,47.186-12.477,2.966-.785,6.038-2.007,9.137-1.295,2.624.603,4.937,2.221,6.344,4.527,1.831,3.002,1.448,6.404,1.421,9.778-.029,3.552-.065,7.105-.112,10.657-.12,9.095-.359,18.188-.401,27.284-.006,1.231-.008,2.461-.008,3.692,0,2.574,4,2.578,4,0h0Z"/></g></svg>