<?xml version="1.0" encoding="UTF-8"?><svg id="b" xmlns="http://www.w3.org/2000/svg" width="264.637" height="305.4" viewBox="0 0 264.637 305.4"><defs><style>.d{fill:#fff;}.e{fill:#a0a0a0;}.f{fill:#211715;}.g{fill:#645d5c;}</style></defs><g id="c"><path class="f" d="M2.318,275.184c2.682,0,5.363,0,8.045,0,6.443,0,12.885,0,19.328,0,9.254,0,18.509,0,27.763,0,11.219,0,22.437,0,33.656,0,12.242,0,24.484,0,36.726,0,12.31,0,24.62,0,36.931,0,11.552,0,23.104,0,34.656,0,9.837,0,19.675,0,29.512,0,7.19,0,14.38,0,21.57,0,3.681,0,7.362,0,11.043,0,.257,0,.513,0,.77,0,3.089,0,3.094-4.8,0-4.8-2.686,0-5.372,0-8.059,0-6.446,0-12.892,0-19.338,0-9.257,0-18.514,0-27.771,0-11.22,0-22.441,0-33.661,0-12.243,0-24.485,0-36.728,0-12.31,0-24.62,0-36.93,0-11.55,0-23.101,0-34.651,0-9.835,0-19.67,0-29.505,0-7.187,0-14.374,0-21.56,0-3.677,0-7.354,0-11.03,0-.255,0-.511,0-.766,0-3.089,0-3.094,4.8,0,4.8h0Z"/><path class="d" d="M89.751,97.002c-1.396-.207-2.719-.836-3.721-1.655-3.571-2.922-5.052-6.996-5.956-9.659-1.277-3.761-1.357-9.839.545-13.138.637-1.105,2.118-2.987,5.598-3.11,1.599-.056,3.468.444,4.855,1.777,0,0-7.09-45.041,44.466-45.041s39.984,45.041,39.984,45.041c1.387-1.333,3.256-1.833,4.855-1.777,3.48.123,4.96,2.005,5.598,3.11,1.902,3.299,1.822,9.377.545,13.138-.904,2.663-2.385,6.738-5.956,9.659-1.471,1.204-3.637,1.997-5.707,1.647l-.393-.066c-.676,1.972-1.522,3.726-1.807,4.592-1.482,4.022-9.881,18.444-20.375,23.388.195,2.119.276,3.555.537,5.826.34,2.961.709,5.165,4.555,7.041.265.097,13.162,6.13,13.957,6.395,0,0-4.677,18.432-38.032,18.432s-38.032-18.432-38.032-18.432c.795-.265,13.692-6.298,13.957-6.395,3.846-1.876,4.215-4.081,4.555-7.041.255-2.22.338-3.642.522-5.679-4.689-2.414-9.026-6.136-12.853-10.717-4.879-5.84-7.746-12.112-9.387-17.412-.763.176-1.546.189-2.306.077Z"/><path class="g" d="M81.252,98.684c.662-2.082,1.557-3.877,2.624-5.511.62.764,1.331,1.499,2.154,2.172,1.548,1.266,3.863,2.078,6.027,1.579,1.641,5.301,4.507,11.572,9.387,17.412,3.828,4.581,8.165,8.304,12.855,10.718-.185,2.039-.269,3.461-.523,5.678-.118,1.029-.24,1.967-.51,2.831-3.191,1.237-8.336,3.236-8.336,3.236-4.22,1.615-7.58,2.742-10.735,3.152-12.907,1.676-20.721-4.7-19.427-6.783,4.023-1.363,6.777-7.583,6.58-11.82-.213-4.237-1.281-8.572-1.347-12.808-.033-1.954.066-3.728.263-5.337.217-1.656.552-3.15.988-4.52Z"/><path class="f" d="M171.967,141.856c-.507-.177.594.268.166.075-.229-.103-.459-.202-.689-.304-.695-.311-1.388-.628-2.08-.945-1.807-.828-3.61-1.663-5.413-2.499-1.491-.691-2.981-1.385-4.474-2.073-.294-.136-.587-.273-.883-.403-1.218-.536-.489-.255-.299-.149-.179-.099-.361-.191-.538-.294-.317-.184-.638-.379-.927-.605.209.164-.278-.273-.342-.337-.105-.106-.203-.217-.303-.328-.179-.198.139.266-.072-.106-.067-.119-.145-.23-.211-.349-.031-.055-.274-.555-.14-.254.125.282-.037-.107-.06-.178-.051-.16-.103-.318-.147-.48-.072-.264-.129-.532-.18-.8-.026-.138-.046-.277-.071-.416-.126-.695.051.495-.033-.227-.205-1.775-.355-3.553-.507-5.333-.11-1.292-1.024-2.4-2.4-2.4-1.213,0-2.511,1.101-2.4,2.4.145,1.705.279,3.41.48,5.11.156,1.319.306,2.648.806,3.888.586,1.45,1.476,2.648,2.711,3.612.687.536,1.41,1.016,2.2,1.387.257.121,1.172.628.026.011.015.008.033.013.049.021.062.032.127.057.19.086,3.29,1.536,6.588,3.057,9.887,4.573,1.438.66,2.882,1.423,4.378,1.947,1.223.428,2.626-.487,2.952-1.676.364-1.324-.448-2.522-1.676-2.952h0Z"/><path class="f" d="M95.902,146.484c1.28-.448,2.519-1.094,3.75-1.658,1.922-.881,3.841-1.77,5.759-2.659,1.488-.69,2.975-1.384,4.465-2.069.149-.068.303-.13.448-.205.308-.158-.502.211-.466.195.571-.248,1.12-.504,1.651-.83,1.335-.821,2.558-1.915,3.328-3.298.774-1.391,1.044-2.892,1.244-4.449.242-1.882.388-3.773.549-5.662.11-1.293-1.182-2.4-2.4-2.4-1.39,0-2.289,1.103-2.4,2.4-.139,1.629-.267,3.259-.454,4.884-.018.155-.129.95-.054.464-.038.244-.075.488-.123.73-.053.268-.113.533-.187.795-.051.18-.365.914-.136.457-.106.212-.219.416-.339.62-.033.056-.283.409-.113.184.174-.23-.115.127-.16.173-.548.566-.676.67-1.426,1.105-.125.073-.287.133-.4.221-.442.345.712-.28-.15.101-.116.051-.235.098-.351.149-.149.065-.296.135-.444.202-3.215,1.476-6.418,2.979-9.633,4.456-.831.382-1.661.763-2.495,1.137-.264.119-.529.235-.794.353-.599.266.549-.2.058-.028-1.223.428-2.036,1.641-1.676,2.952.326,1.186,1.723,2.107,2.952,1.676h0Z"/><path class="e" d="M235.296,246.991c-1.924-13.299-5.102-26.371-8.705-39.299-3.001-10.769-5.522-22.756-10.23-33.212-7.75-17.211-27.692-23.926-44.098-30.483-4.214-1.636-6.249-2.429-10.172-3.94.09-.24.173-.446.238-.569.657-1.675-.193-3.998-1.348-5.263-1.962-2.149-4.435-5.257-6.441-7.379-.794.608-15.937,10.794-19.059,12.891l-4.422-.035c-3.228-2.168-18.216-12.251-19.007-12.856-2.006,2.122-4.479,5.23-6.441,7.379-1.155,1.265-2.005,3.588-1.348,5.263,0,0,0,.002,0,.002l-.302-.002s-29.97-1.719-43.311,19.114c-14.667-5.667-19.533,3.994-19.533,3.994-9.886,15.943-17.429,33.337-22.31,51.45-2.56,9.498-4.229,20.245.84,28.675,5.08,8.447,16.115,12.127,25.799,10.288,9.684-1.839,17.976-8.354,23.945-16.198v39.509h138.833c6.258-.001,11.641-1.64,14.996-3.416,3.592-1.902,6.297-5.131,8.657-8.513,3.402-4.875,4.276-11.459,3.417-17.4Z"/><path class="g" d="M150.758,38.951c-12.963,11.808-40.162,25.309-60.185,31.836-1.317-1.013-2.942-1.399-4.357-1.349-2.765.097-4.268,1.306-5.096,2.354-7.103-24.388.535-43.273,11.881-54.135,6.745-6.457,21.945-15.255,39.022-15.255,9.642,0,16.643,1.623,23.214,4.128,11.891,6.231,11.64,6.119,17.083,11.371,5.153,4.971,8.757,11.485,11.293,18.122,2.022,5.291,3.671,11.107,3.969,16.781.368,6.989.071,12.694-1.92,19.251-.773-1.096-2.287-2.511-5.288-2.617-1.447-.051-3.115.354-4.447,1.42-6.179-3.613-12.891-8.872-17.441-15.982-2.442-3.816-5.486-10.016-7.73-15.159"/><path class="f" d="M152.843,128.542c2.204,2.354,4.474,4.825,6.441,7.379.328.426.586.898.736,1.419.086.299.108.498.138.796.016.155-.036.615.061.215-.182.751-.617,1.531-.861,2.277-1.675,5.124-3.111,10.361-5.446,15.239l3.284-.861c-4.13-1.889-7.758-4.969-11.18-7.899-3.231-2.765-6.403-5.646-9.324-8.741l-.486,3.769c3.32-2.226,6.633-4.461,9.947-6.695,3.196-2.155,6.517-4.204,9.598-6.522,1.034-.778,1.569-2.073.861-3.284-.596-1.019-2.242-1.645-3.284-.861-3.081,2.318-6.403,4.367-9.598,6.522-3.314,2.235-6.627,4.47-9.947,6.695-1.301.873-1.596,2.594-.486,3.769,3,3.177,6.262,6.133,9.586,8.964,3.639,3.099,7.507,6.422,11.89,8.426,1.102.504,2.681.399,3.284-.861,2.612-5.456,4.175-11.264,6.122-16.966.073-.215.499-1.287.143-.462.337-.782.582-1.506.625-2.374.084-1.726-.509-3.535-1.478-4.954-.988-1.448-2.305-2.717-3.44-4.052-1.244-1.463-2.48-2.932-3.793-4.334-2.116-2.259-5.505,1.14-3.394,3.394Z"/><path class="f" d="M110.355,125.148c-1.313,1.402-2.549,2.871-3.793,4.334-1.134,1.334-2.45,2.606-3.44,4.052-.968,1.413-1.567,3.233-1.478,4.954.046.89.285,1.572.624,2.374-.36-.852.069.251.141.462,1.93,5.703,3.47,11.512,6.08,16.966.598,1.249,2.187,1.362,3.284.861,4.389-2.006,8.265-5.329,11.913-8.427,3.332-2.829,6.605-5.783,9.608-8.963,1.11-1.176.816-2.897-.486-3.769-3.32-2.226-6.633-4.461-9.947-6.695-3.196-2.155-6.517-4.204-9.598-6.522-1.037-.78-2.683-.166-3.284.861-.718,1.228-.178,2.502.861,3.284,3.081,2.318,6.403,4.367,9.598,6.522,3.314,2.235,6.627,4.47,9.947,6.695l-.486-3.769c-2.925,3.098-6.109,5.977-9.347,8.742-3.43,2.929-7.068,6.008-11.202,7.898l3.284.861c-2.332-4.874-3.747-10.115-5.405-15.239-.234-.724-.667-1.503-.836-2.233-.005-.021.022.311.046-.083.017-.279.024-.522.086-.793.133-.578.404-1.11.762-1.58.941-1.235,2.078-2.368,3.086-3.553,1.104-1.299,2.21-2.598,3.376-3.843,2.11-2.253-1.277-5.654-3.394-3.394Z"/><path class="f" d="M122.629,159.253c.016,11.077.007,22.155.008,33.232,0,5.763,0,11.526.001,17.289,0,3.089,4.8,3.094,4.8,0,0-15.385,0-30.77-.006-46.155,0-1.455,0-2.91-.003-4.366-.004-3.088-4.804-3.094-4.8,0h0Z"/><path class="f" d="M139.154,158.79c.016,10.589.007,21.177.008,31.766,0,5.518,0,11.036.001,16.555,0,3.089,4.8,3.094,4.8,0,0-14.713,0-29.425-.006-44.138,0-1.394,0-2.788-.003-4.183-.005-3.088-4.805-3.094-4.8,0h0Z"/><path class="f" d="M156.295,179.571c8.58,0,17.16,0,25.741,0,3.089,0,3.094-4.8,0-4.8-8.58,0-17.16,0-25.741,0-3.089,0-3.094,4.8,0,4.8h0Z"/><path class="f" d="M80.852,93.553c-3.156,5.899-3.722,12.695-2.92,19.251.392,3.207,1.29,6.628.987,9.87-.202,2.165-1.121,4.546-2.489,6.296-.586.75-1.263,1.366-2.086,1.792-.9.466-1.749.952-2.024,2.169-.376,1.667.558,3.227,1.675,4.381,2.831,2.923,7.248,4.35,11.162,4.935,3.453.516,6.908.472,10.355-.079s6.792-1.808,10.055-3.053c1.21-.462,2.043-1.617,1.676-2.952-.319-1.159-1.735-2.141-2.952-1.676-3.353,1.279-6.816,2.628-10.396,3.105-3.131.417-6.404.353-9.488-.35-2.349-.536-4.222-1.246-6.189-2.594-.404-.277.218.211-.234-.179-.162-.14-.322-.279-.475-.429-.119-.117-.226-.246-.345-.362-.359-.352.229.391.005.016-.088-.147-.173-.303-.265-.447.103.163.175.551.084.155.038.167-.034.77-.151.979l-1.434,1.103c6.365-2.342,8.818-10.067,8.173-16.26-.447-4.283-1.305-8.477-1.159-12.805.122-3.643.849-7.212,2.578-10.444,1.457-2.723-2.685-5.15-4.145-2.423h0Z"/><path class="f" d="M157.451,4.837C149.067,1.458,140.185-.149,131.142.011c-9.437.166-18.737,2.847-27.102,7.146-6.288,3.232-12.102,7.462-16.575,12.975-4.788,5.901-8.211,12.819-9.974,20.217-2.444,10.256-1.733,20.962,1.029,31.077.813,2.976,5.445,1.713,4.629-1.276-2.293-8.397-3.162-17.278-1.585-25.889,1.284-7.009,4.052-13.64,8.264-19.395,3.773-5.155,8.617-9.051,14.108-12.193,7.355-4.207,15.675-7.059,24.149-7.716,9.622-.746,19.168.913,28.089,4.509,1.203.485,2.637-.528,2.952-1.676.377-1.37-.469-2.466-1.676-2.952h0Z"/><path class="f" d="M188.161,72.077c2.641-9.273,2.681-19.575.282-28.902-2.314-8.998-6.299-18.015-12.53-24.997-2.986-3.346-6.401-6.467-10.264-8.764-2.661-1.583-5.078,2.565-2.423,4.145,3.026,1.799,5.516,4.124,7.996,6.632,2.985,3.019,5.355,6.557,7.311,10.313,4.188,8.039,6.648,16.899,6.778,25.966.07,4.878-.441,9.632-1.779,14.331-.848,2.976,3.782,4.247,4.629,1.276h0Z"/><path class="f" d="M148.686,40.93c2.748,6.275,5.679,12.741,9.882,18.194s9.641,9.89,15.539,13.45c2.651,1.601,5.067-2.548,2.423-4.145-5.442-3.285-10.554-7.364-14.389-12.479-3.93-5.243-6.696-11.471-9.31-17.443-.52-1.188-2.258-1.461-3.284-.861-1.225.717-1.383,2.092-.861,3.284h0Z"/><path class="f" d="M149.061,37.254c-5.888,5.335-12.731,9.611-19.613,13.532-8.018,4.569-16.345,8.641-24.859,12.202-4.526,1.893-9.113,3.644-13.767,5.199-2.915.974-1.665,5.612,1.276,4.629,8.749-2.925,17.289-6.509,25.606-10.493,8.324-3.987,16.492-8.4,24.161-13.547,3.693-2.478,7.292-5.139,10.59-8.128,2.294-2.079-1.109-5.465-3.394-3.394h0Z"/><path class="f" d="M125.315,106.729c2.628,1.388,5.456,1.975,8.428,1.956,3.058-.02,6.109-.638,8.553-2.543.995-.775.875-2.591,0-3.394-1.055-.969-2.332-.827-3.394,0,.741-.577.217-.172.027-.05-.167.107-.338.206-.514.298-.091.048-.184.09-.275.137-.192.098-.394.065.145-.053-.236.051-.476.183-.708.257-.647.208-1.311.347-1.982.452.362-.057.081-.013-.124.008-.194.019-.389.035-.584.048-.469.03-.939.042-1.409.039-.421-.003-.842-.017-1.262-.045-.193-.013-.386-.029-.578-.048-.071-.007-.775-.126-.215-.022-.625-.116-1.242-.229-1.852-.411-.259-.078-.512-.171-.768-.258-.592-.202.412.206-.123-.046-.318-.15-.631-.306-.941-.47-1.11-.586-2.66-.318-3.284.861-.586,1.109-.324,2.658.861,3.284h0Z"/><path class="f" d="M132.414,87.016c.362,1.381.71,2.783.917,4.197l-.086-.638c.025.194.035.385.016.579l.086-.638c-.014.09-.033.174-.064.261l.242-.573c-.027.061-.055.112-.092.168l.375-.486c-.043.052-.084.093-.137.135l.486-.375c-.106.068-.218.123-.332.176l.573-.242c-.183.076-.364.132-.56.163l.638-.086c-.177.021-.349.02-.526,0l.638.086c-.198-.028-.393-.076-.591-.103-.319-.1-.638-.114-.957-.043-.319.014-.617.109-.892.285-.498.291-.973.862-1.103,1.434-.14.614-.11,1.304.242,1.849.312.484.835,1.022,1.434,1.103.473.064.933.184,1.414.205.75.033,1.444-.199,2.112-.507.832-.382,1.483-1.144,1.704-2.039.188-.76.109-1.407-.02-2.169-.228-1.352-.541-2.692-.889-4.018-.152-.579-.588-1.133-1.103-1.434s-1.273-.429-1.849-.242c-1.25.404-2.018,1.651-1.676,2.952h0Z"/><path class="f" d="M110.462,75.065c-.701,2.278-.244,7.517,4.071,7.963,5.703-.034,6.006-6.369,4.087-9.347-1.572-2.439-6.194-3.453-8.157,1.384Z"/><path class="f" d="M156.131,75.065c.701,2.278.244,7.517-4.07,7.963-5.703-.034-6.007-6.369-4.087-9.347,1.572-2.438,6.194-3.452,8.157,1.384Z"/><path class="f" d="M172.926,93.398c-.235,1.748-.958,3.484-1.623,5.104-.26.635-.541,1.262-.787,1.902-.085.221-.539,1.324-.22.613-.816,1.823-1.791,3.568-2.837,5.268-3.053,4.958-6.758,9.641-11.291,13.329-2.472,2.011-5.249,3.589-8.325,4.302-3.008.697-1.735,5.327,1.276,4.629,6.511-1.51,11.933-6.256,16.183-11.204,3.512-4.09,6.799-8.692,9.019-13.63,1.479-3.289,2.924-6.726,3.406-10.313.173-1.287-1.227-2.4-2.4-2.4-1.44,0-2.227,1.109-2.4,2.4h0Z"/><path class="f" d="M88.747,93.868c3.053,13.125,11.277,25.863,23.153,32.617,3.211,1.826,6.729,3.151,10.388,3.698,1.28.191,2.58-.321,2.952-1.676.311-1.132-.386-2.76-1.676-2.952-7.902-1.181-14.43-6.047-19.586-11.935-5.247-5.991-8.803-13.291-10.603-21.028-.7-3.007-5.329-1.734-4.629,1.276h0Z"/><path class="f" d="M92.768,69.519c-2.938-2.636-7.2-3.219-10.757-1.472-2.52,1.238-4.006,3.717-4.675,6.364-1.57,6.218-.018,13.308,3.482,18.625,2.404,3.651,6.245,6.976,10.919,6.357,1.285-.17,2.4-.981,2.4-2.4,0-1.165-1.106-2.571-2.4-2.4-3.668.485-6.137-2.605-7.697-5.541-1.252-2.357-2.195-5.042-2.416-7.71-.217-2.627-.181-5.773,1.347-8.028.152-.212.151-.213-.002-.003.098-.116.2-.227.307-.335.044-.042.52-.455.286-.278.522-.395,1.073-.612,1.713-.748,1.442-.306,2.984-.036,4.098.964,2.294,2.057,5.699-1.326,3.394-3.394h0Z"/><path class="f" d="M177.218,72.913c1.113-.999,2.657-1.27,4.098-.964.639.136,1.192.354,1.713.748-.215-.163.29.282.286.278.107.108.209.22.307.335-.153-.21-.154-.209-.002.003,1.528,2.254,1.564,5.401,1.347,8.028-.221,2.67-1.165,5.351-2.416,7.71-1.557,2.938-4.03,6.026-7.697,5.541-1.287-.17-2.4,1.225-2.4,2.4,0,1.438,1.109,2.229,2.4,2.4,7.611,1.007,12.27-7.368,14.119-13.514.991-3.293,1.095-6.906.529-10.283-.466-2.782-1.69-5.404-4.051-7.044-3.526-2.447-8.526-1.816-11.628.966-2.304,2.067,1.099,5.452,3.394,3.394h0Z"/><path class="f" d="M162.268,142.685c9.713,3.747,19.635,7.263,28.971,11.896,8.866,4.399,17.401,10.238,22.12,19.206,2.929,5.566,4.741,11.791,6.442,17.819,1.765,6.254,3.337,12.561,5.057,18.827,1.863,6.785,3.597,13.608,5.082,20.486.751,3.478,1.439,6.971,2.048,10.477.552,3.178,1.186,6.389,1.215,9.625.028,3.191-.467,6.494-1.817,9.41-1.316,2.842-3.404,5.482-5.647,7.651-4.553,4.403-11.374,5.796-17.514,5.837-3.088.021-3.094,4.821,0,4.8,5.939-.04,12.56-1.229,17.599-4.572,2.754-1.827,4.94-4.25,6.916-6.872,1.926-2.556,3.415-5.274,4.269-8.376,1.854-6.727.561-13.499-.646-20.213-1.317-7.324-2.971-14.584-4.819-21.791-1.755-6.844-3.666-13.649-5.466-20.482-1.755-6.662-3.598-13.328-6.188-19.722-2.173-5.366-4.962-10.183-9.027-14.349-3.744-3.837-8.201-6.973-12.854-9.606-5.389-3.05-11.109-5.474-16.847-7.779-5.853-2.351-11.734-4.631-17.619-6.9-1.21-.467-2.633.515-2.952,1.676-.372,1.355.462,2.484,1.676,2.952h0Z"/><path class="f" d="M102.062,161.134c.631.589,1.098,1.282,1.246,2.149.07.411-.015.804-.013,1.191.003.764-.456-.065.13.316.291-.128.495-.031.612.29.242.131.334.315.275.551-.008.355-.629,1.092-1.058.936-.44-.16-.342-.595-.227.089.23,1.368.076,2.895-.104,4.263-.061.462-.113.958-.272,1.398.127-.351.173-.149.026-.114.095-.022-.246-.05-.103.031.392.22,1.191-.09,1.195.799.002.624-1.449.796-1.478,1.527-.016.416.166.909.171,1.35.005.478,0,.97-.068,1.444-.077.537-.226,1.083-.406,1.594-.092.261-.197.504-.322.751-.056.117-.117.23-.185.341-.173.269-.106.221.201-.144h1.276c.42.423.491.443.213.06l-1.025,1.877c-1.185.171-.428-.468-.535.023-.12.549.067,1.222-.087,1.823-.362,1.415-1.117,2.748-2.024,3.886-.807,1.013-.989,2.405,0,3.394.837.837,2.582,1.019,3.394,0,2.238-2.809,4.129-6.31,3.42-10.022-.309-1.616-1.36-3.195-2.981-3.719-1.827-.591-4.031.363-4.653,2.226-.511,1.532.206,3.18,1.364,4.228,1.812,1.641,4.273.873,5.492-1.052,1.664-2.627,2.352-6.71,1.267-9.672-.636-1.736-2.052-3.174-3.99-3.255s-3.644,1.45-3.767,3.386c-.229,3.607,3.823,4.859,6.419,3.009,1.407-1.003,1.878-2.406,2.111-4.057.276-1.953.437-3.879.192-5.844-.229-1.838-1.085-3.492-2.938-4.138-1.69-.589-3.682-.102-4.678,1.456-1.114,1.742-.621,4.151,1.098,5.297,1.686,1.123,3.836.832,5.253-.587,2.894-2.898,1.678-7.935-1.046-10.473-2.258-2.104-5.66,1.282-3.394,3.394h0Z"/><path class="d" d="M54.494,78.188c-1.377,2.951-1.904,6.43-1.293,9.81.44,2.436,1.415,4.737,2.38,7.009.613,1.442,4.331,8.98,4.282,7.609,3.679-1.981,7.714-3.419,11.95-4.584,1.117-.307,2.935-.63,4.037-.272.096.031.191.064.284.098.462-.343.724-.54.724-.54l2.385-1.796c2.781-2.579,3.835-4.166,4.06-5.645.404-2.659.083-3.696-1.082-6.195-1.14-2.447-3.248-5.747-4.565-7.991-.579-.986-1.168-1.985-1.954-2.776-.99-.996-2.237-1.602-3.493-2.033-4.848-1.667-10.274-.842-14.116,2.467-1.497,1.289-2.722,2.957-3.6,4.84Z"/><path class="d" d="M114.965,142.704c-.075-.591-.213-1.179-.44-1.752-.41-1.036-1.091-1.976-1.764-2.9-1.53-2.104-3.795-5.294-5.537-7.169-1.877-2.02-2.648-2.663-5.247-3.355-1.446-.385-3.285-.375-6.761,1.144l-2.354,1.193-2.912,1.476c.049.164.084.319.107.46.509,3.058-.85,4.645-3.197,6.167-2.133,1.383-3.927,2.372-5.881,3.346.249.932.421,1.577.421,1.577.548,2.052,3.714,6.9,4.614,7.851,1.696,1.793,3.386,3.409,5.443,4.786,4.675,3.13,11.062,3.591,15.631,1.392,4.569-2.199,7.494-6.843,7.903-11.953.06-.743.068-1.506-.028-2.263Z"/><path class="d" d="M85.985,128.71c.336,0,.671.022.985.043,2.133.173,2.912,2.014,3.085,3.042.509,3.064-.844,4.655-3.194,6.171-3.215,2.079-5.651,3.269-9.039,4.861.119,2.057.769,4.038,1.234,6.052.433,1.862.714,3.832.249,5.694-.541,2.23-2.338,4.298-4.807,4.211.379,1.992.812,4.027.639,6.062-.162,1.873-.899,3.778-2.371,4.947-.574.455-1.234.779-1.916,1.039-2.263.855-4.828.931-7.091.087-.888-.325-1.721-.801-2.533-1.288-3.962-2.382-7.578-5.337-10.696-8.747-.747-.812-1.505-1.743-1.526-2.847-.022-.909.466-1.743.942-2.512,1.732-2.847,1.743-2.869,5.185-8.531-2.479-7.524-4.958-15.058-7.437-22.582-1.05-3.194-.736-10.241,1.689-13.261,2.403-2.988,5.196-5.359,8.282-7.275,4.244-2.641,9.05-4.438,14.149-5.846,1.115-.303,2.934-.628,4.038-.271,1.819.595,3.15,1.689,3.659,3.464.509,1.765.238,3.67-.346,5.424l.108.812c.725-.097,1.44-.108,1.992.043,1.851.53,3.215,1.591,3.789,3.334.563,1.754.357,3.67-.162,5.434l-.379,1.992c.13.022.26.043.379.076,1.786.52,3.118,1.537,3.67,3.237s.357,3.562-.152,5.272l-2.425,1.862Z"/><path class="f" d="M39.047,161.384c-5.764,9.319-10.713,19.107-14.859,29.249-2.032,4.971-3.857,10.027-5.468,15.151-1.539,4.897-2.993,9.865-3.886,14.926-1.695,9.602-1.182,20.243,6.121,27.531,6.27,6.256,15.663,8.564,24.264,7.231,10.786-1.671,19.786-9.021,26.247-17.45.789-1.03.159-2.687-.861-3.284-1.236-.723-2.492-.171-3.284.861-5.169,6.743-12.247,12.519-20.592,14.666-7.218,1.857-15.643.517-21.368-4.475-6.737-5.874-7.375-15.096-5.97-23.392,1.63-9.619,4.931-19.119,8.496-28.172,4.165-10.576,9.327-20.754,15.305-30.419,1.629-2.635-2.521-5.048-4.145-2.423h0Z"/><path class="f" d="M56.45,101.805c-3.525,2.223-7.102,5.061-9.446,8.56-1.827,2.728-2.291,6.497-2.275,9.701.02,3.931,1.474,7.471,2.688,11.156l4.687,14.232c.962,2.921,5.599,1.67,4.629-1.276-1.406-4.27-2.812-8.539-4.218-12.809-1.091-3.312-2.791-7.029-2.959-10.338-.131-2.584.079-5.688,1.377-7.893.84-1.427,2.191-2.649,3.401-3.762,1.405-1.291,2.926-2.409,4.539-3.426,2.606-1.644.201-5.799-2.423-4.145h0Z"/><path class="f" d="M81.481,107.281c.94-2.954,1.127-6.483-.853-9.066-1.732-2.259-4.518-3.261-7.296-2.905-2.891.37-5.762,1.414-8.477,2.444-2.915,1.105-5.749,2.415-8.406,4.051-2.626,1.617-.218,5.77,2.423,4.145,4.096-2.522,8.577-4.211,13.197-5.497,1.601-.446,3.162-.802,4.432.303,1.299,1.13.901,3.521.351,5.25-.939,2.951,3.694,4.213,4.629,1.276h0Z"/><path class="f" d="M87.207,116.907c.862-3.078.934-6.688-1.254-9.249-1.985-2.323-4.947-2.955-7.841-2.427-2.817.514-5.613,1.737-8.24,2.842-2.948,1.239-5.819,2.65-8.487,4.422-1.078.716-1.542,2.119-.861,3.284.627,1.071,2.199,1.581,3.284.861,4.098-2.722,8.666-4.657,13.333-6.169,1.725-.559,3.338-1.13,4.804-.044,1.497,1.109,1.095,3.563.635,5.205-.834,2.979,3.795,4.251,4.629,1.276h0Z"/><path class="f" d="M90.723,127.483c.848-3.017.891-6.493-1.21-9.017-1.821-2.188-4.654-2.892-7.368-2.458-2.575.412-5.165,1.454-7.58,2.415-2.624,1.045-5.132,2.285-7.485,3.851-1.078.717-1.542,2.119-.861,3.284.626,1.07,2.2,1.582,3.284.861,3.693-2.457,7.73-3.999,11.946-5.308.871-.27,1.675-.494,2.526-.483.435.005-.391-.129.279.028.109.026.548.176.521.165.159.065.757.417.857.5.399.331.665.769.807,1.61.186,1.101-.047,2.219-.344,3.276-.837,2.979,3.793,4.25,4.629,1.276h0Z"/><path class="f" d="M75.458,143.248c.155,1.559.477,3.069.863,4.585.349,1.368.733,2.798.804,4.034.036.633.029,1.359-.065,1.784-.07.313-.156.614-.256.919-.1.264-.106.279-.017.046-.048.101-.099.201-.154.298-.125.228-.26.453-.417.66.279-.369-.296.275-.357.339-.212.181-.22.192-.025.035-.119.083-.242.16-.368.231-.251.123-.257.135-.019.034-.137.052-.277.096-.419.132-1.206.345-2.078,1.71-1.676,2.952.397,1.227,1.659,2.046,2.952,1.676,3.456-.989,5.33-4.265,5.61-7.677.147-1.784-.197-3.615-.612-5.344-.367-1.529-.909-3.361-1.043-4.707-.124-1.245-1.015-2.462-2.4-2.4-1.194.053-2.533,1.062-2.4,2.4h0Z"/><path class="f" d="M50.572,149.874c-.821,1.349-1.642,2.698-2.462,4.048-1.016,1.674-1.88,3.461-1.304,5.464.51,1.777,1.959,3.176,3.217,4.454,1.317,1.338,2.713,2.599,4.177,3.774,2.817,2.262,6.015,4.781,9.529,5.822,3.627,1.074,8.386.408,11.156-2.322,3.384-3.336,2.82-8.272,2.02-12.505-.241-1.274-1.776-1.999-2.952-1.676-1.336.367-1.918,1.674-1.676,2.952.545,2.884,1.352,7.217-2.066,8.637-3.508,1.457-6.505-.079-9.426-2.001-3.029-1.993-5.798-4.358-8.267-7.013-.325-.349-1.003-.901-1.083-1.398-.095-.59.534-1.293.82-1.765.819-1.351,1.641-2.699,2.462-4.048,1.609-2.646-2.54-5.061-4.145-2.423h0Z"/><path class="f" d="M80.572,144.175c2.727-1.308,5.449-2.702,7.939-4.429,2.305-1.599,4-3.714,4.053-6.634.05-2.742-1.256-5.444-3.936-6.435-1.943-.718-4.454-.359-6.413.104-3.043.72-5.913,2.205-8.583,3.794-1.079.642-1.567,2.188-.861,3.284.7,1.086,2.129,1.548,3.284.861,1.16-.69,2.342-1.346,3.562-1.926.248-.118.498-.233.749-.344.104-.046.208-.092.313-.136-.383.162-.036.017.037-.01.478-.181.954-.364,1.442-.52.848-.272,1.702-.451,2.575-.613.265-.049-.238.037-.243.033.017.015.261-.029.31-.033.176-.017.353-.03.53-.039.362-.019.725-.023,1.088-.01.185.007.373.013.558.033-.559-.06.418.16.088.036-.274-.102.016.025.058.04.118.042.35.283-.042-.068.176.157.488.569.201.137.104.157.197.317.293.48.286.487-.065-.314.019.044.034.146.079.299.121.443.015.051.059.308.023.084-.043-.266.024.351.024.347.011.231-.036.489-.007.714.033.254.02-.107.032-.163-.025.12-.044.241-.073.36-.023.096-.23.705-.103.384.117-.295.009-.025-.023.029-.073.124-.145.25-.216.374-.284.494.182-.152-.098.145-.146.155-.287.311-.442.458-.161.153-.334.29-.5.437.347-.306.102-.075.012-.013-.142.098-.281.199-.424.296-2.459,1.658-5.097,3.031-7.767,4.311-1.135.544-1.524,2.256-.861,3.284.752,1.166,2.07,1.443,3.284.861h0Z"/><path class="f" d="M61.309,100.94c.529.646-.042-.106-.161-.3-.232-.377-.446-.766-.659-1.154-.49-.892-.955-1.799-1.411-2.709-.887-1.771-1.716-3.558-2.41-5.415-.997-2.666-1.609-5.397-1.183-8.249.366-2.451,1.378-4.905,3.012-6.784,3.328-3.827,8.99-4.888,13.622-2.934,2.595,1.095,3.714,3.927,5.084,6.204,1.326,2.204,2.888,4.517,3.639,7,.635,2.099.123,3.602-1.211,5.122-1.28,1.457-2.351,2.295-3.984,3.525-1.034.778-1.569,2.073-.861,3.284.596,1.019,2.242,1.645,3.284.861,3.884-2.924,7.841-6.128,7.8-11.42-.025-3.186-1.824-6.188-3.378-8.865-.729-1.256-1.489-2.493-2.236-3.738-.93-1.551-1.803-3.207-3.161-4.436-5.054-4.574-13.965-4.171-19.299-.374-5.553,3.954-8.047,11.052-6.977,17.684.546,3.387,2.01,6.643,3.5,9.715,1.049,2.162,2.061,4.507,3.595,6.378.822,1.003,2.541.853,3.394,0,.992-.992.825-2.389,0-3.394h0Z"/><path class="f" d="M79.087,143.528c.687,2.353,2.132,4.565,3.488,6.581,1.581,2.349,3.566,4.355,5.791,6.105,5.413,4.258,12.81,5.871,19.287,3.068,5.919-2.562,9.715-8.817,9.784-15.205.042-3.893-2.144-6.636-4.331-9.614-1.821-2.48-3.678-5.182-6.093-7.132-2.359-1.905-5.451-2.715-8.434-2.24-2.482.395-4.713,1.579-6.926,2.701-2.756,1.397-.329,5.54,2.423,4.145,1.434-.727,2.804-1.459,4.361-1.901.914-.26,1.529-.392,2.53-.292-.54-.054.628.167.75.202.542.155,1.005.292,1.479.553,1.737.956,3.278,3.091,4.56,4.772.793,1.04,1.56,2.1,2.327,3.158.819,1.13,1.819,2.271,2.283,3.601.782,2.239.041,5.193-.961,7.255-1.073,2.209-2.728,4.046-4.886,5.234-4.433,2.44-10.188,1.49-14.209-1.307-1.346-.936-2.549-2.069-3.699-3.233-.404-.409-.81-.817-1.178-1.259.323.388.079.101.016.013-.195-.269-.387-.54-.574-.814-.695-1.017-1.35-2.065-1.958-3.137-.544-.959-.99-1.801-1.202-2.528-.864-2.959-5.497-1.7-4.629,1.276h0Z"/><path class="d" d="M132.318,187.576c-32.921.238-65.684.429-77.316.469-1.851.006-3.341,1.508-3.334,3.359.067,18.9.979,84.309,1.673,108.35.053,1.836,1.57,3.28,3.406,3.251,10.513-.162,43.074-.062,75.571.049,32.497-.111,65.058-.211,75.571-.049,1.836.028,3.353-1.416,3.406-3.251.694-24.042,1.606-89.451,1.673-108.35.007-1.851-1.483-3.353-3.334-3.359-11.633-.04-44.395-.231-77.316-.469Z"/><path class="f" d="M55.002,185.645c-2.087.112-3.956,1.096-5.009,2.95-.712,1.254-.727,2.629-.72,4.021.009,1.832.022,3.664.037,5.496.04,4.869.092,9.737.148,14.605.145,12.581.32,25.161.515,37.741.189,12.165.394,24.33.656,36.494.052,2.43.107,4.861.167,7.291.053,2.14-.175,4.558.288,6.654.652,2.956,3.28,4.519,6.153,4.503.693-.004,1.386-.013,2.079-.017,5.6-.037,11.201-.044,16.802-.055,8.928-.017,17.855-.026,26.783-.033,10.482-.007,20.963-.01,31.445-.01,10.416,0,20.832.004,31.248.013,8.595.007,17.189.017,25.784.036,5.048.011,10.096.015,15.144.058,1.113.01,2.237.072,3.307-.309,1.916-.682,3.39-2.338,3.756-4.35.207-1.137.152-2.343.182-3.496.128-4.819.232-9.639.33-14.459.255-12.544.461-25.088.65-37.633.183-12.211.349-24.422.481-36.633.049-4.503.094-9.007.124-13.511.014-2.137.361-4.646-.789-6.544-1.279-2.109-3.422-2.808-5.748-2.814-4.793-.011-9.586-.012-14.379-.015-8.424-.005-16.847-.007-25.271-.009-10.38-.002-20.76-.003-31.14-.004-10.629,0-21.259,0-31.888.002-9.31.001-18.62.003-27.93.007-6.264.003-12.527.005-18.791.013-1.47.002-2.941.003-4.411.008-3.088.01-3.094,4.81,0,4.8,4.098-.014,8.195-.012,12.293-.015,7.802-.005,15.603-.008,23.405-.01,9.944-.003,19.888-.004,29.832-.005,10.525,0,21.049,0,31.574,0,9.544.001,19.087.003,28.631.006,7.001.002,14.002.005,21.003.011,2.059.002,4.118.004,6.176.008.551.001,1.196-.089,1.737-.004,1.486.234.906,3.078.899,4.202-.064,9.921-.188,19.842-.317,29.763-.165,12.736-.354,25.471-.569,38.205-.184,10.912-.378,21.825-.653,32.735-.025.997-.051,1.993-.078,2.99-.02.744.2,1.896-.665,2.228-.471.181-1.299.033-1.82.028-1.957-.016-3.914-.024-5.871-.031-6.868-.026-13.736-.037-20.603-.046-9.466-.013-18.932-.02-28.398-.024-10.456-.005-20.912-.005-31.368-.003-9.837.003-19.675.008-29.512.019-7.61.009-15.22.019-22.831.041-2.467.007-4.935.015-7.402.029-.806.004-1.611.009-2.417.016-.641.006-1.647.194-2.086-.325-.453-.535-.257-1.745-.275-2.426-.027-1.014-.054-2.029-.079-3.043-.059-2.356-.112-4.712-.164-7.068-.121-5.576-.228-11.153-.329-16.729-.23-12.728-.427-25.456-.603-38.185-.152-10.964-.292-21.929-.388-32.894-.016-1.849-.031-3.698-.043-5.547-.006-1.013-.555-3.849.919-3.929,3.073-.165,3.092-4.966,0-4.8Z"/><path class="f" d="M67.408,291.506c15.906-.099,31.814-.015,47.72.034,19.249.059,38.496-.03,57.745-.059,7.555-.012,15.111-.022,22.666.025,3.089.019,3.093-4.781,0-4.8-15.537-.097-31.075-.014-46.612.035-19.448.061-38.895-.032-58.343-.06-7.725-.011-15.451-.023-23.176.025-3.088.019-3.094,4.819,0,4.8h0Z"/><path class="f" d="M122.669,235.324c-.004,2.034-.006,4.068-.002,6.102.004,2.233-.323,4.72,1.412,6.444,1.683,1.672,4.02,1.377,6.185,1.374,2.003-.002,4.006-.002,6.009.003,1.142.003,2.243-.034,3.27-.608,1.097-.612,1.996-1.748,2.271-2.981.237-1.064.151-2.212.154-3.296.003-1.071.004-2.142.004-3.214,0-.979,0-1.958-.003-2.937-.002-1.189-.055-2.346-.717-3.386-.736-1.157-1.945-1.976-3.306-2.159-.925-.124-1.864-.077-2.796-.077-2.235,0-4.469,0-6.704,0-1.268,0-2.518.028-3.613.767-1.363.92-2.091,2.335-2.164,3.966-.056,1.256,1.144,2.456,2.4,2.4,1.348-.06,2.34-1.055,2.4-2.4l.009-.202c-.042.311-.029.332.038.065l-.086.225c.144-.226.13-.217-.044.027l.067-.067c.125-.119.085-.094-.122.076.587-.217-.458.193.124-.068l-.25.02c.127-.008.254-.011.381-.009.124-.001.248,0,.371,0,.403,0,.805,0,1.208,0,1.664,0,3.327,0,4.991,0,.777,0,1.553,0,2.33,0,.309,0,.636-.024.944.009l-.25-.02c.26.084.247.074-.039-.03.226.144.218.129-.026-.045l.134.133-.142-.189c.13.236.134.215.013-.062l.057.185c-.021-.317-.024-.333-.01-.048-.005.331.001.662.002.992.001.826.002,1.651.002,2.477,0,1.707-.001,3.414-.011,5.121-.001.204-.007.409-.004.614-.008-.508.013-.049-.051.136.118-.34-.042-.12-.016-.064l.14-.19c-.195.182-.178.178.053-.012l-.163.097c.255-.093.299-.113.13-.06-.371.072.593.029-.045.015-.377-.008-.755-.002-1.132-.003-1.636-.004-3.271-.004-4.907-.003-.801,0-1.602.001-2.402.003-.325,0-.649.001-.974.002-.187,0-.375.009-.562-.007.278.041.331.038.157-.007-.168-.053-.125-.033.13.06l-.163-.097c.23.19.248.194.053.012.172.245.186.254.041.028l.084.225c-.064-.184-.043-.644-.051-.136.004-.275-.004-.551-.005-.826-.005-.917-.007-1.835-.008-2.752-.003-1.875,0-3.75.003-5.625.003-1.255-1.106-2.458-2.4-2.4-1.303.058-2.397,1.054-2.4,2.4Z"/></g></svg>